<svg width="17" height="17" viewBox="0 0 17 17" fill="none" xmlns="http://www.w3.org/2000/svg">
<path d="M5.58042 4.96689L1.26313 5.59283L1.18666 5.6084C1.0709 5.63912 0.965377 5.70002 0.880856 5.78488C0.796336 5.86973 0.735849 5.97549 0.705573 6.09137C0.675297 6.20724 0.676316 6.32908 0.708527 6.44443C0.740738 6.55978 0.802986 6.66452 0.888914 6.74794L4.01658 9.79238L3.27899 14.0928L3.27019 14.1672C3.26311 14.2869 3.28797 14.4064 3.34223 14.5133C3.39649 14.6203 3.4782 14.7109 3.57899 14.7759C3.67979 14.8409 3.79604 14.8779 3.91586 14.8832C4.03567 14.8885 4.15474 14.8618 4.26087 14.806L8.12207 12.7759L11.9745 14.806L12.0421 14.8371C12.1538 14.8811 12.2752 14.8946 12.3939 14.8762C12.5125 14.8578 12.6241 14.8082 12.7172 14.7324C12.8103 14.6566 12.8816 14.5575 12.9238 14.4451C12.9659 14.3327 12.9774 14.2111 12.957 14.0928L12.2188 9.79238L15.3478 6.74727L15.4006 6.68975C15.476 6.59688 15.5254 6.48569 15.5438 6.3675C15.5623 6.24931 15.5491 6.12835 15.5055 6.01693C15.462 5.90552 15.3897 5.80763 15.296 5.73325C15.2023 5.65887 15.0906 5.61065 14.9722 5.59351L10.6549 4.96689L8.72501 1.05561C8.66916 0.94229 8.58271 0.846864 8.47543 0.780135C8.36816 0.713406 8.24435 0.67804 8.11801 0.67804C7.99168 0.67804 7.86787 0.713406 7.76059 0.780135C7.65332 0.846864 7.56686 0.94229 7.51102 1.05561L5.58042 4.96689Z" fill="#FFAE00"/>
</svg>
