<svg width="53" height="53" viewBox="0 0 53 53" fill="none" xmlns="http://www.w3.org/2000/svg">
<path fill-rule="evenodd" clip-rule="evenodd" d="M42.9169 7.26425C43.327 7.24957 43.7261 7.39838 44.0264 7.67796C44.3268 7.95753 44.5038 8.34497 44.5184 8.75504L45.1829 27.3089C45.1976 27.7189 45.0488 28.118 44.7692 28.4184C44.4896 28.7187 44.1022 28.8957 43.6921 28.9104C43.282 28.9251 42.8829 28.7763 42.5826 28.4967C42.2822 28.2171 42.1053 27.8297 42.0906 27.4196L41.5598 12.5982L11.3089 45.0994C11.1703 45.2483 11.0037 45.3684 10.8187 45.453C10.6337 45.5375 10.4338 45.5847 10.2305 45.592C10.0272 45.5993 9.82444 45.5665 9.63382 45.4954C9.44321 45.4243 9.26847 45.3164 9.11956 45.1778C8.97066 45.0392 8.85052 44.8726 8.76599 44.6876C8.68147 44.5025 8.63421 44.3027 8.62693 44.0994C8.61965 43.8961 8.65249 43.6933 8.72356 43.5027C8.79463 43.3121 8.90255 43.1373 9.04116 42.9884L39.2952 10.4902L24.4738 11.021C24.0638 11.0357 23.6646 10.8869 23.3643 10.6073C23.064 10.3277 22.887 9.94027 22.8723 9.53021C22.8576 9.12014 23.0064 8.72104 23.286 8.42069C23.5656 8.12035 23.953 7.94337 24.3631 7.92869L42.9169 7.26425Z" fill="#061D00"/>
</svg>
