<svg width="44" height="35" viewBox="0 0 44 35" fill="none" xmlns="http://www.w3.org/2000/svg">
<path d="M13.5195 12.4619C13.5195 12.4619 0.207299 14.6119 0 33.7267H19.2184C19.2184 33.7267 7.01264 20.7403 13.5195 12.4619Z" fill="#E6E2E0"/>
<path d="M3.78223 33.7001C4.11035 33.3305 4.67598 32.8264 5.0663 32.5232C5.45602 32.2199 5.91444 31.9854 6.40544 31.9321C6.94086 31.8735 7.48044 32.0328 7.96078 32.2768C8.66678 32.6357 9.265 33.1717 9.85373 33.7018C9.01268 34.2787 8.00699 34.5956 6.98945 34.6572C5.24576 34.7626 3.78223 33.7001 3.78223 33.7001Z" fill="#664A3B"/>
<path d="M10.372 27.346C10.256 27.6576 10.0593 27.9484 9.77679 28.1237C9.30593 28.4151 8.70534 28.3381 8.15689 28.2682C7.60784 28.1977 6.99246 28.1616 6.56128 28.5081C6.6673 27.8074 6.7905 27.0671 7.25129 26.5293C7.70025 26.0039 8.39796 25.7629 9.07731 25.6361C9.75725 25.51 10.4573 25.475 11.1136 25.2559C10.834 25.507 10.6996 25.8813 10.6196 26.2479C10.5391 26.6146 10.5029 26.9936 10.372 27.346Z" fill="#87BE00"/>
<path d="M8.21733 27.5136C7.69849 27.7375 7.20214 28.0129 6.73779 28.3345C7.51487 27.2767 9.16024 27.1997 9.97937 26.1738C9.86802 26.5393 9.57957 26.8277 9.255 27.0303C8.93102 27.2322 8.56796 27.3614 8.21733 27.5136Z" fill="#ADD250"/>
<path d="M8.00658 26.7246C7.69978 27.1558 7.39298 27.587 7.08618 28.0187C7.53869 27.7262 7.81409 27.2269 8.00658 26.7246Z" fill="#ADD250"/>
<path d="M8.87832 26.2832C8.71662 26.6848 8.47911 27.0561 8.18237 27.3718C8.29905 27.2871 8.32512 27.3825 8.43054 27.2842C8.49096 27.2273 8.87832 26.8275 8.87832 26.2832Z" fill="#ADD250"/>
<path d="M8.43045 27.2839C8.40854 27.2868 8.38366 27.2922 8.37359 27.3111C8.35227 27.3508 8.4121 27.3834 8.45711 27.3887C8.69344 27.4189 8.93389 27.4485 9.17021 27.4165C9.40653 27.3846 9.64345 27.2827 9.78916 27.0938C9.33606 27.1571 8.88296 27.2205 8.43045 27.2839Z" fill="#ADD250"/>
<path d="M9.35037 27.7464C8.77289 27.7985 8.18772 27.7707 7.61735 27.6641C7.61202 27.7802 7.73876 27.8554 7.8507 27.8879C8.33933 28.0313 8.86173 27.8885 9.35037 27.7464Z" fill="#ADD250"/>
<path d="M6.42684 26.6327C6.08154 25.9794 5.38857 25.56 4.66599 25.4066C3.9434 25.2532 3.1906 25.3367 2.46802 25.4901C2.8145 25.5991 3.06326 25.913 3.19949 26.2495C3.33571 26.5859 3.38073 26.9513 3.45417 27.3067C3.52821 27.662 3.63837 28.0239 3.87884 28.2958C4.2194 28.6814 4.77259 28.8223 5.28491 28.7826C5.79783 28.7436 6.28469 28.5487 6.76089 28.3556C6.73423 27.7663 6.70225 27.1551 6.42684 26.6327Z" fill="#87BE00"/>
<path d="M4.98584 27.0271C4.67015 26.635 4.40895 26.1416 3.93335 25.9775C4.38763 26.3838 4.66836 26.9447 5.03972 27.428C5.41168 27.9113 5.94947 28.3461 6.55893 28.3105C5.99034 27.938 5.41229 27.5566 4.98584 27.0271Z" fill="#ADD250"/>
<path d="M5.50929 26.4482C5.48086 26.7142 5.45304 26.9819 5.48265 27.2478C5.51167 27.5132 5.60348 27.7797 5.78649 27.9746C5.77702 27.791 5.74148 27.6103 5.70535 27.4308C5.6402 27.1027 5.57444 26.7758 5.50929 26.4482Z" fill="#ADD250"/>
<path d="M4.7945 27.0942C4.82767 27.1635 4.94553 27.125 4.96804 27.0522C4.99054 26.9793 4.82471 26.0388 4.69263 25.9541C4.72639 26.3338 4.76015 26.714 4.7945 27.0942Z" fill="#ADD250"/>
<path d="M4.88514 27.2302C4.92483 27.2249 4.96984 27.2148 4.98938 27.1798C5.0113 27.1408 4.98702 27.088 4.94971 27.0638C4.91121 27.0395 4.86383 27.0247 4.81941 27.0318C4.44745 27.0946 4.26029 27.0187 3.89722 26.9648C4.17559 27.1763 4.53807 27.274 4.88514 27.2302Z" fill="#ADD250"/>
<path d="M4.26025 27.667C4.67663 27.9086 5.18953 27.9779 5.65507 27.8559C5.64085 27.8115 5.62605 27.7677 5.61243 27.7233C5.16111 27.7043 4.71098 27.6854 4.26025 27.667Z" fill="#ADD250"/>
<path d="M7.08008 32.3467C7.32707 32.262 7.37386 31.9398 7.37919 31.6792C7.39104 31.0353 7.40229 30.388 7.31819 29.7495C7.23349 29.1104 7.04928 28.4755 6.69628 27.9365C6.5488 28.0704 6.49255 28.2806 6.49669 28.4791C6.50084 28.6775 6.5571 28.8711 6.6033 29.0642C6.83903 30.0563 6.79106 31.1141 6.46826 32.0819C6.63588 32.2454 6.85798 32.4225 7.08008 32.3467Z" fill="#87BE00"/>
<path d="M15.8916 7.88477L13.5195 14.7932L18.654 12.4222L18.471 11.5806L15.8916 7.88477Z" fill="#776056"/>
<path d="M28.7707 6.26216C28.2406 5.15104 28.7601 3.64545 30.0418 2.7511C31.3229 1.85735 32.9155 1.88933 33.7755 2.77006L35.0335 1.89229C33.7785 0.458375 31.3116 0.368348 29.3393 1.74422C27.367 3.12069 26.6 5.46732 27.5133 7.13992L28.7707 6.26216Z" fill="#776056"/>
<path d="M33.0341 14.2785L18.3763 11.4551L17.7253 12.8387L35.0982 18.0105L33.0341 14.2785Z" fill="#AA9B95"/>
<path d="M40.4711 11.6699L35.3745 3.86955L35.6043 3.45199C35.6428 3.38269 36.552 1.7468 37.9628 0.762428C39.5104 -0.317896 41.1362 -0.248007 42.5411 0.958474C46.1014 4.01525 41.3542 10.4842 41.1499 10.7578L40.4711 11.6699ZM37.2402 3.82276L40.5155 8.83525C41.5473 7.1431 43.2933 3.69601 41.5076 2.1614C40.6464 1.42223 39.8332 1.39202 38.8708 2.06308C38.1375 2.576 37.5523 3.35544 37.2402 3.82276Z" fill="#776056"/>
<path d="M35.4284 1.38401L26.895 7.33789L35.4652 19.6211L43.9986 13.6672L35.4284 1.38401Z" fill="#A3948D"/>
<path d="M35.4173 1.37453L26.8855 7.3291L27.6821 8.47043L36.2139 2.51586L35.4173 1.37453Z" fill="#A3948D"/>
<path d="M42.749 11.8655L34.2146 17.8184L35.4656 19.6119L44 13.6591L42.749 11.8655Z" fill="#776056"/>
</svg>
