<svg width="61" height="60" viewBox="0 0 61 60" fill="none" xmlns="http://www.w3.org/2000/svg">
<path d="M13.3227 7.20359C14.7047 7.20359 15.7892 8.28909 15.7892 9.67114C15.7892 11.0522 14.7047 12.1377 13.3227 12.1377C11.9416 12.1377 10.8551 11.0522 10.8551 9.67114C10.8551 8.28909 11.9416 7.20359 13.3227 7.20359Z" fill="#F2E8D1"/>
<path d="M3.45468 39.2759C4.83674 39.2759 5.92123 40.3614 5.92123 41.7434C5.92123 43.1255 4.83674 44.21 3.45468 44.21C2.07263 44.21 0.987152 43.1255 0.987152 41.7434C0.987152 40.3614 2.07263 39.2759 3.45468 39.2759Z" fill="#F2E8D1"/>
<path d="M51.6121 46.6772C52.9942 46.6772 54.0797 47.7627 54.0797 49.1438C54.0797 50.5258 52.9942 51.6123 51.6121 51.6123C50.2301 51.6123 49.1456 50.5258 49.1456 49.1438C49.1456 47.7627 50.2301 46.6772 51.6121 46.6772Z" fill="#F2E8D1"/>
<path d="M51.6121 0.986793C52.9942 0.986793 54.0797 2.07229 54.0797 3.45435C54.0797 4.8364 52.9942 5.9209 51.6121 5.9209C50.2301 5.9209 49.1456 4.8364 49.1456 3.45435C49.1456 2.07229 50.2301 0.986793 51.6121 0.986793Z" fill="#F2E8D1"/>
<path d="M25.6586 53.1904C25.6586 53.6847 25.6586 54.0791 25.6586 54.5724C23.981 55.1646 22.3034 55.3623 20.7246 55.3623C18.5536 55.2625 16.4815 54.6713 14.8038 53.3881C13.1252 52.1059 11.9419 50.4282 11.152 48.454C10.5598 46.8752 10.2632 45.1975 10.3631 43.3222C12.1386 42.73 13.8163 42.4344 15.4939 42.5323C17.566 42.6312 19.5402 43.2233 21.2179 44.5065C22.8955 45.7887 24.1787 47.4664 24.8688 49.4406C25.2642 50.625 25.5598 51.8093 25.6586 53.1904Z" fill="#8EC155"/>
<path d="M41.7438 35.1318C41.7438 36.9073 41.4472 38.6848 40.9539 40.2636C40.2628 42.2368 38.9806 43.9145 37.303 45.1977C35.5265 46.4799 33.5532 47.072 31.3823 47.1709C29.8025 47.1709 28.1258 46.9732 26.4482 46.382C26.4482 44.6045 26.6449 42.9278 27.2371 41.3481C27.9281 39.3758 29.2103 37.5983 30.888 36.415C32.5666 35.2306 34.5399 34.5396 36.612 34.4407C38.1908 34.243 39.9673 34.5396 41.7438 35.1318Z" fill="#8EC155"/>
<path d="M41.5459 15.592C39.8682 15.1975 38.8816 13.5199 39.2761 11.8422C39.6705 10.1646 41.3492 9.17797 43.0268 9.57243C44.7035 9.96688 45.6911 11.6445 45.2956 13.3222C45.0989 14.112 44.6056 14.8031 43.9146 15.1975C43.1247 15.6909 42.3358 15.7897 41.5459 15.592Z" fill="#F8FFF0"/>
<path d="M51.9079 20.5265C53.4877 23.0919 53.0922 26.1516 51.119 27.3359C49.1458 28.5203 46.2838 27.4348 44.704 24.8684C43.2241 22.4997 44.1128 18.5532 43.8162 15.2968C46.4805 16.9735 50.5268 18.1578 51.9079 20.5265Z" fill="#F37D79"/>
<path d="M54.5733 11.3488C57.4343 12.0389 59.4085 14.4076 58.8163 16.6774C58.2242 18.9472 55.461 20.1315 52.5991 19.4405C49.9348 18.7495 47.665 15.3951 45.1984 13.3221C48.356 12.631 52.0069 10.6578 54.5733 11.3488Z" fill="#FF99A7"/>
<path d="M41.5462 15.5923C42.2372 18.652 44.2114 22.3028 43.5204 24.9671C42.8293 27.8291 40.4607 29.8023 38.1909 29.2102C35.921 28.7169 34.7367 25.8559 35.4277 22.9939C36.0199 20.3296 39.4741 18.1577 41.5462 15.5923Z" fill="#FF99A7"/>
<path d="M51.6119 47.6646C50.822 47.6646 50.1319 48.3556 50.1319 49.1445C50.1319 49.9344 50.822 50.6254 51.6119 50.6254C52.4018 50.6254 53.0918 49.9344 53.0918 49.1445C53.0918 48.3556 52.4018 47.6646 51.6119 47.6646ZM51.6119 52.5986C49.7375 52.5986 48.1577 51.0198 48.1577 49.1445C48.1577 47.2701 49.7375 45.6913 51.6119 45.6913C53.4872 45.6913 55.066 47.2701 55.066 49.1445C55.066 51.0198 53.4872 52.5986 51.6119 52.5986Z" fill="#061D00"/>
<path d="M13.3228 8.19092C12.5339 8.19092 11.8429 8.88195 11.8429 9.67184C11.8429 10.4617 12.5339 11.1518 13.3228 11.1518C14.1127 11.1518 14.8037 10.4617 14.8037 9.67184C14.8037 8.7831 14.2116 8.19092 13.3228 8.19092ZM13.3228 13.126C11.4475 13.126 9.86868 11.5472 9.86868 9.67184C9.86868 7.79647 11.4475 6.21768 13.3228 6.21768C15.1982 6.21768 16.777 7.79647 16.777 9.67184C16.777 11.5472 15.297 13.126 13.3228 13.126Z" fill="#061D00"/>
<path d="M51.6119 1.97412C50.822 1.97412 50.1319 2.66418 50.1319 3.45407C50.1319 4.24395 50.822 4.93399 51.6119 4.93399C52.4018 4.93399 53.0918 4.24395 53.0918 3.45407C53.0918 2.66418 52.4018 1.97412 51.6119 1.97412ZM51.6119 6.9082C49.7375 6.9082 48.1577 5.32845 48.1577 3.45407C48.1577 1.5787 49.7375 -9.44138e-05 51.6119 -9.44138e-05C53.4872 -9.44138e-05 55.066 1.5787 55.066 3.45407C55.066 5.32845 53.4872 6.9082 51.6119 6.9082Z" fill="#061D00"/>
<path d="M3.45416 40.2641C2.66428 40.2641 1.97422 40.9542 1.97422 41.7441C1.97422 42.533 2.66428 43.224 3.45416 43.224C4.24405 43.224 4.93408 42.533 4.93408 41.7441C4.93408 40.9542 4.34193 40.2641 3.45416 40.2641ZM3.45416 45.1982C1.5788 45.1982 0 43.6194 0 41.7441C0 39.8697 1.5788 38.2899 3.45416 38.2899C5.32855 38.2899 6.90832 39.8697 6.90832 41.7441C6.90832 43.6194 5.42838 45.1982 3.45416 45.1982Z" fill="#061D00"/>
<path d="M41.7439 14.6056C42.2372 14.7045 42.8294 14.6056 43.3227 14.3091C43.816 14.0135 44.1126 13.5201 44.2114 13.0268C44.507 11.9414 43.816 10.757 42.6317 10.4614C42.4349 10.4614 42.3361 10.3626 42.1384 10.3626C41.1517 10.3626 40.3618 11.0526 40.1651 11.9414C39.9674 13.2236 40.6584 14.4079 41.7439 14.6056ZM42.2372 16.6777C41.9407 16.6777 41.6451 16.6777 41.3495 16.5789C39.1775 16.0856 37.7964 13.8158 38.3886 11.6448C38.7831 9.77041 40.4607 8.58607 42.3361 8.58607C42.6317 8.58607 43.0271 8.58607 43.3227 8.68493C45.4937 9.17824 46.8757 11.4471 46.2835 13.619C45.987 14.7045 45.3948 15.5922 44.507 16.0856C43.7172 16.481 43.0271 16.6777 42.2372 16.6777Z" fill="#061D00"/>
<path d="M47.1715 13.8155C47.566 14.211 47.9614 14.6054 48.3559 14.9999C49.8358 16.4808 51.3157 18.0596 52.7966 18.454C53.29 18.5529 53.6844 18.6518 54.1787 18.6518C56.0531 18.6518 57.533 17.763 57.8296 16.4808C58.2241 14.8031 56.6453 12.9278 54.2766 12.3356C53.981 12.2368 53.6844 12.2368 53.3888 12.2368C52.0068 12.2368 50.3301 12.8289 48.6515 13.3222C48.257 13.5199 47.7637 13.6188 47.1715 13.8155ZM54.2766 20.625C53.6844 20.625 52.9944 20.5261 52.4022 20.4273C50.3301 19.934 48.6515 18.1575 46.9738 16.3819C46.1849 15.592 45.395 14.7043 44.6061 14.1121C44.3095 13.9144 44.2117 13.5199 44.3095 13.1255C44.4084 12.7301 44.704 12.4345 45.0994 12.4345C46.0861 12.2368 47.0727 11.8423 48.257 11.5467C50.0335 10.9545 51.9079 10.3624 53.5865 10.3624C54.0799 10.3624 54.5732 10.4612 54.9676 10.5591C58.4218 11.349 60.6906 14.3089 60.0006 17.073C59.3095 19.1451 57.0407 20.625 54.2766 20.625Z" fill="#061D00"/>
<path d="M44.9012 16.9733C44.9012 17.5654 44.9012 18.0597 44.9012 18.6519C44.9012 20.724 44.8033 22.9938 45.5922 24.276C46.48 25.7569 47.9609 26.7436 49.342 26.7436C49.8353 26.7436 50.2297 26.6447 50.6252 26.448C51.3152 26.0525 51.7107 25.2636 51.8095 24.276C51.9074 23.1905 51.6118 22.0072 51.0196 21.0196C50.2297 19.6385 48.2565 18.6519 46.3811 17.7631C45.8878 17.4675 45.3945 17.2698 44.9012 16.9733ZM49.342 28.7168C47.2699 28.7168 45.1978 27.4346 43.9146 25.2636C42.8291 23.4871 42.8291 21.0196 42.928 18.553C42.928 17.4676 42.928 16.2832 42.8291 15.1977C42.8291 14.8033 42.9279 14.4078 43.3224 14.2111C43.619 14.0134 44.0134 14.0134 44.4079 14.2111C45.1978 14.8033 46.1844 15.1977 47.2699 15.7899C49.4408 16.8754 51.7106 17.9609 52.7961 19.8352C53.6839 21.2173 54.0793 22.895 53.8816 24.3749C53.6839 25.9537 52.895 27.2369 51.7107 28.0267C51.0196 28.5201 50.2297 28.7168 49.342 28.7168Z" fill="#061D00"/>
<path d="M41.546 16.5791C40.9538 16.5791 40.5594 16.1847 40.5594 15.5925C40.5594 15.0003 40.9538 14.6059 41.546 14.6059C42.1382 14.6059 42.5336 15.0003 42.5336 15.5925C42.5336 16.1847 42.0393 16.5791 41.546 16.5791Z" fill="#061D00"/>
<path d="M41.0529 17.5655C40.6585 17.9609 40.2631 18.3554 39.8686 18.7498C38.3887 20.2308 36.8099 21.7107 36.4145 23.1906C36.1189 24.5727 36.2177 25.9538 36.9088 27.0402C37.2044 27.5335 37.6977 28.1257 38.4875 28.3224C38.6853 28.3224 38.882 28.4213 38.9809 28.4213C40.5596 28.4213 42.0396 26.8425 42.5339 24.7694C42.9283 23.2895 42.2373 21.2174 41.5463 19.1453C41.3495 18.6519 41.1518 18.1577 41.0529 17.5655ZM38.9809 30.3945C38.6853 30.3945 38.2898 30.3945 37.9942 30.2967C36.8099 30.0001 35.8233 29.309 35.1322 28.1257C34.2435 26.6448 33.9479 24.6715 34.4412 22.7962C34.9345 20.7241 36.711 19.0464 38.4875 17.3688C39.2764 16.5789 40.1652 15.79 40.7574 15.0001C40.9541 14.7045 41.3495 14.6056 41.744 14.7045C42.1384 14.8033 42.435 15.0989 42.435 15.4934C42.6318 16.481 43.0272 17.4676 43.3228 18.652C44.1126 20.9218 44.9016 23.2895 44.4083 25.3625C43.7172 28.2236 41.4474 30.3945 38.9809 30.3945Z" fill="#061D00"/>
<path d="M25.6583 60C25.165 60 24.6717 59.6055 24.6717 59.0134C24.6717 59.0134 24.6717 57.2369 24.6717 54.4728C24.6717 54.0793 24.6717 53.585 24.6717 53.0917C24.6717 40.4604 25.2639 18.0597 28.9148 10.2637C30.0991 7.5984 32.0724 5.82288 34.1445 5.32859C35.7242 5.033 37.2042 5.42844 38.5862 6.6118L41.1516 8.78275C41.5461 9.17818 41.6449 9.77034 41.2505 10.1648C40.8551 10.5592 40.2629 10.6581 39.8684 10.2637L37.303 8.0927C36.4143 7.30281 35.5265 7.00721 34.5399 7.20395C33.06 7.50052 31.5791 8.98046 30.6913 11.0526C27.0404 18.8486 26.645 43.0268 26.645 53.0917C26.645 53.585 26.645 53.9804 26.645 54.4728C26.645 57.2369 26.645 58.9145 26.645 58.9145C26.645 59.5067 26.2505 60 25.6583 60Z" fill="#061D00"/>
<path d="M40.4608 60H13.3228C12.7306 60 12.3362 59.6055 12.3362 59.0134C12.3362 58.4212 12.7306 58.0258 13.3228 58.0258H40.4608C41.053 58.0258 41.4474 58.4212 41.4474 59.0134C41.4474 59.5067 41.053 60 40.4608 60Z" fill="#061D00"/>
<path d="M27.3363 45.592C28.7174 45.9875 30.0006 46.1842 31.2838 46.0853C33.3559 45.9875 35.1324 45.3943 36.7112 44.3098C38.1911 43.2234 39.2766 41.7434 39.9676 39.869C40.461 38.6847 40.6587 37.3017 40.7575 35.8227C39.3755 35.4273 37.9944 35.2305 36.6123 35.3284C34.6391 35.4273 32.8626 36.0194 31.4805 37.1049C30.0006 38.1914 28.8162 39.7702 28.1262 41.6446C27.6329 42.8289 27.4342 44.1121 27.3363 45.592ZM30.9872 48.0596C29.4084 48.0596 27.7308 47.763 26.0531 47.1708C25.6587 47.072 25.3621 46.6775 25.3621 46.2821C25.3621 44.3098 25.6587 42.5323 26.2508 40.9535C27.0407 38.6847 28.4218 36.8093 30.2962 35.5261C32.0727 34.2429 34.2437 33.454 36.5135 33.3552C36.7112 33.3552 36.9089 33.3552 37.1057 33.3552C38.6854 33.3552 40.3621 33.6508 42.0397 34.2429C42.4352 34.3418 42.7308 34.7362 42.7308 35.1317C42.7308 37.1049 42.4352 38.8814 41.843 40.5591C41.0531 42.73 39.6711 44.6044 37.8955 45.8876C36.0202 47.2697 33.8492 47.9607 31.3826 48.0596C31.2838 48.0596 31.0861 48.0596 30.9872 48.0596Z" fill="#061D00"/>
<path d="M11.3497 44.0131C11.3497 45.4931 11.6453 46.7763 12.1386 48.0595C12.8296 49.9339 13.9151 51.4138 15.395 52.5002C16.8759 53.5847 18.7503 54.1779 20.7245 54.2758C22.0077 54.2758 23.29 54.1779 24.672 53.7825C24.672 53.5848 24.672 53.388 24.672 53.1903C24.5732 52.006 24.3754 50.8226 23.981 49.7371C23.29 47.8617 22.2045 46.282 20.6257 45.1975C19.1458 44.112 17.3693 43.5198 15.4939 43.42C15.2972 43.42 15.0994 43.42 15.0006 43.42C13.8162 43.5198 12.534 43.7166 11.3497 44.0131ZM21.119 56.25C21.0201 56.25 20.8234 56.25 20.7245 56.25C18.3559 56.1511 16.086 55.4601 14.2117 54.079C12.4352 52.7958 11.0531 50.9215 10.2632 48.7505C9.67201 47.0719 9.37546 45.2954 9.37546 43.3221C9.37546 42.9277 9.67204 42.5322 10.0665 42.4344C11.9419 41.8422 13.8162 41.5456 15.5927 41.6445C17.9614 41.7433 20.0335 42.4343 21.81 43.8154C23.5865 45.0986 24.9676 46.973 25.8563 49.2438C26.2508 50.4281 26.5464 51.8092 26.6453 53.1903C26.6453 53.6846 26.6453 54.1779 26.6453 54.6712C26.6453 55.0657 26.3497 55.4601 25.9542 55.559C24.2766 55.9534 22.6978 56.25 21.119 56.25Z" fill="#061D00"/>
<path d="M26.9419 46.6777C26.6454 46.6777 26.3498 46.5789 26.1521 46.2823C25.8565 45.8878 25.9543 45.1978 26.3498 44.9012L35.0336 38.6849C35.4281 38.3884 36.1191 38.4862 36.4147 38.8817C36.7113 39.2761 36.6124 39.9671 36.218 40.2637L27.5341 46.48C27.3364 46.5789 27.1387 46.6777 26.9419 46.6777Z" fill="#061D00"/>
<path d="M25.165 54.1787C24.9673 54.1787 24.8685 54.1787 24.6718 54.0799L15.9869 49.1448C15.4936 48.8492 15.3948 48.257 15.5925 47.7637C15.8891 47.2704 16.4812 47.1715 16.9735 47.3692L25.6584 52.3033C26.1517 52.5989 26.2505 53.1911 26.0528 53.6854C25.8561 53.981 25.4606 54.1787 25.165 54.1787Z" fill="#061D00"/>
<path d="M14.1127 23.684C14.0138 23.684 13.9149 23.684 13.9149 23.7828C13.8161 23.8817 13.8161 24.0794 13.9149 24.1783C14.0138 24.2762 14.2115 24.2762 14.3094 24.1783C14.4083 24.0794 14.4083 23.8817 14.3094 23.7828C14.2115 23.684 14.2115 23.684 14.1127 23.684ZM14.1127 25.6582C13.6193 25.6582 13.2239 25.4605 12.9283 25.1649C12.2373 24.4739 12.2373 23.4872 12.9283 22.7962C13.2239 22.4996 13.6193 22.3029 14.1127 22.3029C14.606 22.3029 15.0004 22.4996 15.297 22.7962C15.9871 23.4872 15.9871 24.4739 15.297 25.1649C15.0004 25.4605 14.5071 25.6582 14.1127 25.6582Z" fill="#061D00"/>
<path d="M47.3693 38.1908C47.2704 38.1908 47.1716 38.1908 47.1716 38.2887C47.0727 38.3876 47.0727 38.5853 47.1716 38.6841C47.2704 38.782 47.4681 38.782 47.566 38.6841C47.6649 38.5853 47.6649 38.5853 47.6649 38.4854C47.6649 38.3876 47.6649 38.2887 47.566 38.2887C47.566 38.1908 47.4681 38.1908 47.3693 38.1908ZM47.3693 40.1641C46.876 40.1641 46.4805 39.9664 46.1849 39.6698C45.8884 39.3752 45.6917 38.9797 45.6917 38.4854C45.6917 37.9931 45.8884 37.5977 46.1849 37.3011C46.4805 37.0065 46.876 36.8088 47.3693 36.8088C47.8626 36.8088 48.2571 37.0065 48.5536 37.3011C49.2437 37.9931 49.2437 38.9797 48.5536 39.6698C48.2571 39.9664 47.8626 40.1641 47.3693 40.1641Z" fill="#061D00"/>
</svg>
