<svg width="42" height="28" viewBox="0 0 42 28" fill="none" xmlns="http://www.w3.org/2000/svg">
<path d="M30.6951 6.95929C30.5584 4.30485 29.289 1.72672 27.2678 0C27.7103 1.06098 27.224 2.28597 27.4153 3.41928C27.5543 4.23935 28.0452 4.96718 28.6523 5.53554C29.2594 6.10447 29.9803 6.53444 30.6951 6.95929Z" fill="#87BE00"/>
<path d="M35.5416 1.42236C36.364 1.67124 37.0172 2.28573 37.6265 2.89054C38.2359 3.49591 38.8595 4.13089 39.6614 4.43956C40.4627 4.7488 41.5003 4.63205 42.0003 3.93384C41.7144 4.78468 40.7337 5.21808 39.8362 5.2363C38.9387 5.25452 38.0662 4.96407 37.1766 4.84277C34.7324 4.50904 32.1457 5.5575 30.6234 7.49949C30.6507 5.98291 30.841 4.40596 31.6633 3.13199C32.4857 1.85802 34.0905 0.98328 35.5416 1.42236Z" fill="#87BE00"/>
<path d="M34.0385 4.86128C34.4172 4.28039 34.5932 3.59357 34.8534 2.95117C34.3158 4.13004 33.4206 5.1443 32.3169 5.82371C32.3887 5.83397 32.4604 5.83397 32.531 5.83169C32.9086 5.6056 33.3061 5.41311 33.7184 5.25707C33.8392 5.13519 33.9474 5.00194 34.0385 4.86128Z" fill="#ADD250"/>
<path d="M34.5654 4.99257C34.8006 4.93506 35.0375 4.88722 35.2767 4.85362C35.3866 4.79155 35.4926 4.72092 35.5848 4.63436C35.8884 4.35018 36.0769 3.94642 36.098 3.53125C35.6908 4.11328 35.1645 4.60987 34.5654 4.99257Z" fill="#ADD250"/>
<path d="M36.9824 4.8233C37.414 4.67864 37.7814 4.32043 37.8736 3.87109C37.4237 4.21336 36.9448 4.51691 36.4487 4.78742C36.6276 4.79255 36.8052 4.80393 36.9824 4.8233Z" fill="#ADD250"/>
<path d="M29.9101 21.1064C30.0884 15.9895 30.5058 10.8816 31.122 5.79883C29.1556 10.8241 29.0604 16.3574 28.991 21.7534C28.9932 22.0484 29.4517 22.1338 29.6641 21.9305C29.8765 21.7266 29.8999 21.4009 29.9101 21.1064Z" fill="#87BE00"/>
<path d="M41.4524 7.24609C40.5435 8.24215 39.974 9.49448 39.4267 10.7269C38.8799 11.9593 38.3275 13.2162 37.4442 14.2356C36.5609 15.2544 35.2762 16.0175 33.9304 15.9384C32.1667 15.8347 30.694 14.3535 28.9274 14.3107C29.2503 12.5692 29.9565 10.8636 31.1695 9.57364C32.3825 8.28259 34.1417 7.44997 35.9077 7.58437C36.8241 7.65328 37.7096 7.97164 38.6271 8.02005C39.6192 8.07244 40.6255 7.7968 41.4524 7.24609Z" fill="#87BE00"/>
<path d="M29.1967 14.1269C30.8157 13.0408 32.7253 12.4964 34.5522 11.8147C36.3786 11.1342 38.2232 10.2463 39.4072 8.69727C39.041 9.68706 38.2506 10.4741 37.3542 11.0316C36.4578 11.5892 35.452 11.9417 34.456 12.2891C32.7025 12.9025 30.9496 13.5147 29.1967 14.1269Z" fill="#ADD250"/>
<path d="M33.1473 11.5017C33.7031 10.7471 34.2669 9.97655 34.5682 9.08984C33.379 10.5227 32.1899 11.9556 31.0002 13.3884C31.9308 13.1117 32.5715 12.283 33.1473 11.5017Z" fill="#ADD250"/>
<path d="M35.8416 10.9924C36.1747 10.379 36.5147 9.74459 36.5825 9.0498C36.0944 10.1939 35.3495 11.227 34.4189 12.0528C34.7293 12.1308 35.0613 11.993 35.2965 11.7771C35.5323 11.5602 35.6889 11.2737 35.8416 10.9924Z" fill="#ADD250"/>
<path d="M32.5379 13.1257C32.2333 13.0072 31.8688 12.8682 31.6034 13.059C32.4924 13.4321 33.399 13.8091 34.3592 13.8928C35.3199 13.9759 36.3599 13.7179 36.9988 12.997C35.6093 13.6302 33.9623 13.6781 32.5379 13.1257Z" fill="#ADD250"/>
<path d="M38.3508 11.7734C37.1281 12.0149 35.8667 12.0622 34.6292 11.9135C34.8251 12.1738 35.1406 12.3167 35.4555 12.4004C36.4459 12.6658 37.5587 12.4249 38.3508 11.7734Z" fill="#ADD250"/>
<path d="M29.5492 10.1797C28.9643 8.90857 27.9654 7.83107 26.741 7.15223C25.5223 6.4768 24.1196 6.20175 22.7312 6.08899C21.3421 5.97623 19.9446 6.01666 18.5544 5.92383C19.5084 6.9028 19.8831 8.30434 20.0716 9.65804C20.2607 11.0123 20.3034 12.4019 20.7504 13.6941C21.1975 14.9863 22.1577 16.2073 23.4931 16.4983C24.5182 16.7221 25.5769 16.3685 26.5394 15.951C27.2854 15.6275 28.0212 15.2562 28.6414 14.7306C29.2622 14.2043 29.7645 13.509 29.9353 12.7134C30.1187 11.8637 29.9125 10.9696 29.5492 10.1797Z" fill="#87BE00"/>
<path d="M29.3003 13.9551C27.806 13.7125 26.4546 12.8862 25.3474 11.8537C24.2398 10.8206 23.3479 9.58307 22.4635 8.35352C24.0137 9.06482 24.7791 10.8006 26.0149 11.9755C26.9455 12.8605 28.1346 13.4152 29.3003 13.9551Z" fill="#ADD250"/>
<path d="M27.823 13.5039C27.5121 12.2988 27.2017 11.0943 26.8907 9.88867C26.8737 10.9166 27.02 11.9468 27.323 12.9292C27.4027 13.1883 27.5519 13.4908 27.823 13.5039Z" fill="#ADD250"/>
<path d="M25.5007 11.724C25.2427 10.7017 24.9853 9.67948 24.7279 8.65723C24.7045 9.20224 24.6812 9.75237 24.7763 10.2894C24.8714 10.827 25.0975 11.3572 25.5007 11.724Z" fill="#ADD250"/>
<path d="M24.3051 11.6695C23.3364 11.6718 22.1991 11.2116 21.3807 10.6934C22.5061 11.7976 24.1365 12.3654 25.7044 12.1991C25.6839 11.8802 25.5631 11.8158 25.2568 11.7276C24.9504 11.6387 24.624 11.6683 24.3051 11.6695Z" fill="#ADD250"/>
<path d="M22.5443 12.5986C23.1303 13.3692 24.0074 13.9119 24.9584 14.0913C25.9089 14.2713 27.1425 14.0059 27.9694 13.503C27.7911 13.4011 27.4255 13.3299 27.3304 13.1482C26.6054 13.5634 25.7153 13.6124 24.8946 13.454C24.0746 13.2951 23.3046 12.9455 22.5443 12.5986Z" fill="#ADD250"/>
<path d="M12.6321 6.95929C12.4954 4.30485 11.226 1.72672 9.20483 0C9.64734 1.06098 9.16098 2.28597 9.35233 3.41928C9.49072 4.23935 9.9822 4.96718 10.5893 5.53554C11.1964 6.10447 11.9174 6.53444 12.6321 6.95929Z" fill="#87BE00"/>
<path d="M17.4785 1.42236C18.3009 1.67124 18.9541 2.28573 19.5635 2.89054C20.1728 3.49591 20.797 4.13089 21.5983 4.43956C22.3996 4.7488 23.4372 4.63205 23.9378 3.93384C23.6519 4.78468 22.6712 5.21808 21.7737 5.2363C20.8762 5.25452 20.0037 4.96407 19.1141 4.84277C16.6699 4.50904 14.0826 5.5575 12.5609 7.49949C12.5877 5.98291 12.7785 4.40596 13.6008 3.13199C14.4226 1.85802 16.0269 0.98328 17.4785 1.42236Z" fill="#87BE00"/>
<path d="M15.9756 4.86128C16.3543 4.28039 16.5303 3.59357 16.7906 2.95117C16.253 4.13004 15.3577 5.1443 14.254 5.82371C14.3264 5.83397 14.3975 5.83397 14.4687 5.83169C14.8463 5.6056 15.2438 5.41311 15.6561 5.25707C15.7763 5.13519 15.8845 5.00194 15.9756 4.86128Z" fill="#ADD250"/>
<path d="M16.5032 4.99257C16.7384 4.93506 16.9753 4.88722 17.2145 4.85362C17.325 4.79155 17.4303 4.72092 17.5231 4.63436C17.8267 4.35018 18.0146 3.94642 18.0363 3.53125C17.6279 4.11328 17.1017 4.60987 16.5032 4.99257Z" fill="#ADD250"/>
<path d="M18.9195 4.8233C19.3512 4.67864 19.7185 4.32043 19.8108 3.87109C19.3603 4.21336 18.8819 4.51691 18.3859 4.78742C18.5641 4.79255 18.7418 4.80393 18.9195 4.8233Z" fill="#ADD250"/>
<path d="M11.8467 21.1064C12.0249 15.9895 12.4424 10.8816 13.0586 5.79883C11.0921 10.8241 10.997 16.3574 10.9275 21.7534C10.9298 22.0484 11.3882 22.1338 11.6006 21.9305C11.8136 21.7266 11.8364 21.4009 11.8467 21.1064Z" fill="#87BE00"/>
<path d="M23.3894 7.24609C22.4805 8.24215 21.911 9.49448 21.3637 10.7269C20.817 11.9593 20.2645 13.2162 19.3812 14.2356C18.498 15.2544 17.2132 16.0175 15.8674 15.9384C14.1031 15.8347 12.631 14.3535 10.8644 14.3107C11.1873 12.5692 11.8935 10.8636 13.1065 9.57364C14.3195 8.28259 16.0787 7.44997 17.8447 7.58437C18.7611 7.65328 19.6466 7.97164 20.5641 8.02005C21.5562 8.07244 22.5625 7.7968 23.3894 7.24609Z" fill="#87BE00"/>
<path d="M11.1331 14.1269C12.7521 13.0408 14.6617 12.4964 16.4886 11.8147C18.3156 11.1342 20.1596 10.2463 21.3442 8.69727C20.978 9.68706 20.1875 10.4741 19.2911 11.0316C18.3947 11.5892 17.389 11.9417 16.393 12.2891C14.6395 12.9025 12.8865 13.5147 11.1331 14.1269Z" fill="#ADD250"/>
<path d="M15.0837 11.5017C15.6395 10.7471 16.2039 9.97655 16.5046 9.08984C15.3155 10.5227 14.1264 11.9556 12.9373 13.3884C13.8678 13.1117 14.5085 12.283 15.0837 11.5017Z" fill="#ADD250"/>
<path d="M17.7786 10.9924C18.1117 10.379 18.4517 9.74459 18.5195 9.0498C18.0309 10.1939 17.2865 11.227 16.356 12.0528C16.6658 12.1308 16.9984 11.993 17.2341 11.7771C17.4693 11.5602 17.6259 11.2737 17.7786 10.9924Z" fill="#ADD250"/>
<path d="M14.4756 13.1257C14.1709 13.0072 13.8064 12.8682 13.541 13.059C14.43 13.4321 15.3366 13.8091 16.2968 13.8928C17.2576 13.9759 18.2975 13.7179 18.9365 12.997C17.5463 13.6302 15.8999 13.6781 14.4756 13.1257Z" fill="#ADD250"/>
<path d="M20.2879 11.7734C19.0652 12.0149 17.8043 12.0622 16.5668 11.9135C16.7627 12.1738 17.0782 12.3167 17.3925 12.4004C18.3829 12.6658 19.4957 12.4249 20.2879 11.7734Z" fill="#ADD250"/>
<path d="M11.4868 10.1797C10.9019 8.90857 9.90244 7.83107 8.67801 7.15223C7.45929 6.4768 6.05718 6.20175 4.66817 6.08899C3.27916 5.97623 1.8816 6.01666 0.491455 5.92383C1.44537 6.9028 1.8201 8.30434 2.0086 9.65804C2.19711 11.0123 2.24039 12.4019 2.68688 13.6941C3.13393 14.9863 4.09411 16.2073 5.42959 16.4983C6.45469 16.7221 7.51339 16.3685 8.47584 15.951C9.22189 15.6275 9.95768 15.2562 10.5784 14.7306C11.1986 14.2043 11.7009 13.509 11.8723 12.7134C12.0563 11.8637 11.8496 10.9696 11.4868 10.1797Z" fill="#87BE00"/>
<path d="M11.2373 13.9551C9.74238 13.7125 8.39153 12.8862 7.28385 11.8537C6.17674 10.8206 5.28434 9.58307 4.3999 8.35352C5.95008 9.06482 6.71549 10.8006 7.9513 11.9755C8.88243 12.8605 10.0716 13.4152 11.2373 13.9551Z" fill="#ADD250"/>
<path d="M9.75999 13.5039C9.44904 12.2988 9.1381 11.0943 8.82772 9.88867C8.81007 10.9166 8.95643 11.9468 9.25997 12.9292C9.3397 13.1883 9.48891 13.4908 9.75999 13.5039Z" fill="#ADD250"/>
<path d="M7.43809 11.724C7.18011 10.7017 6.92269 9.67948 6.66471 8.65723C6.64079 9.20224 6.61744 9.75237 6.71312 10.2894C6.80879 10.827 7.03374 11.3572 7.43809 11.724Z" fill="#ADD250"/>
<path d="M6.24213 11.6695C5.27341 11.6718 4.13612 11.2116 3.31775 10.6934C4.44365 11.7976 6.07356 12.3654 7.64139 12.1991C7.62032 11.8802 7.50015 11.8158 7.19376 11.7276C6.88737 11.6387 6.56105 11.6683 6.24213 11.6695Z" fill="#ADD250"/>
<path d="M4.48145 12.5986C5.06689 13.3692 5.94449 13.9119 6.89555 14.0913C7.84605 14.2713 9.07959 14.0059 9.9065 13.503C9.72881 13.4011 9.36263 13.3299 9.26752 13.1482C8.54255 13.5634 7.65299 13.6124 6.83234 13.454C6.01112 13.2951 5.24173 12.9455 4.48145 12.5986Z" fill="#ADD250"/>
<path d="M37.5226 25.1622C36.2908 24.0733 35.0504 22.9782 33.642 22.1308C32.2331 21.2839 30.6311 20.69 28.9875 20.6985C27.4641 20.707 25.9703 21.2367 24.6895 22.0613C24.6263 22.1018 24.5654 22.1467 24.5027 22.1889C24.4725 22.1707 24.4446 22.149 24.4144 22.1302C23.0055 21.2834 21.4035 20.6894 19.7599 20.6979C18.2371 20.7065 16.7433 21.2361 15.4625 22.0607C15.3993 22.1012 15.3383 22.1462 15.2757 22.1883C15.2455 22.1701 15.2176 22.1485 15.1874 22.1297C13.779 21.2828 12.1765 20.6888 10.5329 20.6974C9.00947 20.7059 7.51624 21.2355 6.23544 22.0602C4.95463 22.8842 3.876 23.9942 2.95227 25.2055C5.22913 26.9983 8.12048 27.9955 11.0181 27.9875C11.2134 27.987 11.4082 27.9818 11.603 27.9727C14.1845 27.844 16.7689 27.7808 19.3476 27.9585C19.646 27.979 19.9456 27.9892 20.2451 27.9881C20.4405 27.9875 20.6352 27.9824 20.83 27.9733C23.4115 27.8451 25.9959 27.7814 28.5746 27.9591C28.8731 27.9796 29.1726 27.9898 29.4722 27.9887C32.3703 27.9813 35.256 26.9675 37.5226 25.1622Z" fill="#664A3B"/>
</svg>
