<svg width="15" height="18" viewBox="0 0 15 18" fill="none" xmlns="http://www.w3.org/2000/svg">
<g clip-path="url(#clip0_214_41932)">
<path d="M1.14489 6.14337H13.5495L11.1889 9.10566C11.0778 9.24509 11.0778 9.47137 11.1889 9.6108C11.2445 9.67994 11.3178 9.7148 11.3902 9.7148C11.4626 9.7148 11.5359 9.67994 11.591 9.61137L14.437 6.03995C14.4448 6.03023 14.448 6.01709 14.4548 6.0068C14.4712 5.98109 14.4885 5.9548 14.4985 5.92337C14.509 5.89252 14.5113 5.85995 14.514 5.82795C14.5158 5.81366 14.5208 5.80166 14.5208 5.78623C14.5208 5.75252 14.5122 5.7228 14.5053 5.69195C14.5026 5.67937 14.5031 5.66509 14.499 5.65195C14.4844 5.60566 14.4621 5.56509 14.4334 5.5308L11.591 1.96395C11.4799 1.82452 11.2996 1.82452 11.1885 1.96395C11.0773 2.10337 11.0773 2.32966 11.1885 2.46909L13.5477 5.42966H1.14398C0.986878 5.42966 0.859375 5.58966 0.859375 5.7868C0.859375 5.98395 0.986878 6.14395 1.14398 6.14395L1.14489 6.14337ZM14.2367 11.8577H1.83204L4.19175 8.89652C4.30286 8.75709 4.30286 8.5308 4.19175 8.39137C4.08064 8.25194 3.90031 8.25194 3.7892 8.39137L0.943162 11.9628C0.940886 11.9657 0.94043 11.9702 0.937243 11.9725C0.914474 12.0034 0.894438 12.0382 0.881688 12.0777C0.852545 12.1657 0.852545 12.2639 0.881688 12.3519C0.889429 12.3754 0.90309 12.3937 0.91493 12.4142C0.924492 12.4319 0.930412 12.4514 0.942707 12.4668L3.78875 16.0382C3.8443 16.1074 3.91762 16.1422 3.99048 16.1422C4.06333 16.1422 4.13619 16.1074 4.19129 16.0371C4.3024 15.8977 4.3024 15.6714 4.19129 15.5319L1.83158 12.5708H14.2367C14.3938 12.5708 14.5213 12.4108 14.5213 12.2137C14.5213 12.0165 14.3938 11.8571 14.2367 11.8571V11.8577Z" fill="#101110"/>
</g>
<defs>
<clipPath id="clip0_214_41932">
<rect width="13.661" height="17.1429" fill="white" transform="translate(0.859375 0.429688)"/>
</clipPath>
</defs>
</svg>
