<svg width="19" height="17" viewBox="0 0 19 17" fill="none" xmlns="http://www.w3.org/2000/svg">
<g clip-path="url(#clip0_214_41439)">
<path d="M9.93675 0.564363C9.77057 0.219474 9.41941 0 9.03377 0C8.64812 0 8.30009 0.219474 8.13079 0.564363L6.11476 4.71243L1.6124 5.37712C1.23616 5.43356 0.92262 5.69693 0.806612 6.05749C0.690605 6.41806 0.784665 6.81625 1.0543 7.08275L4.32134 10.3153L3.55004 14.8835C3.48733 15.2597 3.6441 15.6423 3.9545 15.8649C4.2649 16.0875 4.67563 16.1157 5.01425 15.937L9.0369 13.7893L13.0596 15.937C13.3982 16.1157 13.8089 16.0906 14.1193 15.8649C14.4297 15.6391 14.5865 15.2597 14.5238 14.8835L13.7493 10.3153L17.0164 7.08275C17.286 6.81625 17.3832 6.41806 17.2641 6.05749C17.1449 5.69693 16.8345 5.43356 16.4583 5.37712L11.9528 4.71243L9.93675 0.564363Z" fill="#1FA12E"/>
</g>
<defs>
<clipPath id="clip0_214_41439">
<rect width="18.0596" height="16.053" fill="white"/>
</clipPath>
</defs>
</svg>
