<svg width="50" height="50" viewBox="0 0 50 50" fill="none" xmlns="http://www.w3.org/2000/svg">
<path d="M45.4275 20.9211H43.7493V20.8346H24.9993V29.168H36.7733C35.0556 34.019 30.44 37.5013 24.9993 37.5013C18.0962 37.5013 12.4993 31.9044 12.4993 25.0013C12.4993 18.0982 18.0962 12.5013 24.9993 12.5013C28.1858 12.5013 31.0848 13.7034 33.2921 15.6669L39.1848 9.77422C35.4639 6.30651 30.4868 4.16797 24.9993 4.16797C13.4941 4.16797 4.16602 13.4961 4.16602 25.0013C4.16602 36.5065 13.4941 45.8346 24.9993 45.8346C36.5046 45.8346 45.8327 36.5065 45.8327 25.0013C45.8327 23.6044 45.6889 22.2409 45.4275 20.9211Z" fill="#FFC107"/>
<path d="M6.56836 15.3044L13.4132 20.3242C15.2652 15.7388 19.7507 12.5013 24.9996 12.5013C28.1861 12.5013 31.085 13.7034 33.2923 15.6669L39.185 9.77422C35.4642 6.30651 30.4871 4.16797 24.9996 4.16797C16.9975 4.16797 10.0579 8.68568 6.56836 15.3044Z" fill="#FF3D00"/>
<path d="M25 45.834C30.3812 45.834 35.2708 43.7747 38.9677 40.4257L32.5198 34.9695C30.3582 36.6143 27.7162 37.5036 25 37.5007C19.5812 37.5007 14.9802 34.0455 13.2469 29.2236L6.45312 34.458C9.90104 41.2049 16.9031 45.834 25 45.834Z" fill="#4CAF50"/>
<path d="M45.4281 20.9185H43.75V20.832H25V29.1654H36.774C35.9523 31.4741 34.4722 33.4916 32.5167 34.9685L32.5198 34.9664L38.9677 40.4227C38.5115 40.8372 45.8333 35.4154 45.8333 24.9987C45.8333 23.6018 45.6896 22.2383 45.4281 20.9185Z" fill="#1976D2"/>
</svg>
