<svg width="40" height="40" viewBox="0 0 40 40" fill="none" xmlns="http://www.w3.org/2000/svg">
<path d="M21.3469 13.7435C21.3469 15.2102 21.7303 16.4419 22.4969 17.4385C23.0403 18.1252 23.7775 18.5763 24.7086 18.7919C25.6253 19.0052 26.4919 19.0202 27.2753 18.8385C27.5419 20.4219 27.1086 22.0985 26.0086 23.8752C24.9064 25.6508 23.4853 26.9858 21.7453 27.8802L24.3803 31.6719C25.7136 31.0119 26.9803 30.1752 28.1469 29.1635C29.3303 28.1519 30.3803 26.9885 31.3136 25.6735C32.2469 24.3585 32.9469 22.8735 33.3969 21.1902C33.8469 19.5069 33.9719 17.7902 33.7569 16.0235C33.4769 13.6902 32.7236 11.8235 31.4969 10.4402C30.2714 9.03909 28.7447 8.33854 26.9169 8.33854C25.3086 8.33854 23.9736 8.82187 22.9169 9.80187C21.8714 10.7619 21.3492 12.0774 21.3503 13.7485L21.3469 13.7435ZM6.14026 13.7435C6.14026 15.2102 6.5236 16.4419 7.29026 17.4385C7.83471 18.1385 8.57193 18.5924 9.50193 18.8002C10.4353 19.0058 11.2908 19.018 12.0686 18.8369C12.3353 20.4035 11.9186 22.0869 10.8153 23.8702C9.71526 25.6369 8.29526 26.9702 6.55526 27.8702L9.1836 31.6719C10.518 31.0119 11.7736 30.1758 12.9503 29.1635C14.1443 28.1368 15.2048 26.9643 16.1069 25.6735C17.0336 24.3569 17.7236 22.8735 18.1736 21.1902C18.6307 19.5082 18.7536 17.7528 18.5353 16.0235C18.2586 13.6902 17.5086 11.8235 16.2853 10.4402C15.063 9.04909 13.5392 8.35354 11.7136 8.35354C10.1025 8.35132 8.76804 8.83854 7.71026 9.8152C6.66471 10.7752 6.14137 12.0908 6.14026 13.7619V13.7435Z" fill="#061D00"/>
</svg>
