<svg width="44" height="26" viewBox="0 0 44 26" fill="none" xmlns="http://www.w3.org/2000/svg">
<path d="M8.96445 1.37862C8.88648 1.57328 8.75763 1.75357 8.57679 1.8592C8.2754 2.03561 7.89768 1.97754 7.5526 1.92445C7.20752 1.87136 6.81985 1.83873 6.54224 2.05053C6.62021 1.61033 6.7098 1.14524 7.00898 0.81343C7.30042 0.488807 7.74449 0.347799 8.1753 0.278671C8.6061 0.210097 9.04852 0.198483 9.46549 0.0712891C9.28521 0.225581 9.19396 0.458945 9.13811 0.689554C9.08115 0.91961 9.05294 1.15796 8.96445 1.37862Z" fill="#87BE00"/>
<path d="M7.60295 1.45059C7.27225 1.58387 6.95482 1.74978 6.65674 1.945C7.16386 1.28967 8.20298 1.26755 8.73609 0.633789C8.66032 0.862186 8.4734 1.0397 8.26547 1.16247C8.05753 1.28469 7.82637 1.36045 7.60295 1.45059Z" fill="#ADD250"/>
<path d="M7.48168 0.948242C7.28149 1.21535 7.0813 1.483 6.8811 1.75011C7.17089 1.57259 7.35228 1.26291 7.48168 0.948242Z" fill="#ADD250"/>
<path d="M8.03926 0.68457C7.93086 0.935088 7.77546 1.16569 7.58301 1.36035C7.65767 1.30892 7.6726 1.36976 7.74062 1.30893C7.77988 1.27353 8.03041 1.028 8.03926 0.68457Z" fill="#ADD250"/>
<path d="M7.74041 1.3084C7.72714 1.31006 7.71111 1.31282 7.70392 1.32444C7.69009 1.34932 7.72714 1.37034 7.75535 1.37476C7.90411 1.39744 8.05508 1.42012 8.20495 1.40408C8.35482 1.38749 8.50524 1.3272 8.60036 1.20996C8.3139 1.24314 8.02688 1.27522 7.74041 1.3084Z" fill="#ADD250"/>
<path d="M8.31405 1.61478C7.94906 1.63856 7.5802 1.61203 7.22239 1.53516C7.21742 1.60871 7.29539 1.65793 7.36563 1.6806C7.67145 1.77793 8.00326 1.69663 8.31405 1.61478Z" fill="#ADD250"/>
<path d="M6.48669 0.866266C6.27986 0.448736 5.84906 0.173347 5.39558 0.0649547C4.94211 -0.042884 4.46596 -0.00197031 4.00806 0.0826416C4.22484 0.157299 4.37637 0.358599 4.45711 0.573723C4.53785 0.788294 4.55996 1.01891 4.60089 1.24454C4.64181 1.46962 4.70541 1.69967 4.85307 1.87553C5.06211 2.12384 5.4083 2.22173 5.73237 2.20514C6.05644 2.18855 6.36613 2.07352 6.67029 1.9596C6.6631 1.58686 6.65259 1.20029 6.48669 0.866266Z" fill="#87BE00"/>
<path d="M5.57159 1.09219C5.37859 0.840015 5.22208 0.524796 4.92456 0.413086C5.20494 0.676876 5.37306 1.03522 5.59979 1.34602C5.82653 1.65737 6.1589 1.93941 6.54325 1.92724C6.19098 1.68336 5.83206 1.43285 5.57159 1.09219Z" fill="#ADD250"/>
<path d="M5.91115 0.735352C5.88903 0.902916 5.86747 1.07104 5.88185 1.23916C5.89623 1.40728 5.94986 1.57651 6.06213 1.7026C6.05936 1.58646 6.03945 1.47198 6.01954 1.35806C5.98305 1.15067 5.9471 0.943287 5.91115 0.735352Z" fill="#ADD250"/>
<path d="M5.45051 1.13226C5.47041 1.1765 5.54507 1.15438 5.56055 1.10848C5.57604 1.06258 5.48645 0.466988 5.40405 0.411133C5.41954 0.651143 5.43502 0.891699 5.45051 1.13226Z" fill="#ADD250"/>
<path d="M5.50506 1.21876C5.52995 1.21599 5.5587 1.2099 5.57142 1.18833C5.5858 1.16344 5.57197 1.13028 5.54819 1.11424C5.52496 1.0982 5.49455 1.08769 5.4669 1.09212C5.23132 1.1253 5.11463 1.07497 4.88623 1.03516C5.05822 1.17341 5.28551 1.24088 5.50506 1.21876Z" fill="#ADD250"/>
<path d="M5.10376 1.4834C5.36257 1.64267 5.68498 1.69464 5.98085 1.62496C5.97255 1.59676 5.96425 1.56856 5.95595 1.54036C5.6717 1.52156 5.38801 1.5022 5.10376 1.4834Z" fill="#ADD250"/>
<path d="M6.80822 4.4807C6.96528 4.43148 7.00012 4.22853 7.00731 4.06428C7.025 3.65837 7.0427 3.25024 6.99957 2.84598C6.95643 2.44228 6.8497 2.03802 6.63568 1.69238C6.54111 1.77423 6.50185 1.9064 6.5013 2.03139C6.50074 2.15748 6.53337 2.27969 6.55881 2.40246C6.69154 3.03235 6.64509 3.69873 6.42554 4.30429C6.53006 4.40991 6.6672 4.52494 6.80822 4.4807Z" fill="#87BE00"/>
<path d="M5.30086 3.54035L5.22168 6.66895L7.89253 6.73654L7.9717 3.60794L5.30086 3.54035Z" fill="#252722"/>
<path d="M13.134 1.48355C13.056 1.67821 12.9271 1.85849 12.7463 1.96411C12.4449 2.14053 12.0677 2.08302 11.7221 2.02938C11.377 1.97629 10.9894 1.94421 10.7112 2.15546C10.7892 1.71526 10.8787 1.25017 11.1779 0.918359C11.4694 0.594289 11.9134 0.452714 12.3442 0.38414C12.775 0.315013 13.2175 0.303952 13.6344 0.176758C13.4542 0.330497 13.3629 0.564427 13.3071 0.794483C13.2512 1.02509 13.2224 1.26344 13.134 1.48355Z" fill="#87BE00"/>
<path d="M11.7724 1.5551C11.4417 1.68838 11.1242 1.85428 10.8262 2.05005C11.3333 1.39472 12.3724 1.37204 12.9055 0.738281C12.8298 0.967231 12.6428 1.14419 12.4349 1.26696C12.227 1.38918 11.9958 1.46496 11.7724 1.5551Z" fill="#ADD250"/>
<path d="M11.6518 1.05469C11.4517 1.3218 11.2515 1.58889 11.0513 1.856C11.3405 1.67903 11.5224 1.36825 11.6518 1.05469Z" fill="#ADD250"/>
<path d="M12.2089 0.789062C12.1005 1.04013 11.9451 1.27018 11.7527 1.4654C11.8273 1.41342 11.8423 1.47425 11.9103 1.41342C11.9496 1.37913 12.2001 1.13249 12.2089 0.789062Z" fill="#ADD250"/>
<path d="M11.9103 1.41332C11.897 1.41497 11.881 1.41829 11.8743 1.42991C11.8605 1.45424 11.8976 1.47581 11.9258 1.48023C12.0745 1.50291 12.2255 1.52558 12.3754 1.50899C12.5247 1.49295 12.6757 1.43212 12.7708 1.31543C12.4838 1.34806 12.1973 1.38124 11.9103 1.41332Z" fill="#ADD250"/>
<path d="M12.4835 1.72069C12.1179 1.74447 11.7496 1.71737 11.3918 1.6416C11.3869 1.7146 11.4648 1.76439 11.5351 1.78651C11.8414 1.88439 12.1727 1.80253 12.4835 1.72069Z" fill="#ADD250"/>
<path d="M10.6564 0.972151C10.4495 0.554621 10.0187 0.278662 9.56526 0.170823C9.11179 0.062431 8.63563 0.103362 8.17773 0.188527C8.39452 0.262631 8.5466 0.46448 8.62734 0.679051C8.70808 0.893622 8.73075 1.12479 8.77112 1.34987C8.81205 1.5755 8.87565 1.805 9.0233 1.98086C9.23179 2.22972 9.57853 2.32704 9.9026 2.311C10.2267 2.29441 10.5364 2.17883 10.8405 2.06546C10.8328 1.69162 10.8223 1.30507 10.6564 0.972151Z" fill="#87BE00"/>
<path d="M9.74183 1.19722C9.54882 0.944494 9.39232 0.629288 9.09424 0.517578C9.37462 0.781921 9.54274 1.13972 9.76948 1.45107C9.99622 1.76131 10.3286 2.04445 10.7129 2.03173C10.3607 1.7873 10.0023 1.53733 9.74183 1.19722Z" fill="#ADD250"/>
<path d="M10.0808 0.839844C10.0587 1.00686 10.0371 1.17553 10.0515 1.34365C10.0659 1.51177 10.119 1.681 10.2318 1.80653C10.229 1.69095 10.2091 1.57647 10.1892 1.46199C10.1533 1.25461 10.1173 1.04723 10.0808 0.839844Z" fill="#ADD250"/>
<path d="M9.61994 1.23675C9.63985 1.281 9.71451 1.25832 9.72999 1.21242C9.74548 1.16707 9.65533 0.570927 9.57349 0.515625C9.58897 0.756188 9.60446 0.996191 9.61994 1.23675Z" fill="#ADD250"/>
<path d="M9.67547 1.32325C9.70036 1.32049 9.72911 1.31441 9.74183 1.29284C9.75621 1.26851 9.74238 1.23532 9.7186 1.21873C9.69482 1.2027 9.66496 1.19274 9.63731 1.19661C9.40173 1.23089 9.28448 1.17947 9.05664 1.13965C9.22863 1.27846 9.45592 1.34537 9.67547 1.32325Z" fill="#ADD250"/>
<path d="M9.27393 1.58887C9.53274 1.74758 9.85516 1.79957 10.151 1.72989C10.1427 1.70169 10.1344 1.67348 10.1261 1.64583C9.84188 1.62647 9.55818 1.60767 9.27393 1.58887Z" fill="#ADD250"/>
<path d="M10.9783 4.58561C11.1353 4.53639 11.1702 4.33399 11.1773 4.16919C11.195 3.76328 11.2127 3.35515 11.1696 2.95089C11.1265 2.54719 11.0197 2.14349 10.8063 1.79785C10.7112 1.8797 10.6724 2.01187 10.6719 2.13686C10.6713 2.26184 10.704 2.3846 10.73 2.50737C10.8627 3.13726 10.8157 3.8042 10.5967 4.4092C10.7001 4.51483 10.8367 4.62985 10.9783 4.58561Z" fill="#87BE00"/>
<path d="M9.47041 3.64722L9.39185 6.77637L12.0627 6.84343L12.1413 3.71427L9.47041 3.64722Z" fill="#252722"/>
<path d="M17.3043 1.589C17.2263 1.78421 17.0975 1.96451 16.9166 2.07014C16.6152 2.246 16.2375 2.18847 15.8924 2.13538C15.5474 2.08174 15.1597 2.04966 14.8821 2.26147C14.9601 1.82127 15.0496 1.35619 15.3488 1.02383C15.6403 0.699758 16.0843 0.558736 16.5151 0.489609C16.9459 0.421034 17.3884 0.409421 17.8053 0.282227C17.6251 0.435966 17.5338 0.669882 17.478 0.900491C17.421 1.13055 17.3928 1.3689 17.3043 1.589Z" fill="#87BE00"/>
<path d="M15.9428 1.66013C15.6121 1.79286 15.2947 1.95877 14.9966 2.15454C15.5037 1.49921 16.5428 1.47653 17.0759 0.842773C17.0002 1.07172 16.8133 1.24924 16.6059 1.37201C16.3974 1.49368 16.1662 1.56999 15.9428 1.66013Z" fill="#ADD250"/>
<path d="M15.8218 1.15918C15.6216 1.42629 15.4214 1.69394 15.2212 1.96105C15.511 1.78353 15.6924 1.47385 15.8218 1.15918Z" fill="#ADD250"/>
<path d="M16.3791 0.894531C16.2707 1.14505 16.1147 1.37565 15.9229 1.57031C15.9981 1.51888 16.013 1.57917 16.0805 1.51889C16.1197 1.4835 16.3702 1.23796 16.3791 0.894531Z" fill="#ADD250"/>
<path d="M16.0804 1.51836C16.0672 1.52002 16.0511 1.52278 16.0445 1.5344C16.0307 1.55928 16.0677 1.5803 16.0959 1.58472C16.2452 1.6074 16.3957 1.63008 16.5455 1.61404C16.6954 1.59745 16.8464 1.53716 16.9409 1.41992C16.6539 1.4531 16.3669 1.48518 16.0804 1.51836Z" fill="#ADD250"/>
<path d="M16.6539 1.82572C16.2884 1.8495 15.92 1.82241 15.5622 1.74609C15.5573 1.81965 15.6352 1.86886 15.7055 1.89098C16.0113 1.98887 16.3431 1.90757 16.6539 1.82572Z" fill="#ADD250"/>
<path d="M14.8268 1.07664C14.6199 0.659113 14.1891 0.383154 13.7357 0.275315C13.2822 0.166923 12.806 0.207854 12.3481 0.293019C12.5649 0.367123 12.717 0.568972 12.7978 0.783543C12.8785 0.998115 12.9012 1.22929 12.9415 1.45492C12.9825 1.68 13.0461 1.91005 13.1937 2.08591C13.4022 2.33422 13.7489 2.4321 14.073 2.41551C14.3971 2.39892 14.7068 2.28389 15.0104 2.16997C15.0032 1.79668 14.9927 1.41067 14.8268 1.07664Z" fill="#87BE00"/>
<path d="M13.912 1.30215C13.719 1.04998 13.5625 0.734757 13.2644 0.623047C13.5448 0.886837 13.7129 1.24463 13.9396 1.55542C14.1664 1.86622 14.4987 2.14882 14.8831 2.1361C14.5308 1.89222 14.1719 1.64281 13.912 1.30215Z" fill="#ADD250"/>
<path d="M14.2509 0.945312C14.2294 1.11288 14.2072 1.281 14.2216 1.44912C14.236 1.61724 14.2891 1.78646 14.4019 1.912C14.3991 1.79642 14.3792 1.68194 14.3593 1.56802C14.3228 1.36008 14.2869 1.15269 14.2509 0.945312Z" fill="#ADD250"/>
<path d="M13.7899 1.34224C13.8098 1.38648 13.8844 1.36436 13.8999 1.31846C13.9154 1.27256 13.8253 0.676949 13.7434 0.621094C13.7594 0.861104 13.7749 1.10168 13.7899 1.34224Z" fill="#ADD250"/>
<path d="M13.8452 1.42774C13.8701 1.42553 13.8988 1.41944 13.9116 1.39731C13.9259 1.37298 13.9121 1.33982 13.8883 1.32323C13.8646 1.30774 13.8347 1.29723 13.8065 1.30166C13.5709 1.33539 13.4542 1.28396 13.2258 1.24414C13.3984 1.38295 13.6257 1.45042 13.8452 1.42774Z" fill="#ADD250"/>
<path d="M13.4436 1.69336C13.7024 1.85208 14.0248 1.90407 14.3207 1.83494C14.3124 1.80618 14.3041 1.77797 14.2958 1.75032C14.0116 1.73152 13.7279 1.71216 13.4436 1.69336Z" fill="#ADD250"/>
<path d="M15.148 4.69066C15.3051 4.64144 15.3399 4.43849 15.3471 4.27424C15.3648 3.86833 15.3825 3.45965 15.3393 3.05594C15.2962 2.65113 15.19 2.24798 14.976 1.90234C14.8809 1.98419 14.8422 2.11637 14.8416 2.24135C14.8411 2.36688 14.8737 2.48965 14.8991 2.61242C15.0319 3.24231 14.9854 3.90869 14.7659 4.51425C14.8698 4.61988 15.007 4.7349 15.148 4.69066Z" fill="#87BE00"/>
<path d="M13.6408 3.75226L13.5623 6.88086L16.2331 6.94792L16.3116 3.81931L13.6408 3.75226Z" fill="#252722"/>
<path d="M21.4747 1.69307C21.3967 1.88773 21.2679 2.06803 21.087 2.17365C20.7851 2.35007 20.4079 2.29199 20.0629 2.2389C19.7178 2.18581 19.3301 2.15319 19.0525 2.36445C19.1305 1.92424 19.2201 1.45915 19.5192 1.12734C19.8112 0.803274 20.2548 0.661699 20.6856 0.593124C21.1164 0.523997 21.5588 0.512937 21.9757 0.385742C21.7955 0.539482 21.7042 0.773411 21.6484 1.00347C21.5914 1.23408 21.5626 1.47297 21.4747 1.69307Z" fill="#87BE00"/>
<path d="M20.1127 1.76463C19.782 1.8979 19.4646 2.06381 19.1665 2.25848C19.6736 1.60315 20.7128 1.58103 21.2459 0.947266C21.1695 1.17566 20.9832 1.3532 20.7752 1.47597C20.5673 1.59874 20.3361 1.67448 20.1127 1.76463Z" fill="#ADD250"/>
<path d="M19.992 1.26367C19.7918 1.53078 19.5916 1.79843 19.3909 2.06554C19.6807 1.88802 19.8626 1.57779 19.992 1.26367Z" fill="#ADD250"/>
<path d="M20.5488 0.999023C20.4404 1.24954 20.285 1.48014 20.0925 1.6748C20.1672 1.62337 20.1821 1.68421 20.2501 1.62338C20.2894 1.58909 20.5405 1.34245 20.5488 0.999023Z" fill="#ADD250"/>
<path d="M20.2504 1.62286C20.2366 1.62452 20.2211 1.62728 20.2139 1.63889C20.2001 1.66378 20.2377 1.68534 20.2653 1.68922C20.4141 1.71189 20.5651 1.73457 20.7149 1.71853C20.8648 1.70249 21.0158 1.64165 21.1103 1.52441C20.8239 1.5576 20.5374 1.59078 20.2504 1.62286Z" fill="#ADD250"/>
<path d="M20.8238 1.92911C20.4583 1.95289 20.09 1.92635 19.7322 1.85059C19.7272 1.92358 19.8052 1.9728 19.8754 1.99547C20.1818 2.0928 20.513 2.01096 20.8238 1.92911Z" fill="#ADD250"/>
<path d="M18.9972 1.18072C18.7898 0.763189 18.3596 0.4878 17.9061 0.379408C17.4526 0.271569 16.9765 0.312483 16.5186 0.397095C16.7353 0.471752 16.8869 0.673605 16.9682 0.888176C17.0489 1.10275 17.071 1.33336 17.1119 1.559C17.1529 1.78407 17.2165 2.01413 17.3641 2.18999C17.5726 2.43829 17.9194 2.53618 18.2434 2.51959C18.5675 2.50355 18.8772 2.38797 19.1808 2.27405C19.173 1.90131 19.1625 1.51474 18.9972 1.18072Z" fill="#87BE00"/>
<path d="M18.0818 1.40762C17.8888 1.15489 17.7323 0.839672 17.4348 0.728516C17.7152 0.992306 17.8833 1.35066 18.1101 1.66091C18.3368 1.97226 18.6692 2.2543 19.0541 2.24213C18.7007 1.99769 18.3423 1.74773 18.0818 1.40762Z" fill="#ADD250"/>
<path d="M18.4209 1.0498C18.3993 1.21737 18.3772 1.38549 18.3915 1.55361C18.4059 1.72173 18.4596 1.89096 18.5718 2.01705C18.5691 1.90091 18.5492 1.78643 18.5292 1.67251C18.4933 1.46513 18.4574 1.25774 18.4209 1.0498Z" fill="#ADD250"/>
<path d="M17.9603 1.44727C17.9802 1.49151 18.0548 1.46884 18.0703 1.42294C18.0858 1.37703 17.9957 0.781441 17.9138 0.725586C17.9293 0.966149 17.9448 1.20616 17.9603 1.44727Z" fill="#ADD250"/>
<path d="M18.0156 1.53365C18.0404 1.53088 18.0692 1.52479 18.0819 1.50322C18.0963 1.47889 18.0825 1.4457 18.0587 1.42911C18.0355 1.41308 18.0051 1.40313 17.9774 1.40701C17.7418 1.44074 17.6251 1.38985 17.3967 1.35059C17.5682 1.48829 17.796 1.55577 18.0156 1.53365Z" fill="#ADD250"/>
<path d="M17.614 1.79883C17.8728 1.9581 18.1952 2.01009 18.4911 1.94041C18.4828 1.9122 18.4745 1.884 18.4662 1.85634C18.182 1.83699 17.8983 1.81763 17.614 1.79883Z" fill="#ADD250"/>
<path d="M19.3184 4.79557C19.4754 4.74636 19.5103 4.5434 19.5174 4.37916C19.5351 3.97324 19.5528 3.56511 19.5097 3.16085C19.4666 2.75715 19.3604 2.3529 19.1464 2.00781C19.0518 2.08911 19.0125 2.22128 19.012 2.34626C19.0114 2.47235 19.0441 2.59456 19.07 2.71733C19.2028 3.34722 19.1563 4.01415 18.9368 4.6186C19.0402 4.72478 19.1768 4.83982 19.3184 4.79557Z" fill="#87BE00"/>
<path d="M17.8136 3.85968L17.7344 6.98828L20.4052 7.05587L20.4844 3.92727L17.8136 3.85968Z" fill="#252722"/>
<path d="M25.6444 1.79896C25.5664 1.99362 25.4376 2.17392 25.2567 2.27954C24.9553 2.45596 24.5776 2.39843 24.2325 2.34479C23.8875 2.2917 23.4998 2.25962 23.2222 2.47088C23.3001 2.03067 23.3897 1.56558 23.6889 1.23377C23.9804 0.909702 24.4244 0.768144 24.8552 0.69957C25.286 0.630442 25.7285 0.619382 26.1454 0.492188C25.9651 0.645927 25.8739 0.87984 25.818 1.1099C25.7611 1.33995 25.7329 1.57886 25.6444 1.79896Z" fill="#87BE00"/>
<path d="M24.283 1.86954C23.9522 2.00282 23.6348 2.16873 23.3362 2.3645C23.8433 1.70917 24.8824 1.68649 25.4155 1.05273C25.3398 1.28168 25.1528 1.45865 24.9449 1.58142C24.7375 1.70363 24.5064 1.7794 24.283 1.86954Z" fill="#ADD250"/>
<path d="M24.1619 1.36914C23.9617 1.63625 23.7615 1.9039 23.5613 2.17045C23.8511 1.99349 24.0325 1.68326 24.1619 1.36914Z" fill="#ADD250"/>
<path d="M24.7192 1.10449C24.6108 1.35556 24.4554 1.58617 24.2629 1.78083C24.3376 1.72885 24.3525 1.78968 24.4206 1.72885C24.4598 1.69401 24.7103 1.44792 24.7192 1.10449Z" fill="#ADD250"/>
<path d="M24.4208 1.72874C24.4075 1.7304 24.3915 1.73372 24.3848 1.74533C24.371 1.76967 24.4081 1.79124 24.4363 1.79566C24.585 1.81834 24.736 1.84101 24.8859 1.82442C25.0352 1.80838 25.1867 1.74755 25.2813 1.63086C24.9943 1.66349 24.7072 1.69612 24.4208 1.72874Z" fill="#ADD250"/>
<path d="M24.994 2.0347C24.629 2.05848 24.2601 2.03139 23.9023 1.95508C23.8973 2.02808 23.9753 2.07784 24.0456 2.09997C24.3514 2.1984 24.6832 2.11655 24.994 2.0347Z" fill="#ADD250"/>
<path d="M23.1669 1.2866C22.96 0.869074 22.5292 0.593115 22.0758 0.485276C21.6223 0.376884 21.1461 0.417815 20.6882 0.50298C20.905 0.577084 21.0571 0.778933 21.1378 0.993504C21.2186 1.20808 21.2407 1.43924 21.2816 1.66432C21.3225 1.88996 21.3861 2.12001 21.5338 2.29531C21.7423 2.54417 22.089 2.6415 22.4131 2.62546C22.7372 2.60887 23.0469 2.49384 23.351 2.37992C23.3433 2.00663 23.3328 1.61952 23.1669 1.2866Z" fill="#87BE00"/>
<path d="M22.2515 1.51211C22.0585 1.25938 21.902 0.944165 21.6045 0.833008C21.8849 1.09735 22.053 1.45516 22.2797 1.76651C22.507 2.07731 22.8394 2.3599 23.2237 2.34718C22.8709 2.10219 22.512 1.85277 22.2515 1.51211Z" fill="#ADD250"/>
<path d="M22.5913 1.15527C22.5692 1.32229 22.5476 1.49096 22.562 1.65908C22.5764 1.8272 22.63 1.99642 22.7423 2.12196C22.7395 2.00638 22.7196 1.8919 22.6997 1.77742C22.6632 1.57004 22.6273 1.36266 22.5913 1.15527Z" fill="#ADD250"/>
<path d="M22.1304 1.55121C22.1503 1.59545 22.225 1.57277 22.2405 1.52687C22.256 1.48152 22.1664 0.88538 22.084 0.830078C22.0995 1.07064 22.115 1.3112 22.1304 1.55121Z" fill="#ADD250"/>
<path d="M22.1853 1.63868C22.2102 1.63592 22.2389 1.63037 22.2517 1.60825C22.266 1.58392 22.2522 1.55074 22.2284 1.53415C22.2047 1.51811 22.1748 1.50817 22.1466 1.51204C21.911 1.54577 21.7943 1.4949 21.5659 1.45508C21.7385 1.59389 21.9657 1.6608 22.1853 1.63868Z" fill="#ADD250"/>
<path d="M21.7844 1.90332C22.0432 2.06204 22.3656 2.11402 22.6615 2.04434C22.6532 2.01614 22.6449 1.98793 22.6366 1.96028C22.3518 1.94092 22.0681 1.92212 21.7844 1.90332Z" fill="#ADD250"/>
<path d="M23.4888 4.90007C23.6459 4.85085 23.6807 4.64845 23.6879 4.48365C23.7056 4.07773 23.7233 3.66961 23.6802 3.2659C23.637 2.86164 23.5303 2.45794 23.3163 2.1123C23.2217 2.19415 23.1825 2.32633 23.1819 2.45131C23.1813 2.57684 23.214 2.69906 23.24 2.82238C23.3727 3.45227 23.3262 4.11865 23.1067 4.72365C23.2101 4.82928 23.3473 4.94486 23.4888 4.90007Z" fill="#87BE00"/>
<path d="M21.9811 3.96223L21.9026 7.09082L24.5734 7.15788L24.652 4.02928L21.9811 3.96223Z" fill="#252722"/>
<path d="M23.0651 22.584C18.7389 21.8706 14.0697 12.3648 13.8098 11.9511L14.7422 11.3633C16.4416 14.0609 20.0578 20.9709 23.2443 21.4963C23.8753 21.6002 24.0584 21.3674 24.1275 21.2789C25.0461 20.1098 24.0805 14.448 22.9844 11.8726L23.9981 11.4407C24.5146 12.6529 26.5779 19.9428 24.9941 21.9597C24.696 22.3401 24.1186 22.7571 23.0651 22.584Z" fill="#A0A19F"/>
<path d="M25.6716 11.0382L9.44384 13.2525L2.12573 3.5752L28.9228 5.0429L25.6716 11.0382Z" fill="#CD5A24"/>
<path d="M10.4337 15.2435L9.28125 14.2182L10.7739 12.5409C11.224 12.0349 11.8567 11.728 12.5325 11.6876L25.2204 10.9266C25.4891 10.9106 25.7468 10.8149 25.9603 10.6518L34.3352 2.31776L43.574 1.08398L43.7786 2.61309L34.9458 3.79268L26.5227 12.1643C26.3087 12.3274 26.051 12.4231 25.7828 12.4391L12.8383 13.215C12.4335 13.2393 12.0541 13.4235 11.7848 13.7266L10.4337 15.2435Z" fill="#C0C3C4"/>
<path d="M34.2124 2.369L34.8777 3.74656C34.9556 3.90749 35.1265 4.0015 35.304 3.97994L43.6314 2.98063C43.8592 2.95353 44.0224 2.74726 43.9975 2.51886L43.8255 0.988101C43.7995 0.755833 43.5877 0.589382 43.3554 0.619798L34.5348 1.77228C34.2516 1.80933 34.0885 2.11239 34.2124 2.369Z" fill="#252722"/>
<path d="M9.80511 22.8049C12.7569 21.5732 14.1513 18.1818 12.9196 15.23C11.6879 12.2782 8.29652 10.8838 5.34471 12.1155C2.39291 13.3472 0.998497 16.7386 2.2302 19.6904C3.46191 22.6422 6.85331 24.0366 9.80511 22.8049Z" fill="#252722"/>
<path d="M7.5801 21.6714C9.91263 21.6714 11.8035 19.7805 11.8035 17.448C11.8035 15.1155 9.91263 13.2246 7.5801 13.2246C5.24758 13.2246 3.35669 15.1155 3.35669 17.448C3.35669 19.7805 5.24758 21.6714 7.5801 21.6714Z" fill="#C0C3C4"/>
<path d="M10.7382 17.4483C10.7382 19.1926 9.32414 20.6066 7.57992 20.6066C5.8357 20.6066 4.42163 19.1926 4.42163 17.4483C4.42163 15.7041 5.8357 14.29 7.57992 14.29C9.3247 14.29 10.7382 15.7041 10.7382 17.4483Z" fill="#A0A4A6"/>
<path d="M8.46163 17.4474C8.46163 17.934 8.06732 18.3283 7.58067 18.3283C7.09401 18.3283 6.69971 17.934 6.69971 17.4474C6.69971 16.9607 7.09401 16.5664 7.58067 16.5664C8.06732 16.5664 8.46163 16.9607 8.46163 17.4474Z" fill="#5C6366"/>
</svg>
