<svg width="45" height="32" viewBox="0 0 45 32" fill="none" xmlns="http://www.w3.org/2000/svg">
<path d="M8.11654 6.27734H6.16333V13.8143H8.11654V6.27734Z" fill="#87BE00"/>
<path d="M2.01135 3.88254C2.40677 5.07956 3.65515 5.76888 4.85456 6.15773C5.83057 6.47371 6.8454 6.66963 7.8692 6.73951C7.98926 3.76548 5.89509 0.842811 3.04052 0C2.32195 1.18268 1.57651 2.56786 2.01135 3.88254Z" fill="#87BE00"/>
<path d="M4.24585 2.32715C5.33655 3.82701 6.63033 5.17812 8.08002 6.33392C7.61292 6.56867 7.03172 6.47669 6.58254 6.20909C6.13395 5.94149 5.79767 5.52158 5.50738 5.08674C4.94351 4.24214 4.51584 3.30615 4.24585 2.32715Z" fill="#ADD250"/>
<path d="M12.1855 4.29856C11.7901 5.49558 10.5417 6.18487 9.34226 6.57373C8.36625 6.88971 7.35142 7.08562 6.32762 7.15551C6.20816 4.18148 8.30235 1.25883 11.1563 0.416016C11.8749 1.5993 12.6203 2.98387 12.1855 4.29856Z" fill="#87BE00"/>
<path d="M10.4765 2.32715C9.3858 3.82701 8.09202 5.17812 6.64233 6.33392C7.10943 6.56867 7.69061 6.47669 8.13979 6.20909C8.58838 5.94149 8.92527 5.52158 9.21497 5.08674C9.77884 4.24214 10.2065 3.30615 10.4765 2.32715Z" fill="#ADD250"/>
<path d="M10.1069 9.59961H4.27588V24.5576H10.1069V9.59961Z" fill="#5F625E"/>
<path d="M15.9986 6.27734H14.0454V13.8143H15.9986V6.27734Z" fill="#87BE00"/>
<path d="M9.89337 3.88254C10.2888 5.07956 11.5372 5.76888 12.7366 6.15773C13.7126 6.47371 14.7274 6.66963 15.7512 6.73951C15.8713 3.76548 13.7771 0.842811 10.9225 0C10.2046 1.18268 9.45853 2.56786 9.89337 3.88254Z" fill="#87BE00"/>
<path d="M12.1287 2.32715C13.2194 3.82701 14.5125 5.17812 15.9622 6.33392C15.4957 6.56867 14.914 6.47669 14.4654 6.20909C14.0162 5.94149 13.6799 5.52158 13.3896 5.08674C12.8257 4.24214 12.3981 3.30615 12.1287 2.32715Z" fill="#ADD250"/>
<path d="M20.0683 4.29856C19.6729 5.49558 18.4245 6.18487 17.2251 6.57373C16.2491 6.88971 15.2343 7.08562 14.2105 7.15551C14.0904 4.18148 16.1846 1.25883 19.0392 0.416016C19.7577 1.5993 20.5032 2.98387 20.0683 4.29856Z" fill="#87BE00"/>
<path d="M18.3587 2.32715C17.268 3.82701 15.9748 5.17812 14.5251 6.33392C14.9916 6.56867 15.5734 6.47669 16.022 6.20909C16.4706 5.94149 16.8069 5.52158 17.0978 5.08674C17.6616 4.24214 18.0893 3.30615 18.3587 2.32715Z" fill="#ADD250"/>
<path d="M17.9888 9.59961H12.1584V24.5576H17.9888V9.59961Z" fill="#5F625E"/>
<path d="M23.8813 6.27734H21.9275V13.8143H23.8813V6.27734Z" fill="#87BE00"/>
<path d="M17.7757 3.88254C18.1717 5.07956 19.4201 5.76888 20.6195 6.15773C21.5955 6.47371 22.6104 6.66963 23.6336 6.73951C23.7536 3.76548 21.6595 0.842811 18.8055 0C18.0869 1.18268 17.3421 2.56786 17.7757 3.88254Z" fill="#87BE00"/>
<path d="M20.0112 2.32715C21.1019 3.82701 22.3957 5.17812 23.8454 6.33392C23.3783 6.56867 22.7971 6.47669 22.3479 6.20909C21.8994 5.94149 21.5631 5.52158 21.2722 5.08674C20.7077 4.24214 20.2806 3.30615 20.0112 2.32715Z" fill="#ADD250"/>
<path d="M27.9502 4.29856C27.5548 5.49558 26.3064 6.18487 25.107 6.57373C24.1309 6.88971 23.1161 7.08562 22.0923 7.15551C21.9723 4.18148 24.067 1.25883 26.921 0.416016C27.6402 1.5993 28.385 2.98387 27.9502 4.29856Z" fill="#87BE00"/>
<path d="M26.2408 2.32715C25.1501 3.82701 23.8569 5.17812 22.4072 6.33392C22.8737 6.56867 23.4555 6.47669 23.9041 6.20909C24.3533 5.94149 24.6896 5.52158 24.9799 5.08674C25.5437 4.24214 25.9714 3.30615 26.2408 2.32715Z" fill="#ADD250"/>
<path d="M25.8715 9.59961H20.0405V24.5576H25.8715V9.59961Z" fill="#5F625E"/>
<path d="M31.764 6.27734H29.8108V13.8143H31.764V6.27734Z" fill="#87BE00"/>
<path d="M25.6591 3.88254C26.0545 5.07956 27.3029 5.76888 28.5023 6.15773C29.4783 6.47371 30.4931 6.66963 31.5169 6.73951C31.637 3.76548 29.5428 0.842811 26.6882 0C25.9697 1.18268 25.2242 2.56786 25.6591 3.88254Z" fill="#87BE00"/>
<path d="M27.894 2.32715C28.9847 3.82701 30.2779 5.17812 31.7276 6.33392C31.2611 6.56867 30.6793 6.47669 30.2307 6.20909C29.7815 5.94149 29.4453 5.52158 29.155 5.08674C28.5911 4.24214 28.1634 3.30615 27.894 2.32715Z" fill="#ADD250"/>
<path d="M35.8337 4.29856C35.4377 5.49558 34.1899 6.18487 32.9899 6.57373C32.0139 6.88971 30.9997 7.08562 29.9759 7.15551C29.8558 4.18148 31.95 1.25883 34.804 0.416016C35.5225 1.5993 36.268 2.98387 35.8337 4.29856Z" fill="#87BE00"/>
<path d="M34.1235 2.32715C33.0328 3.82701 31.7396 5.17812 30.2893 6.33392C30.7564 6.56867 31.3376 6.47669 31.7868 6.20909C32.2354 5.94149 32.5723 5.52158 32.8625 5.08674C33.4264 4.24214 33.8541 3.30615 34.1235 2.32715Z" fill="#ADD250"/>
<path d="M33.7543 9.59961H27.9233V24.5576H33.7543V9.59961Z" fill="#5F625E"/>
<path d="M39.3512 6.27734H37.3979V13.8143H39.3512V6.27734Z" fill="#87BE00"/>
<path d="M33.2462 3.88254C33.6422 5.07956 34.89 5.76888 36.09 6.15773C37.066 6.47371 38.0809 6.66963 39.1041 6.73951C39.2241 3.76548 37.1299 0.842811 34.276 0C33.5568 1.18268 32.8114 2.56786 33.2462 3.88254Z" fill="#87BE00"/>
<path d="M35.4812 2.32715C36.5719 3.82701 37.8651 5.17812 39.3148 6.33392C38.8483 6.56867 38.2665 6.47669 37.8179 6.20909C37.3693 5.94149 37.033 5.52158 36.7421 5.08674C36.1783 4.24214 35.7506 3.30615 35.4812 2.32715Z" fill="#ADD250"/>
<path d="M43.4209 4.29856C43.0255 5.49558 41.7771 6.18487 40.5777 6.57373C39.6017 6.88971 38.5868 7.08562 37.563 7.15551C37.443 4.18148 39.5372 1.25883 42.3917 0.416016C43.1097 1.5993 43.8551 2.98387 43.4209 4.29856Z" fill="#87BE00"/>
<path d="M41.7113 2.32715C40.6206 3.82701 39.3274 5.17812 37.8777 6.33392C38.3442 6.56867 38.926 6.47669 39.3746 6.20909C39.8237 5.94149 40.1594 5.52158 40.4503 5.08674C41.0142 4.24214 41.4413 3.30615 41.7113 2.32715Z" fill="#ADD250"/>
<path d="M41.3416 9.59961H35.5112V24.5576H41.3416V9.59961Z" fill="#5F625E"/>
<path d="M42.7865 14.1699H2.66553V19.6013H42.7865V14.1699Z" fill="#DA9616"/>
<path d="M42.7865 23.5635H2.66553V28.9943H42.7865V23.5635Z" fill="#DA9616"/>
<path d="M7.89305 11.1777H0.559814V31.7749H7.89305V11.1777Z" fill="#F0B950"/>
<path d="M26.2265 11.1777H18.8933V31.7749H26.2265V11.1777Z" fill="#F0B950"/>
<path d="M44.5597 11.1777H37.2271V31.7749H44.5597V11.1777Z" fill="#F0B950"/>
<path d="M5.25106 14.1703C5.25106 14.736 4.79233 15.1947 4.22667 15.1947C3.66161 15.1947 3.20288 14.7365 3.20288 14.1703C3.20288 13.6052 3.66161 13.1465 4.22667 13.1465C4.79233 13.1465 5.25106 13.6046 5.25106 14.1703Z" fill="#BF7D3A"/>
<path d="M5.25106 28.5664C5.25106 29.1314 4.79233 29.5902 4.22667 29.5902C3.66161 29.5902 3.20288 29.1314 3.20288 28.5664C3.20288 28.0007 3.66161 27.542 4.22667 27.542C4.79233 27.542 5.25106 28.0007 5.25106 28.5664Z" fill="#BF7D3A"/>
<path d="M23.5838 14.1703C23.5838 14.736 23.1257 15.1947 22.56 15.1947C21.9944 15.1947 21.5356 14.7365 21.5356 14.1703C21.5356 13.6052 21.9944 13.1465 22.56 13.1465C23.1251 13.1465 23.5838 13.6046 23.5838 14.1703Z" fill="#BF7D3A"/>
<path d="M23.5838 28.5664C23.5838 29.1314 23.1257 29.5902 22.56 29.5902C21.9944 29.5902 21.5356 29.1314 21.5356 28.5664C21.5356 28.0007 21.9944 27.542 22.56 27.542C23.1251 27.542 23.5838 28.0007 23.5838 28.5664Z" fill="#BF7D3A"/>
<path d="M41.9173 14.1703C41.9173 14.736 41.4586 15.1947 40.8929 15.1947C40.3279 15.1947 39.8691 14.7365 39.8691 14.1703C39.8691 13.6052 40.3279 13.1465 40.8929 13.1465C41.4592 13.1465 41.9173 13.6046 41.9173 14.1703Z" fill="#BF7D3A"/>
<path d="M41.9173 28.5664C41.9173 29.1314 41.4586 29.5902 40.8929 29.5902C40.3279 29.5902 39.8691 29.1314 39.8691 28.5664C39.8691 28.0007 40.3279 27.542 40.8929 27.542C41.4592 27.542 41.9173 28.0007 41.9173 28.5664Z" fill="#BF7D3A"/>
</svg>
