<svg width="45" height="44" viewBox="0 0 45 44" fill="none" xmlns="http://www.w3.org/2000/svg">
<path d="M40.811 41.7223V18.4643H40.8065C40.7114 8.25048 32.4056 0 22.1693 0C11.933 0 3.62726 8.25113 3.53212 18.4643H3.52698V41.7223H40.811Z" fill="#7A685F"/>
<path d="M15.296 10.4354C15.296 12.1242 13.9267 13.4928 12.2379 13.4928C10.5491 13.4928 9.18042 12.1242 9.18042 10.4354C9.18042 8.74659 10.5491 7.37793 12.2379 7.37793C13.9267 7.37793 15.296 8.74659 15.296 10.4354Z" fill="white"/>
<path d="M13.8076 40.1256C14.7198 39.0983 16.2916 37.6975 17.3761 36.8547C18.4613 36.0119 19.7329 35.3607 21.0983 35.2115C22.5865 35.0489 24.087 35.4905 25.4216 36.1694C27.3842 37.1671 29.046 38.6572 30.6827 40.13C28.3459 41.7327 13.8076 40.1256 13.8076 40.1256Z" fill="#664A3B"/>
<path d="M32.1227 22.4651C31.8006 23.3311 31.2535 24.1391 30.4686 24.6251C29.1604 25.4351 27.4928 25.2217 25.9667 25.0263C24.4405 24.8309 22.7311 24.7299 21.5303 25.6929C21.8247 23.7464 22.168 21.6886 23.4479 20.1926C24.6964 18.7327 26.6352 18.0615 28.5246 17.7105C30.4133 17.3602 32.3599 17.2618 34.1824 16.6543C33.4059 17.3524 33.0311 18.392 32.8093 19.4122C32.5875 20.433 32.4872 21.486 32.1227 22.4651Z" fill="#87BE00"/>
<path d="M26.1352 22.9311C24.6939 23.5547 23.3137 24.3197 22.0228 25.2133C24.1828 22.2722 28.7555 22.0581 31.0332 19.207C30.7233 20.2228 29.921 21.025 29.0204 21.5875C28.1191 22.1501 27.1098 22.5101 26.1352 22.9311Z" fill="#ADD250"/>
<path d="M25.5484 20.7383C24.6959 21.9372 23.8435 23.1362 22.9917 24.3351C24.2466 23.5212 25.0128 22.1352 25.5484 20.7383Z" fill="#ADD250"/>
<path d="M27.9714 19.5107C27.5207 20.6274 26.8611 21.6592 26.037 22.5367C26.361 22.3014 26.4336 22.5656 26.7255 22.293C26.8952 22.1349 27.9714 21.024 27.9714 19.5107Z" fill="#ADD250"/>
<path d="M26.726 22.2934C26.6655 22.3018 26.5974 22.3159 26.5685 22.3693C26.5093 22.4792 26.6758 22.5692 26.7999 22.5846C27.4582 22.6676 28.1248 22.7511 28.7831 22.6624C29.4401 22.5737 30.0984 22.2915 30.5034 21.7656C29.2441 21.9411 27.9853 22.1173 26.726 22.2934Z" fill="#ADD250"/>
<path d="M29.2846 23.5778C27.6794 23.7231 26.0536 23.646 24.4689 23.3496C24.4548 23.6723 24.8045 23.8806 25.1156 23.9719C26.4746 24.3692 27.9249 23.9732 29.2846 23.5778Z" fill="#ADD250"/>
<path d="M21.1575 20.4844C20.199 18.669 18.273 17.5028 16.2647 17.076C14.2571 16.6491 12.1645 16.8825 10.1562 17.3087C11.1193 17.6108 11.8097 18.4832 12.189 19.4185C12.5683 20.3539 12.6923 21.369 12.8974 22.3571C13.1018 23.3451 13.4098 24.3512 14.0777 25.1072C15.0246 26.1782 16.5611 26.5697 17.9863 26.4604C19.4115 26.3518 20.7622 25.8099 22.0878 25.2744C22.0138 23.6357 21.9238 21.9353 21.1575 20.4844Z" fill="#87BE00"/>
<path d="M17.1531 21.5797C16.275 20.4894 15.5505 19.1182 14.2268 18.6611C15.49 19.7913 16.2705 21.3502 17.3035 22.6938C18.3366 24.0374 19.8319 25.246 21.5239 25.147C19.9444 24.1113 18.3373 23.0512 17.1531 21.5797Z" fill="#ADD250"/>
<path d="M18.6079 19.9707C18.5302 20.7087 18.4524 21.4544 18.534 22.1924C18.6156 22.9304 18.8696 23.6704 19.3787 24.2117C19.3537 23.7025 19.2534 23.1998 19.1531 22.6996C18.9712 21.79 18.7899 20.8797 18.6079 19.9707Z" fill="#ADD250"/>
<path d="M16.6215 21.7676C16.7134 21.9605 17.04 21.8531 17.1037 21.65C17.1673 21.4462 16.7044 18.8329 16.338 18.5977C16.4325 19.6539 16.5277 20.7107 16.6215 21.7676Z" fill="#ADD250"/>
<path d="M16.8741 22.1423C16.9847 22.1288 17.1087 22.0999 17.1634 22.0022C17.2245 21.8929 17.1576 21.7476 17.0522 21.6788C16.9467 21.6107 16.8143 21.5702 16.6902 21.5907C15.6572 21.7649 15.1365 21.5528 14.1278 21.4043C14.9005 21.9938 15.9098 22.2651 16.8741 22.1423Z" fill="#ADD250"/>
<path d="M15.1372 23.3555C16.295 24.0266 17.7202 24.2201 19.0143 23.8807C18.9738 23.7579 18.934 23.6345 18.8935 23.5117C17.6418 23.4596 16.3895 23.4075 15.1372 23.3555Z" fill="#ADD250"/>
<path d="M22.9729 36.3626C23.6589 36.1286 23.7907 35.2311 23.8035 34.5066C23.837 32.7163 23.8691 30.9182 23.6351 29.1426C23.4004 27.3677 22.8874 25.6024 21.9064 24.1045C21.4969 24.4761 21.3401 25.0598 21.3517 25.6127C21.3632 26.1649 21.5214 26.7017 21.6487 27.2391C22.3037 29.997 22.1719 32.9374 21.2726 35.6259C21.7399 36.081 22.3558 36.5728 22.9729 36.3626Z" fill="#87BE00"/>
<path d="M44.1687 39.5908H0.168701V43.7399H44.1687V39.5908Z" fill="#5F625E"/>
</svg>
