<svg width="43" height="42" viewBox="0 0 43 42" fill="none" xmlns="http://www.w3.org/2000/svg">
<path d="M9.32639 5.04222C10.2938 5.04222 11.053 5.80207 11.053 6.76951C11.053 7.73626 10.2938 8.49609 9.32639 8.49609C8.35964 8.49609 7.59912 7.73626 7.59912 6.76951C7.59912 5.80207 8.35964 5.04222 9.32639 5.04222Z" fill="#F2E8D1"/>
<path d="M2.41868 27.4924C3.38612 27.4924 4.14526 28.2523 4.14526 29.2197C4.14526 30.1871 3.38612 30.9463 2.41868 30.9463C1.45124 30.9463 0.691406 30.1871 0.691406 29.2197C0.691406 28.2523 1.45124 27.4924 2.41868 27.4924Z" fill="#F2E8D1"/>
<path d="M36.1285 32.6734C37.0959 32.6734 37.8557 33.4332 37.8557 34.4C37.8557 35.3674 37.0959 36.1279 36.1285 36.1279C35.161 36.1279 34.4019 35.3674 34.4019 34.4C34.4019 33.4332 35.161 32.6734 36.1285 32.6734Z" fill="#F2E8D1"/>
<path d="M36.1285 0.689681C37.0959 0.689681 37.8557 1.44953 37.8557 2.41697C37.8557 3.38441 37.0959 4.14355 36.1285 4.14355C35.161 4.14355 34.4019 3.38441 34.4019 2.41697C34.4019 1.44953 35.161 0.689681 36.1285 0.689681Z" fill="#F2E8D1"/>
<path d="M17.961 37.2326C17.961 37.5786 17.961 37.8547 17.961 38.2C16.7866 38.6145 15.6123 38.7529 14.5071 38.7529C12.9874 38.683 11.537 38.2692 10.3626 37.371C9.18758 36.4734 8.35923 35.2991 7.80631 33.9171C7.39179 32.812 7.18418 31.6376 7.25407 30.3248C8.49694 29.9103 9.6713 29.7034 10.8457 29.7719C12.2961 29.8411 13.6781 30.2557 14.8524 31.1539C16.0268 32.0514 16.925 33.2258 17.4081 34.6077C17.6849 35.4368 17.8918 36.2658 17.961 37.2326Z" fill="#8EC155"/>
<path d="M29.2208 24.5912C29.2208 25.834 29.0132 27.0783 28.6679 28.1834C28.1842 29.5647 27.2866 30.7391 26.1123 31.6373C24.8687 32.5348 23.4874 32.9494 21.9678 33.0186C20.8619 33.0186 19.6883 32.8801 18.5139 32.4663C18.5139 31.2221 18.6516 30.0484 19.0662 28.9426C19.5499 27.562 20.4474 26.3178 21.6218 25.4894C22.7968 24.6604 24.1781 24.1766 25.6286 24.1074C26.7337 23.969 27.9773 24.1766 29.2208 24.5912Z" fill="#8EC155"/>
<path d="M29.0821 10.9136C27.9078 10.6375 27.2171 9.46314 27.4933 8.28879C27.7694 7.11443 28.9444 6.4238 30.1188 6.69992C31.2924 6.97604 31.9838 8.15038 31.707 9.32473C31.5692 9.87765 31.2239 10.3614 30.7402 10.6375C30.1873 10.9828 29.635 11.052 29.0821 10.9136Z" fill="white"/>
<path d="M36.3356 14.3681C37.4414 16.1639 37.1646 18.3057 35.7833 19.1348C34.4021 19.9638 32.3987 19.204 31.2928 17.4075C30.2569 15.7494 30.879 12.9869 30.6714 10.7074C32.5364 11.881 35.3688 12.7101 36.3356 14.3681Z" fill="#F37D79"/>
<path d="M38.2016 7.9436C40.2043 8.42663 41.5862 10.0847 41.1717 11.6736C40.7572 13.2624 38.823 14.0915 36.8196 13.6078C34.9546 13.124 33.3657 10.776 31.6392 9.32486C33.8495 8.84114 36.4051 7.45988 38.2016 7.9436Z" fill="#FF99A7"/>
<path d="M29.0821 10.9133C29.5658 13.0551 30.9478 15.6107 30.4641 17.4757C29.9804 19.4791 28.3223 20.8604 26.7334 20.4459C25.1445 20.1005 24.3155 18.0978 24.7992 16.0944C25.2137 14.2294 27.6316 12.7091 29.0821 10.9133Z" fill="#FF99A7"/>
<path d="M36.1284 33.3645C35.5754 33.3645 35.0924 33.8482 35.0924 34.4004C35.0924 34.9534 35.5754 35.4371 36.1284 35.4371C36.6813 35.4371 37.1643 34.9534 37.1643 34.4004C37.1643 33.8482 36.6813 33.3645 36.1284 33.3645ZM36.1284 36.8184C34.8163 36.8184 33.7104 35.7132 33.7104 34.4004C33.7104 33.0884 34.8163 31.9832 36.1284 31.9832C37.4411 31.9832 38.5463 33.0884 38.5463 34.4004C38.5463 35.7132 37.4411 36.8184 36.1284 36.8184Z" fill="#111607"/>
<path d="M9.3261 5.73296C8.77386 5.73296 8.29015 6.21668 8.29015 6.7696C8.29015 7.32252 8.77386 7.80555 9.3261 7.80555C9.87902 7.80555 10.3627 7.32252 10.3627 6.7696C10.3627 6.14748 9.94822 5.73296 9.3261 5.73296ZM9.3261 9.1875C8.01334 9.1875 6.9082 8.08236 6.9082 6.7696C6.9082 5.45685 8.01334 4.35169 9.3261 4.35169C10.6389 4.35169 11.744 5.45685 11.744 6.7696C11.744 8.08236 10.7081 9.1875 9.3261 9.1875Z" fill="#111607"/>
<path d="M36.1284 1.3811C35.5754 1.3811 35.0924 1.86415 35.0924 2.41707C35.0924 2.96998 35.5754 3.45301 36.1284 3.45301C36.6813 3.45301 37.1643 2.96998 37.1643 2.41707C37.1643 1.86415 36.6813 1.3811 36.1284 1.3811ZM36.1284 4.83496C34.8163 4.83496 33.7104 3.72914 33.7104 2.41707C33.7104 1.10431 34.8163 -0.000847816 36.1284 -0.000847816C37.4411 -0.000847816 38.5463 1.10431 38.5463 2.41707C38.5463 3.72914 37.4411 4.83496 36.1284 4.83496Z" fill="#111607"/>
<path d="M2.41791 28.1838C1.86499 28.1838 1.38195 28.6669 1.38195 29.2198C1.38195 29.772 1.86499 30.2557 2.41791 30.2557C2.97083 30.2557 3.45386 29.772 3.45386 29.2198C3.45386 28.6669 3.03935 28.1838 2.41791 28.1838ZM2.41791 31.6377C1.10516 31.6377 0 30.5325 0 29.2198C0 27.9077 1.10516 26.8019 2.41791 26.8019C3.72998 26.8019 4.83583 27.9077 4.83583 29.2198C4.83583 30.5325 3.79987 31.6377 2.41791 31.6377Z" fill="#111607"/>
<path d="M29.2204 10.2234C29.5657 10.2926 29.9802 10.2234 30.3255 10.0158C30.6709 9.80884 30.8785 9.46352 30.9477 9.1182C31.1546 8.35836 30.6709 7.52933 29.8418 7.32241C29.7041 7.32241 29.6349 7.25321 29.4965 7.25321C28.8059 7.25321 28.253 7.73625 28.1152 8.35837C27.9768 9.25593 28.4606 10.085 29.2204 10.2234ZM29.5657 11.6738C29.3581 11.6738 29.1512 11.6738 28.9443 11.6046C27.4239 11.2593 26.4572 9.67044 26.8717 8.15077C27.1478 6.8387 28.3222 6.00966 29.6349 6.00966C29.8418 6.00966 30.1186 6.00966 30.3255 6.07886C31.8452 6.42418 32.8127 8.01236 32.3981 9.53272C32.1905 10.2926 31.776 10.914 31.1546 11.2593C30.6017 11.5361 30.1186 11.6738 29.5657 11.6738Z" fill="#111607"/>
<path d="M33.0203 9.67088C33.2964 9.94768 33.5732 10.2238 33.8493 10.4999C34.8853 11.5366 35.9212 12.6417 36.9578 12.9178C37.3032 12.987 37.5793 13.0562 37.9253 13.0562C39.2374 13.0562 40.2733 12.4341 40.4809 11.5365C40.757 10.3622 39.6519 9.04945 37.9938 8.63493C37.7869 8.56573 37.5793 8.56573 37.3724 8.56573C36.4049 8.56573 35.2313 8.98024 34.0562 9.32555C33.7801 9.46396 33.4348 9.53316 33.0203 9.67088ZM37.9938 14.4375C37.5793 14.4375 37.0962 14.3683 36.6817 14.2991C35.2313 13.9538 34.0562 12.7102 32.8819 11.4673C32.3296 10.9144 31.7767 10.293 31.2245 9.87848C31.0169 9.74008 30.9484 9.46396 31.0169 9.18784C31.0861 8.91104 31.293 8.70413 31.5698 8.70413C32.2604 8.56573 32.9511 8.28961 33.7801 8.08269C35.0237 7.66817 36.3357 7.25365 37.5108 7.25365C37.8561 7.25365 38.2014 7.32285 38.4775 7.39137C40.8954 7.94428 42.4836 10.0162 42.0006 11.9511C41.5169 13.4015 39.9287 14.4375 37.9938 14.4375Z" fill="#111607"/>
<path d="M31.4307 11.8811C31.4307 12.2956 31.4307 12.6416 31.4307 13.0561C31.4307 14.5066 31.3622 16.0955 31.9144 16.993C32.5358 18.0297 33.5725 18.7203 34.5392 18.7203C34.8845 18.7203 35.1607 18.6511 35.4375 18.5134C35.9205 18.2366 36.1973 17.6843 36.2665 16.993C36.335 16.2332 36.1281 15.4048 35.7136 14.7135C35.1607 13.7468 33.7794 13.0561 32.4666 12.434C32.1213 12.2271 31.776 12.0887 31.4307 11.8811ZM34.5392 20.1016C33.0888 20.1016 31.6383 19.204 30.7401 17.6843C29.9802 16.4408 29.9802 14.7135 30.0494 12.9869C30.0494 12.2271 30.0494 11.3981 29.9802 10.6382C29.9802 10.3621 30.0494 10.0853 30.3255 9.94758C30.5331 9.80918 30.8093 9.80918 31.0854 9.94758C31.6383 10.3621 32.3289 10.6382 33.0888 11.0527C34.6084 11.8126 36.1973 12.5724 36.9571 13.8845C37.5786 14.8519 37.8554 16.0263 37.717 17.0622C37.5786 18.1674 37.0264 19.0656 36.1973 19.6185C35.7136 19.9638 35.1607 20.1016 34.5392 20.1016Z" fill="#111607"/>
<path d="M29.0822 11.6055C28.6677 11.6055 28.3916 11.3294 28.3916 10.9148C28.3916 10.5003 28.6677 10.2242 29.0822 10.2242C29.4968 10.2242 29.7736 10.5003 29.7736 10.9148C29.7736 11.3294 29.4276 11.6055 29.0822 11.6055Z" fill="#111607"/>
<path d="M28.7365 12.2951C28.4604 12.5719 28.1836 12.848 27.9075 13.1241C26.8715 14.1607 25.7664 15.1967 25.4896 16.2326C25.2827 17.2001 25.3519 18.1668 25.8356 18.9274C26.0425 19.2727 26.3878 19.6872 26.9407 19.8249C27.0791 19.8249 27.2168 19.8941 27.286 19.8941C28.3912 19.8941 29.4272 18.789 29.7732 17.3378C30.0493 16.3019 29.5656 14.8514 29.0818 13.4009C28.9441 13.0556 28.8057 12.7096 28.7365 12.2951ZM27.286 21.2754C27.0791 21.2754 26.8023 21.2754 26.5954 21.2069C25.7664 20.9993 25.0757 20.5155 24.592 19.6872C23.9699 18.6506 23.763 17.2693 24.1083 15.9565C24.4536 14.5061 25.6972 13.3317 26.9407 12.1574C27.493 11.6044 28.1151 11.0522 28.5296 10.4993C28.6673 10.2924 28.9441 10.2232 29.2202 10.2924C29.4964 10.3616 29.704 10.5685 29.704 10.8446C29.8417 11.5359 30.1185 12.2266 30.3254 13.0556C30.8783 14.6445 31.4305 16.3018 31.0852 17.753C30.6015 19.7557 29.0126 21.2754 27.286 21.2754Z" fill="#111607"/>
<path d="M17.9606 42C17.6153 42 17.27 41.7239 17.27 41.3094C17.27 41.3094 17.27 40.0658 17.27 38.1309C17.27 37.8555 17.27 37.5095 17.27 37.1642C17.27 28.3223 17.6845 12.6418 20.2402 7.18456C21.0692 5.31888 22.4505 4.07602 23.9009 3.73001C25.0068 3.5231 26.0427 3.79991 27.0102 4.62826L28.806 6.14793C29.0821 6.42473 29.1513 6.83924 28.8752 7.11536C28.5984 7.39147 28.1838 7.46067 27.9077 7.18456L26.1119 5.66489C25.4898 5.11197 24.8684 4.90505 24.1777 5.04276C23.1418 5.25037 22.1052 6.28632 21.4837 7.7368C18.9281 13.194 18.6513 30.1187 18.6513 37.1642C18.6513 37.5095 18.6513 37.7863 18.6513 38.1309C18.6513 40.0658 18.6513 41.2402 18.6513 41.2402C18.6513 41.6547 18.3752 42 17.9606 42Z" fill="#111607"/>
<path d="M28.3225 42H9.32588C8.91136 42 8.63525 41.7239 8.63525 41.3094C8.63525 40.8948 8.91136 40.618 9.32588 40.618H28.3225C28.737 40.618 29.0131 40.8948 29.0131 41.3094C29.0131 41.6547 28.737 42 28.3225 42Z" fill="#111607"/>
<path d="M19.1359 31.9134C20.1026 32.1902 21.0009 32.3279 21.8991 32.2587C23.3496 32.1901 24.5931 31.7749 25.6983 31.0158C26.7342 30.2553 27.4941 29.2193 27.9778 27.9072C28.3231 27.0782 28.4615 26.1101 28.5307 25.0748C27.5633 24.798 26.5965 24.6603 25.6291 24.7288C24.2478 24.798 23.0042 25.2125 22.0368 25.9724C21.0009 26.7329 20.1718 27.838 19.6888 29.1501C19.3435 29.9792 19.2044 30.8774 19.1359 31.9134ZM21.6915 33.6406C20.5863 33.6406 19.412 33.433 18.2376 33.0185C17.9615 32.9493 17.7539 32.6732 17.7539 32.3964C17.7539 31.0158 17.9615 29.7716 18.376 28.6664C18.929 27.0782 19.8957 25.7655 21.2078 24.8672C22.4513 23.969 23.971 23.4168 25.5599 23.3476C25.6983 23.3476 25.8367 23.3476 25.9744 23.3476C27.0802 23.3476 28.2539 23.5545 29.4283 23.969C29.7051 24.0382 29.912 24.3143 29.912 24.5911C29.912 25.9724 29.7051 27.2159 29.2905 28.3903C28.7376 29.91 27.7702 31.222 26.5273 32.1203C25.2146 33.0877 23.6949 33.5714 21.9683 33.6406C21.8991 33.6406 21.7607 33.6406 21.6915 33.6406Z" fill="#111607"/>
<path d="M7.94494 30.8092C7.94494 31.8452 8.15186 32.7434 8.49718 33.6416C8.9809 34.9537 9.74073 35.9896 10.7767 36.7502C11.8133 37.5093 13.1254 37.9245 14.5074 37.993C15.4056 37.993 16.3031 37.9245 17.2706 37.6477C17.2706 37.5093 17.2706 37.3716 17.2706 37.2332C17.2014 36.4042 17.063 35.5758 16.7869 34.816C16.3031 33.5032 15.5433 32.3974 14.4381 31.6382C13.4022 30.8784 12.1586 30.4639 10.8459 30.394C10.7082 30.394 10.5698 30.394 10.5006 30.394C9.67153 30.4639 8.77398 30.6016 7.94494 30.8092ZM14.7835 39.375C14.7143 39.375 14.5766 39.375 14.5074 39.375C12.8493 39.3058 11.2604 38.8221 9.94833 37.8553C8.70478 36.9571 7.73733 35.645 7.18441 34.1254C6.77058 32.9503 6.56299 31.7067 6.56299 30.3255C6.56299 30.0494 6.77059 29.7726 7.04671 29.7041C8.35947 29.2895 9.67154 29.0819 10.9151 29.1511C12.5732 29.2203 14.0236 29.704 15.2672 30.6708C16.5107 31.569 17.4775 32.8811 18.0996 34.4707C18.3757 35.2997 18.5826 36.2665 18.6518 37.2332C18.6518 37.5792 18.6518 37.9245 18.6518 38.2699C18.6518 38.546 18.4449 38.8221 18.1681 38.8913C16.9938 39.1674 15.8886 39.375 14.7835 39.375Z" fill="#111607"/>
<path d="M18.8594 32.6738C18.6518 32.6738 18.4448 32.6046 18.3064 32.397C18.0995 32.1209 18.168 31.6379 18.4448 31.4303L24.5235 27.0789C24.7997 26.8713 25.2834 26.9398 25.4903 27.2166C25.6979 27.4927 25.6287 27.9764 25.3526 28.184L19.2739 32.5354C19.1355 32.6046 18.9971 32.6738 18.8594 32.6738Z" fill="#111607"/>
<path d="M17.6153 37.9238C17.4769 37.9238 17.4077 37.9238 17.27 37.8546L11.1906 34.4001C10.8453 34.1932 10.7761 33.7786 10.9145 33.4333C11.1221 33.088 11.5366 33.0188 11.8813 33.1572L17.9606 36.6111C18.3059 36.818 18.3751 37.2325 18.2367 37.5785C18.099 37.7854 17.8222 37.9238 17.6153 37.9238Z" fill="#111607"/>
<path d="M9.87907 16.577C9.80987 16.577 9.74067 16.577 9.74067 16.6462C9.67147 16.7154 9.67147 16.8538 9.74067 16.923C9.80987 16.9916 9.94827 16.9916 10.0168 16.923C10.086 16.8538 10.086 16.7154 10.0168 16.6462C9.94827 16.577 9.94827 16.577 9.87907 16.577ZM9.87907 17.959C9.53375 17.959 9.25696 17.8206 9.05005 17.6137C8.56633 17.1299 8.56633 16.4393 9.05005 15.9556C9.25696 15.748 9.53375 15.6103 9.87907 15.6103C10.2244 15.6103 10.5005 15.748 10.7081 15.9556C11.1911 16.4393 11.1911 17.1299 10.7081 17.6137C10.5005 17.8206 10.1552 17.959 9.87907 17.959Z" fill="#111607"/>
<path d="M33.1587 26.733C33.0895 26.733 33.0203 26.733 33.0203 26.8015C32.9511 26.8707 32.9511 27.0091 33.0203 27.0783C33.0895 27.1468 33.2279 27.1468 33.2964 27.0783C33.3656 27.0091 33.3656 27.0091 33.3656 26.9392C33.3656 26.8707 33.3656 26.8015 33.2964 26.8015C33.2964 26.733 33.2279 26.733 33.1587 26.733ZM33.1587 28.1143C32.8134 28.1143 32.5366 27.9759 32.3297 27.7683C32.1221 27.562 31.9844 27.2852 31.9844 26.9392C31.9844 26.5946 32.1221 26.3178 32.3297 26.1102C32.5366 25.9039 32.8134 25.7656 33.1587 25.7656C33.504 25.7656 33.7802 25.9039 33.9878 26.1102C34.4708 26.5946 34.4708 27.2852 33.9878 27.7683C33.7802 27.9759 33.504 28.1143 33.1587 28.1143Z" fill="#111607"/>
</svg>
