<svg width="28" height="28" viewBox="0 0 28 28" fill="none" xmlns="http://www.w3.org/2000/svg">
<path d="M14.7921 7.63158C15.9231 7.85224 16.9624 8.40535 17.7772 9.22014C18.592 10.0349 19.1452 11.0743 19.3657 12.2053M14.7921 3C17.1418 3.26104 19.3329 4.31325 21.0057 5.98391C22.6784 7.65455 23.7334 9.84433 23.9973 12.1937M19.9447 25C10.0326 25 1.99731 16.9647 1.99731 7.05263C1.99731 6.60543 2.01368 6.16205 2.04582 5.72306C2.08271 5.21924 2.10115 4.96734 2.23318 4.73803C2.34253 4.54812 2.53631 4.36801 2.73371 4.27282C2.97204 4.15789 3.25002 4.15789 3.80596 4.15789H7.06811C7.53562 4.15789 7.76937 4.15789 7.96976 4.23484C8.14677 4.30281 8.30438 4.4132 8.42875 4.55633C8.56954 4.71835 8.64942 4.93804 8.8092 5.3774L10.1594 9.09058C10.3453 9.60177 10.4383 9.85736 10.4225 10.0999C10.4086 10.3137 10.3355 10.5195 10.2117 10.6943C10.0712 10.8925 9.83794 11.0325 9.37152 11.3123L7.78679 12.2632C9.17846 15.3303 11.6659 17.8209 14.7342 19.2105L15.685 17.6258C15.9649 17.1593 16.1048 16.9261 16.303 16.7857C16.4778 16.6618 16.6836 16.5887 16.8975 16.5748C17.1399 16.5591 17.3956 16.652 17.9068 16.8379L21.6199 18.1881C22.0592 18.3479 22.279 18.4278 22.441 18.5686C22.5841 18.6929 22.6946 18.8505 22.7624 19.0276C22.8394 19.2279 22.8394 19.4617 22.8394 19.9292V23.1914C22.8394 23.7473 22.8394 24.0253 22.7244 24.2636C22.6293 24.461 22.4492 24.6548 22.2593 24.7641C22.0299 24.8961 21.7781 24.9145 21.2743 24.9515C20.8352 24.9837 20.3919 25 19.9447 25Z" stroke="#111607" stroke-linecap="round" stroke-linejoin="round"/>
</svg>
