<svg width="20" height="20" viewBox="0 0 20 20" fill="none" xmlns="http://www.w3.org/2000/svg">
<path d="M13.0914 10.5917C13.9084 9.94891 14.5047 9.06746 14.7975 8.06997C15.0902 7.07249 15.0647 6.00858 14.7246 5.02625C14.3845 4.04391 13.7466 3.19202 12.8998 2.58907C12.053 1.98612 11.0393 1.66211 9.99975 1.66211C8.96021 1.66211 7.94651 1.98612 7.09969 2.58907C6.25287 3.19202 5.61504 4.04391 5.27493 5.02625C4.93482 6.00858 4.90935 7.07249 5.20205 8.06997C5.49476 9.06746 6.09109 9.94891 6.90809 10.5917C5.50815 11.1526 4.28666 12.0828 3.37383 13.2833C2.461 14.4838 1.89106 15.9094 1.72475 17.4084C1.71272 17.5178 1.72235 17.6285 1.75311 17.7342C1.78387 17.8399 1.83514 17.9386 1.90401 18.0245C2.0431 18.1979 2.24541 18.309 2.46642 18.3334C2.68743 18.3577 2.90905 18.2932 3.08252 18.1541C3.256 18.015 3.36711 17.8127 3.39142 17.5917C3.57441 15.9627 4.35116 14.4582 5.57327 13.3657C6.79538 12.2732 8.37717 11.6692 10.0164 11.6692C11.6557 11.6692 13.2375 12.2732 14.4596 13.3657C15.6817 14.4582 16.4584 15.9627 16.6414 17.5917C16.6641 17.7965 16.7618 17.9856 16.9157 18.1225C17.0696 18.2595 17.2687 18.3346 17.4748 18.3334H17.5664C17.7849 18.3082 17.9845 18.1978 18.1219 18.0261C18.2592 17.8544 18.3232 17.6353 18.2998 17.4167C18.1327 15.9135 17.5596 14.4842 16.6421 13.2819C15.7246 12.0795 14.4972 11.1496 13.0914 10.5917ZM9.99975 10C9.34048 10 8.69602 9.80453 8.14785 9.43825C7.59969 9.07198 7.17245 8.55139 6.92015 7.9423C6.66786 7.33321 6.60185 6.66299 6.73047 6.01639C6.85909 5.36979 7.17656 4.77584 7.64273 4.30967C8.10891 3.84349 8.70285 3.52602 9.34945 3.39741C9.99606 3.26879 10.6663 3.3348 11.2754 3.58709C11.8845 3.83938 12.405 4.26662 12.7713 4.81479C13.1376 5.36295 13.3331 6.00742 13.3331 6.66669C13.3331 7.55074 12.9819 8.39859 12.3568 9.02371C11.7317 9.64883 10.8838 10 9.99975 10Z" fill="#101110"/>
</svg>
