<svg width="36" height="39" viewBox="0 0 36 39" fill="none" xmlns="http://www.w3.org/2000/svg">
<path d="M33.5768 31.3618C34.5456 31.3618 35.3071 32.1228 35.3071 33.0921C35.3071 34.061 34.5456 34.8232 33.5768 34.8232C32.6072 34.8232 31.8457 34.061 31.8457 33.0921C31.8457 32.1228 32.6072 31.3618 33.5768 31.3618Z" fill="#F9CCD1"/>
<path d="M2.83797 17.307C4.01518 17.307 4.98405 18.2759 4.98405 19.5221C4.98405 20.7684 4.08439 21.7373 2.83797 21.7373C1.59203 21.7373 0.691895 20.7684 0.691895 19.5221C0.691895 18.2759 1.66125 17.307 2.83797 17.307Z" fill="#F9CCD1"/>
<path d="M30.5305 17.3079C31.2226 17.3079 31.8454 17.8613 31.8454 18.6228C31.8454 19.315 31.292 19.9385 30.5305 19.9385C29.7683 19.9385 29.2148 19.3843 29.2148 18.6228C29.2842 17.9307 29.8376 17.3079 30.5305 17.3079Z" fill="#F9CCD1"/>
<path d="M17.4453 33.7844C17.8608 34.892 17.9991 36.069 17.9991 37.3846C16.8225 37.8001 15.6455 38.0074 14.5377 37.938C13.0148 37.8688 11.561 37.4541 10.384 36.5537C9.20699 35.6543 8.37634 34.4765 7.82241 33.0922C7.4764 31.9147 7.26855 30.7385 7.26855 29.4234C8.5147 29.0074 9.6917 28.8001 10.8684 28.8692C12.3225 28.9379 13.7071 29.3542 14.884 30.2536C16.1302 31.1537 16.9609 32.3307 17.4453 33.7844Z" fill="#6E9137"/>
<path d="M18.2068 36.3457C18.2762 35.4456 18.4149 34.5454 18.7609 33.7839C19.2457 32.3301 20.1452 31.1531 21.3222 30.253C22.4991 29.4228 23.8841 28.9373 25.3377 28.8686C26.5147 28.7995 27.7609 29.0068 28.9379 29.4228C28.9379 30.7379 28.7298 31.9141 28.3837 33.0224C27.899 34.4067 26.9994 35.6537 25.8225 36.4839C24.5762 37.384 23.1912 37.7995 21.6682 37.8682C20.5607 37.8682 19.3837 37.73 18.2068 37.3145C18.1374 37.0372 18.1374 36.6912 18.2068 36.3457Z" fill="#8EC155"/>
<path d="M18.2071 22.5684H16.4768C15.2303 22.5684 14.3997 21.3228 14.8843 20.1451C15.0227 19.7297 15.2995 19.3836 15.5763 19.0376C15.6458 18.9682 15.6458 18.9682 15.715 18.8989C17.0996 17.5146 19.384 17.5839 20.6997 19.0376C20.9764 19.3836 21.2538 19.7297 21.3918 20.0758C21.8766 21.2527 21.0458 22.4997 19.7995 22.4997H18.2071V22.5684Z" fill="#A88D68"/>
<path d="M21.3229 7.68405C19.9386 8.65292 18.7617 9.62317 17.9999 11.2148C17.3076 9.62317 16.2693 8.65292 14.8848 7.68405C15.3 5.05346 16.3386 2.63025 17.9999 0.691811C19.6619 2.63025 20.9082 5.05346 21.3229 7.68405Z" fill="#F25A7B"/>
<path d="M14.884 7.68418C16.2686 8.65306 17.3069 9.62331 17.9992 11.215C18.6916 9.62331 19.9379 8.65306 21.3222 7.68418C21.9457 7.26875 22.5685 6.92268 23.33 6.64596C24.4375 6.23053 25.5451 5.95381 26.7914 5.95381C25.8225 8.65306 26.376 11.561 26.6534 12.6C26.7914 13.0154 26.7914 13.4301 26.722 13.8456C26.3066 16.7536 23.8841 19.0381 20.8381 19.0381H20.6994C19.3144 17.5844 17.0993 17.5844 15.7147 18.8994C15.576 18.9687 15.576 19.0381 15.5071 19.1074H15.2992C12.3916 19.1074 10.038 17.031 9.48413 14.261C9.3457 13.7075 9.41464 13.0847 9.62249 12.5306C10.038 11.2843 10.6608 8.30767 9.3457 5.95381H9.41464C10.6608 5.95381 11.8378 6.16186 12.8761 6.64596C13.6379 6.92268 14.2609 7.26875 14.884 7.68418Z" fill="#FF99A7"/>
<path d="M18.2072 37.8682C17.7922 37.8682 17.5151 37.5914 17.5151 37.1767V20.8383C17.5151 20.4222 17.7922 20.1455 18.2072 20.1455C18.6226 20.1455 18.8993 20.4222 18.8993 20.8383V37.1767C18.8993 37.5914 18.5532 37.8682 18.2072 37.8682Z" fill="black"/>
<path d="M18.8308 36.8304C19.7997 37.1069 20.6999 37.245 21.5994 37.1764C23.0537 37.1069 24.3 36.6908 25.3382 35.9293C26.3765 35.1684 27.138 34.0601 27.6227 32.7445C27.9688 31.8451 28.1075 30.8763 28.1769 29.9066C27.2073 29.6298 26.2385 29.4911 25.2689 29.5606C23.8846 29.6298 22.7077 30.0453 21.6687 30.8068C20.6305 31.5683 19.7997 32.6761 19.3149 33.9917C19.0382 34.7524 18.8995 35.5147 18.8308 36.414C18.8308 36.5527 18.8308 36.6908 18.8308 36.8304ZM21.392 38.6299C20.2844 38.6299 19.1075 38.422 17.9308 38.0065C17.6537 37.937 17.4458 37.661 17.4458 37.3837C17.4458 37.0368 17.4458 36.6908 17.4458 36.3454C17.5153 35.3757 17.7229 34.4756 17.9997 33.5754C18.5534 31.9838 19.5229 30.6681 20.8386 29.6993C22.0842 28.7991 23.5385 28.2458 25.1995 28.1755C26.4458 28.1068 27.7615 28.3141 29.0771 28.7991C29.3531 28.8683 29.5612 29.1451 29.5612 29.4225C29.5612 30.8068 29.3531 32.1219 28.9384 33.2986C28.3843 34.891 27.4154 36.2067 26.1691 37.1069C24.8535 38.0757 23.3305 38.5607 21.5994 38.6299C21.5307 38.6299 21.4614 38.6299 21.392 38.6299Z" fill="black"/>
<path d="M7.96124 29.9066C7.96124 30.9449 8.16881 31.9137 8.51509 32.7445C8.99953 34.0601 9.76158 35.1684 10.7999 35.9293C11.8382 36.6908 13.1535 37.1069 14.5381 37.1764C15.438 37.1764 16.3382 37.1069 17.3073 36.8304C17.3073 35.7912 17.0997 34.891 16.8229 33.9917C16.3382 32.6761 15.5764 31.5683 14.4687 30.8068C13.4303 30.0453 12.1845 29.6298 10.8688 29.5606C10.7304 29.5606 10.6612 29.5606 10.5228 29.5606C9.69209 29.5606 8.86137 29.6993 7.96124 29.9066ZM14.8152 38.6299C14.7458 38.6299 14.6076 38.6299 14.5381 38.6299C12.8765 38.5607 11.2843 38.0757 9.96888 37.1069C8.72274 36.2067 7.75386 34.891 7.19973 33.2986C6.78451 32.1219 6.57666 30.8068 6.57666 29.4225C6.57666 29.1451 6.78451 28.8683 7.06137 28.7991C8.37673 28.3836 9.69209 28.1755 10.9382 28.1755C12.5997 28.2458 14.0537 28.7296 15.2996 29.6993C16.5458 30.6681 17.5152 31.9838 18.1378 33.5754C18.5533 34.7524 18.7613 35.9994 18.7613 37.3837C18.7613 37.661 18.5533 37.937 18.2765 38.0065C17.0997 38.422 15.923 38.6299 14.8152 38.6299Z" fill="black"/>
<path d="M18.5532 37.5918C18.3458 37.5918 18.1378 37.5223 17.9995 37.3149C17.7922 37.0376 17.8611 36.5535 18.1378 36.3461L24.1611 31.9845C24.4379 31.7764 24.9226 31.8458 25.1307 32.1226C25.3381 32.3992 25.2687 32.8847 24.992 33.092L18.8993 37.4539C18.8306 37.5918 18.6919 37.5918 18.5532 37.5918Z" fill="black"/>
<path d="M17.6532 37.1074C17.5149 37.1074 17.4454 37.1074 17.307 37.0374L11.2151 33.5073C10.8685 33.2991 10.7996 32.8845 10.9379 32.5385C11.1456 32.1916 11.5611 32.1224 11.9074 32.2611L17.9992 35.7918C18.3456 35.9999 18.415 36.4146 18.2762 36.7606C18.1375 37.0374 17.8609 37.1074 17.6532 37.1074Z" fill="black"/>
<path d="M21.3229 8.3768C20.9768 8.3768 20.7001 8.10008 20.6308 7.82336C20.2847 5.67755 19.3845 3.60041 17.9999 1.8C16.754 3.46171 15.9233 5.53816 15.5767 7.82336C15.5078 8.16944 15.1615 8.44684 14.8155 8.3768C14.469 8.30814 14.1924 7.96206 14.2617 7.61599C14.6772 4.77734 15.8539 2.28477 17.5155 0.276986C17.6539 0.138968 17.8615 0.0696144 18.0695 0.0696144C18.2769 0.0696144 18.4849 0.138968 18.623 0.276986C20.4927 2.42348 21.669 4.9854 22.0844 7.61599C22.1538 7.96206 21.877 8.3768 21.531 8.3768C21.3923 8.3768 21.3229 8.3768 21.3229 8.3768Z" fill="black"/>
<path d="M20.8385 19.7998H20.6998C20.2844 19.7998 20.0077 19.5231 20.0077 19.1077C20.0077 18.6922 20.2844 18.4148 20.6998 18.4148H20.8385C23.4691 18.4148 25.6843 16.4771 26.0303 13.8458C26.0997 13.4997 26.0303 13.1536 25.961 12.8076C25.6843 11.7693 25.1995 9.27746 25.823 6.71554C25.0615 6.78489 24.3 6.99226 23.5385 7.26898C22.915 7.54571 22.2922 7.89247 21.7381 8.23854C20.4925 9.13875 19.3148 10.0383 18.692 11.4919C18.5533 11.7693 18.346 11.908 18.0692 11.908C17.7923 11.908 17.5845 11.7693 17.4458 11.4919C16.7537 10.0383 15.7847 9.13875 14.5382 8.23854C13.9843 7.82312 13.3615 7.47704 12.7381 7.26898C12.0461 6.99226 11.2844 6.78489 10.5229 6.71554C11.4227 9.20742 10.6612 11.908 10.3845 12.7389C10.246 13.1536 10.1769 13.6384 10.3152 14.1225C10.7999 16.6151 12.946 18.4148 15.4381 18.4148H15.646C16.0615 18.4148 16.3382 18.6922 16.3382 19.1077C16.3382 19.5231 16.0615 19.7998 15.646 19.7998H15.4381C12.2537 19.7998 9.55353 17.5153 8.93066 14.3999C8.7923 13.7078 8.86145 13.0156 9.06909 12.3228C9.27667 11.7 10.1769 8.65329 8.7923 6.36878C8.65387 6.16209 8.65387 5.88469 8.7923 5.67731C8.93066 5.46926 9.13831 5.33124 9.4151 5.33124H9.48459C10.7999 5.33124 12.0461 5.53792 13.2231 6.02271C13.9843 6.30012 14.6769 6.71554 15.3692 7.19963C16.3383 7.89247 17.3073 8.65329 18.0692 9.90026C18.8994 8.79268 19.9383 7.96182 20.9766 7.19963C21.6687 6.71554 22.3615 6.36878 23.123 6.02271C24.3 5.53792 25.5456 5.33124 26.8612 5.33124C27.0686 5.33124 27.2766 5.46926 27.4153 5.60796C27.5534 5.74598 27.5534 6.0227 27.4847 6.23076C26.5845 8.72332 27.1379 11.4233 27.346 12.5308C27.4847 13.0156 27.4847 13.5691 27.4153 14.0539C26.9306 17.3079 24.0919 19.7998 20.8385 19.7998Z" fill="black"/>
<path d="M18.0691 18.6917C17.3072 18.6917 16.6152 18.9684 16.1306 19.5226C16.0613 19.5226 16.0613 19.5912 15.9919 19.6613C15.7846 19.938 15.5764 20.2147 15.438 20.4921C15.2996 20.8382 15.3691 21.1836 15.5074 21.461C15.7151 21.7377 16.0613 21.9458 16.4074 21.9458H19.7302C20.0769 21.9458 20.423 21.7377 20.6304 21.461C20.8384 21.1836 20.8384 20.7689 20.6997 20.4221C20.561 20.076 20.3536 19.7993 20.1456 19.5912C19.5921 18.9684 18.8306 18.6917 18.0691 18.6917ZM19.7302 23.2607H16.4768C15.6458 23.2607 14.8843 22.8453 14.4686 22.1532C13.9842 21.461 13.9153 20.6302 14.2613 19.868C14.4686 19.3839 14.7457 18.9684 15.092 18.553C15.1611 18.4844 15.1611 18.4844 15.2303 18.4143C15.9919 17.6535 17.0301 17.2374 18.1378 17.2374C19.3147 17.2374 20.423 17.7222 21.1845 18.553C21.5306 18.8991 21.8073 19.3839 22.0147 19.7993C22.3614 20.5608 22.2227 21.3917 21.8073 22.0838C21.3225 22.8453 20.561 23.2607 19.7302 23.2607Z" fill="black"/>
<path d="M4.15387 6.64551H4.08466C3.66916 6.64551 3.39209 6.3681 3.39209 5.95336C3.39209 5.53724 3.66916 5.26052 4.08466 5.26052H4.15387C4.56909 5.26052 4.84588 5.53724 4.84588 5.95336C4.84588 6.3681 4.56909 6.64551 4.15387 6.64551Z" fill="black"/>
<path d="M31.8455 10.1768H31.7761C31.3614 10.1768 31.084 9.90003 31.084 9.48391C31.084 9.06917 31.3614 8.79245 31.7761 8.79245H31.8455C32.2609 8.79245 32.5383 9.06917 32.5383 9.48391C32.5383 9.82999 32.2609 10.1768 31.8455 10.1768Z" fill="black"/>
<path d="M23.2605 3.18457H23.1912C22.7764 3.18457 22.499 2.90716 22.499 2.49242C22.499 2.07631 22.7764 1.79959 23.1912 1.79959H23.2605C23.676 1.79959 23.9534 2.07631 23.9534 2.49242C23.9534 2.8385 23.676 3.18457 23.2605 3.18457Z" fill="black"/>
<path d="M11.0764 1.38477H11.007C10.5918 1.38477 10.3149 1.10736 10.3149 0.69193C10.3149 0.276502 10.5918 -0.000226617 11.007 -0.000226617H11.0764C11.4919 -0.000226617 11.7687 0.276502 11.7687 0.69193C11.7687 1.10736 11.4919 1.38477 11.0764 1.38477Z" fill="black"/>
<path d="M30.5307 17.9993C30.184 17.9993 29.9073 18.276 29.9073 18.6221C29.9073 18.9682 30.184 19.2449 30.5307 19.2449C30.8768 19.2449 31.1535 18.9682 31.1535 18.6221C31.1535 18.276 30.8768 17.9993 30.5307 17.9993ZM30.5307 20.6299C29.4225 20.6299 28.5229 19.7297 28.5229 18.6221C28.5229 17.5145 29.4225 16.6143 30.5307 16.6143C31.6383 16.6143 32.5385 17.5145 32.5385 18.6221C32.5385 19.7297 31.6383 20.6299 30.5307 20.6299Z" fill="black"/>
<path d="M33.577 32.0532C33.0229 32.0532 32.5388 32.5379 32.5388 33.0912C32.5388 33.6454 33.0229 34.1296 33.577 34.1296C34.1305 34.1296 34.6152 33.6454 34.6152 33.0912C34.6152 32.5379 34.1305 32.0532 33.577 32.0532ZM33.577 35.5146C32.2614 35.5146 31.1538 34.4064 31.1538 33.0912C31.1538 31.7756 32.2614 30.6681 33.577 30.6681C34.892 30.6681 36.0002 31.7756 36.0002 33.0912C36.0002 34.4064 34.892 35.5146 33.577 35.5146Z" fill="black"/>
<path d="M2.83809 17.9994C2.00765 17.9994 1.3843 18.6915 1.3843 19.5224C1.3843 20.3532 2.07686 21.0454 2.83809 21.0454C3.5998 21.0454 4.29188 20.3532 4.29188 19.5224C4.29188 18.6915 3.66901 17.9994 2.83809 17.9994ZM2.83809 22.4297C1.24587 22.4297 0 21.1147 0 19.5224C0 17.93 1.31536 16.6144 2.83809 16.6144C4.3613 16.6144 5.67666 17.93 5.67666 19.5224C5.67666 21.1147 4.43079 22.4297 2.83809 22.4297Z" fill="black"/>
</svg>
