<svg width="36" height="44" viewBox="0 0 36 44" fill="none" xmlns="http://www.w3.org/2000/svg">
<path d="M13.529 0.786651C18.4058 0.786651 22.4174 5.11284 22.8107 10.6189H18.5631C18.3272 7.31526 16.2034 4.71955 13.4504 4.71955C10.6973 4.71955 8.57358 7.31526 8.3376 10.6189H4.16873C4.64068 5.11284 8.65224 0.786651 13.529 0.786651Z" fill="#FEBE76"/>
<path d="M35.1597 19.5073V23.4402L23.9903 33.3511L24.7769 26.0359L35.1597 19.5073Z" fill="#FEBE76"/>
<path d="M17.8546 28.1594C17.8546 30.9911 15.8881 33.2722 13.4497 33.2722C11.0113 33.2722 9.04489 30.9911 9.04489 28.1594C9.04489 25.5637 11.9552 22.6534 13.3711 19.979C14.9442 22.6534 17.8546 25.4851 17.8546 28.1594Z" fill="#D1E7F8"/>
<path d="M13.5284 33.2725C15.9668 33.2725 17.9333 30.9914 17.9333 28.1597C17.9333 25.564 15.0229 22.7323 13.5284 19.9793C12.1126 22.6537 9.12356 25.564 9.12356 28.1597C9.12356 30.9914 11.09 33.2725 13.5284 33.2725ZM26.271 10.619L24.6978 26.0359L23.9899 33.3511L23.6753 36.6548C23.518 38.6212 21.8661 40.1157 19.8997 40.1157H16.5174H7.15711C5.19066 40.1157 3.53884 38.6212 3.38153 36.6548L0.785812 10.619H4.16811H8.41564H18.5625H22.81H26.271Z" fill="#57606F"/>
<path d="M13.5289 21.4738C13.1356 22.0244 12.8209 22.575 12.4276 23.1256C11.2478 24.8561 9.98925 26.6652 9.98925 28.0811C9.98925 30.4408 11.6411 32.4073 13.6075 32.4073C15.574 32.4073 17.2258 30.4408 17.2258 28.0811C17.2258 26.5866 15.9673 24.8561 14.7874 23.1256C14.2368 22.6537 13.8435 22.0244 13.5289 21.4738ZM13.5289 34.0591C10.6972 34.0591 8.33743 31.3847 8.33743 28.1597C8.33743 26.1933 9.75328 24.2268 11.0905 22.2604C11.7197 21.3952 12.349 20.4513 12.8209 19.586C12.9783 19.35 13.2142 19.1927 13.5289 19.1927C13.8435 19.1927 14.0795 19.35 14.2368 19.586C14.7087 20.4513 15.338 21.3952 15.9673 22.2604C17.3044 24.1482 18.7203 26.1146 18.7203 28.0811C18.6416 31.3847 16.3605 34.0591 13.5289 34.0591Z" fill="#101110"/>
<path d="M22.8105 11.4054C22.4172 11.4054 22.0239 11.0908 22.0239 10.6975C21.6306 5.58474 17.855 1.57319 13.5288 1.57319C9.124 1.57319 5.42707 5.58474 5.03378 10.6975C5.03378 11.1695 4.64049 11.4841 4.16855 11.4054C3.6966 11.4054 3.38197 11.0121 3.46062 10.5402C3.6966 7.70851 4.79781 5.03414 6.6856 3.06769C8.57339 1.10124 11.0118 2.95639e-05 13.6075 2.95639e-05C16.2032 2.95639e-05 18.6416 1.10124 20.5294 3.06769C22.3385 5.03414 23.5184 7.70851 23.7544 10.5402C23.5971 11.0121 23.2824 11.4054 22.8105 11.4054Z" fill="#101110"/>
<path d="M18.5631 11.4054C18.1698 11.4054 17.7765 11.0908 17.7765 10.6975C17.6192 7.78717 15.7314 5.50609 13.4503 5.50609C11.2479 5.50609 9.36012 7.78717 9.12415 10.6975C9.12415 11.1695 8.73086 11.4841 8.25891 11.4054C7.78696 11.4054 7.47233 11.0121 7.55099 10.5402C7.62964 8.73106 8.25891 7.07925 9.36012 5.89938C10.4613 4.64085 11.8772 3.93293 13.4503 3.93293C15.0235 3.93293 16.4393 4.64085 17.5405 5.89938C18.5631 7.1579 19.1924 8.80972 19.3497 10.5402C19.4283 11.0121 19.035 11.4054 18.5631 11.4054C18.6418 11.4054 18.6418 11.4054 18.5631 11.4054Z" fill="#101110"/>
<path d="M23.9899 34.1375C23.754 34.1375 23.5967 34.0588 23.4393 33.9015C23.1247 33.5868 23.2034 33.1149 23.518 32.8003L34.6088 22.8107C34.9234 22.4961 35.3954 22.5747 35.71 22.8894C36.0246 23.204 35.946 23.6759 35.6313 23.9906L24.5406 33.9801C24.3832 34.0588 24.2259 34.1375 23.9899 34.1375Z" fill="#101110"/>
<path d="M24.7765 26.8225C24.5405 26.8225 24.2259 26.6652 24.1472 26.4292C23.9113 26.0359 23.9899 25.564 24.3832 25.328L34.7661 18.7994C35.1593 18.5634 35.6313 18.6421 35.8673 19.0354C36.1032 19.4287 36.0246 19.9006 35.6313 20.1366L25.2484 26.6652C25.0125 26.8225 24.8552 26.8225 24.7765 26.8225Z" fill="#101110"/>
<path d="M1.57316 11.4054L4.09021 36.5759C4.24753 38.1491 5.58472 39.3289 7.07922 39.3289H19.9005C21.4736 39.3289 22.7322 38.1491 22.8895 36.5759L25.4065 11.4054H1.57316ZM19.9005 40.9021H7.15788C4.79814 40.9021 2.83169 39.093 2.59571 36.7332L0 10.6974C0 10.4615 0.078658 10.2255 0.235974 10.0682C0.39329 9.91086 0.629264 9.8322 0.78658 9.8322H26.3504C26.5864 9.8322 26.8224 9.91086 26.901 10.0682C27.0583 10.2255 27.137 10.4615 27.137 10.6974L24.5413 36.7332C24.2267 39.1716 22.2602 40.9021 19.9005 40.9021Z" fill="#101110"/>
<path d="M26.2715 43.8909H1.73024C1.2583 43.8909 0.943665 43.5762 0.943665 43.1043C0.943665 42.6323 1.2583 42.3177 1.73024 42.3177H26.3502C26.8221 42.3177 27.1368 42.6323 27.1368 43.1043C27.0581 43.4976 26.7435 43.8909 26.2715 43.8909Z" fill="#101110"/>
<path d="M35.1595 26.1929C34.6876 26.1929 34.3729 25.8782 34.3729 25.4063V18.4844C34.3729 18.0124 34.6876 17.6978 35.1595 17.6978C35.6315 17.6978 35.9461 18.0124 35.9461 18.4844V25.4063C35.9461 25.7996 35.5528 26.1929 35.1595 26.1929Z" fill="#101110"/>
<path d="M19.4283 15.3384H1.73024C1.2583 15.3384 0.943665 15.0237 0.943665 14.5518C0.943665 14.0799 1.2583 13.7652 1.73024 13.7652H19.4283C19.9002 13.7652 20.2149 14.0799 20.2149 14.5518C20.2149 15.0237 19.8216 15.3384 19.4283 15.3384Z" fill="#101110"/>
</svg>
