<svg width="25" height="24" viewBox="0 0 25 24" fill="none" xmlns="http://www.w3.org/2000/svg">
<path d="M4.3335 18L9.3335 12M20.3335 18L15.3335 12M3.3335 8L10.5585 12.8166C11.2 13.2443 11.5207 13.4582 11.8674 13.5412C12.1738 13.6147 12.4932 13.6147 12.7996 13.5412C13.1463 13.4582 13.467 13.2443 14.1085 12.8166L21.3335 8M6.5335 19H18.1335C19.2536 19 19.8137 19 20.2415 18.782C20.6178 18.5903 20.9238 18.2843 21.1155 17.908C21.3335 17.4802 21.3335 16.9201 21.3335 15.8V8.2C21.3335 7.0799 21.3335 6.51984 21.1155 6.09202C20.9238 5.71569 20.6178 5.40973 20.2415 5.21799C19.8137 5 19.2536 5 18.1335 5H6.5335C5.4134 5 4.85334 5 4.42552 5.21799C4.04919 5.40973 3.74323 5.71569 3.55149 6.09202C3.3335 6.51984 3.3335 7.07989 3.3335 8.2V15.8C3.3335 16.9201 3.3335 17.4802 3.55149 17.908C3.74323 18.2843 4.04919 18.5903 4.42552 18.782C4.85334 19 5.41339 19 6.5335 19Z" stroke="#101110" stroke-opacity="0.8" stroke-width="1.6" stroke-linecap="round" stroke-linejoin="round"/>
</svg>
