<svg width="25" height="24" viewBox="0 0 25 24" fill="none" xmlns="http://www.w3.org/2000/svg">
<path d="M13.3835 7C14.3603 7.19057 15.2579 7.66826 15.9616 8.37194C16.6653 9.07561 17.143 9.97326 17.3335 10.95M13.3835 3C15.4128 3.22544 17.3051 4.13417 18.7498 5.57701C20.1944 7.01984 21.1056 8.91101 21.3335 10.94M17.8335 22C9.27309 22 2.3335 15.0604 2.3335 6.5C2.3335 6.11378 2.34763 5.73086 2.37539 5.35173C2.40725 4.91662 2.42318 4.69907 2.5372 4.50103C2.63164 4.33701 2.799 4.18146 2.96948 4.09925C3.17531 4 3.41538 4 3.89551 4H6.71282C7.11658 4 7.31846 4 7.49152 4.06645C7.64439 4.12515 7.78051 4.22049 7.88792 4.3441C8.00951 4.48403 8.0785 4.67376 8.21649 5.05321L9.3826 8.26005C9.5431 8.70153 9.6234 8.92227 9.6098 9.1317C9.5978 9.31637 9.5347 9.49408 9.4277 9.64506C9.30636 9.81628 9.10495 9.93713 8.70213 10.1788L7.3335 11C8.5354 13.6489 10.6836 15.7999 13.3335 17L14.1547 15.6314C14.3964 15.2285 14.5172 15.0271 14.6884 14.9058C14.8394 14.7988 15.0171 14.7357 15.2018 14.7237C15.4112 14.7101 15.632 14.7904 16.0735 14.9509L19.2803 16.117C19.6597 16.255 19.8495 16.324 19.9894 16.4456C20.113 16.553 20.2084 16.6891 20.267 16.842C20.3335 17.015 20.3335 17.2169 20.3335 17.6207V20.438C20.3335 20.9181 20.3335 21.1582 20.2342 21.364C20.152 21.5345 19.9965 21.7019 19.8325 21.7963C19.6344 21.9103 19.4169 21.9262 18.9818 21.9581C18.6026 21.9859 18.2197 22 17.8335 22Z" stroke="#101110" stroke-opacity="0.8" stroke-width="2" stroke-linecap="round" stroke-linejoin="round"/>
</svg>
