<svg width="24" height="24" viewBox="0 0 24 24" fill="none" xmlns="http://www.w3.org/2000/svg">
<path d="M12 19V22" stroke="white" stroke-linejoin="round"/>
<path d="M10 22H15" stroke="white" stroke-linejoin="round"/>
<path d="M13 16C9.13401 16 6 12.866 6 9C6 5.13401 9.13401 2 13 2C16.866 2 20 5.13401 20 9C20 12.866 16.866 16 13 16Z" stroke="white" stroke-linejoin="round"/>
<path d="M8 4C8.70464 4.0385 9.06869 4.35899 9.69453 4.97301C10.8249 6.08206 11.9552 6.1746 12.7087 5.80492C13.8391 5.2504 12.8892 4.35221 14.2159 3.86409C15.0805 3.54595 15.2011 2.68026 14.7199 2" stroke="white" stroke-linejoin="round"/>
<path d="M20 10C18.5 10 18.2338 11.2468 17 11C14.5 10.5 13.7916 11.0589 13.7916 12.2511C13.7916 13.4432 13.7916 13.4432 13.2717 14.3373C12.9335 14.9189 12.8153 15.5004 13.4894 16" stroke="white" stroke-linejoin="round"/>
<path d="M6 2C4.14864 3.79995 3 6.3082 3 9.08251C3 14.5598 7.47715 19 13 19C15.7255 19 18.1962 17.9187 20 16.165" stroke="white" stroke-linejoin="round"/>
</svg>
