<svg width="54" height="60" viewBox="0 0 54 60" fill="none" xmlns="http://www.w3.org/2000/svg">
<path d="M26.9973 60C41.6329 60 53.4973 56.4183 53.4973 52C53.4973 47.5817 41.6329 44 26.9973 44C12.3618 44 0.497314 47.5817 0.497314 52C0.497314 56.4183 12.3618 60 26.9973 60Z" fill="#7D6659"/>
<path d="M22.9805 0.484458C24.3142 0.063037 25.8637 -0.333381 27.0281 0.441379C28.3067 1.29112 28.5982 3.25516 29.9973 3.886C25.905 3.57316 21.7379 4.30656 17.9973 6C19.1358 5.35623 19.0189 3.68175 19.6638 2.54159C20.3225 1.37988 21.7095 0.88692 22.9805 0.484458Z" fill="#E6E2E0"/>
<path d="M33.0936 45.3696C33.7862 46.3332 34.363 47.6558 33.7142 48.649C33.0514 49.662 31.0521 50.2525 29.2092 49.8951C23.3264 48.7528 18.703 46.8026 12.9973 44.9727C13.138 43.7942 13.7835 42.2064 13.9241 41.0278C18.7726 42.8397 23.1981 45.0806 28.3635 45.4536C25.9422 44.3641 23.453 43.2267 21.6424 41.2906C19.8318 39.3552 18.8545 36.397 19.9857 34.0037C21.7094 33.9592 24.4071 34.3315 24.4071 34.3315C25.7187 38.5292 30.5208 41.7937 33.0936 45.3696Z" fill="#252722"/>
<path d="M10.8814 47.997C11.4361 48.0358 11.9597 47.6946 12.276 47.2556C12.5923 46.8158 12.739 46.2869 12.8811 45.7703C13.2258 44.5115 13.5715 43.2545 13.9163 41.9966C13.9988 41.6951 14.0693 41.3381 13.8576 41.1019C13.7402 40.9705 13.5605 40.9106 13.389 40.8568C12.4887 40.5712 11.5865 40.2856 10.6861 40C10.0975 41.0763 9.50521 42.1658 9.19898 43.3462C8.89275 44.5265 8.89824 45.8241 9.47495 46.9066C9.76101 47.4461 10.2534 47.9529 10.8814 47.997Z" fill="#252722"/>
<path d="M21.171 34.0624C19.0239 33.7394 16.8751 33.4164 14.7272 33.0934C14.1608 33.008 13.5686 32.926 13.0291 33.1143C12.069 33.4515 11.3352 34.2406 10.9699 35.1896C10.5486 36.2875 10.3869 37.7661 10.7714 38.8782C11.1308 39.9175 12.1084 40.5987 13.0416 41.1819C16.4889 43.3392 20.1381 45.1751 23.9255 46.6596C19.6773 45.4923 15.533 43.9467 11.5588 42.0455C11.0998 43.5124 10.4572 45.5115 9.99731 46.9784C9.99731 46.9784 20.1917 49.416 25.5306 49.9834C26.7821 50.1156 28.75 49.4445 29.5391 48.4654C30.1364 47.724 30.1029 46.6261 29.7075 45.76C29.3113 44.8939 28.6151 44.2078 27.9349 43.5425C26.1614 41.8103 24.3879 40.0782 22.6144 38.346C22.0222 37.7678 21.4173 37.172 21.0671 36.4222C20.7178 35.6716 20.6726 34.7227 21.171 34.0624Z" fill="#5F625E"/>
<path d="M8.88142 48.997C9.43612 49.0358 9.95965 48.6947 10.276 48.2549C10.5923 47.815 10.739 47.2862 10.8811 46.7697C11.2258 45.5119 11.5706 44.255 11.9162 42.9973C11.9988 42.6949 12.0694 42.338 11.8576 42.1018C11.7402 41.9713 11.5605 41.9105 11.3891 41.8576C10.4878 41.572 9.5865 41.2865 8.68614 41C8.09752 42.0771 7.50521 43.1665 7.19898 44.3458C6.89275 45.526 6.89824 46.8234 7.47495 47.9058C7.76101 48.4452 8.25245 48.9529 8.88142 48.997Z" fill="#252722"/>
<path d="M37.3372 34.2852C37.5741 34.1701 38.1456 34 38.1456 34C38.1456 34 40.6195 34.979 39.8484 36.2334C39.5431 36.7308 38.4828 37.0731 37.8288 36.9866C36.6895 36.8354 35.7551 36.3748 34.9973 35.6374C35.7303 35.2792 36.6043 34.6441 37.3372 34.2852Z" fill="#FFC56E"/>
<path d="M33.9762 7.03381C33.7697 5.38968 32.1777 4.32798 30.6562 3.78221C27.8237 2.76487 24.6636 2.73844 21.8162 3.71144C20.2043 4.26233 18.6346 5.1799 17.7143 6.6475C16.7939 8.11682 16.6919 10.2138 17.8071 11.5321C18.9133 12.8377 20.7963 13.0415 22.4804 12.9938C24.5799 12.9341 26.6736 12.6279 28.7059 12.083C30.293 11.6575 31.9132 11.0401 33.0086 9.78567C33.662 9.03609 34.1006 8.03154 33.9762 7.03381Z" fill="#BEB5AF"/>
<path d="M26.1247 15.9357C27.6958 15.643 28.9525 14.3982 29.6618 12.9759C30.3721 11.5535 30.6218 9.95541 30.8636 8.38627C31.0168 7.38676 31.1497 6.28353 30.5953 5.43611C30.0905 4.66516 29.1385 4.31177 28.2272 4.14474C25.3233 3.61291 22.1829 4.57022 20.0805 6.629C19.9051 8.76778 19.9343 11.0111 20.8996 12.9302C21.8667 14.8492 24.0011 16.3313 26.1247 15.9357Z" fill="#FFC56E"/>
<path d="M19.8565 12C19.7573 11.4974 19.8404 10.975 19.9142 10.4667C19.9888 9.95844 20.0532 9.42939 19.9209 8.93624C19.7878 8.44404 19.4013 7.99718 18.9392 8.00001C18.4043 8.00379 17.9956 8.62352 17.9973 9.2187C17.999 9.81483 18.311 10.3571 18.6832 10.7841C19.0554 11.2112 19.4971 11.5598 19.8565 12Z" fill="#FFC56E"/>
<path d="M20.0369 5.41657C22.7942 3.20159 24.9973 4.24604 24.9973 4.24604C23.9639 6.13665 21.058 8.637 19.3271 10C19.1486 9.30979 18.9991 8.6088 18.9973 7.89868C18.9938 6.67339 19.4635 5.87782 20.0369 5.41657Z" fill="#252722"/>
<path d="M26.98 8.78281C29.6217 9.32261 30.8073 8.68618 30.8073 8.68618C31.2758 7.46203 30.8629 5.92565 29.7354 5.22055C28.6087 4.51544 27.0675 4.17448 25.7355 4.04591C23.344 3.81753 21.9973 4.51545 21.9973 4.51545C22.819 6.42634 24.9032 8.35799 26.98 8.78281Z" fill="#252722"/>
<path d="M26.1787 15.7462C26.0941 15.286 26.1147 14.8234 26.2042 14.3699C25.9693 14.4312 25.7278 14.4742 25.4757 14.4742C24.8984 14.4742 24.3588 14.2954 23.8972 14C23.8118 14.4461 23.6911 14.883 23.5112 15.3009C23.053 16.3652 22.1389 17.3061 20.9973 17.46C21.0318 18.9414 21.2215 20.4186 21.5599 21.8602C21.7373 22.6133 21.9631 23.3738 22.4247 23.992C22.8871 24.6093 23.6278 25.0645 24.3916 24.9925C25.3854 24.899 26.1106 23.968 26.4268 23.0138C26.7421 22.0604 26.7725 21.031 27.0616 20.0693C27.3515 19.1077 28.0151 18.1486 28.9973 17.9739C27.6931 18.2272 26.4177 17.0628 26.1787 15.7462Z" fill="#FFC56E"/>
<path d="M28.7496 18.0291C29.3426 17.8996 29.9657 18.2169 30.3577 18.6929C30.7489 19.1706 30.9449 19.7829 31.0834 20.3901C31.5588 22.4766 31.4471 24.6703 31.9475 26.7508C32.7216 29.9711 35.0296 32.7617 37.9973 34.0636C37.9973 34.0636 36.1064 35.5395 35.314 36C32.4138 34.9211 30.2184 32.1957 28.6962 29.4385C27.1739 26.6814 26.6443 23.3591 27.2307 20.246C27.4092 19.3044 27.8362 18.2281 28.7496 18.0291Z" fill="#CD5A24"/>
<path d="M28.9973 18.4289C27.5561 24.0551 26.1702 30.1854 24.4784 35.7361C21.3572 36.2879 16.9749 36.0441 12.9973 34.3358C14.1335 29.4358 15.1457 25.0728 16.2811 20.1727C16.4462 19.4613 17.0495 18.3387 17.4684 17.7487C17.4684 17.7487 19.2557 17.472 22.2555 17C23.3724 19.0761 26.2925 18.1478 26.5984 17.3774C26.5984 17.3774 28.0639 18.258 28.9973 18.4289Z" fill="#EC7832"/>
<path d="M36.0709 28.4988C36.2661 27.8656 36.7666 27.3326 37.3903 27.0951C37.8694 26.9121 38.3974 26.8998 38.8898 26.7573C39.7531 26.5075 40.4798 25.8356 40.7912 25C40.9305 25.8329 41.0707 26.6817 40.9536 27.5181C40.8365 28.3546 40.4195 29.1928 39.6821 29.6159C39.0575 29.9738 38.2989 29.9914 37.5784 29.9993C37.0762 30.0055 36.4986 29.9765 36.1898 29.5842C35.9556 29.2851 35.96 28.8612 36.0709 28.4988Z" fill="#87BE00"/>
<path d="M35.1187 26.8382C34.5775 26.1282 33.9371 25.5071 33.2251 25C33.0339 25.8747 32.9128 26.7866 33.0686 27.6689C33.2235 28.5521 33.6932 29.4065 34.4366 29.8164C34.8363 30.037 35.3689 30.0987 35.7017 29.7759C35.9723 29.5139 36.0305 29.0778 35.9817 28.6907C35.896 27.9977 35.5317 27.379 35.1187 26.8382Z" fill="#87BE00"/>
<path d="M36.3091 38.0424C36.1462 37.9256 35.9631 37.8013 35.8854 37.5771C35.857 37.4959 35.8716 37.3555 35.8951 37.2312C35.9445 36.9766 35.9858 36.7245 36.0061 36.4665C36.1001 35.1892 36.3512 31.8183 36.4954 29.9954C36.5156 29.7281 36.5318 29.438 36.3917 29.2138C36.2507 28.9888 35.887 28.9093 35.7469 29.1335C35.563 31.6407 35.3799 34.1471 35.196 36.6543C34.953 36.7414 34.714 36.8454 34.5042 37.0214C34.2369 37.2447 34.0173 37.6042 33.9987 38.0153C33.9817 38.385 34.1243 38.7326 34.2806 39.0431C34.4353 39.3527 34.6119 39.6589 34.6775 40.0192C34.7423 40.3796 34.6581 40.8169 34.4045 40.9852C34.7172 41.058 34.9992 40.6689 35.0559 40.2645C35.1118 39.8593 34.8088 39.2985 34.6379 38.7901C34.5099 38.4061 34.326 38.0821 34.6573 37.5847C34.7002 37.5205 34.782 37.4739 34.8736 37.4299C34.8728 37.4333 34.872 37.4359 34.8712 37.4393C34.8226 37.8639 34.9481 38.2877 35.0947 38.6717C35.2422 39.0549 35.4163 39.4322 35.4747 39.8543C35.533 40.2755 35.4455 40.767 35.166 40.9987C35.5767 41.0343 36.2127 40.3237 35.4496 38.511C35.3799 38.3469 35.2373 37.8512 35.3532 37.5915C35.3783 37.534 35.4139 37.4985 35.4536 37.4705C35.4674 37.5348 35.4885 37.5966 35.5144 37.6541C35.6205 37.8833 35.7963 38.0424 35.9721 38.1819C36.1479 38.3215 36.3334 38.4518 36.4735 38.6489C36.7976 39.1057 36.8016 39.8382 36.5869 40.3923C36.9037 40.2662 37.4456 38.857 36.3091 38.0424Z" fill="#87BE00"/>
<path d="M51.9973 52C51.4021 49.1655 49.8432 46.6213 47.8537 45.2721C45.07 43.3846 41.66 43.6892 38.9611 45.5808C36.8927 47.0294 35.2271 49.3273 33.9973 51.9992H51.9973V52Z" fill="#664A3B"/>
<path d="M36.9351 35.8193C37.1894 35.0494 36.6286 34.2357 35.9012 33.7452C35.3166 33.3511 34.613 33.0916 33.8811 33C33.2535 34.0359 32.6249 35.0717 31.9973 36.1068C32.8281 36.5192 33.6963 36.9412 34.6515 36.9953C35.6066 37.0503 36.6707 36.6195 36.9351 35.8193Z" fill="#FFC56E"/>
<path d="M25.3784 28.807C23.6932 28.0046 22.4447 26.5316 21.9553 24.7646C21.5279 23.2195 21.2259 21.8102 20.7017 19.5191C20.5185 18.7209 20.2259 18.1065 19.5754 17.5906C18.924 17.0756 17.997 16.8156 17.2311 17.1493C16.4551 17.4879 16.0352 18.3557 15.9988 19.1854C15.9623 20.015 16.612 25.8112 17.4372 28.1942C17.7214 29.0148 18.0216 29.8611 18.6212 30.497C19.1903 31.1006 19.9757 31.4566 20.7425 31.7903C24.4209 33.3892 28.1858 34.7952 32.0186 36C32.8599 34.9352 33.53 33.7411 33.9973 32.4759C32.5741 32.1696 28.2121 30.1566 25.3784 28.807Z" fill="#CD5A24"/>
<path d="M27.5089 51L25.9973 55.5483C25.9973 55.5483 32.3094 57.0467 33.812 54.5853C35.2834 52.1789 27.5089 51 27.5089 51Z" fill="#252722"/>
<path d="M29.9921 53.833C30.0832 53.6242 28.9548 53.2759 28.6085 53.2112L11.5964 50.025C10.9338 49.924 10.2833 50.1367 10.0736 50.5228L10.065 50.539C9.80462 51.0182 10.3228 51.5545 11.1495 51.6632L28.3627 53.9764C28.6824 54.0187 29.9096 54.0218 29.9921 53.833Z" fill="#CCC4C0"/>
</svg>
