<svg width="68" height="60" viewBox="0 0 68 60" fill="none" xmlns="http://www.w3.org/2000/svg">
<path d="M59.4472 35.3089C58.6557 33.0876 59.4214 30.6635 59.8716 28.3504C60.986 22.6271 60.0589 16.5364 57.2876 11.388C50.6269 4.38311 40.0223 1.8735 30.4169 3.45622C20.8124 5.03894 12.1461 10.2619 4.91711 16.6947C6.36549 19.6973 5.8747 23.2411 5.04534 26.4639C4.21598 29.6866 3.06835 32.923 3.2999 36.2394C3.50102 39.1256 4.7409 41.8854 4.79441 44.7779C4.84792 47.6705 3.01576 51.0088 0.0811768 51.0324C5.3221 52.9526 14.6462 54.0569 20.2367 53.9977C38.3018 53.8067 48.9636 53.4884 65.0812 45.4429C63.2167 45.1109 60.0746 37.0708 59.4472 35.3089Z" fill="#CBC2BE"/>
<path d="M59.381 35.131C58.5895 32.8887 59.3552 30.4417 59.8054 28.1066C60.7113 23.4127 60.2685 18.4736 58.5849 14C54.7767 20.434 46.9185 22.8259 39.3113 23.3466C33.8111 23.723 28.0693 23.8544 22.5839 23.3548C16.6427 22.814 11.2238 20.9546 5.66088 19.1283C5.97731 21.4431 5.56401 23.9039 4.9782 26.2032C4.14884 29.4564 3.00121 32.7234 3.23276 36.0713C3.43295 38.9848 4.67376 41.7707 4.72727 44.6906C4.78078 47.6106 2.94862 50.9804 0.0140381 51.0043C5.25496 52.9427 14.579 54.0574 20.1696 53.9977C38.2347 53.8049 48.8964 53.4835 65.014 45.3619C63.1505 45.0258 60.0084 36.9096 59.381 35.131Z" fill="#CBC2BE"/>
<path d="M51.7762 20C38.7084 22.8162 25.3514 24.3063 11.9806 24.4383C12.2588 30.9592 12.5371 37.4791 12.8153 44C25.5491 40.8115 39.0443 37.6311 51.6133 41.4104C52.7757 34.2988 53.9208 26.8822 51.7762 20Z" fill="#FDF9F4"/>
<path d="M20.0832 36.7272C20.422 36.6181 20.7342 36.4627 21.0223 36.2601C21.3096 36.0575 21.5168 35.8503 21.6422 35.6386L21.3727 34.758L19.8529 35.2442L19.5514 34.2601L22.2638 33.3923L22.9806 35.7312C22.7574 36.1829 22.4105 36.5918 21.9419 36.9561C21.4732 37.3214 20.9494 37.5959 20.3678 37.7821C19.3549 38.1056 18.4878 38.0693 17.7674 37.6704C17.0462 37.2715 16.5251 36.5454 16.2022 35.4923C15.8812 34.4446 15.9088 33.554 16.2858 32.8207C16.6629 32.0865 17.3646 31.5559 18.3935 31.2269C19.8547 30.7589 20.953 31.0152 21.6893 31.992L20.6008 32.7471C20.3731 32.4673 20.0939 32.2883 19.7666 32.2101C19.4393 32.1347 19.0881 32.1547 18.7137 32.2746C18.1018 32.4709 17.6945 32.8089 17.4926 33.2905C17.2899 33.7703 17.2979 34.3655 17.514 35.0725C17.7345 35.7921 18.0698 36.2946 18.518 36.5827C18.9662 36.868 19.4883 36.9171 20.0832 36.7272Z" fill="#767676"/>
<path d="M24.4608 37L23.3543 33.1308C23.2753 32.8553 23.2048 32.6249 23.1447 32.4415C23.0845 32.2581 23.0296 32.0973 22.9806 31.9571L24.1241 31.5649C24.149 31.6167 24.2091 31.7831 24.3045 32.0643C24.4007 32.3446 24.4617 32.5318 24.4883 32.6249L24.5064 32.6192C24.521 32.2242 24.5536 31.9383 24.6026 31.7634C24.6524 31.5866 24.7297 31.4427 24.8354 31.3289C24.9402 31.216 25.0863 31.1276 25.2753 31.0627C25.4282 31.0101 25.5596 30.9903 25.6662 31.0044L25.9806 32.1029C25.7735 32.1227 25.5957 32.1574 25.4479 32.2082C25.149 32.3107 24.954 32.5233 24.8638 32.8449C24.7727 33.1675 24.8019 33.5879 24.9514 34.108L25.661 36.5899L24.4608 37Z" fill="#767676"/>
<path d="M31.8199 31.7859C32.0556 32.5201 32.0323 33.1584 31.7483 33.7023C31.4643 34.247 30.9541 34.6318 30.216 34.8575C29.4926 35.0781 28.8581 35.0427 28.3117 34.7505C27.7661 34.4575 27.3759 33.9464 27.1411 33.2156C26.9072 32.4881 26.9288 31.8524 27.2067 31.3102C27.4847 30.7671 27.994 30.3823 28.7347 30.1567C29.4926 29.926 30.1357 29.9495 30.6632 30.2308C31.1923 30.512 31.5773 31.0307 31.8199 31.7859ZM30.5596 32.1715C30.3869 31.6327 30.1711 31.2706 29.913 31.0837C29.6558 30.8959 29.3554 30.8547 29.0118 30.9591C28.2798 31.1831 28.0778 31.8061 28.4058 32.8291C28.5681 33.3343 28.7813 33.6913 29.0446 33.9001C29.3079 34.1098 29.6083 34.162 29.9458 34.0593C30.6865 33.8319 30.8911 33.2038 30.5596 32.1715Z" fill="#767676"/>
<path d="M33.2508 27.9965L34.1091 30.7553C34.3782 31.62 34.8019 31.9604 35.3793 31.7783C35.6875 31.6813 35.8939 31.4709 35.9994 31.146C36.1039 30.8221 36.093 30.4515 35.9639 30.0361L35.1438 27.3999L36.4131 27L37.6014 30.8185C37.7315 31.2375 37.8578 31.5999 37.9806 31.9073L36.7695 32.2889C36.5977 31.8643 36.4776 31.5441 36.4113 31.3281L36.3885 31.3354C36.3358 31.7609 36.2058 32.1004 35.9976 32.3521C35.7903 32.6037 35.5075 32.7858 35.1483 32.8983C34.631 33.0621 34.1837 33.0283 33.8063 32.7949C33.4299 32.5625 33.1444 32.137 32.9526 31.5185L31.9806 28.3954L33.2508 27.9965Z" fill="#767676"/>
<path d="M42.714 31.0035L41.8555 28.2461C41.5863 27.384 41.1617 27.0439 40.5806 27.2267C40.2741 27.3236 40.0677 27.5339 39.9613 27.8576C39.8558 28.1812 39.8676 28.5515 39.9968 28.9656L40.817 31.6005L39.5476 32L38.359 28.1849C38.2772 27.9216 38.2062 27.7067 38.1462 27.5412C38.0871 27.3748 38.0316 27.2267 37.9807 27.0969L39.1911 26.7157C39.2184 26.7696 39.2784 26.9196 39.3711 27.1646C39.4648 27.4096 39.5257 27.5796 39.5548 27.6738L39.573 27.6683C39.6276 27.2386 39.7585 26.8976 39.9649 26.6462C40.1705 26.3957 40.4533 26.2128 40.8116 26.1004C41.3299 25.9377 41.7773 25.9724 42.1547 26.2074C42.5321 26.4405 42.8167 26.8665 43.0086 27.4846L43.9807 30.6049L42.714 31.0035Z" fill="#767676"/>
<path d="M48.6742 29.2816C48.6462 29.2395 48.5931 29.1262 48.5148 28.9447C48.4365 28.7631 48.3766 28.6097 48.337 28.4861L48.3177 28.4918C48.223 29.1871 47.7678 29.6587 46.9513 29.9067C46.3463 30.0901 45.8052 30.0031 45.3278 29.6456C44.8495 29.2891 44.4784 28.6995 44.2127 27.8779C43.9431 27.045 43.9083 26.3478 44.1093 25.7891C44.3093 25.2295 44.7277 24.8533 45.3655 24.6596C45.7337 24.5482 46.0748 24.5258 46.3908 24.5941C46.7058 24.6624 46.9832 24.8215 47.2228 25.0723L47.2325 25.0695L46.9561 24.245L46.3618 22.408L47.7108 22L49.5874 27.803C49.6879 28.1127 49.8184 28.4749 49.9807 28.8885L48.6742 29.2816ZM47.7891 26.7577C47.6132 26.2149 47.3852 25.8265 47.103 25.5898C46.8208 25.354 46.4981 25.2913 46.1328 25.4017C45.7714 25.5112 45.5482 25.7339 45.4651 26.0717C45.381 26.4077 45.4322 26.8681 45.6206 27.4502C45.9898 28.5909 46.528 29.0542 47.2354 28.8399C47.59 28.7323 47.8171 28.4974 47.9147 28.1361C48.0113 27.7749 47.9698 27.3154 47.7891 26.7577Z" fill="#767676"/>
<path d="M1.98059 23.8148C8.74723 28.3926 17.1188 29.6736 25.2128 29.944C32.5282 30.1873 39.9359 29.6848 46.9424 27.5087C53.9488 25.3327 64.9806 16.5884 64.9806 16.5884C62.5021 14.7927 59.8715 12.7966 57.394 11C51.1614 18.0792 41.8471 21.7954 32.5771 22.3436C23.3071 22.8918 14.0611 20.506 5.4663 16.8923C4.30501 19.1998 3.1428 21.5073 1.98059 23.8148Z" fill="#B5A9A3"/>
<path d="M36.2074 0.422901C37.6354 0.0256247 38.8705 1.63675 40.3536 1.65326C45.779 1.71382 45.521 4.22042 46.8268 4.55347C48.1317 4.88653 49.5643 4.80028 50.7517 5.43703C51.8674 6.03523 51.4202 9.10059 53.7013 9.37951C54.8051 9.51439 55.379 10.8117 54.6655 11.6632C53.7454 12.7614 52.1852 11.6494 50.9004 11.9127C49.4247 12.2146 48.7975 14.1982 47.3355 14.5606C46.4916 14.7698 45.6183 14.3689 44.7496 14.3881C43.4143 14.4184 42.3307 15.4038 41.2297 16.1571C40.3297 16.7727 39.1295 17.2461 38.146 16.9507C37.3737 16.7186 36.5499 16.6828 35.7519 16.7993C34.0595 17.0443 32.4019 17.5269 30.8426 18.2279C30.3357 18.4563 29.7709 18.2774 29.4156 17.8498C29.0951 17.4645 28.5266 17.2085 28.0114 17.2764C27.1106 17.3948 26.3952 18.059 25.6183 18.5306C24.8414 19.0022 23.7431 19.2545 23.0911 18.6215C23.0893 17.5205 21.6631 16.9902 20.5786 17.1856C19.4941 17.381 18.0477 18.7719 17.3691 17.904C14.8309 14.6579 13.571 17.1746 10.6076 14.4551C9.15112 13.1192 10.4322 10.053 12.4029 9.91258C11.2788 8.23906 12.435 5.57006 14.425 5.24343C15.6335 5.04525 17.0679 5.52969 17.977 4.71037C18.7934 3.97545 18.7291 2.51021 19.6759 1.95329C20.9845 1.18259 22.4694 2.95244 23.9856 2.85977C25.8185 2.74784 26.6863 0.0568187 28.5202 0.00085136C30.13 -0.047776 31.1925 2.00283 32.8023 2.01292C34.0696 2.0221 34.9842 0.762375 36.2074 0.422901Z" fill="#664A3B"/>
<path d="M45.9805 57.1898C46.9533 56.1117 48.6304 54.6434 49.7878 53.7587C50.9443 52.8748 52.301 52.1924 53.7575 52.0354C55.345 51.8648 56.9455 52.3285 58.3687 53.0391C60.463 54.0854 62.2342 55.648 63.9805 57.1934C61.4875 58.8749 58.5063 59.7978 55.4881 59.9784C50.3203 60.2869 45.9805 57.1898 45.9805 57.1898Z" fill="#664A3B"/>
<path d="M65.8643 38.4289C65.5336 39.3873 64.9716 40.2815 64.1643 40.8195C62.8199 41.7157 61.1066 41.4792 59.5382 41.2628C57.9697 41.0464 56.2137 40.9354 54.9805 42C55.2828 39.8459 55.6358 37.5692 56.9508 35.9148C58.2338 34.2997 60.2263 33.5567 62.1664 33.169C64.1074 32.7803 66.108 32.6721 67.9805 32C67.1829 32.7726 66.797 33.9225 66.5694 35.0512C66.3418 36.18 66.2387 37.3461 65.8643 38.4289Z" fill="#87BE00"/>
<path d="M59.5618 38.7205C57.9619 39.3429 56.4311 40.1079 54.9973 41C57.3953 38.0627 62.4697 37.8483 64.9973 35C64.6535 36.0148 63.7633 36.8162 62.7636 37.378C61.7639 37.9399 60.6441 38.2995 59.5618 38.7205Z" fill="white"/>
<path d="M58.9973 37C57.9973 38.3337 56.9973 39.6663 55.9973 41C57.4714 40.0965 58.3699 38.554 58.9973 37Z" fill="white"/>
<path d="M60.9769 35C60.5154 36.1072 59.8405 37.1295 58.9973 38L59.8565 37.6758C60.0097 37.5334 60.2063 37.1355 60.4393 36.7521C60.767 36.2118 61.0814 35.6184 60.9769 35Z" fill="white"/>
<path d="M60.165 38.5095C60.1052 38.5064 60.0385 38.5366 60.0094 38.6012C59.9512 38.7336 60.1154 38.8419 60.2386 38.8607C60.8894 38.9607 61.5488 39.0608 62.1988 38.9545C62.8487 38.8471 63.5971 38.6325 63.9973 38C62.5451 38.5627 61.4573 38.5741 60.165 38.5095Z" fill="white"/>
<path d="M62.9973 39.341C61.3842 39.5567 59.7512 39.443 58.1598 39L57.9973 39.6949C59.3618 40.289 61.6311 39.9312 62.9973 39.341Z" fill="white"/>
<path d="M54.9856 36.775C53.941 34.8894 51.8422 33.6779 49.6538 33.2348C47.4655 32.7917 45.1857 33.0344 42.9973 33.4766C44.0467 33.7911 44.7991 34.6962 45.2121 35.6677C45.625 36.6393 45.7608 37.6935 45.9833 38.7199C46.2068 39.7462 46.5415 40.7906 47.2694 41.5761C48.3008 42.6887 49.9753 43.095 51.5282 42.9817C53.0811 42.8685 54.5538 42.3059 55.9973 41.7495C55.9181 40.0482 55.8201 38.2813 54.9856 36.775Z" fill="#87BE00"/>
<path d="M50.2051 37.1466C49.2421 35.9708 48.448 34.4918 46.9973 34C48.3825 35.2187 49.2374 36.9002 50.3702 38.3484C51.503 39.7976 53.1425 41.1003 54.9973 40.9939C53.2649 39.8769 51.504 38.7329 50.2051 37.1466Z" fill="white"/>
<path d="M51.1207 36C51.0322 36.6969 50.9438 37.3994 51.0372 38.0955C51.1295 38.7915 51.4185 39.4892 51.9973 40C51.9688 39.5194 51.8548 39.0453 51.7408 38.5736C51.5335 37.7152 51.3271 36.8576 51.1207 36Z" fill="white"/>
<path d="M49.3651 36.9072C49.4829 37.0841 49.9068 36.9857 49.9897 36.7992C50.0716 36.6127 49.4728 34.2151 48.9973 34C49.1195 34.9683 49.2418 35.9381 49.3651 36.9072Z" fill="white"/>
<path d="M49.6909 37.9621C49.7987 37.944 49.9209 37.9068 49.9744 37.7792C50.0346 37.6369 49.9684 37.446 49.8658 37.358C49.7622 37.2688 49.6332 37.2541 49.511 37.2428C48.6734 37.1615 47.8349 37.0802 46.9973 37C47.756 37.769 48.7447 38.1224 49.6909 37.9621Z" fill="white"/>
<path d="M47.9973 39C49.1911 39.9752 50.6625 40.2542 51.9973 39.7616C51.9562 39.5831 51.9152 39.4047 51.8732 39.2262C50.5812 39.1508 49.2893 39.0754 47.9973 39Z" fill="white"/>
<path d="M55.9948 52.9472C56.8006 52.6995 56.954 51.7527 56.9702 50.9869C57.0088 49.096 57.0475 47.1969 56.7721 45.3216C56.4968 43.4463 55.8943 41.582 54.7421 40C54.2615 40.3921 54.0776 41.0089 54.0908 41.5929C54.104 42.1769 54.2889 42.7435 54.4393 43.311C55.2074 46.2245 55.053 49.33 53.9973 52.1694C54.547 52.6492 55.2694 53.1692 55.9948 52.9472Z" fill="#87BE00"/>
</svg>
