<svg width="43" height="60" viewBox="0 0 43 60" fill="none" xmlns="http://www.w3.org/2000/svg">
<path d="M35.0088 39.6174L25.8728 35.3091L16.7378 31C16.7378 31 6.66724 51.0181 15.9179 55.3809C25.1685 59.7438 35.0088 39.6174 35.0088 39.6174Z" fill="#5F625E"/>
<path d="M32.6639 42C33.5197 40.4944 34.0088 39.4883 34.0088 39.4883L16.1756 31C16.1756 31 15.6768 32.0026 15.0088 33.5976L32.6639 42Z" fill="#252722"/>
<path d="M22.5741 43.7508C21.9497 44.3269 20.9584 43.8356 21.0108 42.9773L21.0475 42.7076C21.1715 41.7984 21.4326 40.9142 21.8239 40.0881L40.413 0.781573C40.7388 0.0938649 41.5475 -0.194616 42.2201 0.13852L42.2445 0.151024C42.917 0.48416 43.1991 1.3112 42.8733 1.9989L24.279 41.317C23.8537 42.2173 23.2798 43.0372 22.5846 43.7401L22.5741 43.7508Z" fill="#FFE4E4"/>
<path d="M3.98584 57.8923C4.6878 57.084 5.89978 55.9828 6.73519 55.3192C7.57059 54.6565 8.5495 54.1442 9.60244 54.0266C10.7486 53.8987 11.9048 54.2459 12.9331 54.7797C14.4449 55.5646 15.7245 56.7368 16.9858 57.8951C15.1852 59.156 13.0327 59.8485 10.8537 59.9838C7.11906 60.2152 3.98584 57.8923 3.98584 57.8923Z" fill="#664A3B"/>
<path d="M16.5213 45.4994C16.2917 46.1703 15.9034 46.7961 15.3437 47.1729C14.4127 47.8006 13.2267 47.6352 12.1412 47.4835C11.0556 47.3319 9.83924 47.2538 8.98584 48C9.19518 46.4919 9.43915 44.8993 10.3491 43.7405C11.238 42.6101 12.6164 42.0899 13.9602 41.8179C15.3041 41.5468 16.6884 41.4705 17.9858 41C17.4338 41.5404 17.1662 42.3454 17.0092 43.1357C16.8505 43.9252 16.7796 44.7412 16.5213 45.4994Z" fill="white"/>
<path d="M13.1807 44.4804C12.0608 44.8953 10.9887 45.405 9.98584 46C11.6635 44.0419 15.216 43.8989 16.9858 42C16.7443 42.6764 16.1212 43.2106 15.4216 43.5851C14.7219 43.9605 13.9375 44.1999 13.1807 44.4804Z" fill="#ADD250"/>
<path d="M11.9858 44C11.3186 44.9997 10.6531 46.0003 9.98584 47C10.9687 46.321 11.5673 45.165 11.9858 44Z" fill="#ADD250"/>
<path d="M13.9858 43C13.7527 43.738 13.4116 44.4204 12.9858 45C13.1533 44.8447 13.1907 45.0188 13.3417 44.8384C13.4294 44.7341 13.9858 44 13.9858 43Z" fill="#ADD250"/>
<path d="M13.1152 44.5645C13.0692 44.5734 13.0178 44.5886 12.9952 44.6457C12.9501 44.7637 13.0773 44.8601 13.1711 44.8766C13.6716 44.9654 14.1785 45.0542 14.6781 44.9591C15.1787 44.8639 15.6774 44.562 15.9858 44C15.0289 44.1878 14.0721 44.3755 13.1152 44.5645Z" fill="#ADD250"/>
<path d="M15.9858 45.2896C14.652 45.4751 13.3023 45.3771 11.9862 45C11.9744 45.4102 12.265 45.6757 12.5231 45.7903C13.6521 46.2956 14.8559 45.7918 15.9858 45.2896Z" fill="#ADD250"/>
<path d="M9.2841 43.6419C8.55999 42.322 7.10726 41.474 5.59279 41.1643C4.07833 40.8546 2.50031 41.0236 0.98584 41.3334C1.71175 41.5533 2.23269 42.1874 2.51911 42.8672C2.80464 43.547 2.89861 44.2854 3.05346 45.004C3.20831 45.7227 3.44016 46.4533 3.94408 47.0029C4.65746 47.7819 5.81747 48.0666 6.89156 47.9872C7.96655 47.9078 8.98604 47.5136 9.98584 47.1245C9.92945 45.9323 9.86232 44.6961 9.2841 43.6419Z" fill="white"/>
<path d="M6.0022 44.2487C5.40057 43.4087 4.90382 42.3519 3.99731 42C4.86236 42.8702 5.39731 44.0723 6.10544 45.1062C6.81357 46.141 7.83796 47.0715 8.99731 46.9957C7.9152 46.1985 6.81358 45.3822 6.0022 44.2487Z" fill="#ADD250"/>
<path d="M7.12112 43C7.03215 43.5228 6.94455 44.049 7.03621 44.5717C7.12923 45.0937 7.41902 45.6173 7.99731 46C7.96766 45.64 7.85307 45.2842 7.74119 44.9309C7.5336 44.2864 7.32737 43.6428 7.12112 43Z" fill="#ADD250"/>
<path d="M5.36594 43.9378C5.48421 44.0561 5.90969 43.9908 5.98956 43.866C6.0725 43.7419 5.47347 42.1437 4.99731 42C5.12173 42.6457 5.24459 43.2921 5.36594 43.9378Z" fill="#ADD250"/>
<path d="M5.79302 44.9624C5.86516 44.9438 5.9466 44.9066 5.98228 44.7795C6.02184 44.6369 5.97841 44.4463 5.90937 44.358C5.84033 44.2697 5.75424 44.2154 5.67279 44.2433C4.99717 44.4711 4.65742 44.1937 3.99731 44C4.50306 44.7687 5.16239 45.122 5.79302 44.9624Z" fill="#ADD250"/>
<path d="M4.99731 46C5.89355 46.9738 6.9964 47.2548 7.99731 46.7618C7.96609 46.5826 7.93577 46.405 7.90363 46.2258C6.93485 46.1499 5.96701 46.0741 4.99731 46Z" fill="#ADD250"/>
<path d="M10.3296 54.9635C10.8657 54.7926 10.9688 54.1366 10.979 53.6064C11.005 52.297 11.031 50.9824 10.8471 49.6843C10.6641 48.3862 10.2618 47.0951 9.49343 46C9.1729 46.2716 9.05026 46.6985 9.05955 47.1029C9.06884 47.5064 9.1924 47.8994 9.29181 48.2925C9.80466 50.3099 9.70061 52.4601 8.99731 54.4255C9.36244 54.757 9.84554 55.1171 10.3296 54.9635Z" fill="white"/>
</svg>
