<svg width="32" height="60" viewBox="0 0 32 60" fill="none" xmlns="http://www.w3.org/2000/svg">
<path d="M13.9901 29C14.4911 28.9491 16.4901 28.9703 16.9901 29C16.3371 26.0322 16.0077 23.0254 15.878 20.329C15.6909 16.4098 15.0856 10.147 15.8225 5L15.5028 6.00395C14.4238 9.72639 14.3449 13.8296 14.2104 17.6665C13.9901 23.9836 14.0661 25.1826 13.9901 29Z" fill="white"/>
<path d="M16.6273 11.7904C16.0377 12.2693 15.435 12.7755 14.9901 13.3747C15.0995 13.9186 15.1504 14.4585 15.1726 15C17.1847 12.4418 19.4731 10.0897 21.9901 8C20.0413 9.0196 18.3269 10.4098 16.6273 11.7904Z" fill="white"/>
<path d="M15.0245 24C14.8987 23.1474 15.1291 22.2639 15.5334 21.5259C15.9377 20.788 16.5062 20.1802 17.0983 19.6233C18.504 18.303 20.1605 17.1929 21.9901 17C19.2326 18.7061 16.8296 21.1201 15.0245 24Z" fill="white"/>
<path d="M15.8555 23C15.989 21.9974 16.1863 21.5154 15.5214 20.8011C14.8566 20.0868 12.7022 17.998 11.8426 17.5949C10.9823 17.1919 10.7672 17.5674 9.99011 17C12.096 18.6958 14.0472 20.9425 15.8555 23Z" fill="white"/>
<path d="M9.99011 7C11.6987 9.26175 13.2948 11.5983 14.7725 14C15.0307 13.552 15.04 13.0051 14.9003 12.512C14.7605 12.0198 14.4836 11.5717 14.1879 11.1455C13.0732 9.53682 11.6433 8.12364 9.99011 7Z" fill="white"/>
<path d="M18.2311 4.23182C19.3976 3.3438 20.8614 2.94601 21.9858 2C22.0495 3.6383 21.4111 5.29381 20.2798 6.42105C19.1469 7.54919 17.5418 8.13093 15.9901 7.97507C16.246 6.4881 17.0662 5.11711 18.2311 4.23182Z" fill="white"/>
<path d="M19.9901 3C19.2353 4.83601 17.7549 6.31714 15.9901 7C17.5095 5.90325 18.8656 4.54794 19.9901 3Z" fill="#ADD250"/>
<path d="M18.8404 5.63859C19.2526 5.48417 19.6798 5.31929 19.9901 5C19.628 5.72223 18.7628 6.13723 17.9901 5.95869C18.273 5.85172 18.5567 5.74476 18.8404 5.63859Z" fill="#ADD250"/>
<path d="M17.9722 4C17.7151 4.86371 17.4115 5.35879 16.9901 6C17.3691 5.86782 17.3247 5.93596 17.5106 5.64286C17.7512 5.26355 18.0693 4.70197 17.9722 4Z" fill="#ADD250"/>
<path d="M15.4143 7C15.4143 7 16.7127 3.93686 15.4101 1.93024C14.6644 0.781885 13.3108 0.186243 11.9901 0C12.1312 0.959538 12.2714 1.91909 12.4125 2.87948C12.5024 3.49572 12.5857 4.12053 12.8068 4.69986C13.4081 6.27649 15.4143 7 15.4143 7Z" fill="white"/>
<path d="M12.9901 1C13.7753 2.59233 14.5131 4.27128 14.9486 6C15.1659 4.72742 14.4854 3.5903 13.9336 2.42923C13.5607 1.64412 12.9901 1.047 12.9901 1Z" fill="#ADD250"/>
<path d="M14.9902 2C14.9902 2.73865 14.9902 4.21205 14.9901 4.96142C14.9901 5.11149 14.9901 4.77531 14.9901 4.77531C14.9902 3.86417 14.9902 2.92672 14.9902 2Z" fill="#ADD250"/>
<path d="M14.9901 4.72139C14.275 4.1057 13.7043 3.61471 12.9901 3C13.2041 3.49878 14.3063 4.60838 14.9797 5L14.9901 4.72139Z" fill="#ADD250"/>
<path d="M19.5056 11.8397C21.3162 11.9463 23.02 10.7717 24.0573 9.24142C25.0946 7.71112 25.5786 5.86368 25.9901 4.04645C24.2447 3.96171 22.4015 3.8988 20.8639 4.7512C19.6457 5.42742 18.7575 6.61961 18.1765 7.91248C17.5947 9.20618 17.2908 10.609 16.9901 12C17.6893 11.4823 18.6467 11.7894 19.5056 11.8397Z" fill="white"/>
<path d="M22.0816 8.80449C22.0566 8.87119 22.0259 8.93617 21.9901 9C23.2518 8.95112 24.2449 8.70845 24.9901 8C24.007 8.48706 23.1345 8.66303 22.0816 8.80449Z" fill="#ADD250"/>
<path d="M20.7694 10.9645C20.3583 10.9065 19.0293 10.8441 18.9901 10.8613C19.2917 10.4398 20.6133 10.2892 21.4274 10.3645C21.8957 10.4075 22.6182 10.3323 22.9901 10C22.6011 10.7129 21.9349 11.128 20.7694 10.9645Z" fill="#ADD250"/>
<path d="M18.9901 11C19.4887 10.7177 19.7858 9.98033 19.8945 9.24485C20.0025 8.50937 19.9605 7.74988 19.9901 7C19.8581 8.41047 19.5156 9.78156 18.9901 11Z" fill="#ADD250"/>
<path d="M21.4291 8.67841C21.3514 9.02715 21.148 9.70081 20.9901 10C21.5002 9.68175 21.7557 9.20247 21.8541 8.39923C21.9426 7.67698 22.0319 7.05098 21.969 6C21.7929 7.04335 21.6491 7.67889 21.4291 8.67841Z" fill="#ADD250"/>
<path d="M8.30014 10.4758C9.61459 11.0871 11.1413 11.0284 12.5973 10.9565C12.9553 9.23167 13.2971 7.36378 12.5214 5.77219C11.8957 4.4875 10.6188 3.59739 9.26085 3.06465C7.90378 2.53191 6.44269 2.30773 5.01401 2C4.96713 3.60069 4.94499 5.2287 5.38825 6.77066C5.83237 8.31345 6.8118 9.78343 8.30014 10.4758Z" fill="white"/>
<path d="M10.9901 9.26911C10.9901 9.53577 10.9901 9.8618 10.9902 10C10.9902 8.71046 10.9902 7.31095 10.9902 6C10.9902 7.09002 10.9901 8.18006 10.9901 9.26911Z" fill="#ADD250"/>
<path d="M10.4116 8.39975C9.26413 8.53835 8.09663 8.40476 6.99011 8C7.3849 8.50017 8.06293 8.76534 8.44327 8.87783C8.82361 8.99031 10.3666 9.01944 10.9901 8.98831C10.9837 8.9642 10.9797 8.94311 10.9757 8.92101C10.7855 8.8025 10.5656 8.59962 10.4116 8.39975Z" fill="#ADD250"/>
<path d="M10.5907 7.48698C9.37156 7.50955 8.14771 7.3533 6.99011 7C7.43877 7.44791 8.22818 7.70399 8.6721 7.81597C9.01001 7.90191 10.1439 7.97222 10.9901 8C10.8301 7.84896 10.6976 7.67448 10.5907 7.48698Z" fill="#ADD250"/>
<path d="M11.9901 11C11.0467 9.35321 8.34995 5.60449 6.99011 4C7.77946 6.00907 10.3672 9.65572 11.9901 11Z" fill="#ADD250"/>
<path d="M9.99016 5C9.99009 5.62928 9.99012 6.89366 9.99012 7.60354C9.99012 8.51638 9.99018 8.84365 9.99021 9C9.99019 7.6657 9.99018 6.33236 9.99016 5Z" fill="#ADD250"/>
<path d="M8.99021 6C8.99019 4.99972 8.99017 3.99945 8.99016 3C8.99012 3.58142 8.99011 4.20597 8.99011 4.81228C8.99011 5.12248 8.99012 5.44015 8.99015 5.72962C8.99018 5.81505 8.99018 5.88471 8.99021 6Z" fill="#ADD250"/>
<path d="M8.81188 6.6084C8.80462 6.59478 8.79577 6.5823 8.79012 6.56754C8.79577 6.58684 8.80141 6.605 8.80706 6.6243C8.79496 6.58684 8.77962 6.55278 8.76349 6.51873C8.73769 6.46425 8.71995 6.40523 8.69737 6.34848C7.79495 5.89899 6.89253 5.45063 5.99011 5C6.80382 6.09535 7.87318 6.80136 8.99011 7C8.92398 6.87628 8.8643 6.74688 8.81188 6.6084Z" fill="#ADD250"/>
<path d="M27.677 12.0136C29.1298 12.1031 30.6578 12.609 31.9901 12.022C30.3868 14.0138 30.2848 17.0032 28.4005 18.7307C27.2622 19.7752 25.6112 20.1623 24.0824 19.939C22.5535 19.7158 21.1451 18.9314 19.9901 17.9063C20.3414 16.1812 21.3333 14.5949 22.7308 13.5229C24.1292 12.4518 25.919 11.9049 27.677 12.0136Z" fill="white"/>
<path d="M30.0045 13C28.5739 14.9092 25.4812 16.9115 23.0202 17.7996C22.3727 18.0329 21.6795 18.0601 21.0145 17.8937L21.0045 17.891C24.0747 17.1882 27.4179 14.9291 30.0045 13Z" fill="#ADD250"/>
<path d="M25.0045 5C24.1596 6.83885 21.8302 9.15182 19.8102 10.4411C19.2782 10.7795 18.6559 10.9686 18.0136 10.9992L18.0045 11C20.6198 9.70738 23.1175 7.13317 25.0045 5Z" fill="#ADD250"/>
<path d="M25.0045 16C25.7782 15.0708 26.4497 14.0627 27.0041 13C27.0169 13.648 26.7121 14.4615 26.3828 15.0285C26.0525 15.5956 25.676 15.905 25.0045 16Z" fill="#ADD250"/>
<path d="M22.0045 17C22.433 16.907 22.7233 16.3342 22.8296 15.7605C22.9364 15.1868 23.0516 14.7136 22.9847 14C22.8012 15.0724 22.4662 16.0963 22.0045 17Z" fill="#ADD250"/>
<path d="M24.0045 16C24.5927 15.8204 24.901 15.2249 24.9502 14.6691C24.9985 14.1132 25.0777 13.6479 24.8569 13C24.7869 14.0362 24.4961 15.0603 24.0045 16Z" fill="#ADD250"/>
<path d="M30.0045 16C28.5881 16.2578 27.6804 16.0093 26.556 16.3833C26.4463 16.4204 26.3317 16.464 26.2487 16.5724C26.1666 16.6807 25.9471 16.8751 26.0186 16.998C27.3177 17.0178 28.7914 16.9055 30.0045 16Z" fill="#ADD250"/>
<path d="M24.2287 16C24.1637 16.0859 24.089 16.1668 24.0045 16.2422C25.2569 16.7693 26.2087 17.059 28.0045 16.9899C26.6125 16.6632 25.4677 16.4628 24.2287 16Z" fill="#ADD250"/>
<path d="M22.2385 17.0039C22.1515 16.9921 22.043 17.0028 22.0116 17.0989C21.9829 17.1886 22.0466 17.2814 22.1058 17.3466C23.1504 18.4847 24.5914 19.0922 26.0045 18.9886C25.4593 18.7772 24.6739 18.5455 24.0991 18.0768C23.5243 17.6081 22.9298 17.0999 22.2385 17.0039Z" fill="#ADD250"/>
<path d="M4.26515 17.6529C5.34643 18.4624 6.68105 18.8685 8.01655 18.9714C9.35293 19.0742 10.6946 18.8883 12.0045 18.6004C11.9701 17.2413 11.8986 15.8651 11.5023 14.5673C11.1059 13.2687 10.3477 12.0405 9.2064 11.3411C6.8055 9.87096 3.58019 11.1172 1.00452 10C1.12368 11.4304 1.33552 12.8662 1.83335 14.2082C2.33207 15.551 3.13267 16.8036 4.26515 17.6529Z" fill="white"/>
<path d="M6.87367 14.8858C8.01248 15.6965 9.73045 16.8892 11.0703 17.6598C11.3572 17.8252 11.6707 17.9386 11.9992 17.9991L12.0045 18C9.57281 15.8747 7.48028 14.7809 4.00452 12C4.64919 13.191 5.75169 14.087 6.87367 14.8858Z" fill="#ADD250"/>
<path d="M10.0045 17C9.6419 15.7217 9.14236 14.3191 9.10176 13C8.86568 14.268 9.1027 15.5633 9.35294 16.8305C9.48136 16.8501 9.88931 16.9659 10.0045 17Z" fill="#ADD250"/>
<path d="M7.1418 12C6.87234 12.7406 7.02191 13.6007 7.39589 14.8642C7.65716 14.982 8.00452 15 8.00452 15C7.40411 13.8746 7.41742 13.1418 7.1418 12Z" fill="#ADD250"/>
<path d="M5.04653 12C4.86138 12.5844 5.34518 13.7202 5.39535 13.802C5.55899 14.0716 5.59122 13.8707 6.00452 14C5.68439 13.3338 5.36546 12.6669 5.04653 12Z" fill="#ADD250"/>
<path d="M5.66693 14.1147C4.70253 14.2741 4.06949 14.4544 3.00452 14C3.85431 15.0846 4.95668 15.1471 5.96552 14.8403C5.97877 14.8373 5.99126 14.8209 6.00452 14.8149C5.87432 14.6108 5.76048 14.3754 5.66693 14.1147Z" fill="#ADD250"/>
<path d="M7.05553 16.1753C6.04344 16.3665 5.01824 16.1839 4.00452 16C4.57678 16.5664 5.25779 16.8429 5.93797 16.9453C6.61897 17.0477 7.30568 16.986 7.98831 16.9243C8.05862 16.6195 7.88939 16.2888 7.68828 16.1839C7.48717 16.0815 7.26726 16.1358 7.05553 16.1753Z" fill="#ADD250"/>
<path d="M10.7871 17.5987C10.8645 17.5684 10.95 17.5272 10.9878 17.4303C11.0374 17.3019 10.9698 17.1348 10.8744 17.0682C10.779 17.0015 10.6628 16.9846 10.5557 17.0137C8.79823 17.5042 7.48556 17.3577 6.00452 17.3068C7.51527 18.116 9.2277 18.2213 10.7871 17.5987Z" fill="#ADD250"/>
<path d="M4.00452 33.4619C6.57373 29.5139 11.2579 26.994 16.0137 27C20.7686 27.0069 25.4458 29.5398 28.0045 33.4947C24.6194 36.0008 20.2934 37.1281 16.0626 36.9885C11.8327 36.8506 7.6989 35.4993 4.00452 33.4619Z" fill="#664A3B"/>
<path d="M17.0971 33H14.9128H3.00452L6.61813 59H14.9128H17.0971H25.3917L29.0045 33H17.0971Z" fill="#EC7832"/>
<path d="M25.0088 60H6.00024L5.00452 56H26.0045L25.0088 60Z" fill="#CD5A24"/>
<path d="M29.5355 37H1.47352L0.0045166 31H31.0045L29.5355 37Z" fill="#CD5A24"/>
</svg>
