<svg width="60" height="45" viewBox="0 0 60 45" fill="none" xmlns="http://www.w3.org/2000/svg">
<path d="M9.13051 22.8261V20.8696C9.13051 20.2174 8.47833 19.5652 7.82616 18.9131C7.17399 18.2609 6.52181 18.2609 5.86964 18.2609C5.21746 18.2609 4.56529 18.9131 3.91312 18.9131V20.8696C3.91312 21.5217 4.56529 22.1739 5.21746 22.8261C5.86964 23.4783 6.52181 23.4783 7.17399 23.4783C7.82616 23.4783 8.47833 22.8261 9.13051 22.8261Z" fill="#8EC155"/>
<path d="M19.5651 18.2608C19.5651 17.6086 18.9129 16.9564 18.2607 16.9564C17.6086 16.9564 16.9564 17.6086 16.9564 18.2608C16.9564 18.913 17.6086 19.5651 18.2607 19.5651C18.9129 19.5651 19.5651 18.913 19.5651 18.2608Z" fill="#8EC155"/>
<path d="M32.6088 20.8696V18.9131C31.9566 18.9131 31.3045 18.2609 30.6523 18.2609C30.0001 18.2609 29.3479 18.2609 28.6958 18.9131C28.0436 19.5652 27.3914 20.2174 27.3914 20.8696V22.8261C28.0436 22.8261 28.6958 23.4783 29.3479 23.4783C30.0001 23.4783 30.6523 23.4783 31.3045 22.8261C31.9566 22.1739 32.6088 21.5217 32.6088 20.8696Z" fill="#8EC155"/>
<path d="M49.5652 20.8696V18.9131C48.913 18.9131 48.2609 18.2609 47.6087 18.2609C46.9565 18.2609 46.3043 18.2609 45.6522 18.9131C45 19.5652 44.3478 20.2174 44.3478 20.8696V22.8261C45 22.8261 45.6522 23.4783 46.3043 23.4783C46.9565 23.4783 47.6087 23.4783 48.2609 22.8261C48.913 22.1739 49.5652 21.5217 49.5652 20.8696Z" fill="#8EC155"/>
<path d="M13.0436 5.21757C13.0436 3.26105 11.0871 1.30453 9.13054 1.30453C7.17402 1.30453 5.2175 3.26105 5.2175 5.21757H5.86967L6.52185 5.86975L7.17402 6.52192H7.82619V7.17409H8.47837V7.82627V8.47844L9.13054 9.13062C9.78272 7.17409 11.0871 5.86975 13.0436 5.21757Z" fill="#FDE8F9"/>
<path d="M30 5.21757C30 3.26105 28.0435 1.30453 26.0869 1.30453C24.1304 1.30453 22.1739 3.26105 22.1739 5.21757H22.8261L23.4782 5.86975L24.1304 6.52192H24.7826V7.17409H25.4348V7.82627V8.47844L26.0869 9.13062C26.7391 7.17409 28.0435 5.86975 30 5.21757Z" fill="#FDE8F9"/>
<path d="M47.6086 5.21757C47.6086 3.26105 45.6521 1.30453 43.6955 1.30453C41.739 1.30453 39.7825 2.60888 39.7825 5.21757C40.4347 5.21757 40.4347 5.86975 40.4347 5.86975H41.0868V6.52192H41.739V7.17409H42.3912V7.82627H43.0434V8.47844L43.6955 9.13062C44.3477 7.17409 45.6521 5.86975 47.6086 5.21757Z" fill="#FDE8F9"/>
<path d="M16.9567 11.0868V5.21726H13.6959C11.7393 5.86943 10.435 7.17378 9.13065 9.1303C9.78282 9.78247 9.78282 11.0868 9.78282 12.3912V13.0433V15.652H11.7393C15.0002 15.652 16.9567 13.6955 16.9567 11.0868Z" fill="#F37D79"/>
<path d="M27.3912 15.652V13.0433C27.3912 11.739 27.3912 10.4346 26.7391 9.78247V9.1303H26.0869V8.47813V7.82595H25.4347V7.17378H24.7825L24.1304 6.5216V5.86943H23.4782C22.826 5.21726 22.1739 5.21726 21.5217 5.21726H19.5652V10.4346C19.5652 13.0433 21.5217 15.652 24.1304 15.652H27.3912Z" fill="#F37D79"/>
<path d="M44.3476 15.652V13.0433C44.3476 11.739 43.6955 10.4346 43.0433 9.1303V8.47813V7.82595H42.3911V7.17378H41.7389V6.5216H41.0868V5.86943H40.4346C39.7824 5.21726 39.1302 5.21726 38.4781 5.21726H36.5215V10.4346C36.5215 13.0433 38.4781 15.652 41.0868 15.652H44.3476Z" fill="#F37D79"/>
<path d="M50.8695 11.0868V5.21726H47.6086C45.6521 5.86943 44.3478 7.17378 43.0434 9.1303C43.6956 9.78247 43.6956 11.0868 43.6956 12.3912V13.0433V15.652H45.6521C48.913 15.652 50.8695 13.6955 50.8695 11.0868Z" fill="#FF99A7"/>
<path d="M9.78266 15.652V13.0433C9.78266 11.739 9.78266 10.4346 9.13049 9.78247V9.1303H8.47831V8.47813V7.82595H7.82614V7.17378H7.17396L6.52179 6.5216V5.86943H5.86962C5.21744 5.21726 4.56527 5.21726 3.9131 5.21726H1.95657V10.4346C1.95657 13.0433 3.9131 15.652 6.52179 15.652H9.78266Z" fill="#FF99A7"/>
<path d="M52.8261 31.3046V23.4785H45H27.3913H9.78263H0.652191V31.3046H52.8261Z" fill="#A88D68"/>
<path d="M42.3914 44.3478L46.9566 31.3043H5.2175L9.78272 44.3478H42.3914Z" fill="#D1BB93"/>
<path d="M33.9131 11.0868V5.21726H30.6523C28.6957 5.86943 27.3914 7.17378 26.087 9.1303C26.7392 9.78247 26.7392 11.0868 26.7392 12.3912V13.0433V15.652H28.6957C31.9566 15.652 33.9131 13.6955 33.9131 11.0868Z" fill="#FF99A7"/>
<path d="M43.0434 23.4783C43.0434 24.1305 43.6956 24.7827 44.3478 24.7827C44.9999 24.7827 45.6521 24.1305 45.6521 23.4783V10.4348C45.6521 9.78265 44.9999 9.13048 44.3478 9.13048C43.6956 9.13048 43.0434 9.78265 43.0434 10.4348V23.4783Z" fill="#101110"/>
<path d="M43.6956 23.4783C44.3478 23.4783 44.9999 24.1305 45.6521 24.1305C46.9565 24.1305 48.2608 23.4783 48.913 22.8261C49.5652 22.174 49.5652 21.5218 50.2173 20.2174C50.2173 19.5653 50.8695 18.2609 50.8695 17.6088C50.8695 16.9566 50.8695 16.9566 50.2173 16.9566C49.5652 16.9566 48.2608 16.3044 47.6086 16.3044C46.9565 16.3044 45.6521 16.9566 44.9999 17.6088C44.3478 18.2609 44.3478 18.9131 43.6956 20.2174C43.6956 20.8696 43.0434 22.174 43.0434 22.8261C43.0434 23.4783 43.0434 23.4783 43.6956 23.4783Z" fill="#101110"/>
<path d="M43.6956 16.3042H45.6521C48.913 16.3042 50.8695 13.6955 50.8695 10.4346V4.56507C50.8695 3.9129 50.8695 3.26072 50.2173 3.26072H48.913C48.2608 3.26072 47.6086 2.60855 46.9565 3.26072C46.3043 3.26072 46.9565 3.9129 46.9565 4.56507C46.9565 5.21724 46.9565 5.21724 47.6086 5.21724H48.913V11.0868C48.913 13.0433 47.6086 14.3477 45.6521 14.3477H43.6956C43.0434 14.3477 43.0434 14.9999 43.0434 15.652C43.0434 16.3042 43.0434 16.3042 43.6956 16.3042Z" fill="#101110"/>
<path d="M41.0868 7.17407H41.739C41.739 7.17407 42.3912 7.17407 42.3912 6.5219C42.3912 5.86972 42.3912 5.86972 41.739 5.21755V4.56538C41.0868 3.9132 39.7825 4.56538 39.7825 5.21755C39.7825 5.86972 39.7825 5.86972 40.4347 6.5219L41.0868 7.17407Z" fill="#101110"/>
<path d="M41.0868 7.17406L41.739 7.82623C42.3912 7.82623 42.3912 7.17406 43.0434 7.17406C43.6955 6.52189 43.0434 6.52189 42.3912 5.86971V5.21754C41.739 4.56536 41.0868 5.21754 40.4347 5.86971C39.7825 6.52189 40.4347 6.52189 41.0868 7.17406Z" fill="#101110"/>
<path d="M41.0871 7.82628L42.3915 8.47845C43.0436 8.47845 43.6958 7.17411 43.0436 6.52193H42.3915V5.86976C41.7393 5.21759 41.0871 5.21759 40.4349 5.86976C39.7828 6.52193 39.7828 7.17411 40.4349 7.82628H41.0871Z" fill="#101110"/>
<path d="M41.739 7.82628C41.739 8.47845 41.739 8.47845 42.3912 8.47845H43.0434C43.6955 7.82628 44.3477 7.17411 43.6955 6.52193H43.0434C42.3912 5.86976 42.3912 5.21759 41.739 5.86976C41.0869 6.52193 40.4347 7.17411 41.0869 7.82628H41.739Z" fill="#101110"/>
<path d="M41.739 7.82628C41.739 8.47845 41.739 8.47845 42.3912 8.47845H43.0434C43.6955 7.82628 44.3477 7.17411 43.6955 6.52193H43.0434C42.3912 5.86976 42.3912 5.21759 41.739 5.86976C41.0869 6.52193 40.4347 7.17411 41.0869 7.82628H41.739Z" fill="#101110"/>
<path d="M42.3912 9.13066C42.3912 9.78284 42.3912 9.78284 43.0434 9.78284H43.6956C44.3477 9.78284 44.3477 9.13066 44.3477 8.47849V7.82632H43.6956C43.6956 7.17414 43.0434 7.17414 42.3912 7.17414C41.739 7.17414 41.739 7.82632 41.739 8.47849H42.3912V9.13066Z" fill="#101110"/>
<path d="M41.7389 16.3042H44.9998C45.6519 16.3042 45.6519 16.3042 45.6519 15.652V12.3912C45.6519 11.0868 45.6519 9.78246 44.9998 8.47811V7.82594C44.9998 7.17377 44.3476 7.82594 43.6954 7.82594C43.0433 7.82594 43.0433 8.47811 43.0433 9.13029C43.6954 10.4346 43.6954 11.0868 43.6954 12.3912V14.3477H41.7389C39.1302 14.3477 37.1737 13.0433 37.1737 10.4346V5.21724H38.478C39.1302 5.21724 39.1302 5.86942 39.7824 5.86942C40.4346 5.86942 41.0867 5.86942 41.0867 5.21724C41.0867 4.56507 41.7389 3.9129 41.0867 3.9129C40.4346 3.26072 39.1302 3.26072 38.478 3.26072H37.1737H35.8693H35.2172V3.9129V9.78246C35.2172 13.0433 38.478 16.3042 41.7389 16.3042Z" fill="#101110"/>
<path d="M42.3912 9.78282C42.3912 10.435 42.3912 10.435 43.0433 10.435C43.6955 10.435 43.6955 9.78282 44.3477 9.78282C44.9999 7.8263 46.3042 7.17413 48.2607 6.52195C48.9129 6.52195 48.9129 5.86978 48.9129 5.21761C48.9129 2.60891 46.3042 0.000214577 43.6955 0.000214577C41.0868 0.000214577 38.4781 2.60891 38.4781 5.21761C38.4781 5.86978 38.4781 5.86978 39.1303 5.86978C39.7825 5.86978 39.7825 6.52195 39.7825 6.52195L40.4346 7.17413H41.0868V7.8263H41.739V8.47848L42.3912 9.13065V9.78282Z" fill="#101110"/>
<path d="M26.087 23.4783C26.087 24.1305 26.7392 24.7827 27.3914 24.7827C28.0436 24.7827 28.6957 24.1305 28.6957 23.4783V10.4348C28.6957 9.78265 28.0436 9.13048 27.3914 9.13048C26.7392 9.13048 26.087 9.78265 26.087 10.4348V23.4783Z" fill="#101110"/>
<path d="M26.7392 23.4783C27.3914 23.4783 28.0436 24.1305 28.6957 24.1305C30.0001 24.1305 31.3044 23.4783 31.9566 22.8261C32.6088 22.174 32.6088 21.5218 33.2609 20.2174C33.2609 19.5653 33.9131 18.2609 33.9131 17.6088C33.9131 16.9566 33.9131 16.9566 33.2609 16.9566C32.6088 16.9566 31.3044 16.3044 30.6523 16.3044C30.0001 16.3044 28.6957 16.9566 28.0436 17.6088C27.3914 18.2609 27.3914 18.9131 26.7392 20.2174C26.7392 20.8696 26.087 22.174 26.087 22.8261C26.087 23.4783 26.087 23.4783 26.7392 23.4783Z" fill="#101110"/>
<path d="M26.7392 16.3042H28.6957C31.9566 16.3042 33.9131 13.6955 33.9131 10.4346V4.56507C33.9131 3.9129 33.9131 3.26072 33.2609 3.26072H31.9566C31.3044 3.26072 30.6523 2.60855 30.0001 3.26072C29.3479 3.26072 30.0001 3.9129 30.0001 4.56507C30.0001 5.21724 30.0001 5.21724 30.6523 5.21724H31.9566V11.0868C31.9566 13.0433 30.6523 14.3477 28.6957 14.3477H26.7392C26.087 14.3477 26.087 14.9999 26.087 15.652C26.087 16.3042 26.087 16.3042 26.7392 16.3042Z" fill="#101110"/>
<path d="M23.4783 7.17407H24.1304L25.4348 6.5219C26.0869 5.86972 25.4348 5.86972 24.7826 5.21755V4.56538H24.1304C23.4783 3.9132 22.8261 4.56538 22.8261 5.21755C22.8261 5.86972 22.8261 5.86972 23.4783 6.5219V7.17407Z" fill="#101110"/>
<path d="M24.1302 7.17406C24.1302 7.17406 24.1302 7.82623 24.7824 7.82623C25.4346 7.82623 25.4346 7.17406 25.4346 7.17406C26.0867 6.52189 26.0867 6.52189 25.4346 5.86971C24.7824 5.21754 24.7824 5.21754 24.1302 5.86971C23.478 6.52189 23.478 6.52189 24.1302 7.17406Z" fill="#101110"/>
<path d="M24.7826 7.82628C24.7826 8.47845 24.7826 8.47845 25.4348 8.47845H26.087C26.7391 7.82628 27.3913 7.17411 26.7391 6.52193H26.087C25.4348 5.86976 25.4348 5.21759 24.7826 5.86976C24.1304 6.52193 23.4783 7.17411 24.1304 7.82628H24.7826Z" fill="#101110"/>
<path d="M24.7826 7.82628C24.7826 8.47845 24.7826 8.47845 25.4348 8.47845H26.087C26.7391 7.82628 27.3913 7.17411 26.7391 6.52193H26.087C25.4348 5.86976 25.4348 5.21759 24.7826 5.86976C24.1304 6.52193 23.4783 7.17411 24.1304 7.82628H24.7826Z" fill="#101110"/>
<path d="M25.4348 8.47844C25.4348 8.47844 25.4348 9.13062 26.087 9.13062H26.7391C27.3913 8.47844 28.0435 7.82627 27.3913 7.17409H26.7391C26.087 6.52192 26.087 5.86975 25.4348 6.52192C24.7826 7.17409 24.1304 7.82627 24.7826 8.47844H25.4348Z" fill="#101110"/>
<path d="M25.4348 9.13066C25.4348 9.13066 25.4348 9.78284 26.087 9.78284H26.7392C27.3913 9.78284 27.3913 9.13066 27.3913 8.47849L26.7392 7.82632C26.7392 7.17414 26.087 7.17414 25.4348 7.17414C24.7827 7.17414 24.7827 7.82632 24.7827 8.47849V9.13066H25.4348Z" fill="#101110"/>
<path d="M24.7825 16.3042H28.0434C28.6956 16.3042 28.6956 16.3042 28.6956 15.652V12.3912C28.6956 11.0868 28.6956 9.78246 28.0434 8.47811V7.82594C28.0434 7.17377 27.3912 7.82594 26.739 7.82594C26.0869 7.82594 26.0869 8.47811 26.0869 9.13029C26.739 10.4346 26.739 11.0868 26.739 12.3912V14.3477H24.7825C22.1738 14.3477 20.2173 12.3912 20.2173 9.78246V5.21724H21.5216C22.1738 5.21724 22.1738 5.86942 22.826 5.86942C23.4782 5.86942 24.1303 5.86942 24.1303 5.21724C24.1303 4.56507 24.7825 3.9129 24.1303 3.9129C23.4782 3.26072 22.1738 3.26072 21.5216 3.26072H20.2173H18.9129C18.2608 3.26072 18.2608 3.26072 18.2608 3.9129V9.78246C18.2608 13.0433 21.5216 16.3042 24.7825 16.3042Z" fill="#101110"/>
<path d="M25.4348 9.78282C25.4348 10.435 26.0869 10.435 26.7391 10.435C27.3913 10.435 26.7391 10.435 27.3913 9.78282C28.0435 7.8263 29.3478 6.52195 31.3043 5.86978C31.9565 5.86978 31.9565 5.86978 31.9565 5.21761C31.9565 2.60891 29.3478 0.000214577 26.7391 0.000214577C24.1304 0.000214577 21.5217 2.60891 21.5217 5.21761C21.5217 5.86978 21.5217 5.86978 22.1739 5.86978L22.8261 6.52195H23.4783L24.1304 7.17413V7.8263H24.7826V8.47848L25.4348 9.13065V9.78282Z" fill="#101110"/>
<path d="M8.47845 23.4783C8.47845 24.1305 9.13063 24.7827 9.7828 24.7827C10.435 24.7827 11.0872 24.1305 11.0872 23.4783V10.4348C11.0872 9.78265 10.435 9.13048 9.7828 9.13048C9.13063 9.13048 8.47845 9.78265 8.47845 10.4348V23.4783Z" fill="#101110"/>
<path d="M4.56529 22.8261C5.21746 23.4783 6.52181 24.1305 7.82616 24.1305C8.47833 24.1305 9.1305 23.4783 9.78268 23.4783C10.4349 23.4783 10.4349 23.4783 10.4349 22.8261C10.4349 22.174 9.78268 20.8696 9.78268 20.2174C9.1305 18.9131 9.1305 18.2609 8.47833 17.6088C7.82616 16.9566 7.17398 16.3044 5.86963 16.3044C5.21746 16.3044 3.91311 16.9566 3.26094 16.9566C2.60876 16.9566 2.60876 16.9566 2.60876 17.6088C2.60876 18.2609 3.26094 19.5653 3.26094 20.2174C3.91311 21.5218 3.91311 22.174 4.56529 22.8261Z" fill="#101110"/>
<path d="M9.78282 16.3042H11.7393C15.0002 16.3042 16.9567 13.6955 16.9567 10.4346V4.56507C16.9567 3.9129 16.9567 3.26072 16.3046 3.26072H15.0002C14.348 3.26072 13.6959 2.60855 13.0437 3.26072C12.3915 3.26072 13.0437 3.9129 13.0437 4.56507C13.0437 5.21724 13.0437 5.21724 13.6959 5.21724H15.0002V11.0868C15.0002 13.0433 13.6959 14.3477 11.7393 14.3477H9.78282C9.13065 14.3477 9.13065 14.9999 9.13065 15.652C9.13065 16.3042 9.13065 16.3042 9.78282 16.3042Z" fill="#101110"/>
<path d="M5.86967 7.17407H6.52185L7.82619 6.5219C8.47837 5.86972 7.82619 5.86972 7.17402 5.21755V4.56538H6.52185C5.86967 3.9132 5.2175 4.56538 5.2175 5.21755C5.2175 5.86972 5.2175 5.86972 5.86967 6.5219V7.17407Z" fill="#101110"/>
<path d="M7.17382 7.17406C7.17382 7.17406 7.17382 7.82623 7.826 7.82623C8.47817 7.82623 8.47817 7.17406 8.47817 7.17406C9.13034 6.52189 9.13034 6.52189 8.47817 5.86971C7.826 5.21754 7.826 5.21754 7.17382 5.86971C6.52165 6.52189 6.52165 6.52189 7.17382 7.17406Z" fill="#101110"/>
<path d="M7.82621 7.82628C7.82621 8.47845 7.82621 8.47845 8.47839 8.47845H9.13056C9.78273 7.82628 10.4349 7.17411 9.78273 6.52193H9.13056C8.47839 5.86976 8.47839 5.21759 7.82621 5.86976C7.17404 6.52193 6.52187 7.17411 7.17404 7.82628H7.82621Z" fill="#101110"/>
<path d="M7.82621 7.82628C7.82621 8.47845 7.82621 8.47845 8.47839 8.47845H9.13056C9.78273 7.82628 10.4349 7.17411 9.78273 6.52193H9.13056C8.47839 5.86976 8.47839 5.21759 7.82621 5.86976C7.17404 6.52193 6.52187 7.17411 7.17404 7.82628H7.82621Z" fill="#101110"/>
<path d="M7.82621 8.47844C7.82621 8.47844 7.82621 9.13062 8.47839 9.13062H9.13056C9.78273 8.47844 10.4349 7.82627 9.78273 7.17409H9.13056C8.47839 6.52192 8.47839 5.86975 7.82621 6.52192C7.17404 7.17409 6.52187 7.82627 7.17404 8.47844H7.82621Z" fill="#101110"/>
<path d="M8.47844 9.13066C8.47844 9.13066 8.47844 9.78284 9.13061 9.78284H9.78279C10.435 9.78284 10.435 9.13066 10.435 8.47849L9.78279 7.82632C9.78279 7.17414 9.13061 7.17414 8.47844 7.17414C7.82626 7.17414 7.82626 7.82632 7.82626 8.47849V9.13066H8.47844Z" fill="#101110"/>
<path d="M7.82612 16.3042H11.087C11.7392 16.3042 11.7392 16.3042 11.7392 15.652V12.3912C11.7392 11.0868 11.7392 9.78246 11.087 8.47811V7.82594C11.087 7.17377 10.4348 7.82594 9.78264 7.82594C9.13047 7.82594 9.13047 8.47811 9.13047 9.13029C9.78264 10.4346 9.78264 11.0868 9.78264 12.3912V14.3477H7.82612C5.21743 14.3477 3.2609 12.3912 3.2609 9.78246V5.21724H4.56525C5.21743 5.21724 5.21743 5.86942 5.8696 5.86942C6.52177 5.86942 7.17395 5.86942 7.17395 5.21724C7.17395 4.56507 7.82612 3.9129 7.17395 3.9129C6.52177 3.26072 5.21743 3.26072 4.56525 3.26072H3.2609H1.95656C1.30438 3.26072 1.30438 3.26072 1.30438 3.9129V9.78246C1.30438 13.0433 4.56525 16.3042 7.82612 16.3042Z" fill="#101110"/>
<path d="M8.47835 9.78282C8.47835 10.435 9.13053 10.435 9.7827 10.435C10.4349 10.435 9.7827 10.435 10.4349 9.78282C11.087 7.8263 12.3914 6.52195 14.3479 5.86978C15.0001 5.86978 15.0001 5.86978 15.0001 5.21761C15.0001 2.60891 12.3914 0.000214577 9.7827 0.000214577C7.174 0.000214577 4.56531 2.60891 4.56531 5.21761C4.56531 5.86978 4.56531 5.86978 5.21748 5.86978L5.86966 6.52195H6.52183L7.174 7.17413V7.8263H7.82618V8.47848L8.47835 9.13065V9.78282Z" fill="#101110"/>
<path d="M54.1304 31.9567H58.6957C59.3478 31.9567 60 31.9567 60 31.3046V22.1741C60 21.5219 59.3478 21.5219 58.6957 21.5219H1.30435C0.652174 21.5219 0 21.5219 0 22.1741V31.3046C0 31.9567 0.652174 31.9567 1.30435 31.9567H5.86957C6.52174 31.9567 7.17391 31.9567 7.17391 31.3046C7.17391 30.6524 6.52174 30.0002 5.86957 30.0002H1.95652V23.4785H58.0435V30.0002H54.1304C53.4783 30.0002 52.8261 30.6524 52.8261 31.3046C52.8261 31.9567 53.4783 31.9567 54.1304 31.9567Z" fill="#101110"/>
<path d="M16.3042 17.6087C16.3042 18.913 17.6085 20.2173 18.9129 20.2173C20.2172 20.2173 21.5216 18.913 21.5216 17.6087C21.5216 16.3043 20.2172 15 18.9129 15C17.6085 15 16.3042 16.3043 16.3042 17.6087Z" fill="#101110"/>
<path d="M9.7827 45H46.3044C46.9566 45 46.9566 45 46.9566 44.3478L51.5218 30.6522V30L50.8697 29.3478H5.21748L4.56531 30V30.6522L9.13052 44.3478C9.13052 45 9.13052 45 9.7827 45Z" fill="#101110"/>
<path d="M7.82623 36.5215H54.7827C55.4349 36.5215 56.0871 35.8694 56.0871 35.2172C56.0871 34.565 55.4349 33.9128 54.7827 33.9128H7.82623C7.17405 33.9128 6.52188 34.565 6.52188 35.2172C6.52188 35.8694 7.17405 36.5215 7.82623 36.5215Z" fill="#101110"/>
</svg>
