<svg width="60" height="50" viewBox="0 0 60 50" fill="none" xmlns="http://www.w3.org/2000/svg">
<path d="M32.7183 1.07618C44.2342 1.07618 53.5969 5.488 53.5969 11.8384C53.5969 18.1887 44.2342 24.0001 32.7183 24.0001C21.2014 24.0001 11.8386 18.1887 11.8386 11.8384C11.8386 5.488 21.2014 1.07618 32.7183 1.07618Z" fill="#A28671"/>
<path d="M22.6002 48.2151H6.4569L8.93236 43.91C10.224 41.6491 11.0844 39.2826 11.5157 36.8061L1.07581 23.9996V18.6185L11.838 25.2913V11.838C11.838 18.1883 21.2008 23.9996 32.7177 23.9996C44.2335 23.9996 53.5963 18.1883 53.5963 11.838V32.8244C53.5963 36.6993 54.5645 40.5742 56.502 43.91L58.9774 48.2151H41.4346H29.3808H22.6002Z" fill="#A88D68"/>
<path d="M58.9776 49.2917H6.45711C6.02693 49.2917 5.70347 49.0761 5.48891 48.7537C5.27328 48.4303 5.27328 48.0012 5.48891 47.6777L7.96439 43.3726C9.0404 41.4352 9.90184 39.2832 10.332 37.0223L0.214562 24.646C0.107815 24.4315 0 24.2148 0 24.0002V18.6191C0 18.1889 0.214565 17.8655 0.538008 17.6499C0.860384 17.4353 1.29165 17.4353 1.61402 17.6499L10.7622 23.2466V11.8385C10.7622 11.1927 11.1924 10.7626 11.8382 10.7626C12.484 10.7626 12.9142 11.1927 12.9142 11.8385V25.184C12.9142 25.6142 12.6997 25.9377 12.3762 26.1522C12.0538 26.3679 11.6226 26.3679 11.3002 26.1522L2.15201 20.5566V23.6768L12.2684 36.1619C12.484 36.3764 12.5919 36.6999 12.484 37.0223C12.0538 39.7134 11.0846 42.1877 9.79295 44.5564L8.28677 47.2475H57.0402L55.534 44.5564C53.4887 41.005 52.4127 37.0223 52.4127 32.9328V11.8385C52.4127 11.1927 52.8429 10.7626 53.4887 10.7626C54.1345 10.7626 54.5647 11.1927 54.5647 11.8385V32.825C54.5647 36.4843 55.534 40.1435 57.3636 43.3726L59.8391 47.6777C60.0536 48.0012 60.0536 48.4303 59.8391 48.7537C59.7313 49.0761 59.3 49.2917 58.9776 49.2917Z" fill="#101110"/>
<path d="M32.7185 2.15198C21.6328 2.15198 12.9148 6.45708 12.9148 11.8382C12.9148 14.5282 14.9601 17.2193 18.5116 19.3713C22.3865 21.6312 27.4452 22.9228 32.7185 22.9228C37.9918 22.9228 43.0495 21.6312 46.9244 19.3713C50.4758 17.2193 52.5211 14.5282 52.5211 11.8382C52.5211 6.45708 43.8031 2.15198 32.7185 2.15198ZM32.7185 25.0759C20.8792 25.0759 10.7628 19.0489 10.7628 11.8382C10.7628 8.39454 13.1305 5.27327 17.4356 3.12125C21.4172 1.07598 26.7994 -2.28882e-05 32.7185 -2.28882e-05C38.6376 -2.28882e-05 43.9109 1.07598 47.8926 3.12125C52.1987 5.27327 54.5653 8.39454 54.5653 11.8382C54.6731 19.0489 44.5567 25.0759 32.7185 25.0759Z" fill="#101110"/>
<path d="M32.7178 20.4482C32.072 20.4482 31.6407 20.018 31.6407 19.3711C31.6407 18.7263 32.072 18.2951 32.7178 18.2951C39.1749 18.2951 44.0181 15.0671 44.0181 12.1603C44.0181 10.3307 42.0806 9.04013 41.0046 8.50213C38.8526 7.42505 35.9459 6.77924 32.7178 6.77924C29.4887 6.77924 26.5831 7.42505 24.43 8.50213C23.2462 9.04013 21.4166 10.3307 21.4166 12.1603C21.4166 12.8062 20.9864 13.2364 20.3405 13.2364C19.6947 13.2364 19.2645 12.8062 19.2645 12.1603C19.2645 9.90051 20.7718 7.96413 23.4618 6.56361C25.9373 5.38086 29.1653 4.62721 32.7178 4.62721C36.2693 4.62721 39.4984 5.27304 41.9728 6.56361C44.6639 7.96413 46.1711 9.90051 46.1711 12.1603C46.1711 14.3134 44.6639 16.5733 41.9728 18.0794C39.4984 19.5867 36.1615 20.4482 32.7178 20.4482Z" fill="#101110"/>
<path d="M32.7187 16.3576C29.3818 16.3576 26.584 14.528 26.584 12.3759C26.584 10.2239 29.1662 8.71666 32.7187 8.71666C33.3645 8.71666 33.7947 9.14686 33.7947 9.79374C33.7947 10.4385 33.3645 10.8687 32.7187 10.8687C30.35 10.8687 28.736 11.7301 28.736 12.3759C28.736 13.1296 30.35 14.2056 32.7187 14.2056C35.0864 14.2056 36.7004 13.1296 36.7004 12.3759C36.7004 11.7301 37.1306 11.2999 37.7764 11.2999C38.4222 11.2999 38.8535 11.7301 38.8535 12.3759C38.8535 14.528 36.0546 16.3576 32.7187 16.3576Z" fill="#101110"/>
<path d="M41.4358 49.2917C41.328 49.2917 41.1135 49.2917 41.0057 49.1839C40.4677 48.9694 40.252 48.3225 40.4677 47.7845C40.4677 47.7845 42.4051 43.3726 41.7593 38.9597C41.0056 33.9021 43.0499 29.1657 43.1577 28.9511C43.3733 28.4131 44.0191 28.1975 44.5571 28.4131C45.0951 28.6277 45.3107 29.2746 45.0951 29.8126C45.0951 29.8126 43.1577 34.2244 43.8035 38.6373C44.5571 43.695 42.5118 48.4303 42.4051 48.6459C42.2973 49.0761 41.866 49.2917 41.4358 49.2917Z" fill="#101110"/>
<path d="M22.6002 49.2917C22.2778 49.2917 21.9554 49.1839 21.7398 48.8616C21.5242 48.6459 17.3269 42.8346 18.8341 35.8384C20.1258 30.0271 17.8649 27.5517 17.7571 27.4439L18.5107 26.6913L19.2643 25.9377C19.3721 26.0444 22.4924 29.2746 20.8784 36.3764C19.48 42.4034 23.3538 47.5699 23.3538 47.5699C23.6773 48.0012 23.5694 48.7537 23.1382 49.0761C23.0314 49.1839 22.8158 49.2917 22.6002 49.2917Z" fill="#101110"/>
<path d="M29.3811 49.2917C29.1655 49.2917 28.9509 49.2917 28.8431 49.1839C28.3051 48.8616 28.1973 48.2157 28.5197 47.6777C32.5024 41.3274 28.5197 34.0088 28.5197 34.0088C28.1973 33.4708 28.4129 32.825 28.9509 32.5026C29.489 32.1792 30.1348 32.3937 30.4572 32.9328C30.6728 33.2552 34.9779 41.3274 30.4572 48.8616C30.027 49.0761 29.7046 49.2917 29.3811 49.2917Z" fill="#101110"/>
</svg>
