<svg width="60" height="60" viewBox="0 0 60 60" fill="none" xmlns="http://www.w3.org/2000/svg">
<path d="M30.0999 25.5611C30.1988 25.5611 30.1988 25.5611 30.2976 25.5611C30.3965 25.5611 30.4953 25.5611 30.4953 25.5611H30.5932C30.6921 25.5611 30.6921 25.5611 30.7909 25.5611H30.8898C32.6662 25.9556 33.9483 27.3366 34.3427 29.0151V29.1129C34.3427 29.2118 34.3427 29.2118 34.3427 29.3107V29.4095C34.3427 29.5084 34.3427 29.6062 34.3427 29.6062C34.3427 29.7051 34.3427 29.7051 34.3427 29.8049C34.3427 29.8049 34.3427 29.8049 34.3427 29.9028C34.3427 30.0016 34.3427 30.0995 34.3427 30.0995C34.3427 30.1993 34.3427 30.2972 34.3427 30.2972V30.396C34.3427 30.4949 34.3427 30.4949 34.3427 30.5938V30.6926C33.9483 32.468 32.5673 33.7511 30.8898 34.1456H30.7909C30.6921 34.1456 30.6921 34.1456 30.5932 34.1456H30.4953C30.3965 34.1456 30.2976 34.1456 30.2976 34.1456C30.1988 34.1456 30.0999 34.1456 30.0999 34.1456C30.0011 34.1456 29.9032 34.1456 29.9032 34.1456C29.8043 34.1456 29.7055 34.1456 29.7055 34.1456H29.6066C29.5078 34.1456 29.5078 34.1456 29.4089 34.1456H29.3111C27.5347 33.7511 26.2515 32.3701 25.8571 30.6926V30.5938C25.8571 30.4949 25.8571 30.4949 25.8571 30.396V30.2972C25.8571 30.1993 25.8571 30.0995 25.8571 30.0995C25.8571 30.0016 25.8571 29.9028 25.8571 29.9028V29.8049V29.7051C25.8571 29.6062 25.8571 29.5084 25.8571 29.5084V29.4095C25.8571 29.3107 25.8571 29.3106 25.8571 29.2118V29.1129C26.2515 27.3366 27.6325 26.0534 29.3111 25.659H29.4089C29.5078 25.659 29.5078 25.659 29.6066 25.659H29.7055C29.8043 25.659 29.9032 25.659 29.9032 25.659C29.8043 25.5611 29.9032 25.5611 30.0999 25.5611C30.0011 25.5611 30.0011 25.5611 30.0999 25.5611Z" fill="#57606F"/>
<path d="M34.4414 30.0018L45.2965 44.8032H30.0009V34.4423C30.0997 34.4423 30.1986 34.4423 30.1986 34.4423C30.2974 34.4423 30.3963 34.4423 30.3963 34.4423H30.4951C30.593 34.4423 30.593 34.4423 30.6918 34.4423H30.7907C32.5671 34.0469 33.8502 32.7648 34.2447 30.9874V30.8895C34.2447 30.7907 34.2447 30.7907 34.2447 30.6928V30.594C34.2447 30.4951 34.2447 30.4951 34.2447 30.3963C34.4414 30.1995 34.4414 30.0997 34.4414 30.0018Z" fill="#FD8493"/>
<path d="M44.8032 14.6066L30.0997 25.5605C30.0997 25.5605 30.0997 25.5605 30.0009 25.5605V15.1997V0.989523L44.8032 14.6066Z" fill="#F25A7B"/>
<path d="M30.0015 34.4426V34.5405L15.2001 45.2968V30.0021H25.561C25.561 30.1 25.561 30.1998 25.561 30.1998C25.561 30.2977 25.561 30.3966 25.561 30.3966V30.4954C25.561 30.5943 25.561 30.5943 25.561 30.6931V30.791C25.9564 32.5674 27.2395 33.8495 29.0149 34.2459H29.1138C29.2126 34.2459 29.2126 34.2459 29.3115 34.2459H29.4094C29.5082 34.2459 29.607 34.2459 29.607 34.2459C29.8047 34.4426 29.9036 34.4426 30.0015 34.4426Z" fill="#FF99A7"/>
<path d="M59.0132 30.0018L45.3961 44.8032L34.4421 30.0018H59.0132Z" fill="#F25A7B"/>
<path d="M30.0022 15.2001V25.5609C29.9043 25.5609 29.8054 25.5609 29.8054 25.5609C29.7066 25.5609 29.6077 25.5609 29.6077 25.5609H29.5089C29.41 25.5609 29.4101 25.5609 29.3122 25.5609H29.2133C27.4369 25.9553 26.1538 27.2375 25.7594 29.0148V29.1127C25.7594 29.2116 25.7594 29.2116 25.7594 29.3104V29.4093C25.7594 29.5081 25.7594 29.606 25.7594 29.606V29.7048H25.6605L14.6086 15.2001H30.0022Z" fill="#FD8493"/>
<path d="M30.0015 44.8034V59.0126L15.2001 45.3955L30.0015 34.5405V44.8034Z" fill="#F25A7B"/>
<path d="M44.8041 14.6069V30.0013H34.4423V29.9024C34.4423 29.8046 34.4423 29.8046 34.4423 29.7047C34.4423 29.6059 34.4423 29.508 34.4423 29.508V29.4092C34.4423 29.3103 34.4423 29.3103 34.4423 29.2115V29.1126C34.0479 27.3362 32.7657 26.0531 30.9893 25.6587H30.8905C30.7916 25.6587 30.7916 25.6587 30.6927 25.6587H30.5939C30.496 25.6587 30.496 25.6587 30.3972 25.6587C30.2983 25.6587 30.2983 25.6587 30.1995 25.6587L44.8041 14.6069Z" fill="#FF99A7"/>
<path d="M25.5613 30.0013H0.99115L14.6083 15.1999L25.3646 29.9024H25.4634C25.5613 29.9024 25.5613 30.0013 25.5613 30.0013Z" fill="#F25A7B"/>
<path d="M30.4954 26.5468H30.3966C30.2977 26.5468 30.2977 26.5468 30.1989 26.5468C29.6068 26.5468 29.2123 26.0525 29.2123 25.5602C29.2123 24.9681 29.7056 24.5736 30.1989 24.5736C30.2977 24.5736 30.3966 24.5736 30.4954 24.5736C30.9887 24.6715 31.3832 25.1648 31.3832 25.6581C31.3832 26.1523 30.9887 26.5468 30.4954 26.5468Z" fill="#101110"/>
<path d="M30.7905 26.6461C30.6916 26.6461 30.6916 26.6461 30.5927 26.6461C30.4949 26.6461 30.4949 26.6461 30.396 26.6461C29.9027 26.5472 29.5073 26.053 29.5073 25.5607C29.6062 25.0674 30.0995 24.672 30.5927 24.672C30.6916 24.672 30.7905 24.672 30.8893 24.672C31.3826 24.7708 31.777 25.2641 31.6782 25.8562C31.6782 26.2516 31.2837 26.6461 30.7905 26.6461Z" fill="#101110"/>
<path d="M34.3425 30.0996C33.8502 30.0996 33.4547 29.805 33.3569 29.3108C33.0603 27.9288 31.9749 26.9432 30.6918 26.6466C30.1985 26.5478 29.8041 26.0535 29.9029 25.4624C30.0008 24.9691 30.4951 24.5747 31.0862 24.6726C33.258 25.068 34.8367 26.7455 35.33 28.9154C35.4289 29.4096 35.1323 30.0017 34.5402 30.0996C34.4413 30.0996 34.4413 30.0996 34.3425 30.0996Z" fill="#101110"/>
<path d="M34.4416 30.3956C33.9483 30.3956 33.5539 30.0012 33.455 29.5079C33.455 29.409 33.455 29.409 33.455 29.3102C33.3572 28.8169 33.7506 28.2248 34.2449 28.1259C34.7382 28.027 35.3303 28.4215 35.4291 28.9148C35.4291 29.0146 35.4291 29.1125 35.4291 29.2113C35.527 29.7046 35.1326 30.1988 34.5405 30.2967C34.4416 30.3956 34.4416 30.3956 34.4416 30.3956Z" fill="#101110"/>
<path d="M34.4415 30.7898C33.9482 30.7898 33.4549 30.3954 33.4549 29.8042C33.4549 29.7044 33.4549 29.7044 33.4549 29.6055C33.3571 29.1123 33.7505 28.62 34.3426 28.5201C34.8369 28.4213 35.3302 28.8167 35.429 29.4088C35.429 29.5077 35.429 29.6055 35.429 29.7044C35.429 30.2965 35.0336 30.6919 34.4415 30.7898Z" fill="#101110"/>
<path d="M44.8041 30.9874C44.212 30.9874 43.8176 30.594 43.8176 30.0018V15.1017L30.9893 3.26V15.2005C30.9893 15.7917 30.5939 16.1861 30.0017 16.1861C29.4096 16.1861 29.0152 15.7917 29.0152 15.2005V0.990326C29.0152 0.595898 29.2129 0.200485 29.6073 0.102612C30.0017 -0.0950909 30.3972 0.00376129 30.6927 0.299337L45.4941 13.9174C45.6918 14.1141 45.7907 14.4107 45.7907 14.6074V30.0018C45.7907 30.594 45.3962 30.9874 44.8041 30.9874Z" fill="#101110"/>
<path d="M45.3963 45.7903H30.0017C29.4096 45.7903 29.0152 45.3949 29.0152 44.8028C29.0152 44.2107 29.4096 43.8163 30.0017 43.8163H44.903L56.7437 30.9871H34.4423C33.8511 30.9871 33.4557 30.5936 33.4557 30.0015C33.4557 29.4093 33.8511 29.0149 34.4423 29.0149H59.0134C59.4078 29.0149 59.8032 29.2116 59.9021 29.6061C60.0988 30.0015 59.9999 30.3959 59.7044 30.6925L46.0863 45.4938C45.8895 45.6905 45.593 45.7903 45.3963 45.7903Z" fill="#101110"/>
<path d="M34.4415 31.4805H34.3426C33.8503 31.3817 33.4549 30.8884 33.4549 30.3951C33.4549 30.2963 33.4549 30.2963 33.4549 30.1984C33.4549 29.6053 33.9482 29.2109 34.4415 29.2109C35.0336 29.2109 35.429 29.7041 35.429 30.1984C35.429 30.2963 35.429 30.3951 35.429 30.494C35.3301 31.0861 34.9347 31.4805 34.4415 31.4805Z" fill="#101110"/>
<path d="M34.3425 31.776C34.2447 31.776 34.2447 31.776 34.1458 31.776C33.6525 31.6781 33.2581 31.1848 33.357 30.5927C33.357 30.4939 33.357 30.4939 33.357 30.395C33.4548 29.9017 33.9481 29.5073 34.4414 29.5073C34.9347 29.6052 35.3301 30.0984 35.3301 30.5917C35.3301 30.6916 35.3301 30.7894 35.3301 30.8883C35.2312 31.4804 34.8368 31.776 34.3425 31.776Z" fill="#101110"/>
<path d="M30.889 35.3298C30.3957 35.3298 30.0003 35.0333 29.9024 34.54C29.8036 34.0467 30.0992 33.4555 30.6913 33.3557C32.0733 33.0611 33.0598 31.9747 33.3564 30.6926C33.4543 30.1993 33.9476 29.8049 34.5397 29.9028C35.033 30.0016 35.4284 30.4949 35.3295 31.087C34.9341 33.2579 33.2576 34.8366 31.0857 35.3298C30.9879 35.3298 30.9879 35.3298 30.889 35.3298Z" fill="#101110"/>
<path d="M30.5924 35.4282C30.0991 35.4282 29.7047 35.0327 29.6058 34.5395C29.507 33.9483 29.9024 33.455 30.4945 33.455C30.5924 33.455 30.5924 33.455 30.6913 33.455C31.1845 33.3552 31.7767 33.7506 31.8755 34.2449C31.9744 34.7381 31.58 35.3293 31.0857 35.4282C30.9878 35.4282 30.889 35.4282 30.7901 35.4282C30.6913 35.4282 30.5924 35.4282 30.5924 35.4282Z" fill="#101110"/>
<path d="M30.1989 35.4282C29.7056 35.4282 29.2123 35.0327 29.2123 34.4416C29.2123 33.8485 29.6068 33.455 30.1989 33.455C30.2977 33.455 30.2977 33.455 30.3966 33.455C30.8899 33.3552 31.3832 33.7506 31.482 34.3427C31.5809 34.836 31.1855 35.3293 30.5933 35.4282C30.4954 35.4282 30.3966 35.4282 30.1989 35.4282Z" fill="#101110"/>
<path d="M30.0013 59.9998C29.8046 59.9998 29.5081 59.901 29.3113 59.7033L14.5089 46.0852C14.3122 45.8885 14.2134 45.5919 14.2134 45.3952V30.0017C14.2134 29.4096 14.6078 29.0152 15.1999 29.0152C15.7921 29.0152 16.1865 29.4096 16.1865 30.0017V44.9019L29.0148 56.7436V34.4422C29.0148 33.8491 29.4092 33.4557 30.0013 33.4557C30.5935 33.4557 30.9889 33.8491 30.9889 34.4422V59.0123C30.9889 59.4077 30.7912 59.8021 30.3967 59.901C30.2979 59.901 30.1002 59.9998 30.0013 59.9998Z" fill="#101110"/>
<path d="M29.8037 35.4282C29.606 35.4282 29.5071 35.4282 29.5071 35.4282C29.0139 35.3293 28.6194 34.836 28.6194 34.3427C28.7183 33.8485 29.2116 33.455 29.7048 33.455C29.8037 33.455 29.8037 33.455 29.9026 33.455C30.4947 33.455 30.8891 33.9483 30.7903 34.4416C30.6914 35.0327 30.297 35.4282 29.8037 35.4282Z" fill="#101110"/>
<path d="M29.4091 35.4282H29.3112C29.2123 35.4282 29.1135 35.4282 29.0146 35.4282C28.5213 35.3293 28.1269 34.836 28.2248 34.2449C28.3246 33.7506 28.8169 33.3552 29.4091 33.455C29.5079 33.455 29.5079 33.455 29.6067 33.455C30.1 33.5539 30.4954 34.0462 30.4954 34.5395C30.3966 35.0327 29.9033 35.4282 29.4091 35.4282Z" fill="#101110"/>
<path d="M29.1133 35.3298C29.0144 35.3298 29.0144 35.3298 28.9155 35.3298C26.7447 34.9354 25.166 33.2579 24.6727 31.087C24.5739 30.5937 24.8704 30.0016 25.4626 29.9028C25.9559 29.8049 26.548 30.0995 26.6468 30.6926C26.9424 32.0736 28.0278 33.0611 29.311 33.3557C29.8042 33.4555 30.1987 33.9488 30.0998 34.54C30.0009 35.0333 29.6065 35.3298 29.1133 35.3298Z" fill="#101110"/>
<path d="M25.6607 31.7769C25.1674 31.7769 24.773 31.4814 24.6741 30.9871C24.6741 30.8892 24.6741 30.7904 24.6741 30.6925C24.5753 30.1992 24.9697 29.705 25.5618 29.6061C26.0561 29.5082 26.5494 29.9027 26.6482 30.4948C26.6482 30.5936 26.6482 30.5936 26.6482 30.6925C26.7461 31.1858 26.3517 31.7769 25.8584 31.8768C25.7595 31.7769 25.6607 31.7769 25.6607 31.7769Z" fill="#101110"/>
<path d="M25.5606 31.481C25.0673 31.481 24.6729 31.0865 24.574 30.5933C24.574 30.4944 24.574 30.3956 24.574 30.2967C24.574 29.7046 24.9685 29.3102 25.5606 29.3102C26.1527 29.3102 26.5481 29.7046 26.5481 30.2967C26.5481 30.3956 26.5481 30.3956 26.5481 30.4944C26.647 30.9867 26.2516 31.481 25.6595 31.5798C25.6595 31.481 25.6595 31.481 25.5606 31.481Z" fill="#101110"/>
<path d="M25.561 30.9874H0.990858C0.595449 30.9874 0.201013 30.7907 0.103139 30.3963C-0.0945651 30.0018 0.0033093 29.6064 0.299866 29.3109L13.917 14.5095C14.1147 14.3118 14.4112 14.213 14.608 14.213H30.0015C30.5936 14.213 30.9891 14.6074 30.9891 15.2005V25.5614C30.9891 26.1535 30.5936 26.5479 30.0015 26.5479C29.4094 26.5479 29.015 26.1535 29.015 25.5614V16.1861H15.1013L3.26054 29.0153H25.561C26.1531 29.0153 26.5485 29.4097 26.5485 30.0018C26.5485 30.594 26.0553 30.9874 25.561 30.9874Z" fill="#101110"/>
<path d="M25.5606 30.7898C24.9685 30.7898 24.574 30.2965 24.574 29.8042C24.574 29.7044 24.574 29.6055 24.574 29.5077C24.6729 29.0144 25.1662 28.62 25.6595 28.62C26.1527 28.7178 26.5481 29.2111 26.5481 29.7044C26.5481 29.8042 26.5481 29.8042 26.5481 29.9021C26.5481 30.3954 26.0549 30.7898 25.5606 30.7898Z" fill="#101110"/>
<path d="M25.5606 30.3956H25.4627C24.9685 30.2967 24.574 29.8044 24.574 29.3102C24.574 29.2113 24.574 29.1125 24.574 29.0146C24.6729 28.5203 25.1662 28.1259 25.7583 28.2248C26.2516 28.3236 26.647 28.8169 26.5481 29.409C26.5481 29.5079 26.5481 29.5079 26.5481 29.6058C26.5481 30.099 26.0549 30.3956 25.5606 30.3956Z" fill="#101110"/>
<path d="M25.6608 30.0996C25.5619 30.0996 25.5619 30.0996 25.4641 30.0996C24.9698 30.0017 24.5754 29.5085 24.6742 28.9154C25.0686 26.7455 26.7462 25.1658 28.917 24.6726C29.4103 24.5747 30.0024 24.8703 30.1013 25.4624C30.2001 25.9557 29.9046 26.5478 29.3124 26.6466C27.9305 26.9432 26.9439 28.0277 26.6483 29.3108C26.5495 29.805 26.1541 30.0996 25.6608 30.0996Z" fill="#101110"/>
<path d="M29.2123 26.6461C28.7191 26.6461 28.3246 26.3495 28.2248 25.8562C28.1269 25.363 28.5213 24.7708 29.0146 24.672C29.1135 24.672 29.2123 24.672 29.3112 24.672C29.8045 24.5741 30.2977 24.9685 30.3966 25.5607C30.4954 26.053 30.1 26.5472 29.5079 26.6461C29.409 26.6461 29.4091 26.6461 29.3112 26.6461C29.3112 26.6461 29.3112 26.6461 29.2123 26.6461Z" fill="#101110"/>
<path d="M29.5075 26.5468C29.0142 26.5468 28.6198 26.1523 28.5209 25.6581C28.4221 25.1648 28.8165 24.6715 29.4086 24.5736C29.5075 24.5736 29.6063 24.5736 29.7052 24.5736C30.2973 24.5736 30.6917 24.9681 30.6917 25.5602C30.6917 26.1523 30.2973 26.5468 29.7052 26.5468C29.6063 26.5468 29.6063 26.5468 29.5075 26.5468C29.6063 26.5468 29.6063 26.5468 29.5075 26.5468Z" fill="#101110"/>
<path d="M29.4085 33.455C29.5073 33.455 29.5073 33.455 29.6062 33.455H29.705C29.8039 33.455 29.8039 33.455 29.9027 33.455C30.0006 33.455 30.0994 33.455 30.2971 33.455C30.396 33.455 30.396 33.455 30.4949 33.455H30.5927C30.6916 33.455 30.6916 33.455 30.7904 33.455H30.8893C32.2703 33.1585 33.2578 32.1709 33.5534 30.7899V30.6921C33.5534 30.5932 33.5534 30.5932 33.5534 30.4944C33.5534 30.4944 33.5534 30.4944 33.5534 30.3955C33.5534 30.2967 33.5534 30.2967 33.5534 30.1988C33.5534 30.099 33.5534 30.099 33.5534 30.0011V29.9022C33.5534 29.8044 33.5534 29.8044 33.5534 29.7045V29.6057C33.5534 29.5078 33.5534 29.5078 33.5534 29.409V29.3101C33.2578 27.9282 32.1724 26.9425 30.8893 26.646H30.7904C30.6916 26.646 30.6916 26.646 30.5927 26.646C30.5927 26.646 30.5927 26.646 30.4949 26.646C30.396 26.646 30.396 26.646 30.2971 26.646H30.1983C30.1983 26.646 30.1983 26.646 30.0994 26.646C30.0006 26.646 30.0006 26.646 29.9027 26.646C29.8039 26.646 29.8039 26.646 29.705 26.646H29.6062C29.5073 26.646 29.5073 26.646 29.4085 26.646H29.3106C27.9286 26.9425 26.942 27.9282 26.6465 29.3101V29.409C26.6465 29.5078 26.6465 29.5078 26.6465 29.6057V29.7045C26.6465 29.8044 26.6465 29.8044 26.6465 29.9022V30.0011V30.099C26.6465 30.1988 26.6465 30.1988 26.6465 30.2967C26.6465 30.3955 26.6465 30.3955 26.6465 30.4944V30.5932C26.6465 30.6921 26.6465 30.6921 26.6465 30.7899V30.8888C26.942 32.2708 27.9286 33.2573 29.3106 33.5539C29.3106 33.3552 29.4085 33.3552 29.4085 33.455ZM30.0006 35.4282C29.9027 35.4282 29.8039 35.4282 29.705 35.4282C29.6062 35.4282 29.5073 35.4282 29.4085 35.4282H29.3106C29.2117 35.4282 29.1129 35.4282 29.014 35.4282H28.9152C26.7444 35.0328 25.1656 33.3552 24.6724 31.1854V31.0865C24.6724 30.9867 24.6724 30.8888 24.6724 30.7899C24.6724 30.6921 24.6724 30.6921 24.6724 30.5932C24.6724 30.4944 24.6724 30.3955 24.6724 30.2967C24.6724 30.1988 24.6724 30.099 24.6724 30.0011C24.6724 30.0011 24.6724 29.9022 24.6724 29.8044V29.7045C24.6724 29.6057 24.6724 29.5078 24.6724 29.409V29.3101C24.6724 29.2113 24.6724 29.1124 24.6724 29.0145V28.9147C25.0668 26.7449 26.7444 25.1652 28.9152 24.6719H29.014C29.1129 24.6719 29.2117 24.6719 29.3106 24.6719C29.4085 24.6719 29.4084 24.6719 29.5073 24.6719C29.6062 24.6719 29.705 24.6719 29.8039 24.6719C29.9027 24.6719 30.0006 24.6719 30.1983 24.6719C30.2971 24.6719 30.2971 24.6719 30.396 24.6719C30.4949 24.6719 30.5927 24.6719 30.6916 24.6719H30.7904C30.8893 24.6719 30.9881 24.6719 31.086 24.6719H31.1849C33.3567 25.0673 34.9344 26.7449 35.4286 28.9147V29.0145C35.4286 29.1124 35.4286 29.2113 35.4286 29.3101C35.4286 29.409 35.4286 29.409 35.4286 29.5078C35.4286 29.6057 35.4286 29.7045 35.4286 29.8044C35.4286 29.9022 35.4286 29.9022 35.4286 30.0011V30.099C35.4286 30.1988 35.4286 30.2967 35.4286 30.3955C35.4286 30.4944 35.4286 30.5932 35.4286 30.6921V30.7899C35.4286 30.8888 35.4286 30.9867 35.4286 31.0865V31.1854C35.0332 33.3552 33.3567 34.9349 31.1849 35.4282H31.086C30.9881 35.4282 30.8893 35.4282 30.7904 35.4282C30.6916 35.4282 30.6916 35.4282 30.5927 35.4282C30.4949 35.4282 30.396 35.4282 30.2971 35.4282C30.1983 35.4282 30.0994 35.4282 30.0006 35.4282Z" fill="#101110"/>
<path d="M30.0999 26.5468C29.8044 26.5468 29.5078 26.4479 29.3111 26.1523C29.0145 25.7579 29.0145 25.0669 29.409 24.7703C29.409 24.7703 29.4089 24.7703 29.5078 24.7703L44.2113 13.9162C44.6058 13.6197 45.2967 13.7185 45.5923 14.113C45.8889 14.5084 45.79 15.1993 45.3956 15.4949L30.5932 26.4479C30.4954 26.5468 30.3965 26.5468 30.2976 26.5468C30.2976 26.5468 30.1988 26.5468 30.0999 26.5468Z" fill="#101110"/>
<path d="M45.3943 45.7903C45.0977 45.7903 44.8021 45.6905 44.6044 45.3949L33.7493 30.5936C33.4537 30.1992 33.5526 29.6061 33.947 29.2116C34.3414 28.8172 35.0324 28.9151 35.329 29.3105C35.329 29.3105 35.329 29.3105 35.4278 29.4094V29.5082L46.282 44.3095C46.5776 44.704 46.4797 45.3949 46.0843 45.6905C45.7887 45.7903 45.591 45.7903 45.3943 45.7903Z" fill="#101110"/>
<path d="M15.1996 46.3817C14.904 46.3817 14.6074 46.2829 14.4107 45.9873C14.1142 45.5919 14.213 44.9019 14.6074 44.6063L29.4089 33.8491C29.8043 33.5545 30.4952 33.6523 30.7908 34.0468C31.0864 34.4422 30.9885 35.1332 30.5931 35.4288L15.7917 46.185C15.595 46.2829 15.3973 46.3817 15.1996 46.3817Z" fill="#101110"/>
<path d="M25.4628 30.8891C25.1662 30.8891 24.8706 30.7902 24.6729 30.4947L13.8188 15.7912C13.5222 15.3968 13.6211 14.7068 14.0155 14.4102C14.4109 14.1137 15.1009 14.2125 15.3975 14.607L26.1528 29.3104C26.4494 29.7048 26.3505 30.3958 25.9561 30.6924C25.8572 30.7902 25.6595 30.8891 25.4628 30.8891Z" fill="#101110"/>
</svg>
