<svg width="16" height="16" viewBox="0 0 16 16" fill="none" xmlns="http://www.w3.org/2000/svg">
<path d="M4.66667 6.85H6V8.15H4.66667V6.85ZM14 3.6V12.7C14 13.415 13.4 14 12.6667 14H3.33333C2.97971 14 2.64057 13.863 2.39052 13.6192C2.14048 13.3754 2 13.0448 2 12.7L2.00667 3.6C2.00667 2.885 2.59333 2.3 3.33333 2.3H4V1H5.33333V2.3H10.6667V1H12V2.3H12.6667C13.4 2.3 14 2.885 14 3.6ZM3.33333 4.9H12.6667V3.6H3.33333V4.9ZM12.6667 12.7V6.2H3.33333V12.7H12.6667ZM10 8.15H11.3333V6.85H10V8.15ZM7.33333 8.15H8.66667V6.85H7.33333V8.15Z" fill="#101110"/>
</svg>
