<svg width="28" height="28" viewBox="0 0 28 28" fill="none" xmlns="http://www.w3.org/2000/svg">
<path d="M15.2269 8.16667C16.3665 8.389 17.4137 8.9463 18.2347 9.76726C19.0556 10.5882 19.613 11.6355 19.8352 12.775M15.2269 3.5C17.5944 3.76301 19.8021 4.8232 21.4876 6.50651C23.1729 8.18981 24.236 10.3962 24.5019 12.7633M20.4185 25.6667C10.4314 25.6667 2.33521 17.5705 2.33521 7.58333C2.33521 7.13274 2.35169 6.686 2.38408 6.24368C2.42125 5.73606 2.43983 5.48225 2.57286 5.2512C2.68304 5.05984 2.87829 4.87837 3.07718 4.78246C3.31732 4.66667 3.5974 4.66667 4.15755 4.66667H7.44441C7.91547 4.66667 8.15099 4.66667 8.35289 4.74419C8.53124 4.81268 8.69005 4.9239 8.81536 5.06812C8.95722 5.23137 9.0377 5.45272 9.19869 5.89541L10.5592 9.63672C10.7464 10.1518 10.8401 10.4093 10.8242 10.6536C10.8102 10.8691 10.7366 11.0764 10.6118 11.2526C10.4702 11.4523 10.2352 11.5933 9.76527 11.8753L8.16854 12.8333C9.57075 15.9237 12.077 18.4332 15.1685 19.8333L16.1266 18.2366C16.4086 17.7666 16.5495 17.5316 16.7493 17.3901C16.9254 17.2653 17.1327 17.1916 17.3482 17.1776C17.5925 17.1618 17.8501 17.2555 18.3652 17.4427L22.1065 18.8032C22.5491 18.9642 22.7705 19.0447 22.9338 19.1865C23.078 19.3118 23.1893 19.4706 23.2576 19.649C23.3352 19.8508 23.3352 20.0864 23.3352 20.5575V23.8443C23.3352 24.4044 23.3352 24.6846 23.2194 24.9247C23.1235 25.1236 22.942 25.3189 22.7507 25.429C22.5196 25.562 22.2658 25.5806 21.7582 25.6178C21.3158 25.6502 20.8691 25.6667 20.4185 25.6667Z" stroke="#061D00" stroke-width="1.4" stroke-linecap="round" stroke-linejoin="round"/>
</svg>
