<svg width="32" height="32" viewBox="0 0 32 32" fill="none" xmlns="http://www.w3.org/2000/svg">
<path d="M29.2661 11.6278L29.2327 11.4038L29.1981 11.4118C28.9612 10.3039 28.4154 9.28566 27.6239 8.47497C26.8324 7.66428 25.8275 7.09427 24.7255 6.83088C23.6236 6.56749 22.4696 6.6215 21.397 6.98665C20.3245 7.3518 19.3772 8.01316 18.6649 8.89423C17.9526 9.77529 17.5043 10.84 17.3719 11.9653C17.2394 13.0905 17.4283 14.2302 17.9167 15.2526C18.405 16.275 19.1728 17.1381 20.1313 17.7423C21.0898 18.3465 22.1997 18.6669 23.3328 18.6665C23.6301 18.6665 23.9154 18.6212 24.1994 18.5798C24.1074 18.8892 24.0127 19.2038 23.8608 19.4865C23.7087 19.8972 23.4714 20.2532 23.2354 20.6118C23.0381 20.9998 22.6901 21.2625 22.4341 21.5945C22.1661 21.9172 21.8008 22.1318 21.5114 22.3998C21.2274 22.6798 20.8554 22.8198 20.5594 23.0172C20.2501 23.1945 19.9808 23.3905 19.6928 23.4838L18.9741 23.7798L18.3421 24.0425L18.9874 26.6278L19.7834 26.4358C20.0381 26.3718 20.3488 26.2972 20.7021 26.2078C21.0634 26.1412 21.4487 25.9585 21.8781 25.7918C22.3008 25.6012 22.7927 25.4745 23.2488 25.1692C23.7074 24.8785 24.2367 24.6358 24.7034 24.2465C25.1554 23.8452 25.7007 23.4972 26.1034 22.9878C26.5434 22.5105 26.9781 22.0092 27.3154 21.4385C27.7061 20.8945 27.9714 20.2972 28.2514 19.7065C28.5047 19.1158 28.7087 18.5118 28.8754 17.9252C29.1914 16.7492 29.3328 15.6318 29.3874 14.6758C29.4328 13.7185 29.4061 12.9225 29.3501 12.3465C29.3314 12.106 29.3034 11.8662 29.2661 11.6278ZM14.5994 11.6278L14.5661 11.4038L14.5314 11.4118C14.2945 10.3039 13.7487 9.28566 12.9572 8.47497C12.1657 7.66428 11.1608 7.09427 10.0589 6.83088C8.95692 6.56749 7.8029 6.6215 6.73036 6.98665C5.65781 7.3518 4.71057 8.01316 3.99824 8.89423C3.28591 9.77529 2.8376 10.84 2.70518 11.9653C2.57277 13.0905 2.76166 14.2302 3.25 15.2526C3.73834 16.275 4.50617 17.1381 5.46465 17.7423C6.42313 18.3465 7.53308 18.6669 8.66608 18.6665C8.96342 18.6665 9.24875 18.6212 9.53275 18.5798C9.44075 18.8892 9.34608 19.2038 9.19408 19.4865C9.04208 19.8972 8.80475 20.2532 8.56875 20.6118C8.37142 20.9998 8.02342 21.2625 7.76742 21.5945C7.49942 21.9172 7.13408 22.1318 6.84475 22.3998C6.56075 22.6798 6.18875 22.8198 5.89275 23.0172C5.58342 23.1945 5.31408 23.3905 5.02608 23.4838L4.30742 23.7798C3.90608 23.9438 3.67675 24.0398 3.67675 24.0398L4.32208 26.6252L5.11808 26.4332C5.37275 26.3692 5.68342 26.2945 6.03675 26.2052C6.39808 26.1385 6.78342 25.9558 7.21275 25.7892C7.63542 25.5985 8.12742 25.4718 8.58342 25.1665C9.04208 24.8758 9.57142 24.6332 10.0381 24.2438C10.4901 23.8425 11.0354 23.4945 11.4381 22.9852C11.8781 22.5078 12.3127 22.0065 12.6501 21.4358C13.0407 20.8918 13.3061 20.2945 13.5861 19.7038C13.8394 19.1132 14.0434 18.5092 14.2101 17.9225C14.5261 16.7465 14.6674 15.6292 14.7221 14.6732C14.7674 13.7158 14.7408 12.9198 14.6848 12.3438C14.6644 12.1043 14.6359 11.8655 14.5994 11.6278Z" fill="#101110"/>
</svg>
