<svg width="38" height="27" viewBox="0 0 38 27" fill="none" xmlns="http://www.w3.org/2000/svg">
<path d="M28.1671 6.10768C28.05 3.83245 26.9619 1.62263 25.2295 0.142578C25.6088 1.05199 25.1919 2.10198 25.3559 3.07339C25.475 3.77631 25.8958 4.40016 26.4162 4.88733C26.9365 5.37498 27.5545 5.74353 28.1671 6.10768Z" fill="#87BE00"/>
<path d="M32.3211 1.36203C33.0259 1.57535 33.5858 2.10205 34.1082 2.62046C34.6305 3.13936 35.165 3.68362 35.8523 3.94819C36.5391 4.21326 37.4285 4.11319 37.8571 3.51472C37.612 4.24401 36.7715 4.61549 36.0022 4.63111C35.2328 4.64673 34.485 4.39778 33.7225 4.2938C31.6274 4.00775 29.4103 4.90643 28.1055 6.57099C28.1289 5.27107 28.2919 3.9194 28.9968 2.82742C29.7017 1.73545 31.0773 0.985669 32.3211 1.36203Z" fill="#87BE00"/>
<path d="M31.0328 4.31008C31.3574 3.81218 31.5082 3.22348 31.7313 2.67285C31.2705 3.68331 30.5031 4.55268 29.5571 5.13503C29.6186 5.14382 29.6801 5.14382 29.7407 5.14187C30.0643 4.94808 30.405 4.78308 30.7584 4.64933C30.8619 4.54487 30.9547 4.43066 31.0328 4.31008Z" fill="#ADD250"/>
<path d="M31.4844 4.42249C31.686 4.37318 31.889 4.33219 32.0941 4.30338C32.1883 4.25018 32.2791 4.18964 32.3582 4.11545C32.6183 3.87186 32.7799 3.52578 32.798 3.16992C32.4489 3.6688 31.9979 4.09445 31.4844 4.42249Z" fill="#ADD250"/>
<path d="M33.556 4.27711C33.926 4.15312 34.2409 3.84608 34.32 3.46094C33.9343 3.75431 33.5238 4.0145 33.0986 4.24636C33.2519 4.25076 33.4042 4.26051 33.556 4.27711Z" fill="#ADD250"/>
<path d="M27.4944 18.2341C27.6472 13.8481 28.005 9.46995 28.5332 5.11328C26.8476 9.42065 26.7661 14.1635 26.7065 18.7886C26.7085 19.0415 27.1015 19.1147 27.2835 18.9404C27.4656 18.7657 27.4856 18.4865 27.4944 18.2341Z" fill="#87BE00"/>
<path d="M37.3876 6.35352C36.6085 7.20728 36.1204 8.2807 35.6513 9.33704C35.1826 10.3934 34.7091 11.4707 33.952 12.3445C33.1949 13.2178 32.0937 13.8719 30.9402 13.804C29.4284 13.7152 28.1661 12.4455 26.6519 12.4089C26.9286 10.9162 27.5339 9.4542 28.5737 8.34856C29.6134 7.24194 31.1213 6.52827 32.635 6.64347C33.4204 6.70253 34.1795 6.97541 34.9659 7.01691C35.8162 7.06181 36.6788 6.82555 37.3876 6.35352Z" fill="#87BE00"/>
<path d="M26.8828 12.2516C28.2706 11.3207 29.9073 10.8541 31.4733 10.2697C33.0388 9.68642 34.6199 8.9254 35.6347 7.59766C35.3208 8.44605 34.6433 9.12066 33.875 9.59855C33.1066 10.0764 32.2446 10.3786 31.3908 10.6764C29.8878 11.2021 28.3853 11.7269 26.8828 12.2516Z" fill="#ADD250"/>
<path d="M30.269 10.0009C30.7454 9.35408 31.2287 8.69363 31.4869 7.93359C30.4677 9.16176 29.4484 10.3899 28.4287 11.6181C29.2263 11.3809 29.7755 10.6706 30.269 10.0009Z" fill="#ADD250"/>
<path d="M32.5783 9.56447C32.8638 9.03874 33.1552 8.49495 33.2133 7.89941C32.795 8.88009 32.1565 9.76559 31.3589 10.4734C31.6249 10.5403 31.9095 10.4221 32.1111 10.2371C32.3132 10.0511 32.4474 9.80562 32.5783 9.56447Z" fill="#ADD250"/>
<path d="M29.7468 11.3927C29.4857 11.2912 29.1733 11.1721 28.9458 11.3356C29.7078 11.6553 30.4849 11.9785 31.3079 12.0503C32.1314 12.1215 33.0228 11.9004 33.5705 11.2824C32.3794 11.8252 30.9677 11.8662 29.7468 11.3927Z" fill="#ADD250"/>
<path d="M34.7291 10.2334C33.681 10.4404 32.5998 10.4809 31.5391 10.3535C31.707 10.5766 31.9774 10.6991 32.2474 10.7708C33.0962 10.9983 34.0501 10.7918 34.7291 10.2334Z" fill="#ADD250"/>
<path d="M27.1848 8.86761C26.6835 7.77808 25.8273 6.85451 24.7778 6.27264C23.7332 5.6937 22.5309 5.45794 21.3408 5.36129C20.1502 5.26464 18.9523 5.29929 17.7607 5.21973C18.5784 6.05884 18.8996 7.26017 19.0612 8.42048C19.2232 9.58128 19.2598 10.7723 19.643 11.8799C20.0262 12.9875 20.8492 14.0341 21.9939 14.2836C22.8726 14.4754 23.78 14.1723 24.605 13.8145C25.2445 13.5372 25.8751 13.2189 26.4067 12.7684C26.9388 12.3173 27.3693 11.7213 27.5158 11.0394C27.673 10.3111 27.4963 9.54467 27.1848 8.86761Z" fill="#87BE00"/>
<path d="M26.9715 12.1041C25.6906 11.8962 24.5322 11.1879 23.5833 10.3029C22.6338 9.41737 21.8694 8.35663 21.1113 7.30273C22.4401 7.91242 23.0961 9.40028 24.1554 10.4073C24.953 11.1659 25.9723 11.6413 26.9715 12.1041Z" fill="#ADD250"/>
<path d="M25.7055 11.7169C25.439 10.684 25.1729 9.65156 24.9064 8.61816C24.8918 9.49926 25.0172 10.3823 25.2769 11.2244C25.3453 11.4465 25.4732 11.7057 25.7055 11.7169Z" fill="#ADD250"/>
<path d="M23.7148 10.1912C23.4937 9.31494 23.2731 8.43872 23.0524 7.5625C23.0324 8.02965 23.0124 8.5012 23.0939 8.96152C23.1755 9.42232 23.3692 9.87679 23.7148 10.1912Z" fill="#ADD250"/>
<path d="M22.6902 10.1453C21.8599 10.1472 20.8851 9.7528 20.1836 9.30859C21.1482 10.2551 22.5457 10.7418 23.8896 10.5992C23.872 10.3259 23.7685 10.2707 23.5059 10.1951C23.2433 10.1189 22.9636 10.1443 22.6902 10.1453Z" fill="#ADD250"/>
<path d="M21.1807 10.9414C21.683 11.6019 22.4347 12.0671 23.2499 12.2208C24.0646 12.3751 25.1219 12.1476 25.8307 11.7166C25.6779 11.6292 25.3645 11.5682 25.283 11.4125C24.6616 11.7683 23.8986 11.8103 23.1952 11.6746C22.4923 11.5384 21.8323 11.2387 21.1807 10.9414Z" fill="#ADD250"/>
<path d="M12.6847 6.10768C12.5676 3.83245 11.4795 1.62263 9.74707 0.142578C10.1264 1.05199 9.70948 2.10198 9.8735 3.07339C9.99212 3.77631 10.4134 4.40016 10.9337 4.88733C11.4541 5.37498 12.0721 5.74353 12.6847 6.10768Z" fill="#87BE00"/>
<path d="M16.8386 1.36203C17.5435 1.57535 18.1034 2.10205 18.6257 2.62046C19.1481 3.13936 19.6831 3.68362 20.3699 3.94819C21.0567 4.21326 21.9461 4.11319 22.3752 3.51472C22.1301 4.24401 21.2895 4.61549 20.5202 4.63111C19.7509 4.64673 19.0031 4.39778 18.2406 4.2938C16.1455 4.00775 13.9279 4.90643 12.6235 6.57099C12.6465 5.27107 12.81 3.9194 13.5149 2.82742C14.2193 1.73545 15.5944 0.985669 16.8386 1.36203Z" fill="#87BE00"/>
<path d="M15.5504 4.31008C15.875 3.81218 16.0258 3.22348 16.2489 2.67285C15.7881 3.68331 15.0207 4.55268 14.0747 5.13503C14.1367 5.14382 14.1977 5.14382 14.2587 5.14187C14.5824 4.94808 14.9231 4.78308 15.2765 4.64933C15.3795 4.54487 15.4723 4.43066 15.5504 4.31008Z" fill="#ADD250"/>
<path d="M16.0024 4.42249C16.204 4.37318 16.4071 4.33219 16.6121 4.30338C16.7068 4.25018 16.7971 4.18964 16.8767 4.11545C17.1369 3.87186 17.298 3.52578 17.3165 3.16992C16.9665 3.6688 16.5155 4.09445 16.0024 4.42249Z" fill="#ADD250"/>
<path d="M18.0736 4.27711C18.4436 4.15312 18.7585 3.84608 18.8375 3.46094C18.4514 3.75431 18.0414 4.0145 17.6162 4.24636C17.769 4.25076 17.9213 4.26051 18.0736 4.27711Z" fill="#ADD250"/>
<path d="M12.0115 18.2341C12.1643 13.8481 12.5221 9.46995 13.0503 5.11328C11.3647 9.42065 11.2832 14.1635 11.2236 18.7886C11.2256 19.0415 11.6185 19.1147 11.8006 18.9404C11.9832 18.7657 12.0027 18.4865 12.0115 18.2341Z" fill="#87BE00"/>
<path d="M21.9052 6.35352C21.1261 7.20728 20.6379 8.2807 20.1688 9.33704C19.7002 10.3934 19.2267 11.4707 18.4696 12.3445C17.7125 13.2178 16.6112 13.8719 15.4578 13.804C13.9455 13.7152 12.6837 12.4455 11.1694 12.4089C11.4462 10.9162 12.0515 9.4542 13.0913 8.34856C14.131 7.24194 15.6389 6.52827 17.1526 6.64347C17.938 6.70253 18.6971 6.97541 19.4835 7.01691C20.3338 7.06181 21.1964 6.82555 21.9052 6.35352Z" fill="#87BE00"/>
<path d="M11.3999 12.2516C12.7877 11.3207 14.4244 10.8541 15.9904 10.2697C17.5564 9.68642 19.137 8.9254 20.1523 7.59766C19.8384 8.44605 19.1609 9.12066 18.3925 9.59855C17.6242 10.0764 16.7621 10.3786 15.9084 10.6764C14.4054 11.2021 12.9029 11.7269 11.3999 12.2516Z" fill="#ADD250"/>
<path d="M14.7861 10.0009C15.2625 9.35408 15.7463 8.69363 16.004 7.93359C14.9848 9.16176 13.9655 10.3899 12.9463 11.6181C13.7439 11.3809 14.2931 10.6706 14.7861 10.0009Z" fill="#ADD250"/>
<path d="M17.0958 9.56447C17.3814 9.03874 17.6728 8.49495 17.7309 7.89941C17.3121 8.88009 16.6741 9.76559 15.8765 10.4734C16.142 10.5403 16.4271 10.4221 16.6292 10.2371C16.8308 10.0511 16.965 9.80562 17.0958 9.56447Z" fill="#ADD250"/>
<path d="M14.2649 11.3927C14.0038 11.2912 13.6913 11.1721 13.4639 11.3356C14.2259 11.6553 15.003 11.9785 15.826 12.0503C16.6495 12.1215 17.5408 11.9004 18.0885 11.2824C16.897 11.8252 15.4858 11.8662 14.2649 11.3927Z" fill="#ADD250"/>
<path d="M19.2467 10.2334C18.1986 10.4404 17.1179 10.4809 16.0571 10.3535C16.225 10.5766 16.4955 10.6991 16.7649 10.7708C17.6138 10.9983 18.5676 10.7918 19.2467 10.2334Z" fill="#ADD250"/>
<path d="M11.7029 8.86761C11.2016 7.77808 10.3449 6.85451 9.29537 6.27264C8.25075 5.6937 7.04894 5.45794 5.85836 5.36129C4.66778 5.26464 3.46988 5.29929 2.27832 5.21973C3.09596 6.05884 3.41716 7.26017 3.57873 8.42048C3.74031 9.58128 3.77741 10.7723 4.16011 11.8799C4.5433 12.9875 5.36631 14.0341 6.511 14.2836C7.38966 14.4754 8.29712 14.1723 9.12208 13.8145C9.76155 13.5372 10.3922 13.2189 10.9243 12.7684C11.4559 12.3173 11.8864 11.7213 12.0334 11.0394C12.191 10.3111 12.0138 9.54467 11.7029 8.86761Z" fill="#87BE00"/>
<path d="M11.4891 12.1041C10.2077 11.8962 9.04981 11.1879 8.10037 10.3029C7.15142 9.41737 6.3865 8.35663 5.62842 7.30273C6.95714 7.91242 7.61321 9.40028 8.67248 10.4073C9.47059 11.1659 10.4898 11.6413 11.4891 12.1041Z" fill="#ADD250"/>
<path d="M10.2227 11.7169C9.95615 10.684 9.68962 9.65156 9.42359 8.61816C9.40845 9.49926 9.53391 10.3823 9.79409 11.2244C9.86243 11.4465 9.99032 11.7057 10.2227 11.7169Z" fill="#ADD250"/>
<path d="M8.23279 10.1912C8.01166 9.31494 7.79102 8.43872 7.56989 7.5625C7.54939 8.02965 7.52937 8.5012 7.61138 8.96152C7.69339 9.42232 7.88621 9.87679 8.23279 10.1912Z" fill="#ADD250"/>
<path d="M7.20778 10.1453C6.37745 10.1472 5.40263 9.7528 4.70117 9.30859C5.66623 10.2551 7.06329 10.7418 8.40715 10.5992C8.38909 10.3259 8.28609 10.2707 8.02347 10.1951C7.76085 10.1189 7.48114 10.1443 7.20778 10.1453Z" fill="#ADD250"/>
<path d="M5.69824 10.9414C6.20005 11.6019 6.95228 12.0671 7.76748 12.2208C8.58219 12.3751 9.6395 12.1476 10.3483 11.7166C10.196 11.6292 9.88211 11.5682 9.80059 11.4125C9.17919 11.7683 8.41671 11.8103 7.71329 11.6746C7.00939 11.5384 6.34991 11.2387 5.69824 10.9414Z" fill="#ADD250"/>
<path d="M34.0194 21.7099C32.9636 20.7766 31.9004 19.8379 30.6932 19.1115C29.4855 18.3857 28.1124 17.8766 26.7036 17.8839C25.3978 17.8912 24.1174 18.3452 23.0196 19.052C22.9654 19.0867 22.9132 19.1252 22.8595 19.1613C22.8336 19.1457 22.8097 19.1272 22.7838 19.1111C21.5762 18.3852 20.203 17.8761 18.7943 17.8834C17.489 17.8907 16.2086 18.3447 15.1107 19.0515C15.0565 19.0862 15.0043 19.1247 14.9506 19.1609C14.9247 19.1452 14.9008 19.1267 14.875 19.1106C13.6678 18.3847 12.2941 17.8756 10.8854 17.8829C9.57958 17.8902 8.29967 18.3442 7.20184 19.051C6.104 19.7574 5.17946 20.7088 4.3877 21.747C6.33929 23.2837 8.81759 24.1385 11.3013 24.1316C11.4687 24.1311 11.6356 24.1267 11.8026 24.1189C14.0153 24.0086 16.2305 23.9544 18.4408 24.1067C18.6966 24.1243 18.9534 24.1331 19.2101 24.1321C19.3776 24.1316 19.5445 24.1272 19.7115 24.1194C21.9242 24.0096 24.1394 23.9549 26.3497 24.1072C26.6055 24.1248 26.8623 24.1336 27.119 24.1326C29.6032 24.1262 32.0766 23.2573 34.0194 21.7099Z" fill="#664A3B"/>
<path d="M15.8691 21.2309L16.0078 20.9521L23.8102 21.4149C24.045 21.4471 24.2281 21.6346 24.2535 21.8689L24.4478 23.6784C24.4741 23.922 24.3223 24.149 24.0865 24.2193L24.0763 24.2227C23.7546 24.3184 23.4271 24.087 23.4124 23.7536L23.3587 22.5469C23.348 22.3028 23.1644 22.0998 22.9213 22.0627L15.8691 21.2309Z" fill="#A0A4A6"/>
<path d="M15.5771 21.1507C15.6537 21.1288 15.7353 21.1268 15.8129 21.1459L22.5019 22.7533C22.7059 22.8031 22.8495 22.9847 22.8499 23.1926L22.8539 24.802C22.8543 25.0183 22.7001 25.2043 22.4858 25.2443L22.476 25.2462C22.1841 25.3014 21.9171 25.0681 21.9352 24.7732L21.9991 23.7071C22.0123 23.4914 21.8693 23.2961 21.6589 23.2414C21.6589 23.2414 15.4683 21.4309 15.439 21.429L15.5771 21.1507Z" fill="#A0A4A6"/>
<path d="M15.6451 21.4152C15.7339 21.4073 15.8233 21.4234 15.9048 21.4605L21.2275 23.9159C21.4403 24.014 21.5584 24.2439 21.5135 24.4719L21.1674 26.2341C21.1206 26.4708 20.9112 26.6412 20.6676 26.6393H20.6569C20.3249 26.6368 20.0828 26.3244 20.1668 26.0061L20.4689 24.8531C20.5299 24.6193 20.4162 24.3752 20.197 24.2703L14.8275 21.3868C14.7972 21.3722 15.6451 21.4152 15.6451 21.4152Z" fill="#A0A4A6"/>
<path d="M15.9345 21.7912L12.5361 21.3153C12.2979 21.2821 12.1304 21.0678 12.1627 20.8374L12.1641 20.8291C12.1963 20.5982 12.416 20.4386 12.6542 20.4723L16.0522 20.9482C16.2904 20.9814 16.4578 21.1957 16.4256 21.4261L16.4246 21.4349C16.3924 21.6653 16.1728 21.8249 15.9345 21.7912Z" fill="#A0A4A6"/>
<path d="M11.6158 22.4033L1.26667 20.954C0.540798 20.8525 0.0448448 20.1056 0.159558 19.2865L0.163952 19.2563C0.278665 18.4367 0.960112 17.8553 1.68647 17.9568L12.0356 19.4061C12.7614 19.5077 13.2574 20.254 13.1427 21.0736L13.1383 21.1034C13.0236 21.9235 12.3421 22.5049 11.6158 22.4033Z" fill="#CD5A24"/>
</svg>
