<svg width="85" height="85" viewBox="0 0 85 85" fill="none" xmlns="http://www.w3.org/2000/svg">
<path fill-rule="evenodd" clip-rule="evenodd" d="M83.2264 33.1367C83.9656 39.7378 80.6293 46.1653 77.2626 52.0024C74.0389 57.5915 68.6112 61.4438 64.1499 66.211C59.0641 71.6457 56.2296 79.8749 48.981 82.2237C41.7942 84.5524 33.7795 81.3065 26.9122 78.2771C20.7064 75.5396 17.0281 69.6372 11.5738 65.7223C6.18659 61.8556 -1.83488 60.8603 -5.13808 55.2727C-8.43658 49.6931 -4.50984 42.5908 -5.81365 36.3102C-7.40472 28.6458 -15.7886 21.9468 -13.6238 14.3957C-11.5499 7.16139 -2.58551 3.61694 4.51196 0.292509C10.8486 -2.67557 18.3581 -1.43398 25.008 -3.6993C32.3703 -6.20732 37.8274 -13.5677 45.6406 -13.7182C53.4344 -13.8683 61.4133 -10.04 66.5435 -4.49935C71.6018 0.963672 70.2692 9.3866 73.2407 16.0902C75.931 22.1595 82.4926 26.5845 83.2264 33.1367Z" fill="#1FA12E" fill-opacity="0.1"/>
<path d="M45.4997 23C46.34 23 47 23.6594 47 24.4997C47 25.3394 46.34 26 45.4997 26C44.6594 26 44 25.3394 44 24.4997C44 23.6594 44.6594 23 45.4997 23Z" fill="#A88D68"/>
<path d="M26.4997 43C27.3406 43 28 43.6607 28 44.5004C28 45.3407 27.3406 46 26.4997 46C25.66 46 25 45.3407 25 44.5004C25 43.6607 25.66 43 26.4997 43Z" fill="#A88D68"/>
<path d="M24.4997 25C25.34 25 26 25.6594 26 26.4997C26 27.3394 25.34 28 24.4997 28C23.66 28 23 27.3394 23 26.4997C23 25.6594 23.66 25 24.4997 25Z" fill="#A88D68"/>
<path d="M36.4997 47C31.3997 43.3204 28 38.4129 28 33.0267C28 27.64 31.3997 22.6797 36.4997 19C41.6003 22.6797 45 27.64 45 33.0267C45 38.4129 41.6003 43.3204 36.4997 47Z" fill="#8EC155"/>
<path d="M35.9997 19.2367C30.8651 23.066 28.0591 27.7462 28.0591 32.533C28.0591 37.3198 30.8651 42 35.9997 45.8294C41.1349 42.0534 43.9409 37.3198 43.9409 32.533C43.9409 27.7462 41.1349 23.0127 35.9997 19.2367ZM35.9997 47C35.8942 47 35.7886 46.9462 35.6826 46.8934C30.0711 42.8509 27 37.7456 27 32.533C27 27.2672 30.0711 22.1618 35.6826 18.1199C35.8412 17.96 36.1058 17.96 36.3174 18.1199C41.9294 22.1618 45 27.2672 45 32.533C45 37.7456 41.9294 42.8509 36.3174 46.8934C36.2113 47 36.1058 47 35.9997 47Z" fill="black"/>
<path d="M35.4998 51C35.2003 51 35 50.7935 35 50.4834V28.5173C35 28.2066 35.2003 28 35.4998 28C35.7997 28 36 28.2066 36 28.5173V50.4834C36 50.7417 35.7501 51 35.4998 51Z" fill="black"/>
<path d="M35.4592 34C35.3632 34 35.2186 33.947 35.1708 33.8941C34.9779 33.6827 34.9302 33.3654 35.1226 33.154L38.155 29.1877C38.3479 28.9757 38.6362 28.9233 38.8291 29.1347C39.0216 29.3466 39.0702 29.6639 38.8774 29.8748L35.8445 33.8416C35.7003 33.947 35.6039 34 35.4592 34Z" fill="black"/>
<path d="M35.5258 40C35.3682 40 35.2627 39.9472 35.1578 39.8418C34.9474 39.6314 34.9474 39.3162 35.1578 39.1048L39.1051 35.1582C39.316 34.9473 39.6313 34.9473 39.8422 35.1582C40.0526 35.3685 40.0526 35.6848 39.8422 35.8952L35.8944 39.8418C35.7895 39.9472 35.6313 40 35.5258 40Z" fill="black"/>
<path d="M35.4922 38C35.348 38 35.2038 37.9476 35.1073 37.7908L32.1225 33.8661C31.93 33.657 31.9782 33.2905 32.1707 33.1333C32.3631 32.9241 32.7002 32.976 32.8444 33.1857L35.8775 37.1099C36.07 37.3196 36.0218 37.686 35.8293 37.8427C35.6846 37.9476 35.5887 38 35.4922 38Z" fill="black"/>
<path d="M35.4736 43C35.316 43 35.2105 42.9474 35.1056 42.8418L31.1578 38.8952C30.9474 38.6848 30.9474 38.3685 31.1578 38.1582C31.3687 37.9473 31.684 37.9473 31.8949 38.1582L35.8422 42.1053C36.0526 42.3157 36.0526 42.6315 35.8422 42.8418C35.7373 42.9474 35.5791 43 35.4736 43Z" fill="black"/>
<path d="M26.9994 43.1427C26.5427 43.1427 26.1431 43.5424 26.1431 43.9998C26.1431 44.4566 26.5427 44.8573 26.9994 44.8573C27.4568 44.8573 27.8569 44.4566 27.8569 43.9998C27.8569 43.5424 27.4568 43.1427 26.9994 43.1427ZM26.9994 46C25.9142 46 25 45.0858 25 43.9998C25 42.9144 25.9142 42 26.9994 42C28.0853 42 29 42.9144 29 43.9998C29 45.0858 28.0853 46 26.9994 46Z" fill="black"/>
<path d="M46 23.1431C45.5432 23.1431 45.1431 23.5432 45.1431 24C45.1431 24.4574 45.5432 24.8569 46 24.8569C46.4574 24.8569 46.8569 24.4574 46.8569 24C46.8569 23.5432 46.5146 23.1431 46 23.1431ZM46 26C44.9141 26 44 25.0853 44 24C44 22.9141 44.9141 22 46 22C47.0859 22 48 22.9141 48 24C48 25.0853 47.1431 26 46 26Z" fill="black"/>
<path d="M23.9994 25.1431C23.5426 25.1431 23.1431 25.5432 23.1431 26C23.1431 26.4574 23.5426 26.8569 23.9994 26.8569C24.4568 26.8569 24.8569 26.4574 24.8569 26C24.8569 25.5432 24.4568 25.1431 23.9994 25.1431ZM23.9994 28C22.9141 28 22 27.0853 22 26C22 24.9141 22.9141 24 23.9994 24C25.0853 24 26 24.9141 26 26C26 27.0853 25.0853 28 23.9994 28Z" fill="black"/>
</svg>
