<svg width="28" height="37" viewBox="0 0 28 37" fill="none" xmlns="http://www.w3.org/2000/svg">
<path d="M9.25651 0C10.0934 0 10.9303 0 11.7926 0C11.7926 0.627683 11.7926 1.25537 11.7926 1.90207C13.048 1.90207 14.3034 1.90207 15.5968 1.90207C15.5968 1.27439 15.5968 0.646704 15.5968 0C16.4337 0 17.2706 0 18.1329 0C18.5514 1.25537 18.9698 2.51073 19.401 3.80414C18.9825 3.80414 18.5641 3.80414 18.1329 3.80414C19.5154 5.23828 20.9834 6.47622 22.5315 7.72716C25.8207 10.6166 27.6957 13.559 28 17.9904C27.7825 22.0519 26.1073 25.6914 23.1779 28.5087C19.873 31.0671 19.873 31.0671 18.1329 31.0671C18.1329 31.4856 18.1329 31.904 18.1329 32.3352C18.5514 32.3352 18.9698 32.3352 19.401 32.3352C19.401 32.9629 19.401 33.5905 19.401 34.2372C18.9825 34.2372 18.5641 34.2372 18.1329 34.2372C17.9237 35.0742 17.7145 35.9111 17.4989 36.7733C16.5574 36.4595 16.5574 36.4595 15.5968 36.1393C15.5968 35.5116 15.5968 34.8839 15.5968 34.2372C14.3414 34.2372 13.086 34.2372 11.7926 34.2372C11.5834 35.0742 11.3742 35.9111 11.1586 36.7733C10.2171 36.4595 10.2171 36.4595 9.25651 36.1393C9.25651 35.5116 9.25651 34.8839 9.25651 34.2372C8.83805 34.2372 8.41959 34.2372 7.98845 34.2372C7.98845 33.6096 7.98845 32.9819 7.98845 32.3352C8.40691 32.3352 8.82537 32.3352 9.25651 32.3352C9.25651 31.9167 9.25651 31.4983 9.25651 31.0671C8.79882 30.9102 8.34113 30.7533 7.86957 30.5916C4.80834 29.2311 2.44408 27.3462 0.843235 24.3405C-0.234241 20.8143 -0.150727 16.9326 0.380096 13.3145C1.68465 10.959 3.07591 9.16579 5.17494 7.4894C6.61785 6.32287 7.96347 5.13646 9.25651 3.80414C8.83805 3.80414 8.41959 3.80414 7.98845 3.80414C7.98845 3.17646 7.98845 2.54877 7.98845 1.90207C8.40691 1.90207 8.82537 1.90207 9.25651 1.90207C9.25651 1.27439 9.25651 0.646704 9.25651 0Z" fill="#24315F"/>
<path d="M17.6128 8.84624C20.1724 10.3276 22.2077 11.7144 23.2052 14.5822C23.6178 17.9931 23.6489 20.6691 22.0956 23.7755C19.9579 26.1507 18.2008 27.6678 14.9306 28.0477C11.4248 28.1628 9.48154 27.7272 6.72041 25.3606C4.21305 22.5074 3.95733 19.8518 4.01093 16.1697C4.31628 13.3736 5.54698 11.7287 7.6987 9.9855C10.8479 7.91011 14.1062 7.31287 17.6128 8.84624Z" fill="#BEC9DF"/>
<path d="M9.2561 0C10.093 0 10.9299 0 11.7922 0C11.7922 0.627683 11.7922 1.25537 11.7922 1.90207C13.0476 1.90207 14.303 1.90207 15.5964 1.90207C15.5964 1.27439 15.5964 0.646704 15.5964 0C16.4333 0 17.2702 0 18.1325 0C18.551 1.25537 18.9694 2.51073 19.4006 3.80414C18.9821 3.80414 18.5636 3.80414 18.1325 3.80414C18.1325 4.22259 18.1325 4.64105 18.1325 5.07218C14.9624 5.07218 11.7922 5.07218 8.62207 5.07218C8.8313 4.65373 9.04053 4.23527 9.2561 3.80414C8.83764 3.80414 8.41918 3.80414 7.98804 3.80414C7.98804 3.17646 7.98804 2.54877 7.98804 1.90207C8.4065 1.90207 8.82496 1.90207 9.2561 1.90207C9.2561 1.27439 9.2561 0.646704 9.2561 0Z" fill="#616B6A"/>
<path d="M9.2561 31.0674C12.1853 31.0674 15.1145 31.0674 18.1325 31.0674C18.1325 31.4858 18.1325 31.9043 18.1325 32.3354C18.551 32.3354 18.9694 32.3354 19.4006 32.3354C19.4006 32.9631 19.4006 33.5908 19.4006 34.2375C18.9821 34.2375 18.5636 34.2375 18.1325 34.2375C17.9233 35.0744 17.714 35.9113 17.4985 36.7736C16.8708 36.5644 16.2431 36.3551 15.5964 36.1396C15.5964 35.5119 15.5964 34.8842 15.5964 34.2375C14.341 34.2375 13.0856 34.2375 11.7922 34.2375C11.583 35.0744 11.3738 35.9113 11.1582 36.7736C10.5305 36.5644 9.90281 36.3551 9.2561 36.1396C9.2561 35.5119 9.2561 34.8842 9.2561 34.2375C8.83764 34.2375 8.41918 34.2375 7.98804 34.2375C7.98804 33.6098 7.98804 32.9821 7.98804 32.3354C8.4065 32.3354 8.82496 32.3354 9.2561 32.3354C9.2561 31.917 9.2561 31.4985 9.2561 31.0674Z" fill="#656E6B"/>
<path d="M13.061 13.9492C14.9631 14.5832 14.9631 14.5832 15.7556 16.0098C16.28 17.9324 16.1386 19.0285 15.5971 20.9235C14.0913 21.3197 14.0913 21.3197 12.427 21.5575C12.0085 21.139 11.5901 20.7206 11.1589 20.2894C11.4047 18.0159 12.1643 16.0416 13.061 13.9492Z" fill="#F66DAD"/>
<path d="M11.7927 18.3867C13.6758 18.7006 13.6758 18.7006 15.5969 19.0207C15.3877 19.8577 15.1784 20.6946 14.9629 21.5568C13.9167 21.3476 12.8706 21.1384 11.7927 20.9228C11.7927 20.0859 11.7927 19.249 11.7927 18.3867Z" fill="#FA5AA1"/>
</svg>
