<svg width="85" height="85" viewBox="0 0 85 85" fill="none" xmlns="http://www.w3.org/2000/svg">
<path fill-rule="evenodd" clip-rule="evenodd" d="M83.2264 33.1367C83.9656 39.7378 80.6293 46.1653 77.2626 52.0024C74.0389 57.5915 68.6112 61.4438 64.1499 66.211C59.0641 71.6457 56.2296 79.8749 48.981 82.2237C41.7942 84.5524 33.7795 81.3065 26.9122 78.2771C20.7064 75.5396 17.0281 69.6372 11.5738 65.7223C6.18659 61.8556 -1.83488 60.8603 -5.13808 55.2727C-8.43658 49.6931 -4.50984 42.5908 -5.81365 36.3102C-7.40472 28.6458 -15.7886 21.9468 -13.6238 14.3957C-11.5499 7.16139 -2.58551 3.61694 4.51196 0.292509C10.8486 -2.67557 18.3581 -1.43398 25.008 -3.6993C32.3703 -6.20732 37.8274 -13.5677 45.6406 -13.7182C53.4344 -13.8683 61.4133 -10.04 66.5435 -4.49935C71.6018 0.963672 70.2692 9.3866 73.2407 16.0902C75.931 22.1595 82.4926 26.5845 83.2264 33.1367Z" fill="#1FA12E" fill-opacity="0.1"/>
<path d="M36.5003 19.0001C43.9462 19.0001 50 21.887 50 26.0423C50 30.1975 43.9462 34.0001 36.5003 34.0001C29.0538 34.0001 23 30.1975 23 26.0423C23 21.887 29.0538 19.0001 36.5003 19.0001Z" fill="#A28671"/>
<path d="M30.1262 50.0001H19.5315L21.1561 47.1598C22.0038 45.6682 22.5685 44.1068 22.8515 42.4729L16 34.0238V30.4736L23.0631 34.876V26.0001C23.0631 30.1898 29.2077 34.0238 36.7661 34.0238C44.3238 34.0238 50.4685 30.1898 50.4685 26.0001V39.846C50.4685 42.4025 51.1039 44.959 52.3754 47.1598L54 50.0001H42.4869H34.5762H30.1262Z" fill="#A88D68"/>
<path d="M53.3355 50.0001H19.1971C18.9175 50.0001 18.7073 49.8602 18.5678 49.651C18.4276 49.4412 18.4276 49.1627 18.5678 48.9528L20.1769 46.1595C20.8763 44.9023 21.4362 43.506 21.7158 42.039L15.1395 34.0085C15.0701 33.8693 15 33.7287 15 33.5895V30.0979C15 29.8188 15.1395 29.6089 15.3497 29.469C15.5592 29.3298 15.8396 29.3298 16.0491 29.469L21.9954 33.1005V25.6983C21.9954 25.2792 22.2751 25.0001 22.6948 25.0001C23.1146 25.0001 23.3942 25.2792 23.3942 25.6983V34.3576C23.3942 34.6368 23.2548 34.8466 23.0445 34.9859C22.835 35.1258 22.5547 35.1258 22.3451 34.9859L16.3988 31.3551V33.3796L22.9745 41.4807C23.1146 41.6199 23.1847 41.8298 23.1146 42.039C22.835 43.7851 22.205 45.3906 21.3654 46.9276L20.3864 48.6737H52.0761L51.0971 46.9276C49.7677 44.6232 49.0682 42.039 49.0682 39.3855V25.6983C49.0682 25.2792 49.3479 25.0001 49.7677 25.0001C50.1874 25.0001 50.4671 25.2792 50.4671 25.6983V39.3155C50.4671 41.6899 51.0971 44.0642 52.2864 46.1595L53.8954 48.9528C54.0349 49.1627 54.0349 49.4412 53.8954 49.651C53.8253 49.8602 53.545 50.0001 53.3355 50.0001Z" fill="black"/>
<path d="M36.0345 20.3731C28.9483 20.3731 23.3756 23.12 23.3756 26.5535C23.3756 28.2699 24.683 29.987 26.9532 31.3601C29.4301 32.8021 32.6637 33.6262 36.0345 33.6262C39.4053 33.6262 42.6383 32.8021 45.1152 31.3601C47.3854 29.987 48.6928 28.2699 48.6928 26.5535C48.6928 23.12 43.12 20.3731 36.0345 20.3731ZM36.0345 35C28.4666 35 22 31.1544 22 26.5535C22 24.3563 23.5134 22.3647 26.2654 20.9916C28.8105 19.6866 32.2509 19 36.0345 19C39.8181 19 43.1889 19.6866 45.7341 20.9916C48.4867 22.3647 49.9995 24.3563 49.9995 26.5535C50.0684 31.1544 43.6018 35 36.0345 35Z" fill="black"/>
<path d="M36.5 32C36.092 32 35.8195 31.7281 35.8195 31.3192C35.8195 30.9117 36.092 30.6391 36.5 30.6391C40.5797 30.6391 43.6397 28.5987 43.6397 26.7615C43.6397 25.605 42.4155 24.7893 41.7357 24.4492C40.376 23.7684 38.5395 23.3602 36.5 23.3602C34.4598 23.3602 32.624 23.7684 31.2636 24.4492C30.5157 24.7893 29.3597 25.605 29.3597 26.7615C29.3597 27.1697 29.0879 27.4416 28.6798 27.4416C28.2718 27.4416 28 27.1697 28 26.7615C28 25.3331 28.9523 24.1092 30.6519 23.2239C32.2159 22.4764 34.2555 22 36.5 22C38.7439 22 40.7841 22.4082 42.3474 23.2239C44.0477 24.1092 45 25.3331 45 26.7615C45 28.1224 44.0477 29.5508 42.3474 30.5028C40.7841 31.4555 38.6758 32 36.5 32Z" fill="black"/>
<path d="M36 29C33.8243 29 32 27.8027 32 26.3945C32 24.9863 33.6837 24 36 24C36.4211 24 36.7016 24.2815 36.7016 24.7048C36.7016 25.1267 36.4211 25.4082 36 25.4082C34.4555 25.4082 33.4032 25.9719 33.4032 26.3945C33.4032 26.8877 34.4555 27.5918 36 27.5918C37.5438 27.5918 38.5961 26.8877 38.5961 26.3945C38.5961 25.9719 38.8766 25.6904 39.2977 25.6904C39.7188 25.6904 40 25.9719 40 26.3945C40 27.8027 38.175 29 36 29Z" fill="black"/>
<path d="M41.6578 50C41.5903 50 41.456 50 41.3885 49.928C41.0517 49.7847 40.9168 49.3526 41.0517 48.9933C41.0517 48.9933 42.2645 46.0466 41.8602 43.0993C41.3885 39.7212 42.668 36.5578 42.7355 36.4145C42.8705 36.0552 43.2747 35.9112 43.6115 36.0552C43.9483 36.1985 44.0832 36.6306 43.9483 36.9899C43.9483 36.9899 42.7355 39.9366 43.1398 42.8839C43.6115 46.2619 42.3313 49.4246 42.2645 49.5687C42.197 49.856 41.927 50 41.6578 50Z" fill="black"/>
<path d="M30.3488 50C30.1259 50 29.903 49.9308 29.7539 49.7237C29.6048 49.5852 26.7025 45.8527 27.7448 41.3591C28.6379 37.6266 27.0746 36.0367 27 35.9674L27.5211 35.4841L28.0422 35C28.1168 35.0686 30.2743 37.1433 29.1583 41.7047C28.1913 45.5757 30.87 48.8941 30.87 48.8941C31.0936 49.1711 31.0191 49.6544 30.7209 49.8615C30.647 49.9308 30.4979 50 30.3488 50Z" fill="black"/>
<path d="M33.7489 50C33.594 50 33.4399 50 33.3625 49.93C32.976 49.7207 32.8986 49.3013 33.1301 48.952C35.9908 44.8287 33.1301 40.0768 33.1301 40.0768C32.8986 39.7275 33.0535 39.3082 33.4399 39.0988C33.8263 38.8888 34.2902 39.0281 34.5218 39.3782C34.6767 39.5875 37.7689 44.8287 34.5218 49.7207C34.2128 49.86 33.9812 50 33.7489 50Z" fill="black"/>
</svg>
