<svg width="28" height="28" viewBox="0 0 28 28" fill="none" xmlns="http://www.w3.org/2000/svg">
<circle cx="14" cy="14" r="14" fill="#96E171"/>
<g clip-path="url(#clip0_1477_6264)">
<path d="M20.6722 15.9063C20.8953 15.6572 21.0313 15.3284 21.0313 14.9687C21.0313 14.1935 20.4003 13.5625 19.625 13.5625H16.8956C17.166 12.7422 17.2812 11.6537 17.2812 11.1872V10.7187C17.2812 9.68499 16.44 8.84375 15.4063 8.84375H14.9375C14.7225 8.84375 14.535 8.99 14.4828 9.19875L14.2275 10.2203C13.8697 11.6509 12.7338 13.2294 11.5581 13.5162C11.3522 12.995 10.8438 12.625 10.25 12.625H7.4375C7.17875 12.625 6.96875 12.835 6.96875 13.0938V21.5313C6.96875 21.79 7.17875 22 7.4375 22H10.25C10.8091 22 11.2928 21.6722 11.5194 21.1985L13.13 21.7353C13.6566 21.9109 14.2053 22 14.7607 22H18.6875C19.4628 22 20.0937 21.3691 20.0937 20.5937C20.0937 20.4109 20.0588 20.2359 19.995 20.0756C20.5913 19.9128 21.0313 19.3663 21.0313 18.7188C21.0313 18.3591 20.8953 18.0303 20.6722 17.7812C20.8953 17.5322 21.0313 17.2034 21.0313 16.8438C21.0313 16.4841 20.8953 16.1553 20.6722 15.9063ZM10.7188 20.5937C10.7188 20.8522 10.5084 21.0625 10.25 21.0625H7.90625V13.5625H10.25C10.5084 13.5625 10.7188 13.7728 10.7188 14.0313V20.5937ZM18.6875 16.375H19.625C19.8834 16.375 20.0937 16.5853 20.0937 16.8438C20.0937 17.1022 19.8834 17.3125 19.625 17.3125H18.6875C18.4287 17.3125 18.2188 17.5225 18.2188 17.7812C18.2188 18.04 18.4287 18.25 18.6875 18.25H19.625C19.8834 18.25 20.0937 18.4603 20.0937 18.7188C20.0937 18.9772 19.8834 19.1875 19.625 19.1875H18.6875C18.4287 19.1875 18.2188 19.3975 18.2188 19.6562C18.2188 19.915 18.4287 20.125 18.6875 20.125C18.946 20.125 19.1562 20.3353 19.1562 20.5937C19.1562 20.8522 18.946 21.0625 18.6875 21.0625H14.7607C14.3063 21.0625 13.8572 20.9897 13.4263 20.846L11.6562 20.2559V14.4556C12.3916 14.3159 13.1113 13.8503 13.7609 13.0881C14.3953 12.3438 14.9097 11.3569 15.1369 10.4478L15.3034 9.78125H15.4063C15.9231 9.78125 16.3438 10.2019 16.3438 10.7187V11.1872C16.3438 11.8166 16.1469 13.0238 15.895 13.5625H14.9375C14.6788 13.5625 14.4687 13.7725 14.4687 14.0313C14.4687 14.29 14.6788 14.5 14.9375 14.5H19.625C19.8834 14.5 20.0937 14.7103 20.0937 14.9687C20.0937 15.2272 19.8834 15.4375 19.625 15.4375H18.6875C18.4287 15.4375 18.2188 15.6475 18.2188 15.9063C18.2188 16.165 18.4287 16.375 18.6875 16.375Z" fill="#061D00"/>
<path d="M9.3125 20.125C9.57138 20.125 9.78125 19.9151 9.78125 19.6562C9.78125 19.3974 9.57138 19.1875 9.3125 19.1875C9.05361 19.1875 8.84375 19.3974 8.84375 19.6562C8.84375 19.9151 9.05361 20.125 9.3125 20.125Z" fill="#061D00"/>
<path d="M15.875 6C15.6161 6 15.4062 6.20987 15.4062 6.46875V7.4375C15.4062 7.69638 15.6161 7.90625 15.875 7.90625C16.1339 7.90625 16.3438 7.69638 16.3438 7.4375V6.46875C16.3438 6.20987 16.1339 6 15.875 6Z" fill="#061D00"/>
<path d="M13.887 8.06778L13.224 7.40487C13.041 7.22181 12.7442 7.22181 12.5611 7.40487C12.3781 7.58794 12.3781 7.88471 12.5611 8.06778L13.224 8.73069C13.407 8.91372 13.7039 8.91375 13.887 8.73069C14.07 8.54762 14.07 8.25084 13.887 8.06778Z" fill="#061D00"/>
<path d="M19.1897 7.40487C19.0066 7.22181 18.7098 7.22181 18.5268 7.40487L17.8639 8.06775C17.6808 8.25081 17.6808 8.54759 17.8639 8.73066C18.0468 8.91372 18.3436 8.91375 18.5268 8.73069L19.1897 8.06778C19.3727 7.88471 19.3727 7.58794 19.1897 7.40487Z" fill="#061D00"/>
</g>
<defs>
<clipPath id="clip0_1477_6264">
<rect width="16" height="16" fill="white" transform="translate(6 6)"/>
</clipPath>
</defs>
</svg>
