<svg width="85" height="85" viewBox="0 0 85 85" fill="none" xmlns="http://www.w3.org/2000/svg">
<path fill-rule="evenodd" clip-rule="evenodd" d="M83.2264 33.1367C83.9656 39.7378 80.6293 46.1653 77.2626 52.0024C74.0389 57.5915 68.6112 61.4438 64.1499 66.211C59.0641 71.6457 56.2296 79.8749 48.981 82.2237C41.7942 84.5524 33.7795 81.3065 26.9122 78.2771C20.7064 75.5396 17.0281 69.6372 11.5738 65.7223C6.18659 61.8556 -1.83488 60.8603 -5.13808 55.2727C-8.43658 49.6931 -4.50984 42.5908 -5.81365 36.3102C-7.40472 28.6458 -15.7886 21.9468 -13.6238 14.3957C-11.5499 7.16139 -2.58551 3.61694 4.51196 0.292509C10.8486 -2.67557 18.3581 -1.43398 25.008 -3.6993C32.3703 -6.20732 37.8274 -13.5677 45.6406 -13.7182C53.4344 -13.8683 61.4133 -10.04 66.5435 -4.49935C71.6018 0.963672 70.2692 9.3866 73.2407 16.0902C75.931 22.1595 82.4926 26.5845 83.2264 33.1367Z" fill="#1FA12E" fill-opacity="0.1"/>
<path d="M49.9877 28.3655C50.039 29.3872 49.9353 30.5161 49.5732 31.5911C49.2106 32.7205 48.6929 33.6884 48.0714 34.4946C47.6056 35.086 47.036 35.6235 46.4659 36C46.207 35.3009 46.0519 34.5485 46 33.7422C46 33.5807 46 33.3658 46 33.2042C46 32.3441 46.1556 31.3762 46.4145 30.4622C46.7252 29.3872 47.243 28.4193 47.8644 27.6131C48.3821 26.9678 48.9517 26.4303 49.5213 26C49.7802 26.8063 49.9353 27.5592 49.9877 28.3655Z" fill="#6E9137"/>
<path d="M47.6799 36C48.9453 36 50 37.1362 50 38.5C50 39.1819 49.7365 39.8064 49.3145 40.2612C48.8925 40.716 48.3126 41 47.6799 41H47.364H21.636H21.3201C20.0547 41 19 39.8638 19 38.5C19 37.8181 19.2635 37.1931 19.6855 36.7388C20.1075 36.284 20.6874 36 21.3201 36H22.8491H23.9561H33.8145H34.922H44.9911H46.0986H47.6799Z" fill="#D1BB93"/>
<path d="M48 40L46.2947 46.3636C45.7087 48.5027 43.791 50 41.5531 50H28.4469C26.209 50 24.2908 48.5027 23.7053 46.3636L22 40H48Z" fill="#A88D68"/>
<path d="M46 33.1739C46 33.3372 46 33.5544 46 33.7172C45.9486 34.5322 45.793 35.2933 45.5341 36C44.9649 35.6194 44.3947 35.0761 43.9287 34.4783C43.3071 33.6633 42.7374 32.6306 42.4266 31.5433C42.0639 30.4567 41.9607 29.3156 42.0126 28.2828C42.0639 27.4678 42.2196 26.7067 42.4785 26C43.1001 26.435 43.6698 26.9783 44.1357 27.6306C44.7573 28.4456 45.2751 29.4239 45.5859 30.5111C45.8449 31.3805 46 32.3044 46 33.1739Z" fill="#8EC155"/>
<path d="M44.9997 22.9996C45.5264 22.9996 45.9998 23.4209 45.9998 23.9998C45.9998 24.5787 45.5786 25 44.9997 25C44.4213 25 44 24.5787 44 23.9998C44 23.4209 44.4213 22.9996 44.9997 22.9996Z" fill="#AFF2D8"/>
<path d="M38.9875 28.3655C39.0393 29.3872 38.9356 30.5161 38.5735 31.5911C38.2108 32.7205 37.6931 33.6884 37.0716 34.4946C36.6052 35.086 36.036 35.6235 35.4659 36C35.207 35.3009 35.0519 34.5485 35 33.7422C35 33.5807 35 33.3658 35 33.2042C35 32.3441 35.1556 31.3762 35.4145 30.4622C35.7248 29.3872 36.243 28.4193 36.8645 27.6131C37.3823 26.9678 37.9519 26.4303 38.5211 26C38.7805 26.8063 38.9356 27.5592 38.9875 28.3655Z" fill="#6E9137"/>
<path d="M35.4997 19C36.3406 19 37 19.66 37 20.5003C37 21.3406 36.3406 22 35.4997 22C34.66 22 34 21.3406 34 20.5003C34 19.66 34.66 19 35.4997 19Z" fill="#AFF2D8"/>
<path d="M35 33.1739C35 33.3372 35 33.5544 35 33.7172C34.9481 34.5322 34.7925 35.2933 34.5337 36C33.9641 35.6194 33.395 35.0761 32.9282 34.4783C32.3067 33.6633 31.7377 32.6306 31.427 31.5433C31.0649 30.4567 30.9606 29.3156 31.0125 28.2828C31.0649 27.4678 31.2195 26.7067 31.4788 26C32.0997 26.435 32.6698 26.9783 33.1357 27.6306C33.7571 28.4456 34.2753 29.4239 34.5855 30.5111C34.8963 31.3805 35 32.3044 35 33.1739Z" fill="#8EC155"/>
<path d="M27.9874 28.3655C28.0393 29.3872 27.9361 30.5161 27.5735 31.5911C27.2108 32.7205 26.6931 33.6884 26.0715 34.4946C25.6057 35.086 25.0355 35.6235 24.4664 36C24.207 35.3009 24.0519 34.5485 24 33.7422C24 33.5807 24 33.3658 24 33.2042C24 32.3441 24.1551 31.3762 24.414 30.4622C24.7253 29.3872 25.243 28.4193 25.8646 27.6131C26.3823 26.9678 26.9519 26.4303 27.5216 26C27.7804 26.8063 27.9874 27.5592 27.9874 28.3655Z" fill="#6E9137"/>
<path d="M24.0002 21.9996C24.5264 21.9996 24.9999 22.4209 24.9999 22.9998C24.9999 23.5787 24.5786 24 24.0002 24C23.4213 24 23 23.526 23 22.9998C23 22.4736 23.4735 21.9996 24.0002 21.9996Z" fill="#AFF2D8"/>
<path d="M24 33.1739C24 33.3372 24 33.5544 24 33.7172C23.9476 34.5322 23.793 35.2933 23.5342 36C22.9641 35.6194 22.3945 35.0761 21.9286 34.4783C21.3071 33.6633 20.7376 32.6306 20.4268 31.5433C20.0642 30.4567 19.961 29.3156 20.0124 28.2828C20.0642 27.4678 20.2198 26.7067 20.4782 26C21.0997 26.435 21.6698 26.9783 22.1356 27.6306C22.7571 28.4456 23.2748 29.4239 23.5855 30.5111C23.8963 31.3805 24 32.3044 24 33.1739Z" fill="#8EC155"/>
<path d="M42.1972 27.4146C42.0961 27.8432 41.994 28.325 41.994 28.8604C41.9437 29.878 42.0448 30.8951 42.3491 31.8591C42.6534 32.8768 43.1101 33.7872 43.7186 34.5902C44.0229 34.9652 44.3267 35.2866 44.6315 35.5543C44.7326 35.1256 44.8342 34.6439 44.8342 34.1622C44.8342 34.0012 44.8342 33.8408 44.8342 33.6799C44.8342 32.8232 44.6818 31.9664 44.4283 31.1097C44.124 30.0921 43.6679 29.2353 43.1101 28.4323C42.8561 28.1109 42.5523 27.736 42.1972 27.4146ZM44.9353 37C44.8342 37 44.7326 36.9464 44.6818 36.8927C44.0732 36.4646 43.5155 35.9292 43.0085 35.2866C42.2988 34.3762 41.7914 33.3585 41.4368 32.1805C41.0817 31.0561 40.9293 29.9311 41.0309 28.7531C41.0817 27.8964 41.2341 27.0933 41.5379 26.3433C41.5887 26.1829 41.6903 26.0756 41.8427 26.022C41.994 25.9689 42.1464 26.022 42.248 26.0756C42.9074 26.5043 43.4647 27.0933 44.0229 27.7896C44.6818 28.6463 45.1887 29.6634 45.5438 30.7884C45.8481 31.7519 46 32.7159 46 33.6799C46 33.8939 46 34.0549 46 34.2153C45.9497 35.072 45.7973 35.8756 45.493 36.625C45.4427 36.7859 45.3411 36.8927 45.1887 36.9464C45.0368 37 44.9861 37 44.9353 37Z" fill="black"/>
<path d="M48.7174 27.3793C48.3608 27.7018 48.0552 28.0243 47.7501 28.454C47.139 29.2067 46.7314 30.1204 46.4259 31.1418C46.1713 32.0012 46.0188 32.8616 46.0188 33.7215C46.0188 33.8825 46.0188 34.044 46.0188 34.205C46.0693 34.6885 46.1203 35.1726 46.2223 35.6028C46.5279 35.3336 46.8844 35.011 47.139 34.6352C47.7501 33.8292 48.2082 32.9154 48.5133 31.894C48.8194 30.8726 48.9209 29.8518 48.8699 28.8842C48.9209 28.3463 48.8194 27.8628 48.7174 27.3793ZM45.9672 37C45.9167 37 45.8657 37 45.8147 37C45.6622 36.9462 45.5601 36.839 45.5091 36.6775C45.2546 35.9253 45.051 35.1187 45 34.2588C45 34.0979 45 33.8825 45 33.7215C45 32.7539 45.1525 31.7864 45.4581 30.8193C45.8147 29.6902 46.3238 28.6688 46.986 27.8095C47.4956 27.1106 48.1067 26.5727 48.7684 26.0892C48.9209 25.9815 49.0739 25.9815 49.176 26.0354C49.3285 26.0892 49.4305 26.1969 49.481 26.3579C49.7866 27.1106 49.9392 27.9166 49.9902 28.7765C50.0417 29.9051 49.8887 31.088 49.5826 32.2166C49.2265 33.399 48.7174 34.4204 48.0042 35.3336C47.4956 35.9786 46.935 36.5165 46.3238 36.9462C46.1713 36.9462 46.0693 37 45.9672 37Z" fill="black"/>
<path d="M20.1971 27.4146C20.0955 27.8432 19.9939 28.325 19.9939 28.8604C19.9431 29.878 20.0452 30.8951 20.349 31.8591C20.6537 32.8768 21.1099 33.7872 21.7184 34.5902C22.0221 34.9652 22.3269 35.2866 22.6306 35.5543C22.7322 35.1256 22.8338 34.6439 22.8338 34.1622C22.8338 34.0012 22.8338 33.8408 22.8338 33.6799C22.8338 32.8232 22.6814 31.9664 22.428 31.1097C22.1237 30.0921 21.6671 29.2353 21.1099 28.4323C20.8564 28.1109 20.5516 27.736 20.1971 27.4146ZM22.9354 37C22.8338 37 22.7322 36.9464 22.6814 36.8927C22.0729 36.4646 21.5152 35.9292 21.0083 35.2866C20.2987 34.3762 19.7918 33.3585 19.4367 32.1805C19.0817 31.0561 18.9293 29.9311 19.0309 28.7531C19.0817 27.8964 19.2336 27.0933 19.5378 26.3433C19.5886 26.1829 19.6902 26.0756 19.8421 26.022C19.9939 25.9689 20.1463 26.022 20.2479 26.0756C20.9072 26.5043 21.4649 27.0933 22.0221 27.7896C22.6814 28.6463 23.1888 29.6634 23.5439 30.7884C23.8476 31.7519 24 32.7159 24 33.6799C24 33.8939 24 34.0549 24 34.2153C23.9487 35.072 23.7973 35.8756 23.4926 36.625C23.4423 36.7859 23.3402 36.8927 23.1888 36.9464C23.0365 37 22.9857 37 22.9354 37Z" fill="black"/>
<path d="M26.7172 27.3793C26.3607 27.7018 26.0556 28.0243 25.7496 28.454C25.1384 29.2067 24.7313 30.1204 24.4258 31.1418C24.1712 32.0012 24.0182 32.8616 24.0182 33.7215C24.0182 33.8825 24.0182 34.044 24.0182 34.205C24.0692 34.6885 24.1202 35.1726 24.2222 35.6028C24.5273 35.3336 24.8839 35.011 25.1384 34.6352C25.7496 33.8292 26.2076 32.9154 26.5137 31.894C26.8188 30.8726 26.9213 29.8518 26.8698 28.8842C26.9213 28.3463 26.8187 27.8628 26.7172 27.3793ZM23.9677 37C23.9162 37 23.8657 37 23.8147 37C23.6616 36.9462 23.5601 36.839 23.5096 36.6775C23.2546 35.9253 23.0505 35.1187 23 34.2588C23 34.0979 23 33.8825 23 33.7215C23 32.7539 23.153 31.7864 23.4581 30.8193C23.8147 29.6902 24.3238 28.6688 24.9864 27.8095C25.495 27.1106 26.1061 26.5727 26.7683 26.0892C26.9213 25.9815 27.0733 25.9815 27.1753 26.0354C27.3284 26.0892 27.4299 26.1969 27.4809 26.3579C27.7864 27.1106 27.9395 27.9166 27.9905 28.7765C28.041 29.9051 27.8885 31.088 27.5829 32.2166C27.2263 33.399 26.7172 34.4204 26.0041 35.3336C25.495 35.9786 24.9349 36.5165 24.3238 36.9462C24.1712 36.9462 24.0692 37 23.9677 37Z" fill="black"/>
<path d="M31.197 27.4146C31.0954 27.8432 30.9943 28.325 30.9943 28.8604C30.9435 29.878 31.0446 30.8951 31.3489 31.8591C31.6531 32.8768 32.1098 33.7872 32.7178 34.5902C33.0221 34.9652 33.3263 35.2866 33.6306 35.5543C33.7322 35.1256 33.8333 34.6439 33.8333 34.1622C33.8333 34.0012 33.8333 33.8408 33.8333 33.6799C33.8333 32.8232 33.6819 31.9664 33.4279 31.1097C33.1237 30.0921 32.6675 29.2353 32.1098 28.4323C31.9066 28.1109 31.5516 27.736 31.197 27.4146ZM33.9349 37C33.8333 37 33.7322 36.9464 33.6819 36.8927C33.0734 36.4646 32.5151 35.9292 32.0082 35.2866C31.2981 34.3762 30.7912 33.3585 30.4361 32.1805C30.0811 31.0561 29.9297 29.9311 30.0308 28.7531C30.081 27.8964 30.2334 27.0933 30.5382 26.3433C30.5885 26.1829 30.6896 26.0756 30.842 26.022C30.9943 25.9689 31.1462 26.022 31.2478 26.0756C31.9066 26.5043 32.4648 27.0933 33.0221 27.7896C33.6819 28.6463 34.1883 29.6634 34.5434 30.7884C34.8476 31.7519 35 32.7159 35 33.6799C35 33.8939 35 34.0549 35 34.2153C34.9492 35.072 34.7968 35.8756 34.4926 36.625C34.4418 36.7859 34.3407 36.8927 34.1883 36.9464C34.0364 37 33.9856 37 33.9349 37Z" fill="black"/>
<path d="M37.6666 27.3793C37.31 27.7018 37.0045 28.0243 36.699 28.454C36.0879 29.2067 35.6803 30.1204 35.3752 31.1418C35.1207 32.0012 34.9677 32.8616 34.9677 33.7215C34.9677 33.8825 34.9677 34.044 34.9677 34.205C35.0187 34.6885 35.0697 35.1726 35.1717 35.6028C35.4767 35.3336 35.8333 35.011 36.0879 34.6352C36.699 33.8292 37.1575 32.9154 37.4631 31.894C37.7681 30.8726 37.8701 29.8518 37.8196 28.8842C37.8701 28.3463 37.8196 27.8628 37.6666 27.3793ZM34.9677 37C34.9172 37 34.8662 37 34.8146 37C34.6626 36.9462 34.5606 36.839 34.5096 36.6775C34.2551 35.9253 34.0515 35.1187 34 34.2588C34 34.0979 34 33.8825 34 33.7215C34 32.7539 34.153 31.7864 34.4586 30.8193C34.8146 29.6902 35.3242 28.6688 35.9863 27.8095C36.4954 27.1106 37.1065 26.5727 37.7681 26.0892C37.9212 25.9815 38.0742 25.9815 38.1757 26.0354C38.3282 26.0892 38.4302 26.1969 38.4813 26.3579C38.7868 27.1106 38.9393 27.9166 38.9903 28.7765C39.0413 29.9051 38.8888 31.088 38.5828 32.2166C38.2267 33.399 37.7176 34.4204 37.0045 35.3336C36.4954 35.9786 35.9353 36.5165 35.3242 36.9462C35.1207 36.9462 35.0187 37 34.9677 37Z" fill="black"/>
<path d="M48.158 41H47.8427C47.5263 41 47.3165 40.7779 47.3165 40.444C47.3165 40.1112 47.5263 39.8886 47.8427 39.8886H48.158C48.6315 39.8886 49.0528 39.6665 49.4214 39.3326C49.7372 38.9998 49.9481 38.5 49.9481 37.9997C49.9481 36.944 49.1582 36.1108 48.158 36.1108H21.842C21.368 36.1108 20.9467 36.3335 20.5787 36.6663C20.2101 36.9996 20.0519 37.5 20.0519 37.9997C20.0519 39.0555 20.8418 39.8886 21.842 39.8886H22.1573C22.4731 39.8886 22.6835 40.1112 22.6835 40.444C22.6835 40.7779 22.4731 41 22.1573 41H21.842C20.2623 41 19 39.6665 19 37.9997C19 37.2217 19.3153 36.4442 19.8415 35.8888C20.3683 35.3334 21.1049 35 21.842 35H48.158C49.7372 35 51 36.3335 51 37.9997C51 38.7778 50.6847 39.5552 50.158 40.1112C49.6317 40.7217 48.8951 41 48.158 41Z" fill="black"/>
<path d="M24.5 23.0347C24.2409 23.0347 24.0347 23.2415 24.0347 23.5C24.0347 23.7586 24.2409 23.9658 24.5 23.9658C24.7585 23.9658 24.9653 23.7586 24.9653 23.5C24.9653 23.2415 24.7585 23.0347 24.5 23.0347ZM24.5 25C23.6725 25 23 24.3275 23 23.5C23 22.6725 23.6725 22 24.5 22C25.3269 22 26 22.6725 26 23.5C26 24.3275 25.3269 25 24.5 25Z" fill="black"/>
<path d="M44.5 23.086C44.2415 23.086 44.0347 23.2933 44.0347 23.5518C44.0347 23.8104 44.2415 24.0171 44.5 24.0171C44.7591 24.0171 44.9658 23.8104 44.9658 23.5518C44.9658 23.2933 44.7067 23.086 44.5 23.086ZM44.5 25C43.6725 25 43 24.3275 43 23.5C43 22.6725 43.6725 22 44.5 22C45.3275 22 46 22.6725 46 23.5C45.9482 24.3275 45.2762 25 44.5 25Z" fill="black"/>
<path d="M34.9994 20.1431C34.5427 20.1431 34.1431 20.5427 34.1431 21C34.1431 21.4574 34.5427 21.8569 34.9994 21.8569C35.4568 21.8569 35.8569 21.4574 35.8569 21C35.8569 20.5427 35.5146 20.1431 34.9994 20.1431ZM34.9994 23C33.9142 23 33 22.0853 33 21C33 19.9141 33.9142 19 34.9994 19C36.0853 19 37 19.9141 37 21C37 22.0853 36.1425 23 34.9994 23Z" fill="black"/>
<path d="M41.0805 51C40.7621 51 40.5499 50.7886 40.5499 50.4713C40.5499 50.1539 40.7621 49.942 41.0805 49.942C43.0443 49.942 44.7955 48.6202 45.2729 46.7161L46.7588 41.1104H22.2946L23.7805 46.7161C24.3111 48.6202 26.0096 49.942 27.9729 49.942C28.2913 49.942 28.5034 50.1539 28.5034 50.4713C28.5034 50.7886 28.2913 51 27.9729 51C25.5317 51 23.3563 49.3608 22.7194 46.981L21.0209 40.6877C20.9677 40.5287 21.0209 40.3703 21.1272 40.2119C21.233 40.1054 21.3924 40 21.5519 40H47.4488C47.6078 40 47.7667 40.053 47.8736 40.2119C47.9794 40.3173 48.032 40.5287 47.9794 40.6877L46.2808 46.981C45.6976 49.3608 43.5217 51 41.0805 51Z" fill="black"/>
<path d="M41.4866 44H23.5134C23.2052 44 23 43.8002 23 43.4998C23 43.2003 23.2052 43 23.5134 43H41.4866C41.7943 43 42 43.2003 42 43.4998C42 43.8002 41.7943 44 41.4866 44Z" fill="black"/>
<path d="M50.4685 51H22.532C22.2127 51 22 50.8002 22 50.5002C22 50.2003 22.2127 50 22.532 50H50.4685C50.7873 50 51 50.2003 51 50.5002C51 50.7501 50.734 51 50.4685 51Z" fill="black"/>
</svg>
