<svg width="85" height="85" viewBox="0 0 85 85" fill="none" xmlns="http://www.w3.org/2000/svg">
<path fill-rule="evenodd" clip-rule="evenodd" d="M83.2264 33.1367C83.9656 39.7378 80.6293 46.1653 77.2626 52.0024C74.0389 57.5915 68.6112 61.4438 64.1499 66.211C59.0641 71.6457 56.2296 79.8749 48.981 82.2237C41.7942 84.5524 33.7795 81.3065 26.9122 78.2771C20.7064 75.5396 17.0281 69.6372 11.5738 65.7223C6.18659 61.8556 -1.83488 60.8603 -5.13808 55.2727C-8.43658 49.6931 -4.50984 42.5908 -5.81365 36.3102C-7.40472 28.6458 -15.7886 21.9468 -13.6238 14.3957C-11.5499 7.16139 -2.58551 3.61694 4.51196 0.292509C10.8486 -2.67557 18.3581 -1.43398 25.008 -3.6993C32.3703 -6.20732 37.8274 -13.5677 45.6406 -13.7182C53.4344 -13.8683 61.4133 -10.04 66.5435 -4.49935C71.6018 0.963672 70.2692 9.3866 73.2407 16.0902C75.931 22.1595 82.4926 26.5845 83.2264 33.1367Z" fill="#1FA12E" fill-opacity="0.1"/>
<path d="M22.5003 42C23.34 42 24 42.66 24 43.5003C24 44.3406 23.34 45 22.5003 45C21.6606 45 21 44.3406 21 43.5003C21 42.66 21.6606 42 22.5003 42Z" fill="#FDE8F9"/>
<path d="M48.5 43C49.3395 43 50 43.66 50 44.4997C50 45.34 49.3395 46 48.5 46C47.6599 46 47 45.34 47 44.4997C47 43.66 47.6599 43 48.5 43Z" fill="#FDE8F9"/>
<path d="M44.4997 20C45.34 20 46 20.66 46 21.5003C46 22.34 45.34 23 44.4997 23C43.6594 23 43 22.34 43 21.5003C43 20.66 43.6594 20 44.4997 20Z" fill="#FDE8F9"/>
<path d="M41 42L39.4239 50L38.8645 48.8891C38.407 48.0003 38.1528 47.0558 38.051 46.0557L38 45.7223L41 42Z" fill="#6E9137"/>
<path d="M44 30L42.5006 37.0553L40.1662 38.1662C39.4443 38.6109 38.6668 39.2776 38 40C38.1664 38.7773 38.6111 37.5551 39.1666 36.6663L44 30Z" fill="#6E9137"/>
<path d="M31.7057 38.2584C33.3357 40.1308 34.1513 42.5129 33.9768 45.0086L33.8018 47.1639V50L32.1718 49.0363C30.7157 48.185 29.609 46.9372 29.0268 45.4058L20 23L31.7057 38.2584Z" fill="#6E9137"/>
<path d="M48 34L41.5016 41.4162L38.0757 45.3285L34 50V47.0804L36.2447 41.9415C36.5394 41.1243 37.13 40.248 37.839 39.4893C38.5479 38.73 39.3752 38.0292 40.1434 37.5624L42.6242 36.3943L48 34Z" fill="#8EC155"/>
<path d="M37.5539 41C37.4992 41 37.4992 41 37.4446 41C37.1719 40.9446 36.9534 40.6683 37.0086 40.392C37.2266 39.1206 37.6631 37.8492 38.2084 36.8542C38.2084 36.8542 38.2084 36.7988 38.2625 36.7988L43.0076 30.2215C43.1709 30 43.4436 29.9446 43.6621 30.0554C43.8801 30.1661 44.044 30.4424 43.9894 30.6634L42.5164 37.6837C42.4623 37.96 42.1897 38.1809 41.8624 38.1256C41.5898 38.0702 41.3713 37.7939 41.4259 37.4622L42.3531 32.9852L39.135 37.4074C38.6444 38.2911 38.2625 39.3969 38.0991 40.5028C38.0445 40.8344 37.7719 41 37.5539 41Z" fill="black"/>
<path d="M39.4052 51C39.1532 51 38.9638 50.8907 38.8381 50.7264L38.1446 49.6296C37.5768 48.6975 37.1985 47.7104 37.0728 46.669L37.0097 46.34C36.9465 46.0659 37.1985 45.7913 37.5768 45.7369C37.892 45.682 38.2071 45.9012 38.2703 46.2302L38.3335 46.5592C38.3966 47.3814 38.7118 48.2037 39.1532 48.9166L40.729 42.4468C40.7922 42.1727 41.1073 41.9536 41.4856 42.0085C41.8008 42.0629 42.0534 42.3375 41.9903 42.6665L40.0355 50.5617C39.9724 50.7808 39.7835 50.9456 39.5309 51C39.4684 51 39.4052 51 39.4052 51Z" fill="black"/>
<path d="M33.6111 51C33.4956 51 33.3214 50.9423 33.2058 50.8845C32.9742 50.6542 32.9155 50.3084 33.1472 50.0775L45.1449 36.2472L39.929 38.6678C39.2334 39.0713 38.4803 39.7052 37.8422 40.4545C37.1466 41.2033 36.6832 41.9526 36.3935 42.7013L34.1911 47.7729C34.075 48.061 33.7272 48.1758 33.4375 48.061C33.1472 47.9455 33.0316 47.6003 33.1472 47.3116L35.2921 42.2984C35.6399 41.4336 36.2193 40.5694 36.973 39.7052C37.7266 38.8981 38.5378 38.1488 39.4076 37.6881H39.4656L47.1742 34.0575C47.4059 33.9426 47.6956 33.9998 47.8698 34.2301C48.0434 34.461 48.0434 34.7491 47.8698 34.9795L34.075 50.7691C33.9589 50.9423 33.7853 51 33.6111 51Z" fill="black"/>
<path d="M22.687 27.1775L30.0393 45.5806C30.613 46.9916 31.5894 48.1769 32.911 48.911L33.6573 49.3628V47.556V47.5L33.83 45.3544C34.002 43.0403 33.2551 40.8387 31.7045 39.0885C31.7045 39.0885 31.7045 39.0885 31.7045 39.0319L22.687 27.1775ZM34.2316 50.9435C34.1171 50.9435 34.002 50.9434 33.9444 50.8869L32.3362 49.9272C30.8431 49.0241 29.6371 47.6691 28.9478 46.0319L20.0454 23.734C19.9298 23.4518 20.0454 23.1691 20.275 23.0566C20.5046 22.9435 20.8492 23 21.0213 23.2257L32.5658 38.411C34.2897 40.3869 35.1505 42.9272 34.9784 45.5241L34.8064 47.6691V50.4916C34.8064 50.7172 34.6913 50.8869 34.5193 51C34.4612 50.8869 34.3466 50.9435 34.2316 50.9435Z" fill="black"/>
<path d="M37.0887 35C36.865 35 36.6412 34.8816 36.5852 34.6455L31.044 19.8163C30.9319 19.5795 31.044 19.2842 31.2677 19.1072C31.4915 18.9296 31.7713 18.9888 31.9395 19.1664C31.9395 19.1664 33.9548 21.116 35.9134 23.4793C38.6004 26.7287 40 29.1506 40 30.7463C40 31.1008 39.7757 31.337 39.4398 31.337C39.104 31.337 38.8802 31.1008 38.8802 30.7463C38.8802 28.6783 35.5214 24.6015 33.0026 21.9428L37.5928 34.2318C37.7049 34.5271 37.5367 34.8816 37.2569 35C37.2569 35 37.1448 35 37.0887 35Z" fill="black"/>
<path d="M48.0003 44.1427C47.5429 44.1427 47.1427 44.5429 47.1427 44.9997C47.1427 45.4571 47.5429 45.8573 48.0003 45.8573C48.4577 45.8573 48.8573 45.4571 48.8573 44.9997C48.8573 44.5429 48.5144 44.1427 48.0003 44.1427ZM48.0003 47C46.9143 47 46 46.0857 46 44.9997C46 43.9143 46.9143 43 48.0003 43C49.0857 43 50 43.9143 50 44.9997C50 46.0857 49.1436 47 48.0003 47Z" fill="black"/>
<path d="M44 21.1425C43.5432 21.1425 43.1431 21.5426 43.1431 22C43.1431 22.4568 43.5432 22.8569 44 22.8569C44.4574 22.8569 44.8569 22.4568 44.8569 22C44.8569 21.4854 44.5146 21.1425 44 21.1425ZM44 24C42.9141 24 42 23.0853 42 22C42 20.9141 42.9141 20 44 20C45.0859 20 46 20.9141 46 22C46 23.0853 45.1431 24 44 24Z" fill="black"/>
<path d="M23 42.1431C22.5425 42.1431 22.1423 42.5426 22.1423 43C22.1423 43.4574 22.5425 43.8569 23 43.8569C23.4575 43.8569 23.8577 43.4574 23.8577 43C23.8577 42.5426 23.5142 42.1431 23 42.1431ZM23 45C21.9138 45 21 44.0853 21 43C21 41.9141 21.9138 41 23 41C24.0862 41 25 41.9141 25 43C25 44.0853 24.1428 45 23 45Z" fill="black"/>
<path d="M42.4239 51H26.5756C26.2304 51 26 50.7996 26 50.4995C26 50.1994 26.2304 50 26.5756 50H42.4239C42.7691 50 43 50.1994 43 50.4995C43 50.75 42.7691 51 42.4239 51Z" fill="black"/>
<path d="M27.4717 33C27.4233 33 27.3269 33 27.2785 32.9411C27.0369 32.8232 26.9406 32.4702 27.0369 32.1762C28.8735 27.7054 27.7133 24.118 27.617 23.8233C27.5206 23.5882 27.5686 23.3531 27.7133 23.1763C27.907 22.9412 28.197 22.9412 28.3902 23.1763C28.4387 23.2353 28.4866 23.2942 28.4866 23.3525C28.5355 23.5293 28.8734 24.5882 28.9703 26.1763C29.1151 28.353 28.7287 30.5881 27.8586 32.647C27.8102 32.8822 27.617 33 27.4717 33Z" fill="black"/>
<path d="M32.516 34C32.2526 34 31.9887 33.7751 31.9887 33.4376C31.8824 28.8245 28.187 23.9871 28.1341 23.9308C27.9231 23.7059 27.9765 23.312 28.187 23.1435C28.3986 22.9181 28.7678 22.9745 28.9264 23.1993C29.0851 23.4247 32.8857 28.3748 32.992 33.3812C33.0444 33.7751 32.8334 34 32.516 34Z" fill="black"/>
</svg>
