<svg width="20" height="20" viewBox="0 0 20 20" fill="none" xmlns="http://www.w3.org/2000/svg">
<path d="M14.9136 17.824C14.2614 17.824 13.707 17.5958 13.2505 17.1393C12.794 16.6827 12.5657 16.1284 12.5657 15.4762C12.5657 15.3849 12.5723 15.2902 12.5853 15.1921C12.5983 15.094 12.6179 15.0061 12.644 14.9284L7.12661 11.7197C6.90487 11.9153 6.65705 12.0687 6.38313 12.1799C6.10922 12.291 5.82226 12.3463 5.52226 12.3458C4.87009 12.3458 4.31574 12.1175 3.85922 11.661C3.4027 11.2045 3.17444 10.6501 3.17444 9.99796C3.17444 9.34578 3.4027 8.79144 3.85922 8.33492C4.31574 7.87839 4.87009 7.65013 5.52226 7.65013C5.82226 7.65013 6.10922 7.7057 6.38313 7.81683C6.65705 7.92796 6.90487 8.08109 7.12661 8.27622L12.644 5.06753C12.6179 4.98926 12.5983 4.90135 12.5853 4.80379C12.5723 4.70622 12.5657 4.61153 12.5657 4.5197C12.5657 3.86753 12.794 3.31318 13.2505 2.85666C13.707 2.40014 14.2614 2.17188 14.9136 2.17188C15.5657 2.17188 16.1201 2.40014 16.5766 2.85666C17.0331 3.31318 17.2614 3.86753 17.2614 4.5197C17.2614 5.17187 17.0331 5.72622 16.5766 6.18274C16.1201 6.63926 15.5657 6.86752 14.9136 6.86752C14.6136 6.86752 14.3266 6.81222 14.0527 6.70161C13.7788 6.591 13.531 6.43761 13.3092 6.24144L7.79183 9.45013C7.81792 9.52839 7.83748 9.61657 7.85052 9.71465C7.86357 9.81274 7.87009 9.90718 7.87009 9.99796C7.87009 10.0893 7.86357 10.184 7.85052 10.282C7.83748 10.3801 7.81792 10.468 7.79183 10.5458L13.3092 13.7545C13.531 13.5588 13.7788 13.4057 14.0527 13.2951C14.3266 13.1845 14.6136 13.1289 14.9136 13.1284C15.5657 13.1284 16.1201 13.3567 16.5766 13.8132C17.0331 14.2697 17.2614 14.824 17.2614 15.4762C17.2614 16.1284 17.0331 16.6827 16.5766 17.1393C16.1201 17.5958 15.5657 17.824 14.9136 17.824ZM14.9136 5.30231C15.1353 5.30231 15.3213 5.22718 15.4716 5.07692C15.6218 4.92666 15.6967 4.74092 15.6962 4.5197C15.6962 4.29796 15.621 4.11196 15.4708 3.9617C15.3205 3.81144 15.1348 3.73657 14.9136 3.73709C14.6918 3.73709 14.5058 3.81222 14.3556 3.96248C14.2053 4.11274 14.1304 4.29848 14.131 4.5197C14.131 4.74144 14.2061 4.92744 14.3563 5.0777C14.5066 5.22796 14.6923 5.30283 14.9136 5.30231ZM5.52226 10.7806C5.744 10.7806 5.93 10.7054 6.08026 10.5552C6.23052 10.4049 6.30539 10.2192 6.30487 9.99796C6.30487 9.77622 6.22974 9.59022 6.07948 9.43996C5.92922 9.2897 5.74348 9.21483 5.52226 9.21535C5.30052 9.21535 5.11453 9.29048 4.96426 9.44074C4.814 9.591 4.73913 9.77674 4.73966 9.99796C4.73966 10.2197 4.81479 10.4057 4.96505 10.556C5.11531 10.7062 5.30105 10.7811 5.52226 10.7806ZM14.9136 16.2588C15.1353 16.2588 15.3213 16.1837 15.4716 16.0334C15.6218 15.8832 15.6967 15.6974 15.6962 15.4762C15.6962 15.2545 15.621 15.0685 15.4708 14.9182C15.3205 14.768 15.1348 14.6931 14.9136 14.6936C14.6918 14.6936 14.5058 14.7687 14.3556 14.919C14.2053 15.0693 14.1304 15.255 14.131 15.4762C14.131 15.698 14.2061 15.884 14.3563 16.0342C14.5066 16.1845 14.6923 16.2593 14.9136 16.2588Z" fill="white"/>
</svg>
