<svg width="24" height="18" viewBox="0 0 24 18" fill="none" xmlns="http://www.w3.org/2000/svg">
<path d="M3.65214 9.13073V8.34812C3.65214 8.08725 3.39127 7.82638 3.1304 7.56551C2.86953 7.30465 2.60866 7.30465 2.34779 7.30465C2.08692 7.30465 1.82606 7.56551 1.56519 7.56551V8.34812C1.56519 8.60899 1.82606 8.86986 2.08692 9.13073C2.34779 9.3916 2.60866 9.3916 2.86953 9.3916C3.1304 9.3916 3.39127 9.13073 3.65214 9.13073Z" fill="#8EC155"/>
<path d="M7.82644 7.30419C7.82644 7.04332 7.56557 6.78245 7.3047 6.78245C7.04383 6.78245 6.78296 7.04332 6.78296 7.30419C6.78296 7.56506 7.04383 7.82593 7.3047 7.82593C7.56557 7.82593 7.82644 7.56506 7.82644 7.30419Z" fill="#8EC155"/>
<path d="M13.0433 8.34812V7.56551C12.7824 7.56551 12.5215 7.30465 12.2606 7.30465C11.9998 7.30465 11.7389 7.30465 11.478 7.56551C11.2172 7.82638 10.9563 8.08725 10.9563 8.34812V9.13073C11.2172 9.13073 11.478 9.3916 11.7389 9.3916C11.9998 9.3916 12.2606 9.3916 12.5215 9.13073C12.7824 8.86986 13.0433 8.60899 13.0433 8.34812Z" fill="#8EC155"/>
<path d="M19.8262 8.34812V7.56551C19.5653 7.56551 19.3045 7.30465 19.0436 7.30465C18.7827 7.30465 18.5219 7.30465 18.261 7.56551C18.0001 7.82638 17.7393 8.08725 17.7393 8.34812V9.13073C18.0001 9.13073 18.261 9.3916 18.5219 9.3916C18.7827 9.3916 19.0436 9.3916 19.3045 9.13073C19.5653 8.86986 19.8262 8.60899 19.8262 8.34812Z" fill="#8EC155"/>
<path d="M5.2171 2.08713C5.2171 1.30452 4.4345 0.521909 3.65189 0.521909C2.86928 0.521909 2.08667 1.30452 2.08667 2.08713H2.34754L2.60841 2.348L2.86928 2.60887H3.13015V2.86974H3.39102V3.1306V3.39147L3.65189 3.65234C3.91276 2.86974 4.4345 2.348 5.2171 2.08713Z" fill="#FDE8F9"/>
<path d="M12.0001 2.08713C12.0001 1.30452 11.2175 0.521909 10.4348 0.521909C9.65224 0.521909 8.86963 1.30452 8.86963 2.08713H9.1305L9.39137 2.348L9.65224 2.60887H9.91311V2.86974H10.174V3.1306V3.39147L10.4348 3.65234C10.6957 2.86974 11.2175 2.348 12.0001 2.08713Z" fill="#FDE8F9"/>
<path d="M19.0438 2.08713C19.0438 1.30452 18.2612 0.521909 17.4785 0.521909C16.6959 0.521909 15.9133 1.04365 15.9133 2.08713C16.1742 2.08713 16.1742 2.348 16.1742 2.348H16.4351V2.60887H16.6959V2.86974H16.9568V3.1306H17.2177V3.39147L17.4785 3.65234C17.7394 2.86974 18.2612 2.348 19.0438 2.08713Z" fill="#FDE8F9"/>
<path d="M6.78229 4.43466V2.08683H5.47794C4.69533 2.3477 4.17359 2.86944 3.65186 3.65205C3.91273 3.91292 3.91273 4.43466 3.91273 4.95639V5.21726V6.26074H4.69533C5.99968 6.26074 6.78229 5.47813 6.78229 4.43466Z" fill="#F37D79"/>
<path d="M10.9564 6.26074V5.21726C10.9564 4.69552 10.9564 4.17379 10.6955 3.91292V3.65205H10.4346V3.39118V3.13031H10.1738V2.86944H9.91288L9.65201 2.60857V2.3477H9.39115C9.13028 2.08683 8.86941 2.08683 8.60854 2.08683H7.82593V4.17379C7.82593 5.21726 8.60854 6.26074 9.65201 6.26074H10.9564Z" fill="#F37D79"/>
<path d="M17.7393 6.26074V5.21726C17.7393 4.69552 17.4785 4.17379 17.2176 3.65205V3.39118V3.13031H16.9567V2.86944H16.6958V2.60857H16.435V2.3477H16.1741C15.9132 2.08683 15.6524 2.08683 15.3915 2.08683H14.6089V4.17379C14.6089 5.21726 15.3915 6.26074 16.435 6.26074H17.7393Z" fill="#F37D79"/>
<path d="M20.3475 4.43466V2.08683H19.0431C18.2605 2.3477 17.7388 2.86944 17.217 3.65205C17.4779 3.91292 17.4779 4.43466 17.4779 4.95639V5.21726V6.26074H18.2605C19.5649 6.26074 20.3475 5.47813 20.3475 4.43466Z" fill="#FF99A7"/>
<path d="M3.91339 6.26074V5.21726C3.91339 4.69552 3.91339 4.17379 3.65252 3.91292V3.65205H3.39165V3.39118V3.13031H3.13078V2.86944H2.86992L2.60905 2.60857V2.3477H2.34818C2.08731 2.08683 1.82644 2.08683 1.56557 2.08683H0.782959V4.17379C0.782959 5.21726 1.56557 6.26074 2.60905 6.26074H3.91339Z" fill="#FF99A7"/>
<path d="M21.1303 12.522V9.39154H17.9999H10.9564H3.91292H0.260742V12.522H21.1303Z" fill="#A88D68"/>
<path d="M16.9562 17.7393L18.7823 12.5219H2.08667L3.91276 17.7393H16.9562Z" fill="#D1BB93"/>
<path d="M13.5652 4.43466V2.08683H12.2609C11.4783 2.3477 10.9566 2.86944 10.4348 3.65205C10.6957 3.91292 10.6957 4.43466 10.6957 4.95639V5.21726V6.26074H11.4783C12.7826 6.26074 13.5652 5.47813 13.5652 4.43466Z" fill="#FF99A7"/>
<path d="M17.217 9.39135C17.217 9.65222 17.4779 9.91309 17.7388 9.91309C17.9996 9.91309 18.2605 9.65222 18.2605 9.39135V4.17396C18.2605 3.91309 17.9996 3.65222 17.7388 3.65222C17.4779 3.65222 17.217 3.91309 17.217 4.17396V9.39135Z" fill="black"/>
<path d="M17.4779 9.39147C17.7388 9.39147 17.9996 9.65234 18.2605 9.65234C18.7823 9.65234 19.304 9.39147 19.5649 9.1306C19.8257 8.86974 19.8257 8.60887 20.0866 8.08713C20.0866 7.82626 20.3475 7.30452 20.3475 7.04365C20.3475 6.78278 20.3475 6.78278 20.0866 6.78278C19.8257 6.78278 19.304 6.52191 19.0431 6.52191C18.7823 6.52191 18.2605 6.78278 17.9996 7.04365C17.7388 7.30452 17.7388 7.56539 17.4779 8.08713C17.4779 8.348 17.217 8.86974 17.217 9.1306C17.217 9.39147 17.217 9.39147 17.4779 9.39147Z" fill="black"/>
<path d="M17.4779 6.52197H18.2605C19.5649 6.52197 20.3475 5.47849 20.3475 4.17415V1.82632C20.3475 1.56545 20.3475 1.30458 20.0866 1.30458H19.5649C19.304 1.30458 19.0431 1.04371 18.7823 1.30458C18.5214 1.30458 18.7823 1.56545 18.7823 1.82632C18.7823 2.08719 18.7823 2.08719 19.0431 2.08719H19.5649V4.43502C19.5649 5.21762 19.0431 5.73936 18.2605 5.73936H17.4779C17.217 5.73936 17.217 6.00023 17.217 6.2611C17.217 6.52197 17.217 6.52197 17.4779 6.52197Z" fill="black"/>
<path d="M16.4351 2.86963H16.6959C16.6959 2.86963 16.9568 2.86963 16.9568 2.60876C16.9568 2.34789 16.9568 2.34789 16.6959 2.08702V1.82615C16.4351 1.56528 15.9133 1.82615 15.9133 2.08702C15.9133 2.34789 15.9133 2.34789 16.1742 2.60876L16.4351 2.86963Z" fill="black"/>
<path d="M16.4346 2.8695L16.6955 3.13037C16.9563 3.13037 16.9563 2.8695 17.2172 2.8695C17.4781 2.60863 17.2172 2.60863 16.9563 2.34776V2.08689C16.6955 1.82602 16.4346 2.08689 16.1737 2.34776C15.9129 2.60863 16.1737 2.60863 16.4346 2.8695Z" fill="black"/>
<path d="M16.435 3.13073L16.9568 3.3916C17.2176 3.3916 17.4785 2.86986 17.2176 2.60899H16.9568V2.34812C16.6959 2.08725 16.435 2.08725 16.1742 2.34812C15.9133 2.60899 15.9133 2.86986 16.1742 3.13073H16.435Z" fill="black"/>
<path d="M16.6953 3.13073C16.6953 3.3916 16.6953 3.3916 16.9562 3.3916H17.2171C17.4779 3.13073 17.7388 2.86986 17.4779 2.60899H17.2171C16.9562 2.34812 16.9562 2.08725 16.6953 2.34812C16.4345 2.60899 16.1736 2.86986 16.4345 3.13073H16.6953Z" fill="black"/>
<path d="M16.6953 3.13073C16.6953 3.3916 16.6953 3.3916 16.9562 3.3916H17.2171C17.4779 3.13073 17.7388 2.86986 17.4779 2.60899H17.2171C16.9562 2.34812 16.9562 2.08725 16.6953 2.34812C16.4345 2.60899 16.1736 2.86986 16.4345 3.13073H16.6953Z" fill="black"/>
<path d="M16.9564 3.65222C16.9564 3.91309 16.9564 3.91309 17.2173 3.91309H17.4782C17.739 3.91309 17.739 3.65222 17.739 3.39135V3.13048H17.4782C17.4782 2.86961 17.2173 2.86961 16.9564 2.86961C16.6956 2.86961 16.6956 3.13048 16.6956 3.39135H16.9564V3.65222Z" fill="black"/>
<path d="M16.6954 6.52197H17.9997C18.2606 6.52197 18.2606 6.52197 18.2606 6.2611V4.95676C18.2606 4.43502 18.2606 3.91328 17.9997 3.39154V3.13067C17.9997 2.8698 17.7388 3.13067 17.478 3.13067C17.2171 3.13067 17.2171 3.39154 17.2171 3.65241C17.478 4.17415 17.478 4.43502 17.478 4.95676V5.73936H16.6954C15.6519 5.73936 14.8693 5.21762 14.8693 4.17415V2.08719H15.391C15.6519 2.08719 15.6519 2.34806 15.9128 2.34806C16.1736 2.34806 16.4345 2.34806 16.4345 2.08719C16.4345 1.82632 16.6954 1.56545 16.4345 1.56545C16.1736 1.30458 15.6519 1.30458 15.391 1.30458H14.8693H14.3475H14.0867V1.56545V3.91328C14.0867 5.21762 15.391 6.52197 16.6954 6.52197Z" fill="black"/>
<path d="M16.9563 3.9132C16.9563 4.17407 16.9563 4.17407 17.2172 4.17407C17.4781 4.17407 17.4781 3.9132 17.7389 3.9132C17.9998 3.13059 18.5215 2.86972 19.3042 2.60885C19.565 2.60885 19.565 2.34799 19.565 2.08712C19.565 1.04364 18.5215 0.000159264 17.4781 0.000159264C16.4346 0.000159264 15.3911 1.04364 15.3911 2.08712C15.3911 2.34799 15.3911 2.34799 15.652 2.34799C15.9129 2.34799 15.9129 2.60885 15.9129 2.60885L16.1737 2.86972H16.4346V3.13059H16.6955V3.39146L16.9563 3.65233V3.9132Z" fill="black"/>
<path d="M10.4348 9.39135C10.4348 9.65222 10.6957 9.91309 10.9566 9.91309C11.2174 9.91309 11.4783 9.65222 11.4783 9.39135V4.17396C11.4783 3.91309 11.2174 3.65222 10.9566 3.65222C10.6957 3.65222 10.4348 3.91309 10.4348 4.17396V9.39135Z" fill="black"/>
<path d="M10.6957 9.39147C10.9566 9.39147 11.2174 9.65234 11.4783 9.65234C12 9.65234 12.5218 9.39147 12.7826 9.1306C13.0435 8.86974 13.0435 8.60887 13.3044 8.08713C13.3044 7.82626 13.5652 7.30452 13.5652 7.04365C13.5652 6.78278 13.5652 6.78278 13.3044 6.78278C13.0435 6.78278 12.5218 6.52191 12.2609 6.52191C12 6.52191 11.4783 6.78278 11.2174 7.04365C10.9566 7.30452 10.9566 7.56539 10.6957 8.08713C10.6957 8.348 10.4348 8.86974 10.4348 9.1306C10.4348 9.39147 10.4348 9.39147 10.6957 9.39147Z" fill="black"/>
<path d="M10.6957 6.52197H11.4783C12.7826 6.52197 13.5652 5.47849 13.5652 4.17415V1.82632C13.5652 1.56545 13.5652 1.30458 13.3044 1.30458H12.7826C12.5218 1.30458 12.2609 1.04371 12 1.30458C11.7392 1.30458 12 1.56545 12 1.82632C12 2.08719 12 2.08719 12.2609 2.08719H12.7826V4.43502C12.7826 5.21762 12.2609 5.73936 11.4783 5.73936H10.6957C10.4348 5.73936 10.4348 6.00023 10.4348 6.2611C10.4348 6.52197 10.4348 6.52197 10.6957 6.52197Z" fill="black"/>
<path d="M9.39124 2.86963H9.65211L10.1738 2.60876C10.4347 2.34789 10.1738 2.34789 9.91298 2.08702V1.82615H9.65211C9.39124 1.56528 9.13037 1.82615 9.13037 2.08702C9.13037 2.34789 9.13037 2.34789 9.39124 2.60876V2.86963Z" fill="black"/>
<path d="M9.65195 2.8695C9.65195 2.8695 9.65195 3.13037 9.91282 3.13037C10.1737 3.13037 10.1737 2.8695 10.1737 2.8695C10.4346 2.60863 10.4346 2.60863 10.1737 2.34776C9.91282 2.08689 9.91282 2.08689 9.65195 2.34776C9.39108 2.60863 9.39108 2.60863 9.65195 2.8695Z" fill="black"/>
<path d="M9.91311 3.13073C9.91311 3.3916 9.91311 3.3916 10.174 3.3916H10.4349C10.6957 3.13073 10.9566 2.86986 10.6957 2.60899H10.4349C10.174 2.34812 10.174 2.08725 9.91311 2.34812C9.65225 2.60899 9.39138 2.86986 9.65225 3.13073H9.91311Z" fill="black"/>
<path d="M9.91311 3.13073C9.91311 3.3916 9.91311 3.3916 10.174 3.3916H10.4349C10.6957 3.13073 10.9566 2.86986 10.6957 2.60899H10.4349C10.174 2.34812 10.174 2.08725 9.91311 2.34812C9.65225 2.60899 9.39138 2.86986 9.65225 3.13073H9.91311Z" fill="black"/>
<path d="M10.1739 3.39147C10.1739 3.39147 10.1739 3.65234 10.4347 3.65234H10.6956C10.9565 3.39147 11.2173 3.1306 10.9565 2.86974H10.6956C10.4347 2.60887 10.4347 2.348 10.1739 2.60887C9.91299 2.86974 9.65212 3.1306 9.91299 3.39147H10.1739Z" fill="black"/>
<path d="M10.1742 3.65222C10.1742 3.65222 10.1742 3.91309 10.4351 3.91309H10.6959C10.9568 3.91309 10.9568 3.65222 10.9568 3.39135L10.6959 3.13048C10.6959 2.86961 10.4351 2.86961 10.1742 2.86961C9.91333 2.86961 9.91333 3.13048 9.91333 3.39135V3.65222H10.1742Z" fill="black"/>
<path d="M9.91314 6.52197H11.2175C11.4784 6.52197 11.4784 6.52197 11.4784 6.2611V4.95676C11.4784 4.43502 11.4784 3.91328 11.2175 3.39154V3.13067C11.2175 2.8698 10.9566 3.13067 10.6957 3.13067C10.4349 3.13067 10.4349 3.39154 10.4349 3.65241C10.6957 4.17415 10.6957 4.43502 10.6957 4.95676V5.73936H9.91314C8.86966 5.73936 8.08705 4.95676 8.08705 3.91328V2.08719H8.60879C8.86966 2.08719 8.86966 2.34806 9.13053 2.34806C9.3914 2.34806 9.65227 2.34806 9.65227 2.08719C9.65227 1.82632 9.91314 1.56545 9.65227 1.56545C9.3914 1.30458 8.86966 1.30458 8.60879 1.30458H8.08705H7.56531C7.30444 1.30458 7.30444 1.30458 7.30444 1.56545V3.91328C7.30444 5.21762 8.60879 6.52197 9.91314 6.52197Z" fill="black"/>
<path d="M10.1741 3.9132C10.1741 4.17407 10.435 4.17407 10.6958 4.17407C10.9567 4.17407 10.6958 4.17407 10.9567 3.9132C11.2176 3.13059 11.7393 2.60885 12.5219 2.34799C12.7828 2.34799 12.7828 2.34799 12.7828 2.08712C12.7828 1.04364 11.7393 0.000159264 10.6958 0.000159264C9.65236 0.000159264 8.60889 1.04364 8.60889 2.08712C8.60889 2.34799 8.60889 2.34799 8.86976 2.34799L9.13063 2.60885H9.3915L9.65236 2.86972V3.13059H9.91323V3.39146L10.1741 3.65233V3.9132Z" fill="black"/>
<path d="M3.39111 9.39135C3.39111 9.65222 3.65198 9.91309 3.91285 9.91309C4.17372 9.91309 4.43459 9.65222 4.43459 9.39135V4.17396C4.43459 3.91309 4.17372 3.65222 3.91285 3.65222C3.65198 3.65222 3.39111 3.91309 3.39111 4.17396V9.39135Z" fill="black"/>
<path d="M1.82631 9.1306C2.08718 9.39147 2.60892 9.65234 3.13066 9.65234C3.39153 9.65234 3.6524 9.39147 3.91327 9.39147C4.17414 9.39147 4.17414 9.39147 4.17414 9.1306C4.17414 8.86974 3.91327 8.348 3.91327 8.08713C3.6524 7.56539 3.6524 7.30452 3.39153 7.04365C3.13066 6.78278 2.86979 6.52191 2.34805 6.52191C2.08718 6.52191 1.56544 6.78278 1.30457 6.78278C1.0437 6.78278 1.0437 6.78278 1.0437 7.04365C1.0437 7.30452 1.30457 7.82626 1.30457 8.08713C1.56544 8.60887 1.56544 8.86974 1.82631 9.1306Z" fill="black"/>
<path d="M3.91273 6.52197H4.69533C5.99968 6.52197 6.78229 5.47849 6.78229 4.17415V1.82632C6.78229 1.56545 6.78229 1.30458 6.52142 1.30458H5.99968C5.73881 1.30458 5.47794 1.04371 5.21707 1.30458C4.9562 1.30458 5.21707 1.56545 5.21707 1.82632C5.21707 2.08719 5.21707 2.08719 5.47794 2.08719H5.99968V4.43502C5.99968 5.21762 5.47794 5.73936 4.69533 5.73936H3.91273C3.65186 5.73936 3.65186 6.00023 3.65186 6.2611C3.65186 6.52197 3.65186 6.52197 3.91273 6.52197Z" fill="black"/>
<path d="M2.34754 2.86963H2.60841L3.13015 2.60876C3.39102 2.34789 3.13015 2.34789 2.86928 2.08702V1.82615H2.60841C2.34754 1.56528 2.08667 1.82615 2.08667 2.08702C2.08667 2.34789 2.08667 2.34789 2.34754 2.60876V2.86963Z" fill="black"/>
<path d="M2.86972 2.8695C2.86972 2.8695 2.86972 3.13037 3.13059 3.13037C3.39146 3.13037 3.39146 2.8695 3.39146 2.8695C3.65233 2.60863 3.65233 2.60863 3.39146 2.34776C3.13059 2.08689 3.13059 2.08689 2.86972 2.34776C2.60885 2.60863 2.60885 2.60863 2.86972 2.8695Z" fill="black"/>
<path d="M3.13016 3.13073C3.13016 3.3916 3.13016 3.3916 3.39103 3.3916H3.65189C3.91276 3.13073 4.17363 2.86986 3.91276 2.60899H3.65189C3.39103 2.34812 3.39103 2.08725 3.13016 2.34812C2.86929 2.60899 2.60842 2.86986 2.86929 3.13073H3.13016Z" fill="black"/>
<path d="M3.13016 3.13073C3.13016 3.3916 3.13016 3.3916 3.39103 3.3916H3.65189C3.91276 3.13073 4.17363 2.86986 3.91276 2.60899H3.65189C3.39103 2.34812 3.39103 2.08725 3.13016 2.34812C2.86929 2.60899 2.60842 2.86986 2.86929 3.13073H3.13016Z" fill="black"/>
<path d="M3.13016 3.39147C3.13016 3.39147 3.13016 3.65234 3.39103 3.65234H3.65189C3.91276 3.39147 4.17363 3.1306 3.91276 2.86974H3.65189C3.39103 2.60887 3.39103 2.348 3.13016 2.60887C2.86929 2.86974 2.60842 3.1306 2.86929 3.39147H3.13016Z" fill="black"/>
<path d="M3.39124 3.65222C3.39124 3.65222 3.39124 3.91309 3.65211 3.91309H3.91298C4.17385 3.91309 4.17385 3.65222 4.17385 3.39135L3.91298 3.13048C3.91298 2.86961 3.65211 2.86961 3.39124 2.86961C3.13037 2.86961 3.13037 3.13048 3.13037 3.39135V3.65222H3.39124Z" fill="black"/>
<path d="M3.13018 6.52197H4.43453C4.6954 6.52197 4.6954 6.52197 4.6954 6.2611V4.95676C4.6954 4.43502 4.6954 3.91328 4.43453 3.39154V3.13067C4.43453 2.8698 4.17366 3.13067 3.91279 3.13067C3.65192 3.13067 3.65192 3.39154 3.65192 3.65241C3.91279 4.17415 3.91279 4.43502 3.91279 4.95676V5.73936H3.13018C2.0867 5.73936 1.30409 4.95676 1.30409 3.91328V2.08719H1.82583C2.0867 2.08719 2.0867 2.34806 2.34757 2.34806C2.60844 2.34806 2.86931 2.34806 2.86931 2.08719C2.86931 1.82632 3.13018 1.56545 2.86931 1.56545C2.60844 1.30458 2.0867 1.30458 1.82583 1.30458H1.30409H0.782354C0.521484 1.30458 0.521484 1.30458 0.521484 1.56545V3.91328C0.521484 5.21762 1.82583 6.52197 3.13018 6.52197Z" fill="black"/>
<path d="M3.39115 3.9132C3.39115 4.17407 3.65201 4.17407 3.91288 4.17407C4.17375 4.17407 3.91288 4.17407 4.17375 3.9132C4.43462 3.13059 4.95636 2.60885 5.73897 2.34799C5.99984 2.34799 5.99984 2.34799 5.99984 2.08712C5.99984 1.04364 4.95636 0.000159264 3.91288 0.000159264C2.86941 0.000159264 1.82593 1.04364 1.82593 2.08712C1.82593 2.34799 1.82593 2.34799 2.0868 2.34799L2.34767 2.60885H2.60854L2.86941 2.86972V3.13059H3.13028V3.39146L3.39115 3.65233V3.9132Z" fill="black"/>
<path d="M21.6522 12.7827H23.4783C23.7391 12.7827 24 12.7827 24 12.5218V8.86967C24 8.6088 23.7391 8.6088 23.4783 8.6088H0.521739C0.26087 8.6088 0 8.6088 0 8.86967V12.5218C0 12.7827 0.26087 12.7827 0.521739 12.7827H2.34783C2.6087 12.7827 2.86957 12.7827 2.86957 12.5218C2.86957 12.261 2.6087 12.0001 2.34783 12.0001H0.782609V9.39141H23.2174V12.0001H21.6522C21.3913 12.0001 21.1304 12.261 21.1304 12.5218C21.1304 12.7827 21.3913 12.7827 21.6522 12.7827Z" fill="black"/>
<path d="M6.52148 7.04344C6.52148 7.56517 7.04322 8.08691 7.56496 8.08691C8.0867 8.08691 8.60844 7.56517 8.60844 7.04344C8.60844 6.5217 8.0867 5.99996 7.56496 5.99996C7.04322 5.99996 6.52148 6.5217 6.52148 7.04344Z" fill="black"/>
<path d="M3.91288 18H18.5216C18.7824 18 18.7824 18 18.7824 17.7391L20.6085 12.2609V12L20.3477 11.7391H2.0868L1.82593 12V12.2609L3.65201 17.7391C3.65201 18 3.65201 18 3.91288 18Z" fill="black"/>
<path d="M3.13063 14.6084H21.9132C22.1741 14.6084 22.435 14.3475 22.435 14.0867C22.435 13.8258 22.1741 13.5649 21.9132 13.5649H3.13063C2.86976 13.5649 2.60889 13.8258 2.60889 14.0867C2.60889 14.3475 2.86976 14.6084 3.13063 14.6084Z" fill="black"/>
</svg>
