<svg width="85" height="85" viewBox="0 0 85 85" fill="none" xmlns="http://www.w3.org/2000/svg">
<path fill-rule="evenodd" clip-rule="evenodd" d="M83.2264 33.1367C83.9656 39.7378 80.6293 46.1653 77.2626 52.0024C74.0389 57.5915 68.6112 61.4438 64.1499 66.211C59.0641 71.6457 56.2296 79.8749 48.981 82.2237C41.7942 84.5524 33.7795 81.3065 26.9122 78.2771C20.7064 75.5396 17.0281 69.6372 11.5738 65.7223C6.18659 61.8556 -1.83488 60.8603 -5.13808 55.2727C-8.43658 49.6931 -4.50984 42.5908 -5.81365 36.3102C-7.40472 28.6458 -15.7886 21.9468 -13.6238 14.3957C-11.5499 7.16139 -2.58551 3.61694 4.51196 0.292509C10.8486 -2.67557 18.3581 -1.43398 25.008 -3.6993C32.3703 -6.20732 37.8274 -13.5677 45.6406 -13.7182C53.4344 -13.8683 61.4133 -10.04 66.5435 -4.49935C71.6018 0.963672 70.2692 9.3866 73.2407 16.0902C75.931 22.1595 82.4926 26.5845 83.2264 33.1367Z" fill="#1FA12E" fill-opacity="0.1"/>
<path d="M46.5003 37C47.34 37 48 37.66 48 38.5003C48 39.34 47.34 40 46.5003 40C45.6606 40 45 39.34 45 38.5003C45 37.66 45.6606 37 46.5003 37Z" fill="#FDE8F9"/>
<path d="M22.5003 43C23.34 43 24 43.66 24 44.5003C24 45.34 23.34 46 22.5003 46C21.66 46 21 45.34 21 44.5003C21 43.66 21.66 43 22.5003 43Z" fill="#FDE8F9"/>
<path d="M36.2724 40L37 51H30L30.7282 40.8018C31.3997 41.3752 32.24 41.7184 33.192 41.7184C34.4245 41.6616 35.6003 40.974 36.2724 40Z" fill="#B79C79"/>
<path d="M46 30.2846C46 31.495 45.2219 32.4846 44.1667 32.8697C44.4444 33.31 44.6114 33.8599 44.6114 34.4097C44.6114 35.9497 43.3887 37.1602 41.8337 37.1602C41.778 37.1602 41.778 37.1602 41.7224 37.1602C41.389 38.3696 40.3332 39.2501 39.0559 39.2501C38.4999 39.2501 38.0553 39.0848 37.6111 38.8649C37.4998 39.4143 37.2777 39.9647 36.9449 40.4049C36.2782 41.3945 35.1117 42 33.8333 42C32.8888 42 32.0556 41.6694 31.3889 41.1195C30.7221 40.5702 30.2218 39.7999 30.0559 38.9195C29.555 39.525 28.7775 39.9101 27.8887 39.9101C26.3332 39.9101 25.111 38.6996 25.111 37.1602C25.111 36.3348 25.5 35.5651 26.0554 35.0698C25.9447 35.0698 25.8885 35.0698 25.7778 35.0698C24.2222 35.0698 23 33.8599 23 32.3199C23 31.3298 23.5554 30.4499 24.3335 29.9551C23.9444 29.4597 23.6668 28.8548 23.6668 28.1947C23.6668 26.6547 24.8889 25.4448 26.4445 25.4448C26.7773 25.4448 27.0556 25.4999 27.3333 25.6101C27.222 25.2249 27.1669 24.8398 27.1669 24.4552C27.1669 22.3653 28.8889 20.6601 31.0004 20.6601C32 20.6601 32.9444 21.0452 33.6112 21.7053C34.0002 20.7146 34.9998 20 36.1669 20C37.7224 20 38.9446 21.2094 38.9446 22.7499C38.9446 22.805 38.9446 22.8601 38.9446 22.9147C39.278 22.805 39.6114 22.7499 40.0004 22.7499C41.7224 22.7499 43.1109 24.1246 43.1109 25.8299C43.1109 26.49 42.8889 27.0944 42.5555 27.5903C42.7225 27.5346 42.9445 27.5346 43.1109 27.5346C44.7222 27.5346 46 28.7997 46 30.2846Z" fill="#8EC155"/>
<path d="M37.3973 51H30.5478C30.3837 51 30.2739 50.943 30.1647 50.8297C30.0543 50.7157 30 50.5448 30 50.3744L30.712 40.2517C30.712 39.9098 30.9859 39.6825 31.3152 39.7401C31.6435 39.7401 31.863 40.0243 31.8082 40.365L31.1505 49.9198H36.8489L36.1913 39.6255C36.1913 39.2848 36.4109 39.0575 36.6853 39C37.0136 39 37.2326 39.2273 37.2875 39.5122L38 50.4314C38 50.6018 37.9451 50.7157 37.8359 50.8297C37.6712 50.943 37.5614 51 37.3973 51Z" fill="black"/>
<path d="M29.5006 37.8378C29.5557 37.8378 29.6114 37.8378 29.6114 37.8378C29.8334 37.8926 30.0004 38.0572 30.0004 38.2761C30.1668 38.9882 30.5558 39.6997 31.1118 40.1381C31.6667 40.6307 32.4442 40.8496 33.1666 40.8496C34.2224 40.8496 35.2219 40.357 35.8336 39.4808C36.1113 39.0974 36.2782 38.659 36.3895 38.1664C36.4446 38.0024 36.5554 37.8378 36.7224 37.7835C36.8893 37.7281 37.1114 37.7281 37.2221 37.8378C37.556 38.0572 37.9445 38.1664 38.3892 38.1664C39.3893 38.1664 40.2776 37.5092 40.5558 36.5239C40.6115 36.2501 40.8336 36.0856 41.1113 36.0856H41.1669H41.2226C42.4448 36.0856 43.4443 35.0997 43.4443 33.895C43.4443 33.4567 43.3336 33.0189 43.0553 32.6903C42.9446 32.5257 42.9446 32.3617 43.0002 32.1976C43.0553 32.0331 43.1666 31.9239 43.3336 31.869C44.2224 31.5404 44.8335 30.7186 44.8335 29.7876C44.8335 28.5829 43.8333 27.5976 42.6117 27.5976C42.4448 27.5976 42.3335 27.5976 42.1671 27.652C41.945 27.7068 41.7224 27.5976 41.6111 27.4331C41.5003 27.2685 41.5003 26.9953 41.6111 26.8307C41.8888 26.3924 42.0557 25.8997 42.0557 25.3522C42.0557 23.9281 40.8892 22.8331 39.5001 22.8331C39.2224 22.8331 38.889 22.8879 38.6113 22.9971C38.4443 23.0525 38.2222 23.0525 38.1115 22.9428C37.9445 22.8331 37.8889 22.669 37.8889 22.4496C37.8889 22.3953 37.8889 22.3404 37.8889 22.2856C37.8889 21.0808 36.8893 20.095 35.6666 20.095C34.7778 20.095 33.9446 20.6425 33.6113 21.4643C33.5556 21.6283 33.3886 21.7381 33.2228 21.7924C33.0558 21.8472 32.8337 21.7924 32.7219 21.6283C32.1114 21.0808 31.3339 20.7517 30.5002 20.7517C28.7225 20.7517 27.2226 22.1758 27.2226 23.9835C27.2226 24.3115 27.2778 24.6407 27.3891 24.9688C27.4447 25.1876 27.3891 25.4071 27.2778 25.5163C27.1113 25.6808 26.8887 25.7352 26.7223 25.626C26.5002 25.5711 26.2782 25.5163 25.9999 25.5163C24.7777 25.5163 23.7782 26.5021 23.7782 27.7068C23.7782 28.1995 23.9446 28.7475 24.278 29.1304C24.3887 29.2401 24.4449 29.4047 24.3887 29.5688C24.3887 29.7333 24.2779 29.843 24.111 29.9522C23.4442 30.3357 23.0552 31.0472 23.0552 31.8142C23.0552 33.0189 24.0559 34.0047 25.2781 34.0047C25.3332 34.0047 25.3894 34.0047 25.5001 34.0047C25.7222 34.0047 25.9448 34.1139 26.0561 34.3328C26.1669 34.5522 26.1112 34.8265 25.8892 34.9357C25.3894 35.3735 25.1111 35.9764 25.1111 36.5782C25.1111 37.7835 26.1112 38.7688 27.3334 38.7688C28.0001 38.7688 28.6112 38.495 29.0559 37.9475C29.2223 37.8927 29.3893 37.8378 29.5006 37.8378ZM33.2779 42C32.2783 42 31.2777 41.6714 30.5002 41.0142C29.9442 40.5758 29.5557 40.0289 29.278 39.3717C28.7225 39.7546 28.0558 39.9186 27.3891 39.9186C25.5558 39.9186 24.0559 38.4407 24.0559 36.6336C24.0559 36.0856 24.2228 35.5381 24.5 35.0454C23.0552 34.6619 22 33.4018 22 31.869C22 30.8832 22.389 30.0065 23.1114 29.4047C22.8337 28.9115 22.6667 28.364 22.6667 27.7617C22.6667 25.9546 24.1667 24.4761 25.9999 24.4761C26.0561 24.4761 26.1112 24.4761 26.1669 24.4761C26.1669 24.3115 26.1669 24.147 26.1669 23.9835C26.1669 21.6283 28.1109 19.6572 30.5558 19.6572C31.4446 19.6572 32.2783 19.931 33.0002 20.4236C33.6113 19.5475 34.6114 19 35.7779 19C37.4447 19 38.8333 20.2047 39.056 21.7924C39.2224 21.7924 39.3893 21.7381 39.5557 21.7381C41.6111 21.7381 43.2223 23.3806 43.2223 25.3522C43.2223 25.7351 43.1666 26.1735 43.0002 26.5569C44.6665 26.7215 46 28.1451 46 29.843C46 31.0472 45.3332 32.0879 44.3337 32.6903C44.5001 33.0738 44.6114 33.5121 44.6114 33.9499C44.6114 35.6472 43.2779 37.0708 41.6111 37.2354C41.1113 38.495 39.8891 39.3163 38.5005 39.3163C38.1115 39.3163 37.7781 39.2619 37.4447 39.1522C37.334 39.5352 37.1114 39.9186 36.8893 40.2472C36.0556 41.2879 34.7221 42 33.2779 42Z" fill="black"/>
<path d="M27.5862 31C27.4176 31 27.1933 30.8838 27.0809 30.7093C26.9129 30.4181 27.0247 30.0679 27.2495 29.8934C27.9228 29.4854 28.3157 28.7284 28.3157 27.9125C28.3157 27.7957 28.3157 27.679 28.3157 27.5629C28.2589 27.33 28.3713 27.1549 28.5399 26.9804C28.708 26.8636 28.9322 26.8636 29.1008 26.922C29.5499 27.1549 30.1102 27.33 30.616 27.33C32.2425 27.33 33.5885 26.1067 33.8695 24.4748C33.9257 24.1841 34.2062 23.9506 34.5428 24.009C34.8233 24.0668 35.0475 24.3586 34.9913 24.7082C34.6547 26.922 32.8034 28.5533 30.616 28.5533C30.2232 28.5533 29.7741 28.495 29.3813 28.3782C29.2694 29.4276 28.708 30.4181 27.7542 30.9422C27.7542 30.9422 27.6424 31 27.5862 31Z" fill="black"/>
<path d="M30.4639 36H30.4074C30.1841 36 30.0167 35.8299 29.9613 35.6037C29.8493 35.2646 29.6814 34.9817 29.4022 34.7549C28.955 34.3585 28.4524 34.1323 27.8379 34.1323C27.7819 34.1323 27.7259 34.1323 27.614 34.1323C27.3347 34.1323 27.056 33.9061 27 33.6231C27 33.2835 27.2233 33.0567 27.5026 33C27.614 33 27.7259 33 27.8379 33C28.7317 33 29.5701 33.3402 30.1846 33.9622C30.296 34.0756 30.4639 34.2457 30.5753 34.4152C31.4137 33.5097 32.5868 33 33.8158 33C34.933 33 36.0506 33.453 36.8325 34.2457C37.0558 34.4725 37.0558 34.8116 36.8325 35.0378C36.6092 35.2646 36.274 35.2646 36.0506 35.0378C35.4361 34.4725 34.6537 34.1323 33.8158 34.1323C32.6427 34.1323 31.5816 34.7549 31.0224 35.7738C30.8545 35.8872 30.6312 36 30.4639 36Z" fill="black"/>
<path d="M39.6189 29C38.6319 29 37.7548 28.5789 37.0419 27.8573C36.3295 27.076 36 26.114 36 25.0315C36 24.8508 36 24.6707 36.0555 24.4906C36.1104 24.1894 36.3845 23.9491 36.658 24.0093C36.9321 24.0695 37.1517 24.3701 37.0968 24.6707C37.0968 24.7912 37.0968 24.9111 37.0968 25.0918C37.0968 25.8134 37.3709 26.5351 37.8647 27.076C38.3579 27.6169 38.9609 27.9175 39.6733 27.9175C39.893 27.9175 40.1121 27.9175 40.3313 27.8573C40.6059 27.7977 40.9349 27.9784 40.9893 28.2783C41.0448 28.5789 40.88 28.9398 40.6059 29C40.222 29 39.893 29 39.6189 29Z" fill="black"/>
<path d="M38.6714 34C38.6159 34 38.6159 34 38.5593 34C38.2242 34 38 33.7844 38 33.4613C38 33.2992 38.0561 33.1371 38.1681 33.0296C38.5038 32.1126 39.2307 31.3573 40.2383 31.0341C40.5174 30.9255 40.853 31.0876 40.9651 31.3573C41.0766 31.6269 40.9091 31.9505 40.6294 32.0586C39.902 32.2742 39.3988 32.8675 39.1752 33.5688C39.1752 33.8384 38.951 34 38.6714 34Z" fill="black"/>
<path d="M47.0006 38.1431C46.5432 38.1431 46.1431 38.5432 46.1431 39.0006C46.1431 39.4574 46.5432 39.8569 47.0006 39.8569C47.4573 39.8569 47.8575 39.4574 47.8575 39.0006C47.8575 38.5432 47.4573 38.1431 47.0006 38.1431ZM47.0006 41C45.9147 41 45 40.0859 45 39.0006C45 37.9147 45.9147 37 47.0006 37C48.0864 37 49 37.9147 49 39.0006C49 40.0859 48.0864 41 47.0006 41Z" fill="black"/>
<path d="M23 43.1431C22.5426 43.1431 22.1431 43.5432 22.1431 44.0006C22.1431 44.4574 22.5426 44.8575 23 44.8575C23.4568 44.8575 23.8569 44.4574 23.8569 44.0006C23.8569 43.5432 23.514 43.1431 23 43.1431ZM23 46C21.9141 46 21 45.0859 21 44.0006C21 42.9147 21.9141 42 23 42C24.0859 42 25 42.9147 25 44.0006C25 45.0859 24.1425 46 23 46Z" fill="black"/>
<path d="M36.3996 46C36.3418 46 36.2852 46 36.2852 46L33.4297 45.2006C33.1448 45.139 32.916 44.77 33.0298 44.4627C33.087 44.1554 33.4297 43.9096 33.7151 44.0322L36.5701 44.8316C36.8555 44.8932 37.0843 45.2621 36.9699 45.5695C36.9133 45.8152 36.685 46 36.3996 46Z" fill="black"/>
</svg>
