<svg width="50" height="50" viewBox="0 0 50 50" fill="none" xmlns="http://www.w3.org/2000/svg">
<path fill-rule="evenodd" clip-rule="evenodd" d="M24.9253 0.0247341C28.3527 -0.235915 31.6153 1.608 34.572 3.45672C37.4031 5.2269 39.2953 8.10492 41.6785 10.5C44.3953 13.2304 48.599 14.848 49.68 18.64C50.7519 22.3996 48.9255 26.4847 47.2323 29.9804C45.7021 33.1394 42.5818 34.9328 40.4566 37.6815C38.3576 40.3962 37.6951 44.5263 34.7445 46.1316C31.7981 47.7346 28.1974 45.573 24.9253 46.1315C20.9322 46.813 17.3132 51.0254 13.448 49.7667C9.74489 48.5608 8.07706 43.8594 6.4886 40.1276C5.07042 36.7958 5.85094 32.935 4.80197 29.4542C3.64062 25.6004 -0.0653065 22.6426 0.000875183 18.5991C0.0668922 14.5657 2.1938 10.5098 5.15379 7.9588C8.0723 5.44352 12.4038 6.28795 15.9254 4.87475C19.1138 3.59529 21.5232 0.283459 24.9253 0.0247341Z" fill="#1FA12E" fill-opacity="0.1"/>
<path d="M16.6521 25.1307V24.3481C16.6521 24.0873 16.3913 23.8264 16.1304 23.5655C15.8695 23.3046 15.6087 23.3046 15.3478 23.3046C15.0869 23.3046 14.8261 23.5655 14.5652 23.5655V24.3481C14.5652 24.609 14.8261 24.8699 15.0869 25.1307C15.3478 25.3916 15.6087 25.3916 15.8695 25.3916C16.1304 25.3916 16.3913 25.1307 16.6521 25.1307Z" fill="#8EC155"/>
<path d="M20.8264 23.3042C20.8264 23.0433 20.5656 22.7824 20.3047 22.7824C20.0438 22.7824 19.783 23.0433 19.783 23.3042C19.783 23.5651 20.0438 23.8259 20.3047 23.8259C20.5656 23.8259 20.8264 23.5651 20.8264 23.3042Z" fill="#8EC155"/>
<path d="M26.0433 24.3481V23.5655C25.7824 23.5655 25.5215 23.3046 25.2606 23.3046C24.9998 23.3046 24.7389 23.3046 24.478 23.5655C24.2172 23.8264 23.9563 24.0873 23.9563 24.3481V25.1307C24.2172 25.1307 24.478 25.3916 24.7389 25.3916C24.9998 25.3916 25.2606 25.3916 25.5215 25.1307C25.7824 24.8699 26.0433 24.609 26.0433 24.3481Z" fill="#8EC155"/>
<path d="M32.8262 24.3481V23.5655C32.5653 23.5655 32.3045 23.3046 32.0436 23.3046C31.7827 23.3046 31.5219 23.3046 31.261 23.5655C31.0001 23.8264 30.7393 24.0873 30.7393 24.3481V25.1307C31.0001 25.1307 31.261 25.3916 31.5219 25.3916C31.7827 25.3916 32.0436 25.3916 32.3045 25.1307C32.5653 24.8699 32.8262 24.609 32.8262 24.3481Z" fill="#8EC155"/>
<path d="M18.2171 18.0871C18.2171 17.3045 17.4345 16.5219 16.6519 16.5219C15.8693 16.5219 15.0867 17.3045 15.0867 18.0871H15.3475L15.6084 18.348L15.8693 18.6089H16.1301V18.8697H16.391V19.1306V19.3915L16.6519 19.6523C16.9128 18.8697 17.4345 18.348 18.2171 18.0871Z" fill="#FDE8F9"/>
<path d="M25.0001 18.0871C25.0001 17.3045 24.2175 16.5219 23.4348 16.5219C22.6522 16.5219 21.8696 17.3045 21.8696 18.0871H22.1305L22.3914 18.348L22.6522 18.6089H22.9131V18.8697H23.174V19.1306V19.3915L23.4348 19.6523C23.6957 18.8697 24.2175 18.348 25.0001 18.0871Z" fill="#FDE8F9"/>
<path d="M32.0438 18.0871C32.0438 17.3045 31.2612 16.5219 30.4785 16.5219C29.6959 16.5219 28.9133 17.0436 28.9133 18.0871C29.1742 18.0871 29.1742 18.348 29.1742 18.348H29.4351V18.6089H29.6959V18.8697H29.9568V19.1306H30.2177V19.3915L30.4785 19.6523C30.7394 18.8697 31.2612 18.348 32.0438 18.0871Z" fill="#FDE8F9"/>
<path d="M19.7823 20.4347V18.0868H18.4779C17.6953 18.3477 17.1736 18.8694 16.6519 19.652C16.9127 19.9129 16.9127 20.4347 16.9127 20.9564V21.2173V22.2607H17.6953C18.9997 22.2607 19.7823 21.4781 19.7823 20.4347Z" fill="#F37D79"/>
<path d="M23.9564 22.2607V21.2173C23.9564 20.6955 23.9564 20.1738 23.6955 19.9129V19.652H23.4346V19.3912V19.1303H23.1738V18.8694H22.9129L22.652 18.6086V18.3477H22.3911C22.1303 18.0868 21.8694 18.0868 21.6085 18.0868H20.8259V20.1738C20.8259 21.2173 21.6085 22.2607 22.652 22.2607H23.9564Z" fill="#F37D79"/>
<path d="M30.7393 22.2607V21.2173C30.7393 20.6955 30.4785 20.1738 30.2176 19.652V19.3912V19.1303H29.9567V18.8694H29.6958V18.6086H29.435V18.3477H29.1741C28.9132 18.0868 28.6524 18.0868 28.3915 18.0868H27.6089V20.1738C27.6089 21.2173 28.3915 22.2607 29.435 22.2607H30.7393Z" fill="#F37D79"/>
<path d="M33.3475 20.4347V18.0868H32.0431C31.2605 18.3477 30.7388 18.8694 30.217 19.652C30.4779 19.9129 30.4779 20.4347 30.4779 20.9564V21.2173V22.2607H31.2605C32.5649 22.2607 33.3475 21.4781 33.3475 20.4347Z" fill="#FF99A7"/>
<path d="M16.9134 22.2607V21.2173C16.9134 20.6955 16.9134 20.1738 16.6525 19.9129V19.652H16.3917V19.3912V19.1303H16.1308V18.8694H15.8699L15.609 18.6086V18.3477H15.3482C15.0873 18.0868 14.8264 18.0868 14.5656 18.0868H13.783V20.1738C13.783 21.2173 14.5656 22.2607 15.609 22.2607H16.9134Z" fill="#FF99A7"/>
<path d="M34.1303 28.522V25.3915H30.9999H23.9564H16.9129H13.2607V28.522H34.1303Z" fill="#A88D68"/>
<path d="M29.9562 33.7393L31.7823 28.5219H15.0867L16.9128 33.7393H29.9562Z" fill="#D1BB93"/>
<path d="M26.5652 20.4347V18.0868H25.2609C24.4783 18.3477 23.9566 18.8694 23.4348 19.652C23.6957 19.9129 23.6957 20.4347 23.6957 20.9564V21.2173V22.2607H24.4783C25.7826 22.2607 26.5652 21.4781 26.5652 20.4347Z" fill="#FF99A7"/>
<path d="M30.217 25.3913C30.217 25.6522 30.4779 25.9131 30.7388 25.9131C30.9996 25.9131 31.2605 25.6522 31.2605 25.3913V20.174C31.2605 19.9131 30.9996 19.6522 30.7388 19.6522C30.4779 19.6522 30.217 19.9131 30.217 20.174V25.3913Z" fill="black"/>
<path d="M30.4779 25.3915C30.7388 25.3915 30.9996 25.6523 31.2605 25.6523C31.7823 25.6523 32.304 25.3915 32.5649 25.1306C32.8257 24.8697 32.8257 24.6089 33.0866 24.0871C33.0866 23.8263 33.3475 23.3045 33.3475 23.0436C33.3475 22.7828 33.3475 22.7828 33.0866 22.7828C32.8257 22.7828 32.304 22.5219 32.0431 22.5219C31.7823 22.5219 31.2605 22.7828 30.9996 23.0436C30.7388 23.3045 30.7388 23.5654 30.4779 24.0871C30.4779 24.348 30.217 24.8697 30.217 25.1306C30.217 25.3915 30.217 25.3915 30.4779 25.3915Z" fill="black"/>
<path d="M30.4779 22.522H31.2605C32.5649 22.522 33.3475 21.4785 33.3475 20.1741V17.8263C33.3475 17.5655 33.3475 17.3046 33.0866 17.3046H32.5649C32.304 17.3046 32.0431 17.0437 31.7823 17.3046C31.5214 17.3046 31.7823 17.5655 31.7823 17.8263C31.7823 18.0872 31.7823 18.0872 32.0431 18.0872H32.5649V20.435C32.5649 21.2176 32.0431 21.7394 31.2605 21.7394H30.4779C30.217 21.7394 30.217 22.0002 30.217 22.2611C30.217 22.522 30.217 22.522 30.4779 22.522Z" fill="black"/>
<path d="M29.4351 18.8696H29.6959C29.6959 18.8696 29.9568 18.8696 29.9568 18.6088C29.9568 18.3479 29.9568 18.3479 29.6959 18.087V17.8262C29.4351 17.5653 28.9133 17.8262 28.9133 18.087C28.9133 18.3479 28.9133 18.3479 29.1742 18.6088L29.4351 18.8696Z" fill="black"/>
<path d="M29.4346 18.8695L29.6955 19.1304C29.9563 19.1304 29.9563 18.8695 30.2172 18.8695C30.4781 18.6086 30.2172 18.6086 29.9563 18.3478V18.0869C29.6955 17.826 29.4346 18.0869 29.1737 18.3478C28.9129 18.6086 29.1737 18.6086 29.4346 18.8695Z" fill="black"/>
<path d="M29.435 19.1307L29.9568 19.3916C30.2176 19.3916 30.4785 18.8699 30.2176 18.609H29.9568V18.3481C29.6959 18.0873 29.435 18.0873 29.1742 18.3481C28.9133 18.609 28.9133 18.8699 29.1742 19.1307H29.435Z" fill="black"/>
<path d="M29.6953 19.1307C29.6953 19.3916 29.6953 19.3916 29.9562 19.3916H30.2171C30.4779 19.1307 30.7388 18.8699 30.4779 18.609H30.2171C29.9562 18.3481 29.9562 18.0873 29.6953 18.3481C29.4345 18.609 29.1736 18.8699 29.4345 19.1307H29.6953Z" fill="black"/>
<path d="M29.6953 19.1307C29.6953 19.3916 29.6953 19.3916 29.9562 19.3916H30.2171C30.4779 19.1307 30.7388 18.8699 30.4779 18.609H30.2171C29.9562 18.3481 29.9562 18.0873 29.6953 18.3481C29.4345 18.609 29.1736 18.8699 29.4345 19.1307H29.6953Z" fill="black"/>
<path d="M29.9564 19.6522C29.9564 19.9131 29.9564 19.9131 30.2173 19.9131H30.4782C30.739 19.9131 30.739 19.6522 30.739 19.3913V19.1305H30.4782C30.4782 18.8696 30.2173 18.8696 29.9564 18.8696C29.6956 18.8696 29.6956 19.1305 29.6956 19.3913H29.9564V19.6522Z" fill="black"/>
<path d="M29.6954 22.522H30.9997C31.2606 22.522 31.2606 22.522 31.2606 22.2611V20.9568C31.2606 20.435 31.2606 19.9133 30.9997 19.3915V19.1307C30.9997 18.8698 30.7388 19.1307 30.478 19.1307C30.2171 19.1307 30.2171 19.3915 30.2171 19.6524C30.478 20.1741 30.478 20.435 30.478 20.9568V21.7394H29.6954C28.6519 21.7394 27.8693 21.2176 27.8693 20.1741V18.0872H28.391C28.6519 18.0872 28.6519 18.3481 28.9128 18.3481C29.1736 18.3481 29.4345 18.3481 29.4345 18.0872C29.4345 17.8263 29.6954 17.5655 29.4345 17.5655C29.1736 17.3046 28.6519 17.3046 28.391 17.3046H27.8693H27.3475H27.0867V17.5655V19.9133C27.0867 21.2176 28.391 22.522 29.6954 22.522Z" fill="black"/>
<path d="M29.9563 19.9132C29.9563 20.1741 29.9563 20.1741 30.2172 20.1741C30.4781 20.1741 30.4781 19.9132 30.7389 19.9132C30.9998 19.1306 31.5215 18.8697 32.3042 18.6089C32.565 18.6089 32.565 18.348 32.565 18.0871C32.565 17.0436 31.5215 16.0002 30.4781 16.0002C29.4346 16.0002 28.3911 17.0436 28.3911 18.0871C28.3911 18.348 28.3911 18.348 28.652 18.348C28.9129 18.348 28.9129 18.6089 28.9129 18.6089L29.1737 18.8697H29.4346V19.1306H29.6955V19.3915L29.9563 19.6523V19.9132Z" fill="black"/>
<path d="M23.4348 25.3913C23.4348 25.6522 23.6957 25.9131 23.9566 25.9131C24.2174 25.9131 24.4783 25.6522 24.4783 25.3913V20.174C24.4783 19.9131 24.2174 19.6522 23.9566 19.6522C23.6957 19.6522 23.4348 19.9131 23.4348 20.174V25.3913Z" fill="black"/>
<path d="M23.6957 25.3915C23.9566 25.3915 24.2174 25.6523 24.4783 25.6523C25 25.6523 25.5218 25.3915 25.7826 25.1306C26.0435 24.8697 26.0435 24.6089 26.3044 24.0871C26.3044 23.8263 26.5652 23.3045 26.5652 23.0436C26.5652 22.7828 26.5652 22.7828 26.3044 22.7828C26.0435 22.7828 25.5218 22.5219 25.2609 22.5219C25 22.5219 24.4783 22.7828 24.2174 23.0436C23.9566 23.3045 23.9566 23.5654 23.6957 24.0871C23.6957 24.348 23.4348 24.8697 23.4348 25.1306C23.4348 25.3915 23.4348 25.3915 23.6957 25.3915Z" fill="black"/>
<path d="M23.6957 22.522H24.4783C25.7826 22.522 26.5652 21.4785 26.5652 20.1741V17.8263C26.5652 17.5655 26.5652 17.3046 26.3044 17.3046H25.7826C25.5218 17.3046 25.2609 17.0437 25 17.3046C24.7392 17.3046 25 17.5655 25 17.8263C25 18.0872 25 18.0872 25.2609 18.0872H25.7826V20.435C25.7826 21.2176 25.2609 21.7394 24.4783 21.7394H23.6957C23.4348 21.7394 23.4348 22.0002 23.4348 22.2611C23.4348 22.522 23.4348 22.522 23.6957 22.522Z" fill="black"/>
<path d="M22.3912 18.8696H22.6521L23.1738 18.6088C23.4347 18.3479 23.1738 18.3479 22.913 18.087V17.8262H22.6521C22.3912 17.5653 22.1304 17.8262 22.1304 18.087C22.1304 18.3479 22.1304 18.3479 22.3912 18.6088V18.8696Z" fill="black"/>
<path d="M22.652 18.8695C22.652 18.8695 22.652 19.1304 22.9128 19.1304C23.1737 19.1304 23.1737 18.8695 23.1737 18.8695C23.4346 18.6086 23.4346 18.6086 23.1737 18.3478C22.9128 18.0869 22.9128 18.0869 22.652 18.3478C22.3911 18.6086 22.3911 18.6086 22.652 18.8695Z" fill="black"/>
<path d="M22.9131 19.1307C22.9131 19.3916 22.9131 19.3916 23.174 19.3916H23.4349C23.6957 19.1307 23.9566 18.8699 23.6957 18.609H23.4349C23.174 18.3481 23.174 18.0873 22.9131 18.3481C22.6522 18.609 22.3914 18.8699 22.6522 19.1307H22.9131Z" fill="black"/>
<path d="M22.9131 19.1307C22.9131 19.3916 22.9131 19.3916 23.174 19.3916H23.4349C23.6957 19.1307 23.9566 18.8699 23.6957 18.609H23.4349C23.174 18.3481 23.174 18.0873 22.9131 18.3481C22.6522 18.609 22.3914 18.8699 22.6522 19.1307H22.9131Z" fill="black"/>
<path d="M23.1739 19.3915C23.1739 19.3915 23.1739 19.6523 23.4347 19.6523H23.6956C23.9565 19.3915 24.2173 19.1306 23.9565 18.8697H23.6956C23.4347 18.6089 23.4347 18.348 23.1739 18.6089C22.913 18.8697 22.6521 19.1306 22.913 19.3915H23.1739Z" fill="black"/>
<path d="M23.1742 19.6522C23.1742 19.6522 23.1742 19.9131 23.4351 19.9131H23.6959C23.9568 19.9131 23.9568 19.6522 23.9568 19.3913L23.6959 19.1305C23.6959 18.8696 23.4351 18.8696 23.1742 18.8696C22.9133 18.8696 22.9133 19.1305 22.9133 19.3913V19.6522H23.1742Z" fill="black"/>
<path d="M22.9131 22.522H24.2175C24.4784 22.522 24.4784 22.522 24.4784 22.2611V20.9568C24.4784 20.435 24.4784 19.9133 24.2175 19.3915V19.1307C24.2175 18.8698 23.9566 19.1307 23.6957 19.1307C23.4349 19.1307 23.4349 19.3915 23.4349 19.6524C23.6957 20.1741 23.6957 20.435 23.6957 20.9568V21.7394H22.9131C21.8697 21.7394 21.0871 20.9568 21.0871 19.9133V18.0872H21.6088C21.8697 18.0872 21.8697 18.3481 22.1305 18.3481C22.3914 18.3481 22.6523 18.3481 22.6523 18.0872C22.6523 17.8263 22.9131 17.5655 22.6523 17.5655C22.3914 17.3046 21.8697 17.3046 21.6088 17.3046H21.0871H20.5653C20.3044 17.3046 20.3044 17.3046 20.3044 17.5655V19.9133C20.3044 21.2176 21.6088 22.522 22.9131 22.522Z" fill="black"/>
<path d="M23.1741 19.9132C23.1741 20.1741 23.435 20.1741 23.6958 20.1741C23.9567 20.1741 23.6958 20.1741 23.9567 19.9132C24.2176 19.1306 24.7393 18.6089 25.5219 18.348C25.7828 18.348 25.7828 18.348 25.7828 18.0871C25.7828 17.0436 24.7393 16.0002 23.6958 16.0002C22.6524 16.0002 21.6089 17.0436 21.6089 18.0871C21.6089 18.348 21.6089 18.348 21.8698 18.348L22.1306 18.6089H22.3915L22.6524 18.8697V19.1306H22.9132V19.3915L23.1741 19.6523V19.9132Z" fill="black"/>
<path d="M16.3911 25.3913C16.3911 25.6522 16.652 25.9131 16.9129 25.9131C17.1737 25.9131 17.4346 25.6522 17.4346 25.3913V20.174C17.4346 19.9131 17.1737 19.6522 16.9129 19.6522C16.652 19.6522 16.3911 19.9131 16.3911 20.174V25.3913Z" fill="black"/>
<path d="M14.8263 25.1306C15.0872 25.3915 15.6089 25.6523 16.1307 25.6523C16.3915 25.6523 16.6524 25.3915 16.9133 25.3915C17.1741 25.3915 17.1741 25.3915 17.1741 25.1306C17.1741 24.8697 16.9133 24.348 16.9133 24.0871C16.6524 23.5654 16.6524 23.3045 16.3915 23.0436C16.1307 22.7828 15.8698 22.5219 15.348 22.5219C15.0872 22.5219 14.5654 22.7828 14.3046 22.7828C14.0437 22.7828 14.0437 22.7828 14.0437 23.0436C14.0437 23.3045 14.3046 23.8263 14.3046 24.0871C14.5654 24.6089 14.5654 24.8697 14.8263 25.1306Z" fill="black"/>
<path d="M16.9127 22.522H17.6953C18.9997 22.522 19.7823 21.4785 19.7823 20.1741V17.8263C19.7823 17.5655 19.7823 17.3046 19.5214 17.3046H18.9997C18.7388 17.3046 18.4779 17.0437 18.2171 17.3046C17.9562 17.3046 18.2171 17.5655 18.2171 17.8263C18.2171 18.0872 18.2171 18.0872 18.4779 18.0872H18.9997V20.435C18.9997 21.2176 18.4779 21.7394 17.6953 21.7394H16.9127C16.6519 21.7394 16.6519 22.0002 16.6519 22.2611C16.6519 22.522 16.6519 22.522 16.9127 22.522Z" fill="black"/>
<path d="M15.3475 18.8696H15.6084L16.1301 18.6088C16.391 18.3479 16.1301 18.3479 15.8693 18.087V17.8262H15.6084C15.3475 17.5653 15.0867 17.8262 15.0867 18.087C15.0867 18.3479 15.0867 18.3479 15.3475 18.6088V18.8696Z" fill="black"/>
<path d="M15.8697 18.8695C15.8697 18.8695 15.8697 19.1304 16.1306 19.1304C16.3915 19.1304 16.3915 18.8695 16.3915 18.8695C16.6523 18.6086 16.6523 18.6086 16.3915 18.3478C16.1306 18.0869 16.1306 18.0869 15.8697 18.3478C15.6089 18.6086 15.6089 18.6086 15.8697 18.8695Z" fill="black"/>
<path d="M16.1302 19.1307C16.1302 19.3916 16.1302 19.3916 16.391 19.3916H16.6519C16.9128 19.1307 17.1736 18.8699 16.9128 18.609H16.6519C16.391 18.3481 16.391 18.0873 16.1302 18.3481C15.8693 18.609 15.6084 18.8699 15.8693 19.1307H16.1302Z" fill="black"/>
<path d="M16.1302 19.1307C16.1302 19.3916 16.1302 19.3916 16.391 19.3916H16.6519C16.9128 19.1307 17.1736 18.8699 16.9128 18.609H16.6519C16.391 18.3481 16.391 18.0873 16.1302 18.3481C15.8693 18.609 15.6084 18.8699 15.8693 19.1307H16.1302Z" fill="black"/>
<path d="M16.1302 19.3915C16.1302 19.3915 16.1302 19.6523 16.391 19.6523H16.6519C16.9128 19.3915 17.1736 19.1306 16.9128 18.8697H16.6519C16.391 18.6089 16.391 18.348 16.1302 18.6089C15.8693 18.8697 15.6084 19.1306 15.8693 19.3915H16.1302Z" fill="black"/>
<path d="M16.3912 19.6522C16.3912 19.6522 16.3912 19.9131 16.6521 19.9131H16.913C17.1738 19.9131 17.1738 19.6522 17.1738 19.3913L16.913 19.1305C16.913 18.8696 16.6521 18.8696 16.3912 18.8696C16.1304 18.8696 16.1304 19.1305 16.1304 19.3913V19.6522H16.3912Z" fill="black"/>
<path d="M16.1302 22.522H17.4345C17.6954 22.522 17.6954 22.522 17.6954 22.2611V20.9568C17.6954 20.435 17.6954 19.9133 17.4345 19.3915V19.1307C17.4345 18.8698 17.1737 19.1307 16.9128 19.1307C16.6519 19.1307 16.6519 19.3915 16.6519 19.6524C16.9128 20.1741 16.9128 20.435 16.9128 20.9568V21.7394H16.1302C15.0867 21.7394 14.3041 20.9568 14.3041 19.9133V18.0872H14.8258C15.0867 18.0872 15.0867 18.3481 15.3476 18.3481C15.6084 18.3481 15.8693 18.3481 15.8693 18.0872C15.8693 17.8263 16.1302 17.5655 15.8693 17.5655C15.6084 17.3046 15.0867 17.3046 14.8258 17.3046H14.3041H13.7824C13.5215 17.3046 13.5215 17.3046 13.5215 17.5655V19.9133C13.5215 21.2176 14.8258 22.522 16.1302 22.522Z" fill="black"/>
<path d="M16.3911 19.9132C16.3911 20.1741 16.652 20.1741 16.9129 20.1741C17.1738 20.1741 16.9129 20.1741 17.1738 19.9132C17.4346 19.1306 17.9564 18.6089 18.739 18.348C18.9998 18.348 18.9998 18.348 18.9998 18.0871C18.9998 17.0436 17.9564 16.0002 16.9129 16.0002C15.8694 16.0002 14.8259 17.0436 14.8259 18.0871C14.8259 18.348 14.8259 18.348 15.0868 18.348L15.3477 18.6089H15.6085L15.8694 18.8697V19.1306H16.1303V19.3915L16.3911 19.6523V19.9132Z" fill="black"/>
<path d="M34.6522 28.7827H36.4783C36.7391 28.7827 37 28.7827 37 28.5218V24.8697C37 24.6088 36.7391 24.6088 36.4783 24.6088H13.5217C13.2609 24.6088 13 24.6088 13 24.8697V28.5218C13 28.7827 13.2609 28.7827 13.5217 28.7827H15.3478C15.6087 28.7827 15.8696 28.7827 15.8696 28.5218C15.8696 28.261 15.6087 28.0001 15.3478 28.0001H13.7826V25.3914H36.2174V28.0001H34.6522C34.3913 28.0001 34.1304 28.261 34.1304 28.5218C34.1304 28.7827 34.3913 28.7827 34.6522 28.7827Z" fill="black"/>
<path d="M19.5215 23.0434C19.5215 23.5652 20.0432 24.0869 20.565 24.0869C21.0867 24.0869 21.6084 23.5652 21.6084 23.0434C21.6084 22.5217 21.0867 22 20.565 22C20.0432 22 19.5215 22.5217 19.5215 23.0434Z" fill="black"/>
<path d="M16.9129 34H31.5216C31.7824 34 31.7824 34 31.7824 33.7391L33.6085 28.2609V28L33.3477 27.7391H15.0868L14.8259 28V28.2609L16.652 33.7391C16.652 34 16.652 34 16.9129 34Z" fill="black"/>
<path d="M16.1306 30.6084H34.9132C35.1741 30.6084 35.435 30.3475 35.435 30.0867C35.435 29.8258 35.1741 29.5649 34.9132 29.5649H16.1306C15.8698 29.5649 15.6089 29.8258 15.6089 30.0867C15.6089 30.3475 15.8698 30.6084 16.1306 30.6084Z" fill="black"/>
</svg>
