<svg width="38" height="31" viewBox="0 0 38 31" fill="none" xmlns="http://www.w3.org/2000/svg">
<path d="M11.7312 11.1104C11.7312 11.1104 0.320751 12.9532 0.143066 29.3373H16.616C16.616 29.3373 6.1539 18.2061 11.7312 11.1104Z" fill="#E6E2E0"/>
<path d="M3.38477 29.3129C3.66602 28.9962 4.15084 28.5641 4.4854 28.3042C4.81944 28.0443 5.21238 27.8432 5.63323 27.7975C6.09217 27.7473 6.55466 27.8839 6.96638 28.093C7.57153 28.4007 8.08428 28.8601 8.58891 29.3145C7.86801 29.8089 7.00599 30.0805 6.13381 30.1333C4.63923 30.2237 3.38477 29.3129 3.38477 29.3129Z" fill="#664A3B"/>
<path d="M9.03297 23.8677C8.93347 24.1348 8.76492 24.384 8.52276 24.5343C8.11916 24.7841 7.60437 24.7181 7.13427 24.6582C6.66366 24.5978 6.13619 24.5668 5.7666 24.8638C5.85747 24.2632 5.96307 23.6286 6.35804 23.1677C6.74286 22.7174 7.3409 22.5107 7.9232 22.4021C8.506 22.294 9.10607 22.264 9.66857 22.0762C9.42895 22.2914 9.31371 22.6123 9.24518 22.9265C9.17613 23.2408 9.14517 23.5657 9.03297 23.8677Z" fill="#87BE00"/>
<path d="M7.18614 24.0116C6.74142 24.2035 6.31598 24.4396 5.91797 24.7153C6.58403 23.8086 7.99436 23.7426 8.69647 22.8633C8.60102 23.1765 8.35378 23.4237 8.07557 23.5974C7.79788 23.7705 7.48668 23.8812 7.18614 24.0116Z" fill="#ADD250"/>
<path d="M7.00571 23.335C6.74274 23.7045 6.47977 24.0741 6.2168 24.4442C6.60466 24.1934 6.84072 23.7655 7.00571 23.335Z" fill="#ADD250"/>
<path d="M7.75277 22.957C7.61418 23.3012 7.41059 23.6195 7.15625 23.8901C7.25626 23.8175 7.2786 23.8993 7.36897 23.815C7.42075 23.7663 7.75277 23.4236 7.75277 22.957Z" fill="#ADD250"/>
<path d="M7.36896 23.8134C7.35018 23.8159 7.32885 23.8205 7.32022 23.8367C7.30194 23.8707 7.35323 23.8986 7.39181 23.9032C7.59437 23.9291 7.80048 23.9545 8.00304 23.9271C8.2056 23.8997 8.40867 23.8123 8.53356 23.6504C8.14519 23.7047 7.75682 23.759 7.36896 23.8134Z" fill="#ADD250"/>
<path d="M8.15746 24.2112C7.66248 24.2559 7.1609 24.232 6.67201 24.1406C6.66745 24.2401 6.77608 24.3046 6.87203 24.3325C7.29086 24.4554 7.73863 24.333 8.15746 24.2112Z" fill="#ADD250"/>
<path d="M5.65158 23.2564C5.35561 22.6965 4.76164 22.337 4.14228 22.2055C3.52292 22.0741 2.87766 22.1456 2.2583 22.2771C2.55529 22.3705 2.76851 22.6396 2.88528 22.928C3.00204 23.2163 3.04063 23.5296 3.10358 23.8342C3.16704 24.1388 3.26146 24.4489 3.46758 24.682C3.75949 25.0125 4.23365 25.1333 4.67278 25.0993C5.11243 25.0658 5.52974 24.8987 5.9379 24.7332C5.91506 24.2281 5.88765 23.7042 5.65158 23.2564Z" fill="#87BE00"/>
<path d="M4.4163 23.5939C4.14571 23.2579 3.92182 22.835 3.51416 22.6943C3.90354 23.0426 4.14417 23.5234 4.46248 23.9376C4.7813 24.3519 5.24226 24.7245 5.76466 24.6941C5.27729 24.3747 4.78182 24.0478 4.4163 23.5939Z" fill="#ADD250"/>
<path d="M4.86525 23.0977C4.84088 23.3256 4.81703 23.5551 4.84241 23.783C4.86729 24.0105 4.94598 24.2389 5.10285 24.4059C5.09472 24.2485 5.06427 24.0937 5.0333 23.9399C4.97746 23.6586 4.92109 23.3784 4.86525 23.0977Z" fill="#ADD250"/>
<path d="M4.25236 23.6521C4.28079 23.7115 4.38181 23.6785 4.4011 23.616C4.4204 23.5536 4.27825 22.7474 4.16504 22.6748C4.19398 23.0002 4.22291 23.3261 4.25236 23.6521Z" fill="#ADD250"/>
<path d="M4.33019 23.7675C4.36421 23.7629 4.40279 23.7543 4.41954 23.7243C4.43833 23.6908 4.41752 23.6456 4.38553 23.6248C4.35254 23.604 4.31192 23.5913 4.27385 23.5974C3.95503 23.6512 3.7946 23.5862 3.4834 23.54C3.722 23.7213 4.0327 23.805 4.33019 23.7675Z" fill="#ADD250"/>
<path d="M3.79443 24.1426C4.15133 24.3497 4.59096 24.4091 4.98999 24.3045C4.97781 24.2665 4.96512 24.2289 4.95344 24.1908C4.5666 24.1746 4.18077 24.1583 3.79443 24.1426Z" fill="#ADD250"/>
<path d="M6.21143 28.1532C6.42313 28.0806 6.46324 27.8044 6.46781 27.581C6.47796 27.0292 6.48761 26.4743 6.41552 25.927C6.34292 25.3793 6.18503 24.835 5.88245 24.373C5.75604 24.4878 5.70783 24.668 5.71138 24.8381C5.71494 25.0081 5.76316 25.1742 5.80276 25.3397C6.00481 26.19 5.96369 27.0967 5.68701 27.9262C5.83068 28.0664 6.02105 28.2181 6.21143 28.1532Z" fill="#87BE00"/>
<path d="M13.7642 7.18652L11.731 13.108L16.132 11.0758L15.9751 10.3544L13.7642 7.18652Z" fill="#776056"/>
<path d="M24.8035 5.79586C24.3492 4.84347 24.7944 3.55296 25.893 2.78638C26.9911 2.0203 28.3562 2.04772 29.0934 2.80263L30.1717 2.05026C29.0959 0.821185 26.9815 0.744019 25.2909 1.92334C23.6004 3.10317 22.9429 5.11456 23.7258 6.54823L24.8035 5.79586Z" fill="#776056"/>
<path d="M28.4577 12.6671L15.8939 10.2471L15.3359 11.433L30.227 15.866L28.4577 12.6671Z" fill="#AA9B95"/>
<path d="M34.8324 10.4315L30.4639 3.74546L30.6608 3.38756C30.6938 3.32816 31.4731 1.92597 32.6824 1.08222C34.0089 0.156228 35.4025 0.216133 36.6067 1.25026C39.6583 3.87035 35.5893 9.41514 35.4142 9.64968L34.8324 10.4315ZM32.063 3.70536L34.8705 8.00178C35.7548 6.55136 37.2514 3.59672 35.7208 2.28134C34.9827 1.64777 34.2856 1.62188 33.4607 2.19707C32.8322 2.63671 32.3306 3.30481 32.063 3.70536Z" fill="#776056"/>
<path d="M30.5101 1.61542L23.1958 6.71875L30.5417 17.2472L37.856 12.1439L30.5101 1.61542Z" fill="#A3948D"/>
<path d="M30.5005 1.60702L23.1875 6.71094L23.8703 7.68922L31.1832 2.5853L30.5005 1.60702Z" fill="#A3948D"/>
<path d="M36.7849 10.5987L29.4697 15.7012L30.542 17.2385L37.8572 12.1361L36.7849 10.5987Z" fill="#776056"/>
</svg>
