<svg width="21" height="20" viewBox="0 0 21 20" fill="none" xmlns="http://www.w3.org/2000/svg">
<path d="M6.93699 6.28952L1.17931 7.11467L1.07734 7.13519C0.922961 7.17569 0.782228 7.25598 0.669509 7.36783C0.55679 7.47969 0.476122 7.61911 0.435745 7.77186C0.395368 7.92462 0.396728 8.08523 0.439685 8.23729C0.482642 8.38935 0.565658 8.52742 0.680255 8.6374L4.85141 12.6507L3.86773 18.3197L3.856 18.4178C3.84655 18.5756 3.87971 18.7331 3.95207 18.8741C4.02443 19.0151 4.1334 19.1346 4.26783 19.2202C4.40225 19.3059 4.55729 19.3547 4.71708 19.3617C4.87687 19.3687 5.03566 19.3336 5.1772 19.2599L10.3266 16.5838L15.4643 19.2599L15.5546 19.301C15.7035 19.3589 15.8654 19.3767 16.0236 19.3525C16.1818 19.3282 16.3307 19.2628 16.4548 19.1629C16.579 19.063 16.6741 18.9323 16.7303 18.7841C16.7865 18.636 16.8018 18.4757 16.7747 18.3197L15.7901 12.6507L19.9631 8.6365L20.0335 8.56068C20.134 8.43826 20.1999 8.29169 20.2245 8.13588C20.2491 7.98008 20.2315 7.82062 20.1734 7.67374C20.1154 7.52687 20.0189 7.39783 19.894 7.29978C19.7691 7.20173 19.6201 7.13816 19.4622 7.11556L13.7045 6.28952L11.1307 1.13348C11.0562 0.984091 10.9409 0.858295 10.7979 0.770329C10.6548 0.682364 10.4897 0.635742 10.3212 0.635742C10.1527 0.635742 9.98761 0.682364 9.84454 0.770329C9.70148 0.858295 9.58618 0.984091 9.5117 1.13348L6.93699 6.28952Z" fill="#FB8500"/>
</svg>
