<svg width="60" height="60" viewBox="0 0 60 60" fill="none" xmlns="http://www.w3.org/2000/svg">
<path fill-rule="evenodd" clip-rule="evenodd" d="M29.9104 0.029681C34.0233 -0.283098 37.9384 1.9296 41.4864 4.14806C44.8837 6.27228 47.1543 9.7259 50.0142 12.6C53.2744 15.8764 58.3187 17.8176 59.6161 22.368C60.9023 26.8796 58.7106 31.7816 56.6787 35.9764C54.8425 39.7672 51.0982 41.9194 48.548 45.2178C46.0292 48.4755 45.2341 53.4316 41.6934 55.3579C38.1577 57.2816 33.8369 54.6875 29.9104 55.3578C25.1187 56.1757 20.7759 61.2305 16.1376 59.72C11.6939 58.2729 9.69247 52.6313 7.78632 48.1531C6.0845 44.1549 7.02112 39.522 5.76236 35.345C4.36874 30.7205 -0.0783678 27.1711 0.00105022 22.3189C0.0802706 17.4788 2.63256 12.6118 6.18455 9.55055C9.68676 6.53222 14.8845 7.54553 19.1105 5.8497C22.9366 4.31435 25.8278 0.34015 29.9104 0.029681Z" fill="#1FA12E"/>
<path d="M39.0207 23.0111C39.5984 23.0111 40.0525 23.4652 40.0525 24.0429C40.0525 24.621 39.5984 25.0751 39.0207 25.0751C38.4426 25.0751 37.9885 24.621 37.9885 24.0429C37.9885 23.4652 38.4426 23.0111 39.0207 23.0111Z" fill="#B79C79"/>
<path d="M20.4447 20.4519C21.0225 20.4519 21.4767 20.906 21.4767 21.4837C21.4767 22.0618 21.0225 22.5159 20.4447 22.5159C19.8668 22.5159 19.4126 22.0618 19.4126 21.4837C19.4126 20.906 19.8668 20.4519 20.4447 20.4519Z" fill="#B79C79"/>
<path d="M29.5678 38.9867L24.3664 41.422C24.119 41.546 23.871 41.5874 23.6236 41.5874C22.9217 41.5874 22.2613 41.1747 21.9722 40.4312C21.5594 39.4821 21.9722 38.3262 22.8804 37.9131L24.7793 37.005L29.5678 38.9867Z" fill="#B79C79"/>
<path d="M37.0806 33.4138C37.4933 34.3633 37.0806 35.5187 36.1724 35.9318L34.2321 36.7986L29.4851 34.8587L34.6862 32.4229C35.5947 32.0102 36.6679 32.4229 37.0806 33.4138Z" fill="#B79C79"/>
<path d="M37.3285 39.3992C37.3285 39.6469 37.2872 39.8533 37.2049 40.101C36.8331 41.0918 35.8013 41.5872 34.8518 41.1745L29.5266 38.9865L24.7794 37.0462L22.8394 36.2621C22.1374 35.973 21.6833 35.2299 21.6833 34.4868C21.6833 34.2391 21.7246 34.0331 21.8071 33.785C22.1788 32.7942 23.2108 32.2992 24.1603 32.7119L29.4854 34.8999L34.2324 36.7984L36.1727 37.5829C36.9158 37.9129 37.3285 38.6151 37.3285 39.3992Z" fill="#A88D68"/>
<path d="M33.0765 20.8645C34.191 21.5663 40.6724 27.7172 32.0447 31.8038C33.6546 29.1617 32.4574 25.5706 29.6504 23.9193C29.8567 24.6211 29.6093 26.4787 28.3707 27.6345C28.6597 26.4373 27.9579 25.6533 27.9579 25.6533C27.9579 25.6533 27.7103 26.7264 26.8433 27.8409C26.0177 28.8313 25.4399 29.9053 26.5131 31.7629C23.1282 30.1526 22.2199 28.6254 22.7565 26.5614C23.1282 25.0338 24.5316 23.7957 24.6556 22.2681C25.1921 23.0939 25.2336 23.6716 25.3159 24.497C27.0083 22.7635 28.7422 20.4518 28.3707 18.3465C28.3707 18.3465 31.5493 19.1723 32.8288 23.2589C33.531 22.7225 33.4483 21.5663 33.0765 20.8645Z" fill="#FEBE76"/>
<path d="M23.6235 42C22.7564 42 21.931 41.4632 21.6007 40.5965C21.1054 39.4406 21.6007 38.078 22.7153 37.5416L24.614 36.6335C24.8207 36.5508 25.0683 36.6335 25.1508 36.8399C25.2335 37.0462 25.1508 37.2939 24.9443 37.3766L23.0455 38.2848C22.3438 38.6152 22.0135 39.5233 22.3438 40.266C22.5501 40.8028 23.0866 41.1328 23.6235 41.1328C23.8299 41.1328 23.9949 41.0919 24.1601 41.0096L29.3614 38.5734C29.5677 38.4911 29.8152 38.5734 29.8979 38.7802C29.9807 38.9865 29.8979 39.2343 29.6917 39.317L24.4902 41.7523C24.2427 41.9586 23.9538 42 23.6235 42Z" fill="black"/>
<path d="M34.2322 37.2112C34.0672 37.2112 33.9436 37.1289 33.8609 36.9639C33.7786 36.7575 33.8609 36.5094 34.0672 36.4271L35.9662 35.5186C36.668 35.189 36.998 34.2804 36.6679 33.5377C36.5025 33.166 36.2139 32.8769 35.8835 32.7532C35.5535 32.6296 35.1817 32.6296 34.8517 32.7942L29.6503 35.2299C29.4439 35.3126 29.1962 35.2299 29.1136 35.0236C29.0311 34.8172 29.1136 34.5695 29.32 34.4868L34.5213 32.0515C35.058 31.8038 35.6358 31.7628 36.2139 32.0101C36.7916 32.2165 37.2457 32.6705 37.4934 33.2487C37.9888 34.4045 37.452 35.7667 36.3789 36.303L34.4799 37.2112C34.3563 37.2112 34.3149 37.2112 34.2322 37.2112Z" fill="black"/>
<path d="M23.4991 32.9592C22.9213 32.9592 22.4259 33.3314 22.2194 33.9091C22.1369 34.0741 22.1369 34.2805 22.1369 34.4455C22.1369 35.065 22.5086 35.6427 23.0452 35.849L35.0577 40.8028C35.2227 40.8855 35.3882 40.8855 35.5532 40.8855C36.1309 40.8855 36.6263 40.5142 36.8326 39.936C36.9153 39.7706 36.9153 39.5643 36.9153 39.3993C36.9153 38.7802 36.5436 38.2021 36.0072 37.9957L23.9946 33.0424C23.8296 33.001 23.6643 32.9592 23.4991 32.9592ZM35.5532 41.7109C35.2641 41.7109 35.0164 41.6696 34.7273 41.5459L22.7149 36.5926C21.8481 36.2208 21.3115 35.3954 21.3115 34.4455C21.3115 34.1564 21.3526 33.8678 21.4766 33.6201C21.8067 32.7119 22.6322 32.1342 23.5405 32.1342C23.8296 32.1342 24.0771 32.1752 24.366 32.2992L36.3786 37.253C37.2454 37.6244 37.7821 38.4502 37.7821 39.3993C37.7821 39.6883 37.7408 39.977 37.6171 40.2251C37.2867 41.1328 36.4613 41.7109 35.5532 41.7109Z" fill="black"/>
<path d="M24.6964 23.5066C24.4901 23.9607 24.2425 24.4144 23.9948 24.8688C23.6234 25.4879 23.293 26.066 23.1279 26.7265C22.7562 28.1709 23.0865 29.4922 25.646 30.9371C25.1919 29.4508 25.811 28.46 26.5128 27.6346C27.3384 26.6437 27.5451 25.6116 27.5451 25.6116C27.5862 25.4466 27.7101 25.3229 27.8339 25.2815C27.999 25.2402 28.1227 25.2815 28.2467 25.4052C28.2878 25.4466 28.6182 25.8183 28.7833 26.4374C29.2787 25.5293 29.4024 24.4561 29.2787 24.0021C29.2373 23.8366 29.2787 23.6716 29.4438 23.5476C29.5676 23.4653 29.7741 23.4239 29.8978 23.5066C31.4668 24.4144 32.6222 25.942 33.0353 27.6759C33.324 28.7491 33.283 29.8222 32.9526 30.813C34.9339 29.6572 35.9661 28.295 36.0488 26.7265C36.1311 24.8275 34.7689 22.9699 33.7784 21.979C33.7784 22.5985 33.5307 23.2176 33.0353 23.6303C32.9112 23.7126 32.7876 23.7126 32.6635 23.6716C32.5399 23.6303 32.4572 23.5476 32.4158 23.3826C31.9204 21.7727 31.0536 20.5345 29.8978 19.626C29.4851 19.3374 29.1135 19.0892 28.8247 18.966C28.8247 20.6582 27.7514 22.5985 25.6047 24.7865C25.4808 24.9098 25.3157 24.9515 25.1506 24.8688C24.9856 24.8275 24.903 24.6625 24.8616 24.4971C24.8205 24.1671 24.7791 23.8367 24.6964 23.5066ZM32.0445 32.2166C31.9204 32.2166 31.8381 32.1752 31.7554 32.0925C31.6318 31.9693 31.6318 31.7629 31.7141 31.5971C32.3745 30.524 32.5399 29.2445 32.2095 27.9236C31.8791 26.6851 31.1363 25.5293 30.1042 24.7448C30.0628 25.6943 29.6501 27.0155 28.6182 27.9646C28.4944 28.0886 28.2878 28.13 28.1227 28.0059C27.9577 27.9236 27.8751 27.7173 27.9164 27.5519C27.999 27.2628 27.999 26.9738 27.9577 26.7674C27.7514 27.1805 27.5036 27.6346 27.0908 28.13C26.3478 29.0381 25.8524 29.9053 26.8018 31.5971C26.8845 31.7629 26.8845 31.9693 26.7606 32.0925C26.6368 32.2166 26.4304 32.2579 26.2652 32.1752C24.4901 31.3498 23.3757 30.524 22.7562 29.6158C22.1371 28.7081 21.9719 27.7173 22.2611 26.5201C22.4261 25.7766 22.8391 25.1165 23.2105 24.4561C23.6645 23.7126 24.0773 23.0112 24.1187 22.2681C24.1187 22.1031 24.2425 21.9381 24.4076 21.8967C24.5728 21.855 24.7791 21.9381 24.8616 22.0617C25.2333 22.5985 25.3982 23.0939 25.4808 23.5893C27.2559 21.5663 28.0402 19.8741 27.7925 18.4706C27.7514 18.3465 27.8339 18.1815 27.9164 18.0988C28.0402 18.0161 28.1642 17.9752 28.2878 18.0161C28.3292 18.0161 29.1546 18.2638 30.1869 19.0069C31.0123 19.626 32.0445 20.6995 32.7876 22.4331C32.9112 21.979 32.8285 21.4427 32.6222 21.1123C32.5399 20.9473 32.5812 20.7409 32.7049 20.6168C32.8285 20.4932 33.0353 20.4518 33.2003 20.5755C33.613 20.8232 34.5211 21.6077 35.347 22.7226C36.0488 23.6716 36.8742 25.1988 36.7915 26.8505C36.6678 28.9968 35.0993 30.813 32.1681 32.2166C32.1681 32.1752 32.1268 32.2166 32.0445 32.2166Z" fill="black"/>
<path d="M20.4447 20.8645C20.1142 20.8645 19.8254 21.1536 19.8254 21.4836C19.8254 21.814 20.1142 22.103 20.4447 22.103C20.7748 22.103 21.064 21.814 21.064 21.4836C21.064 21.1122 20.7748 20.8645 20.4447 20.8645ZM20.4447 22.9285C19.6604 22.9285 19 22.268 19 21.4836C19 20.6995 19.6604 20.0391 20.4447 20.0391C21.2292 20.0391 21.8894 20.6995 21.8894 21.4836C21.8894 22.268 21.2292 22.9285 20.4447 22.9285Z" fill="black"/>
<path d="M39.0206 23.4241C38.6902 23.4241 38.4015 23.7127 38.4015 24.0431C38.4015 24.3735 38.6902 24.6626 39.0206 24.6626C39.3506 24.6626 39.6397 24.3735 39.6397 24.0431C39.6397 23.7127 39.3506 23.4241 39.0206 23.4241ZM39.0206 25.488C38.2361 25.488 37.5757 24.8276 37.5757 24.0431C37.5757 23.2591 38.2361 22.5986 39.0206 22.5986C39.8047 22.5986 40.4655 23.2591 40.4655 24.0431C40.4655 24.8276 39.8047 25.488 39.0206 25.488Z" fill="black"/>
<path d="M34.3977 19.2954C34.15 19.2954 33.9436 19.1308 33.9436 18.8831C33.9436 18.6354 34.1086 18.4704 34.3563 18.4704H34.3977C34.6454 18.4704 34.8104 18.6354 34.8104 18.8831C34.8104 19.1308 34.604 19.2954 34.3977 19.2954Z" fill="black"/>
<path d="M19.9496 29.1205C19.7018 29.1205 19.4954 28.9555 19.4954 28.7082C19.4954 28.4601 19.6606 28.2951 19.9082 28.2951H19.9496C20.1973 28.2951 20.3624 28.4601 20.3624 28.7082C20.3624 28.9555 20.1559 29.1205 19.9496 29.1205Z" fill="black"/>
<path d="M39.062 30.6481C38.8147 30.6481 38.6079 30.4831 38.6079 30.2354C38.6079 29.9876 38.7733 29.8222 39.021 29.8222H39.062C39.3097 29.8222 39.4751 29.9876 39.4751 30.2354C39.4751 30.4831 39.2687 30.6481 39.062 30.6481Z" fill="black"/>
<path d="M28.2051 31.1848C27.9575 31.1848 27.7512 31.0194 27.7512 30.7721C27.7512 30.524 27.9163 30.359 28.164 30.359H28.2051C28.4529 30.359 28.6181 30.524 28.6181 30.7721C28.6181 31.0194 28.4529 31.1848 28.2051 31.1848Z" fill="black"/>
<path d="M30.7644 29.1205C30.5167 29.1205 30.3103 28.9555 30.3103 28.7082C30.3103 28.4601 30.4757 28.2951 30.7234 28.2951H30.7644C31.0121 28.2951 31.1775 28.4601 31.1775 28.7082C31.1775 28.9555 31.0121 29.1205 30.7644 29.1205Z" fill="black"/>
</svg>
