<svg width="44" height="47" viewBox="0 0 44 47" fill="none" xmlns="http://www.w3.org/2000/svg">
<path d="M3.94651 32.8541C5.10231 32.8541 6.01074 33.7625 6.01074 34.9192C6.01074 36.0758 5.10231 36.9834 3.94651 36.9834C2.79071 36.9834 1.88147 36.0758 1.88147 34.9192C1.88147 33.7625 2.79071 32.8541 3.94651 32.8541Z" fill="#FDE8F9"/>
<path d="M41.11 34.9191C42.2658 34.9191 43.175 35.8275 43.175 36.9833C43.175 38.1399 42.2658 39.0483 41.11 39.0483C39.9533 39.0483 39.0449 38.1399 39.0449 36.9833C39.0449 35.8275 39.9533 34.9191 41.11 34.9191Z" fill="#FDE8F9"/>
<path d="M34.9164 1.88391C36.073 1.88391 36.9814 2.79233 36.9814 3.94895C36.9814 5.10475 36.073 6.01318 34.9164 6.01318C33.7598 6.01318 32.8522 5.10475 32.8522 3.94895C32.8522 2.79233 33.7598 1.88391 34.9164 1.88391Z" fill="#FDE8F9"/>
<path d="M31.0338 33.0194L28.474 44.9116L27.5655 43.2602C26.8226 41.939 26.4097 40.535 26.2443 39.0482L26.1615 38.5527L31.0338 33.0194Z" fill="#6E9137"/>
<path d="M34.7503 15.5938L32.5214 26.082L29.0516 27.7334C27.9785 28.3945 26.8227 29.3856 25.8315 30.4595C26.0789 28.6418 26.74 26.825 27.5656 25.5037L34.7503 15.5938Z" fill="#6E9137"/>
<path d="M17.4909 28.1464C19.8025 30.8725 20.9592 34.3407 20.7118 37.9744L20.4636 41.1125V45.2417L18.152 43.8385C16.087 42.5992 14.5175 40.7824 13.6918 38.5527L0.890381 5.93061L17.4909 28.1464Z" fill="#6E9137"/>
<path d="M40.1195 22.5303L31.0345 33.0193L26.245 38.5526L20.5471 45.1597V41.0304L23.6852 33.7622C24.0973 32.6064 24.9229 31.3671 25.9141 30.294C26.9052 29.2201 28.0619 28.229 29.1358 27.5687L32.604 25.9166L40.1195 22.5303Z" fill="#8EC155"/>
<path d="M25.8315 31.2021C25.7488 31.2021 25.7488 31.2021 25.666 31.2021C25.2532 31.1194 24.9222 30.7066 25.0058 30.2937C25.3359 28.3942 25.997 26.4946 26.8226 25.0079C26.8226 25.0079 26.8226 24.9251 26.9046 24.9251L34.09 15.098C34.3374 14.7671 34.7502 14.6843 35.0812 14.8498C35.4113 15.0152 35.6595 15.4281 35.5768 15.7582L33.3463 26.2472C33.2643 26.6601 32.8515 26.9902 32.3559 26.9074C31.943 26.8247 31.6121 26.4119 31.6949 25.9163L33.0989 19.2272L28.2258 25.8344C27.4829 27.1548 26.9046 28.807 26.6572 30.4592C26.5744 30.9548 26.1616 31.2021 25.8315 31.2021Z" fill="#101110"/>
<path d="M28.4748 45.7373C28.1447 45.7373 27.8964 45.5726 27.7318 45.3253L26.8234 43.6731C26.0796 42.2691 25.584 40.7823 25.4194 39.2137L25.3367 38.7181C25.2539 38.3053 25.584 37.8916 26.0796 37.8097C26.4925 37.727 26.9053 38.0571 26.988 38.5527L27.0708 39.0482C27.1535 40.2868 27.5663 41.5253 28.1446 42.5992L30.2089 32.8539C30.2916 32.4411 30.7044 32.111 31.2 32.1937C31.6129 32.2756 31.9438 32.6893 31.8611 33.1849L29.3004 45.0771C29.2177 45.4072 28.9703 45.6554 28.6394 45.7373C28.5575 45.7373 28.4748 45.7373 28.4748 45.7373Z" fill="#101110"/>
<path d="M20.4628 46.0684C20.2982 46.0684 20.05 45.9856 19.8853 45.9029C19.5552 45.5728 19.4717 45.0772 19.8018 44.7463L36.8971 24.9256L29.4651 28.3947C28.4739 28.973 27.4009 29.8814 26.4916 30.9553C25.5005 32.0284 24.8403 33.1022 24.4274 34.1753L21.2893 41.4435C21.1238 41.8563 20.6283 42.021 20.2154 41.8563C19.8018 41.6909 19.6371 41.1961 19.8018 40.7825L22.858 33.5978C23.3535 32.3585 24.1792 31.1199 25.2531 29.8814C26.327 28.7248 27.4828 27.6509 28.7221 26.9907H28.8049L39.7887 21.7875C40.1188 21.6229 40.5316 21.7048 40.7798 22.0349C41.0272 22.3658 41.0272 22.7787 40.7798 23.1088L21.1238 45.7374C20.9584 45.9856 20.711 46.0684 20.4628 46.0684Z" fill="#101110"/>
<path d="M3.86362 11.2991L14.4354 38.2225C15.2602 40.2867 16.6642 42.0208 18.5646 43.0947L19.6377 43.7557V41.1124V41.0305L19.8859 37.8915C20.1333 34.506 19.0594 31.2852 16.8297 28.7246C16.8297 28.7246 16.8297 28.7246 16.8297 28.6419L3.86362 11.2991ZM20.4634 46.0682C20.2987 46.0682 20.1333 46.0681 20.0505 45.9854L17.7381 44.5814C15.5912 43.2601 13.8571 41.2778 12.8659 38.8827L0.0652776 6.26144C-0.101007 5.84859 0.0653 5.43496 0.395411 5.27032C0.725523 5.10485 1.22107 5.18759 1.46845 5.5177L18.0683 27.7335C20.547 30.6242 21.7846 34.3406 21.5373 38.1398L21.2899 41.2778V45.4071C21.2899 45.7372 21.1244 45.9854 20.8771 46.1509C20.7935 45.9854 20.6288 46.0682 20.4634 46.0682Z" fill="#101110"/>
<path d="M25.5004 22.3657C25.1703 22.3657 24.8402 22.2003 24.7574 21.8702L16.5817 1.14112C16.4162 0.810192 16.5816 0.397341 16.9117 0.149961C17.2419 -0.0982361 17.6547 -0.0154839 17.9029 0.232714C17.9029 0.232714 20.8764 2.95794 23.7663 6.26152C27.7309 10.8036 29.7959 14.1891 29.7959 16.4196C29.7959 16.9152 29.465 17.2453 28.9694 17.2453C28.4739 17.2453 28.1437 16.9152 28.1437 16.4196C28.1437 13.5289 23.188 7.83018 19.4715 4.11377L26.2442 21.2918C26.4096 21.7047 26.1615 22.2003 25.7486 22.3657C25.7486 22.3657 25.5831 22.3657 25.5004 22.3657Z" fill="#101110"/>
<path d="M41.1101 35.7448C40.449 35.7448 39.8707 36.3231 39.8707 36.9833C39.8707 37.6443 40.449 38.2226 41.1101 38.2226C41.7711 38.2226 42.3486 37.6443 42.3486 36.9833C42.3486 36.3231 41.853 35.7448 41.1101 35.7448ZM41.1101 39.874C39.5406 39.874 38.2194 38.5528 38.2194 36.9833C38.2194 35.4146 39.5406 34.0934 41.1101 34.0934C42.6787 34.0934 44 35.4146 44 36.9833C44 38.5528 42.7623 39.874 41.1101 39.874Z" fill="#101110"/>
<path d="M34.9162 2.70977C34.256 2.70977 33.6777 3.28807 33.6777 3.94911C33.6777 4.60934 34.256 5.18765 34.9162 5.18765C35.5773 5.18765 36.1548 4.60934 36.1548 3.94911C36.1548 3.20534 35.66 2.70977 34.9162 2.70977ZM34.9162 6.83984C33.3468 6.83984 32.0255 5.51776 32.0255 3.94911C32.0255 2.37965 33.3468 1.05838 34.9162 1.05838C36.4857 1.05838 37.807 2.37965 37.807 3.94911C37.807 5.51776 36.5684 6.83984 34.9162 6.83984Z" fill="#101110"/>
<path d="M3.9458 33.6803C3.28476 33.6803 2.70646 34.2578 2.70646 34.9188C2.70646 35.5799 3.28476 36.1574 3.9458 36.1574C4.60684 36.1574 5.18518 35.5799 5.18518 34.9188C5.18518 34.2578 4.68876 33.6803 3.9458 33.6803ZM3.9458 37.8096C2.37634 37.8096 1.05591 36.4875 1.05591 34.9188C1.05591 33.3494 2.37634 32.0281 3.9458 32.0281C5.51526 32.0281 6.83573 33.3494 6.83573 34.9188C6.83573 36.4875 5.59718 37.8096 3.9458 37.8096Z" fill="#101110"/>
<path d="M32.8519 46.0684H10.1397C9.64496 46.0684 9.31482 45.7374 9.31482 45.2418C9.31482 44.7462 9.64496 44.417 10.1397 44.417H32.8519C33.3466 44.417 33.6775 44.7462 33.6775 45.2418C33.6775 45.6555 33.3466 46.0684 32.8519 46.0684Z" fill="#101110"/>
<path d="M11.214 20.2192C11.1312 20.2192 10.9666 20.2193 10.8839 20.1365C10.471 19.9711 10.3064 19.4755 10.471 19.0626C13.6091 12.7856 11.6268 7.74872 11.4622 7.33506C11.2975 7.00494 11.3794 6.67485 11.6268 6.42665C11.9577 6.09654 12.4533 6.09654 12.7834 6.42665C12.8662 6.50938 12.9481 6.59211 12.9481 6.67403C13.0316 6.92223 13.6091 8.40895 13.7746 10.6386C14.0219 13.6948 13.3617 16.8329 11.875 19.7237C11.7923 20.0538 11.4622 20.2192 11.214 20.2192Z" fill="#101110"/>
<path d="M18.3987 22.2827C17.9867 22.2827 17.5738 21.9526 17.5738 21.457C17.4075 14.6844 11.6269 7.5825 11.5441 7.49976C11.214 7.16965 11.2976 6.59135 11.6269 6.34398C11.9578 6.01304 12.5353 6.09578 12.7835 6.42589C13.0317 6.75682 18.977 14.0242 19.1433 21.3743C19.2252 21.9526 18.8951 22.2827 18.3987 22.2827Z" fill="#101110"/>
</svg>
