<svg width="32" height="33" viewBox="0 0 32 33" fill="none" xmlns="http://www.w3.org/2000/svg">
<path d="M18.2069 0.0291765C19.3164 0.37845 20.4219 0.74142 21.5172 1.13262C22.7794 0.980128 22.7794 0.980128 23.7241 0.580901C23.5421 1.85538 23.36 3.12987 23.1724 4.44297C24.5379 4.71607 24.5379 4.71607 25.931 4.99469C25.931 5.35883 25.931 5.72297 25.931 6.09814C25.3848 6.09814 24.8386 6.09814 24.2759 6.09814C24.2759 6.82642 24.2759 7.55469 24.2759 8.30504C25.0041 8.30504 25.7324 8.30504 26.4828 8.30504C26.3007 8.85125 26.1186 9.39745 25.931 9.96021C25.3848 10.1423 24.8386 10.3244 24.2759 10.5119C23.7297 11.6044 23.1834 12.6968 22.6207 13.8223C25.7159 13.8223 28.811 13.8223 32 13.8223C32 15.2788 32 16.7354 32 18.2361C30.3614 18.2361 28.7228 18.2361 27.0345 18.2361C26.9612 19.0469 26.888 19.8576 26.8125 20.693C26.7142 21.7591 26.6157 22.8252 26.5172 23.8912C26.4692 24.4254 26.4212 24.9595 26.3718 25.5098C26.3238 26.0254 26.2758 26.541 26.2263 27.0723C26.183 27.5461 26.1396 28.02 26.095 28.5082C25.931 29.8223 25.931 29.8223 25.3793 32.0292C19.189 32.0292 12.9986 32.0292 6.62069 32.0292C6.34759 30.4702 6.07448 28.9112 5.7931 27.305C5.70669 26.8217 5.62028 26.3384 5.53125 25.8405C5.09141 23.2646 4.88135 20.8487 4.96552 18.2361C3.3269 18.2361 1.68828 18.2361 0 18.2361C0 16.7795 0 15.323 0 13.8223C3.09517 13.8223 6.19034 13.8223 9.37931 13.8223C8.19998 10.5473 8.19998 10.5473 6.51724 10.0292C6.18724 10.0064 5.85724 9.98366 5.51724 9.96021C5.51724 9.41401 5.51724 8.8678 5.51724 8.30504C6.24552 8.30504 6.97379 8.30504 7.72414 8.30504C7.72414 7.57676 7.72414 6.84849 7.72414 6.09814C7.17793 6.09814 6.63172 6.09814 6.06897 6.09814C6.06897 5.55194 6.06897 5.00573 6.06897 4.44297C6.97931 4.44297 7.88966 4.44297 8.82759 4.44297C8.64552 3.16849 8.46345 1.894 8.27586 0.580901C8.6969 0.694694 9.11793 0.808487 9.55172 0.925728C12.1171 1.28369 15.1236 -0.225759 18.2069 0.0291765Z" fill="#504A40"/>
<path d="M18.2067 0.0291764C19.3162 0.37845 20.4217 0.74142 21.5171 1.13262C22.7792 0.980128 22.7792 0.980128 23.724 0.580901C23.5419 1.85538 23.3598 3.12987 23.1723 4.44297C24.5378 4.71607 24.5378 4.71607 25.9309 4.99469C25.9309 5.35883 25.9309 5.72297 25.9309 6.09814C25.3847 6.09814 24.8385 6.09814 24.2757 6.09814C24.2757 6.82642 24.2757 7.55469 24.2757 8.30504C25.004 8.30504 25.7323 8.30504 26.4826 8.30504C26.3005 8.85124 26.1185 9.39745 25.9309 9.96021C25.3847 10.1423 24.8385 10.3243 24.2757 10.5119C23.7295 11.6043 23.1833 12.6968 22.6205 13.8223C18.2509 13.8223 13.8812 13.8223 9.37916 13.8223C8.83295 12.7299 8.28675 11.6375 7.72399 10.5119C6.57811 9.98204 6.57811 9.98204 5.51709 9.96021C5.51709 9.414 5.51709 8.8678 5.51709 8.30504C6.24537 8.30504 6.97364 8.30504 7.72399 8.30504C7.72399 7.57676 7.72399 6.84849 7.72399 6.09814C7.17778 6.09814 6.63157 6.09814 6.06881 6.09814C6.06881 5.55194 6.06881 5.00573 6.06881 4.44297C6.97916 4.44297 7.8895 4.44297 8.82743 4.44297C8.64537 3.16849 8.4633 1.894 8.27571 0.580901C8.69674 0.694694 9.11778 0.808487 9.55157 0.925728C12.1169 1.28369 15.1235 -0.225759 18.2067 0.0291764Z" fill="#5FBF00"/>
<path d="M0 13.8223C10.56 13.8223 21.12 13.8223 32 13.8223C32 15.2788 32 16.7354 32 18.2361C21.44 18.2361 10.88 18.2361 0 18.2361C0 16.7795 0 15.323 0 13.8223Z" fill="#646054"/>
<path d="M15.4481 0.0292361C15.1864 0.438891 14.9247 0.848546 14.655 1.27062C13.1122 3.98597 13.1715 6.47662 13.2067 9.54648C13.2092 9.95755 13.2117 10.3686 13.2143 10.7922C13.2208 11.8022 13.2307 12.8123 13.2412 13.8223C11.9667 13.8223 10.6923 13.8223 9.37916 13.8223C9.03778 13.0201 9.03778 13.0201 8.6895 12.2016C7.91765 10.4444 7.91765 10.4444 6.51709 10.0292C6.18709 10.0065 5.85709 9.98372 5.51709 9.96027C5.51709 9.41406 5.51709 8.86786 5.51709 8.3051C6.24537 8.3051 6.97364 8.3051 7.72399 8.3051C7.72399 7.57682 7.72399 6.84855 7.72399 6.0982C7.17778 6.0982 6.63157 6.0982 6.06881 6.0982C6.06881 5.55199 6.06881 5.00579 6.06881 4.44303C6.97916 4.44303 7.8895 4.44303 8.82743 4.44303C8.64537 3.16855 8.4633 1.89406 8.27571 0.58096C8.69674 0.694753 9.11778 0.808546 9.55157 0.925788C11.7109 1.22709 13.0811 -0.0987096 15.4481 0.0292361Z" fill="#71D91A"/>
<path d="M16.5518 0.0292969C18.2747 0.297316 19.8598 0.580249 21.5173 1.13275C22.6994 0.917943 22.6994 0.917943 23.7242 0.581021C23.5421 1.8555 23.36 3.12999 23.1724 4.44309C24.0828 4.62516 24.9931 4.80723 25.9311 4.99481C25.9311 5.35895 25.9311 5.72309 25.9311 6.09826C25.3849 6.09826 24.8387 6.09826 24.2759 6.09826C24.2759 6.82654 24.2759 7.55481 24.2759 8.30516C25.0042 8.30516 25.7324 8.30516 26.4828 8.30516C26.3007 8.85137 26.1187 9.39757 25.9311 9.96033C25.3849 10.1424 24.8387 10.3245 24.2759 10.5121C23.3332 12.1673 23.3332 12.1673 22.6207 13.8224C21.1642 13.8224 19.7076 13.8224 18.2069 13.8224C18.2951 13.4284 18.3833 13.0344 18.4742 12.6284C19.2295 8.47423 19.0932 4.87344 17.1035 1.13275C16.9214 0.768607 16.7393 0.404469 16.5518 0.0292969Z" fill="#70D919"/>
<path d="M5.51709 20.4434C8.24812 20.4434 10.9792 20.4434 13.793 20.4434C13.793 20.9896 13.793 21.5358 13.793 22.0985C11.0619 22.0985 8.33088 22.0985 5.51709 22.0985C5.51709 21.5523 5.51709 21.0061 5.51709 20.4434Z" fill="#2B2721"/>
<path d="M6.06885 24.3047C8.43574 24.3047 10.8026 24.3047 13.2413 24.3047C13.2413 24.8509 13.2413 25.3971 13.2413 25.9599C10.8744 25.9599 8.50747 25.9599 6.06885 25.9599C6.06885 25.4137 6.06885 24.8674 6.06885 24.3047Z" fill="#2D2924"/>
<path d="M8.27588 0.581055C10.0798 0.892069 10.9384 1.40843 12.1379 2.78795C11.9559 3.33416 11.7738 3.88037 11.5862 4.44312C10.6759 4.44312 9.76553 4.44312 8.8276 4.44312C8.64553 3.16864 8.46347 1.89416 8.27588 0.581055Z" fill="#6AC911"/>
<path d="M16.5518 0.0292969C19.7242 0.512055 19.7242 0.512055 20.9656 1.13275C20.6335 2.24748 20.2632 3.35129 19.8621 4.44309C19.3159 4.71619 19.3159 4.71619 18.7587 4.99481C18.4969 4.38033 18.2352 3.76585 17.9656 3.13275C17.5156 2.08882 17.0601 1.04605 16.5518 0.0292969Z" fill="#73DC1E"/>
<path d="M15.4485 0.0286926C14.7202 1.48524 13.9919 2.9418 13.2416 4.44249C12.5133 3.71421 11.785 2.98593 11.0347 2.23559C11.2167 1.68938 11.3988 1.14318 11.5864 0.580417C12.9452 -0.0989731 13.9475 -0.0108064 15.4485 0.0286926Z" fill="#79DD27"/>
<path d="M14.8965 8.85645C15.8068 9.03851 16.7171 9.22058 17.6551 9.40817C17.473 10.1364 17.2909 10.8647 17.1033 11.6151C16.193 11.433 15.2827 11.2509 14.3447 11.0633C14.5268 10.3351 14.7089 9.60679 14.8965 8.85645Z" fill="#6DD814"/>
<path d="M14.8965 5.5459C15.8068 5.72797 16.7171 5.91004 17.6551 6.09762C17.473 6.8259 17.2909 7.55417 17.1033 8.30452C16.193 8.12245 15.2827 7.94038 14.3447 7.75279C14.5268 7.02452 14.7089 6.29624 14.8965 5.5459Z" fill="#6DD814"/>
<path d="M15.4482 1.68457C16.1765 2.04871 16.9047 2.41285 17.6551 2.78802C17.2909 3.51629 16.9268 4.24457 16.5516 4.99492C15.8233 4.63078 15.0951 4.26664 14.3447 3.89147C14.7089 3.16319 15.073 2.43492 15.4482 1.68457Z" fill="#6ED915"/>
<path d="M5.51709 8.30469C6.97364 8.30469 8.43019 8.30469 9.93088 8.30469C9.74881 8.85089 9.56674 9.3971 9.37916 9.95986C8.10468 9.95986 6.83019 9.95986 5.51709 9.95986C5.51709 9.41365 5.51709 8.86745 5.51709 8.30469Z" fill="#68C30F"/>
<path d="M22.0688 8.30469C23.5254 8.30469 24.982 8.30469 26.4826 8.30469C26.3006 8.85089 26.1185 9.3971 25.9309 9.95986C24.8385 9.95986 23.7461 9.95986 22.6206 9.95986C22.4385 9.41365 22.2564 8.86745 22.0688 8.30469Z" fill="#66C20B"/>
<path d="M22.0692 0.581055C22.6154 0.581055 23.1616 0.581055 23.7244 0.581055C23.0889 1.94271 22.5945 2.81434 21.5175 3.8914C20.9713 3.8914 20.4251 3.8914 19.8623 3.8914C20.4977 2.52974 20.9921 1.65811 22.0692 0.581055Z" fill="#68C30F"/>
</svg>
