<svg width="44" height="20" viewBox="0 0 44 20" fill="none" xmlns="http://www.w3.org/2000/svg">
<path d="M13.1032 3.37911C12.916 3.88214 12.5982 4.35218 12.1409 4.63509C11.3803 5.10641 10.4104 4.98208 9.52295 4.86853C8.63551 4.75498 7.64152 4.69662 6.94312 5.25547C7.11439 4.12382 7.3142 2.92683 8.05827 2.05715C8.78459 1.20841 9.9118 0.817661 11.0098 0.614039C12.1079 0.410417 13.2402 0.353325 14.3001 0C13.8485 0.405975 13.6303 1.00986 13.5015 1.6036C13.3727 2.19734 13.3144 2.81011 13.1032 3.37911Z" fill="white"/>
<path d="M9.62134 3.65C8.78338 4.0122 7.9803 4.45751 7.22925 4.97703C8.48587 3.26686 11.1444 3.14253 12.4689 1.48438C12.2887 2.07494 11.8225 2.54181 11.2985 2.8685C10.7746 3.19582 10.1878 3.40515 9.62134 3.65Z" fill="#ADD250"/>
<path d="M9.26863 2.375C8.77321 3.07214 8.27715 3.76927 7.78174 4.4664C8.51249 3.99382 8.9578 3.18758 9.26863 2.375Z" fill="#ADD250"/>
<path d="M10.689 1.66113C10.427 2.31069 10.0439 2.91078 9.56494 3.42078C9.77237 3.27044 9.78252 3.45757 9.96521 3.27869C10.0445 3.20067 10.3166 2.77693 10.3839 2.68812C10.6065 2.39696 10.748 2.02397 10.689 1.66113Z" fill="#ADD250"/>
<path d="M9.96466 3.2787C9.92977 3.27616 9.8898 3.29202 9.87331 3.3231C9.83905 3.38717 9.93611 3.43918 10.0078 3.44807C10.3903 3.49628 10.7785 3.54448 11.1604 3.4931C11.5429 3.44109 11.9254 3.27743 12.1607 2.97168C11.3437 3.23049 10.7468 3.33008 9.96466 3.2787Z" fill="#ADD250"/>
<path d="M11.4527 4.02613C10.5189 4.1105 9.57379 4.06609 8.6521 3.89355C8.64385 4.08132 8.84747 4.20248 9.02825 4.25513C9.81863 4.48666 10.6623 4.25576 11.4527 4.02613Z" fill="#ADD250"/>
<path d="M6.72613 2.2274C6.16855 1.17187 5.04831 0.493764 3.88113 0.245739C2.71332 -0.00228672 1.49667 0.133462 0.328857 0.380853C0.888976 0.556564 1.29051 1.06403 1.51062 1.60766C1.73137 2.15128 1.80305 2.74185 1.92231 3.31656C2.04156 3.89127 2.21981 4.47612 2.60866 4.91572C3.15926 5.53864 4.05241 5.76573 4.88149 5.70293C5.71056 5.6395 6.49587 5.32423 7.26659 5.01341C7.22409 4.06 7.17207 3.07107 6.72613 2.2274Z" fill="white"/>
<path d="M4.39806 2.86482C3.88742 2.23112 3.46623 1.43376 2.69678 1.16797C3.4307 1.82514 3.88488 2.73161 4.4856 3.51311C5.08632 4.29398 5.95599 4.99682 6.93985 4.93973C6.02133 4.33648 5.08632 3.7199 4.39806 2.86482Z" fill="#ADD250"/>
<path d="M5.24373 1.92871C5.1987 2.35816 5.15302 2.79141 5.20059 3.22085C5.24817 3.6503 5.39598 4.08038 5.69221 4.39501C5.67762 4.09877 5.61926 3.80634 5.5609 3.51582C5.4556 2.98678 5.34967 2.45775 5.24373 1.92871Z" fill="#ADD250"/>
<path d="M4.08939 2.97326C4.14204 3.08554 4.33234 3.02338 4.36913 2.90475C4.40592 2.78613 4.13696 1.26627 3.92383 1.12988C3.97902 1.74455 4.0342 2.35922 4.08939 2.97326Z" fill="#ADD250"/>
<path d="M4.23593 3.19151C4.3 3.18326 4.37232 3.16677 4.40403 3.11031C4.43955 3.04624 4.40086 2.96188 4.33933 2.92255C4.2778 2.88258 4.20168 2.87624 4.12937 2.87117C3.63268 2.83501 3.13599 2.79885 2.63867 2.7627C3.08842 3.1046 3.67455 3.26255 4.23593 3.19151Z" fill="#ADD250"/>
<path d="M3.22534 3.89648C3.89837 4.2866 4.72745 4.39888 5.47977 4.2016C5.4563 4.12992 5.43283 4.05888 5.40999 3.9872C4.68178 3.95738 3.95356 3.92693 3.22534 3.89648Z" fill="#ADD250"/>
<path d="M7.78229 11.4601C8.18065 11.3243 8.25741 10.8023 8.26502 10.3811C8.28405 9.34011 8.30308 8.29409 8.1667 7.26203C8.03095 6.22996 7.73217 5.20361 7.1619 4.33203C6.92402 4.54834 6.83268 4.88771 6.83966 5.20932C6.846 5.53029 6.93798 5.84239 7.01156 6.15511C7.3928 7.75935 7.31605 9.46888 6.79272 11.0319C7.06549 11.297 7.42325 11.5831 7.78229 11.4601Z" fill="white"/>
<path d="M27.745 3.37911C27.5572 3.88214 27.2394 4.35218 26.7827 4.63509C26.0221 5.10641 25.0522 4.98208 24.1648 4.86853C23.2774 4.75498 22.2834 4.69662 21.585 5.25547C21.7562 4.12382 21.956 2.92683 22.7001 2.05715C23.4264 1.20841 24.5537 0.817661 25.6517 0.614039C26.7497 0.410417 27.882 0.353325 28.942 0C28.4903 0.405975 28.2721 1.00986 28.1434 1.6036C28.0152 2.19734 27.9569 2.81011 27.745 3.37911Z" fill="white"/>
<path d="M24.2629 3.65C23.425 4.0122 22.6225 4.45751 21.8708 4.97703C23.1268 3.26686 25.786 3.14253 27.1105 1.48438C26.9303 2.07494 26.4641 2.54181 25.9401 2.8685C25.4162 3.19582 24.83 3.40515 24.2629 3.65Z" fill="#ADD250"/>
<path d="M23.911 2.375C23.4155 3.07214 22.9195 3.76927 22.4241 4.4664C23.1542 3.99382 23.6001 3.18758 23.911 2.375Z" fill="#ADD250"/>
<path d="M25.3307 1.66113C25.0688 2.31069 24.6856 2.91078 24.2061 3.42078C24.4135 3.27044 24.4236 3.45757 24.6063 3.27869C24.6856 3.20067 24.9577 2.77693 25.025 2.68812C25.2483 2.39696 25.3904 2.02397 25.3307 1.66113Z" fill="#ADD250"/>
<path d="M24.6062 3.2787C24.5713 3.27616 24.5313 3.29202 24.5142 3.3231C24.4799 3.38717 24.577 3.43918 24.6487 3.44807C25.0318 3.49628 25.4194 3.54448 25.8019 3.4931C26.1844 3.44109 26.5669 3.27743 26.8022 2.97168C25.9852 3.23049 25.3889 3.33008 24.6062 3.2787Z" fill="#ADD250"/>
<path d="M26.0949 4.02613C25.1612 4.1105 24.216 4.06609 23.2937 3.89355C23.2855 4.08132 23.4897 4.20248 23.6699 4.25513C24.4602 4.48666 25.3039 4.25576 26.0949 4.02613Z" fill="#ADD250"/>
<path d="M21.3687 2.2274C20.8111 1.17187 19.6909 0.493764 18.5237 0.245739C17.3559 -0.00228672 16.1392 0.133462 14.9714 0.380853C15.5309 0.556564 15.9331 1.06403 16.1532 1.60766C16.374 2.15128 16.4463 2.74185 16.5649 3.31656C16.6841 3.89127 16.863 4.47612 17.2519 4.91572C17.8018 5.53864 18.6956 5.76573 19.5241 5.70293C20.3531 5.6395 21.1384 5.32423 21.9092 5.01341C21.8667 4.06 21.8147 3.07107 21.3687 2.2274Z" fill="white"/>
<path d="M19.0399 2.86482C18.5293 2.23112 18.1081 1.43376 17.3386 1.16797C18.0732 1.82514 18.5267 2.73161 19.1274 3.51311C19.7282 4.29398 20.5972 4.99682 21.5811 4.93973C20.6632 4.33648 19.7288 3.7199 19.0399 2.86482Z" fill="#ADD250"/>
<path d="M19.8861 1.92871C19.841 2.35816 19.7954 2.79141 19.8429 3.22085C19.8905 3.6503 20.0383 4.08038 20.3339 4.39501C20.3193 4.09877 20.261 3.80634 20.2032 3.51582C20.0973 2.98678 19.992 2.45775 19.8861 1.92871Z" fill="#ADD250"/>
<path d="M18.731 2.97326C18.7843 3.08554 18.9739 3.02338 19.0107 2.90475C19.0475 2.78613 18.7786 1.26627 18.5654 1.12988C18.6206 1.74455 18.6758 2.35922 18.731 2.97326Z" fill="#ADD250"/>
<path d="M18.8775 3.19151C18.9416 3.18326 19.0139 3.16677 19.0456 3.11031C19.0812 3.04624 19.0425 2.96188 18.9809 2.92255C18.9194 2.88258 18.8433 2.87624 18.771 2.87117C18.2743 2.83501 17.7776 2.79885 17.2803 2.7627C17.7307 3.1046 18.3168 3.26255 18.8775 3.19151Z" fill="#ADD250"/>
<path d="M17.8677 3.89648C18.5407 4.2866 19.3698 4.39888 20.1221 4.2016C20.0986 4.12992 20.0758 4.05888 20.0523 3.9872C19.3241 3.95738 18.5959 3.92693 17.8677 3.89648Z" fill="#ADD250"/>
<path d="M22.4246 11.4601C22.823 11.3243 22.8997 10.8023 22.9074 10.3811C22.9264 9.34011 22.9454 8.29409 22.809 7.26203C22.6733 6.22996 22.3745 5.20361 21.8042 4.33203C21.5664 4.54834 21.475 4.88771 21.482 5.20932C21.4883 5.53029 21.5803 5.84239 21.6539 6.15511C22.0345 7.75935 21.9578 9.46888 21.4351 11.0319C21.7072 11.297 22.0656 11.5831 22.4246 11.4601Z" fill="white"/>
<path d="M42.3867 3.37911C42.1996 3.88214 41.8818 4.35218 41.425 4.63509C40.6645 5.10641 39.6946 4.98208 38.8071 4.86853C37.9197 4.75498 36.9257 4.69662 36.2273 5.25547C36.3986 4.12382 36.5984 2.92683 37.3425 2.05715C38.0688 1.20841 39.196 0.817661 40.294 0.614039C41.3921 0.410417 42.5244 0.353325 43.5843 0C43.1327 0.405975 42.9145 1.00986 42.7857 1.6036C42.6569 2.19734 42.5986 2.81011 42.3867 3.37911Z" fill="white"/>
<path d="M38.9049 3.65C38.0669 4.0122 37.2645 4.45751 36.5134 4.97703C37.7694 3.26686 40.4285 3.14253 41.753 1.48438C41.5729 2.07494 41.106 2.54181 40.5827 2.8685C40.0587 3.19582 39.472 3.40515 38.9049 3.65Z" fill="#ADD250"/>
<path d="M38.5528 2.375C38.0574 3.07214 37.5613 3.76927 37.0659 4.4664C37.796 3.99382 38.242 3.18758 38.5528 2.375Z" fill="#ADD250"/>
<path d="M39.9731 1.66113C39.7111 2.31069 39.3273 2.91078 38.8484 3.42078C39.0558 3.27044 39.0666 3.45757 39.2487 3.27869C39.3279 3.20067 39.6001 2.77693 39.6673 2.68812C39.8906 2.39696 40.0321 2.02397 39.9731 1.66113Z" fill="#ADD250"/>
<path d="M39.2485 3.2787C39.213 3.27616 39.1736 3.29202 39.1565 3.3231C39.1223 3.38717 39.2193 3.43918 39.291 3.44807C39.6741 3.49628 40.0617 3.54448 40.4442 3.4931C40.8267 3.44109 41.2092 3.27743 41.4446 2.97168C40.6275 3.23049 40.0306 3.33008 39.2485 3.2787Z" fill="#ADD250"/>
<path d="M40.7369 4.02613C39.8031 4.1105 38.858 4.06609 37.9363 3.89355C37.928 4.08132 38.1323 4.20248 38.3124 4.25513C39.1028 4.48666 39.9465 4.25576 40.7369 4.02613Z" fill="#ADD250"/>
<path d="M36.0103 2.2274C35.4527 1.17187 34.3331 0.493764 33.1653 0.245739C31.9975 -0.00228672 30.7808 0.133462 29.613 0.380853C30.1732 0.556564 30.5747 1.06403 30.7954 1.60766C31.0162 2.15128 31.0885 2.74185 31.2071 3.31656C31.3264 3.89127 31.5053 4.47612 31.8935 4.91572C32.4441 5.53864 33.3372 5.76573 34.1663 5.70293C34.9947 5.6395 35.7807 5.32423 36.5514 5.01341C36.5083 4.06 36.4563 3.07107 36.0103 2.2274Z" fill="white"/>
<path d="M33.6823 2.86482C33.1716 2.23112 32.7504 1.43376 31.981 1.16797C32.7155 1.82514 33.1691 2.73161 33.7698 3.51311C34.3705 4.29398 35.2395 4.99682 36.2234 4.93973C35.3049 4.33648 34.3711 3.7199 33.6823 2.86482Z" fill="#ADD250"/>
<path d="M34.5279 1.92871C34.4829 2.35816 34.4372 2.79141 34.4848 3.22085C34.5324 3.6503 34.6801 4.08038 34.9757 4.39501C34.9612 4.09877 34.9028 3.80634 34.8444 3.51582C34.7398 2.98678 34.6338 2.45775 34.5279 1.92871Z" fill="#ADD250"/>
<path d="M33.3733 2.97326C33.426 3.08554 33.6163 3.02338 33.6531 2.90475C33.6899 2.78613 33.4209 1.26627 33.2078 1.12988C33.263 1.74455 33.3181 2.35922 33.3733 2.97326Z" fill="#ADD250"/>
<path d="M33.5201 3.19151C33.5842 3.18326 33.6565 3.16677 33.6882 3.11031C33.7237 3.04624 33.685 2.96188 33.6235 2.92255C33.5626 2.88258 33.4859 2.87624 33.4129 2.87117C32.9162 2.83501 32.4195 2.79885 31.9229 2.7627C32.3726 3.1046 32.9587 3.26255 33.5201 3.19151Z" fill="#ADD250"/>
<path d="M32.5095 3.89648C33.1826 4.2866 34.0116 4.39888 34.7639 4.2016C34.7405 4.12992 34.7176 4.05888 34.6942 3.9872C33.9659 3.95738 33.2377 3.92693 32.5095 3.89648Z" fill="#ADD250"/>
<path d="M37.0666 11.4601C37.4656 11.3243 37.5417 10.8023 37.5499 10.3811C37.569 9.34011 37.588 8.29409 37.4516 7.26203C37.3152 6.22996 37.0171 5.20361 36.4468 4.33203C36.2089 4.54834 36.1176 4.88771 36.1246 5.20932C36.1309 5.53029 36.2229 5.84239 36.2965 6.15511C36.6771 7.75935 36.601 9.46888 36.0776 11.0319C36.3498 11.297 36.7075 11.5831 37.0666 11.4601Z" fill="white"/>
<path d="M22.1958 9.00003C23.5019 9.17701 24.4616 10.4209 25.762 10.6347C27.7488 10.9608 29.5186 8.78309 31.5009 9.13578C32.7518 9.35843 33.6785 10.5472 34.9377 10.714C36.4912 10.9202 37.7726 9.53224 39.2791 9.10152C40.9937 8.61182 42.9925 9.5703 43.7068 11.2037C44.4217 12.8378 43.7835 14.9387 42.2947 15.9206C28.8069 14.6501 15.175 14.9171 1.74734 16.7148C0.998192 15.4899 0.229378 14.2041 0.123444 12.7724C0.0175102 11.3407 0.809792 9.73269 2.21041 9.41996C3.89076 9.0457 5.45441 10.6043 7.17536 10.5618C8.96228 10.518 10.4301 8.76659 12.2107 8.92074C13.8232 9.06093 14.9974 10.7267 16.6117 10.8447C18.6029 10.9906 20.2179 8.73234 22.1958 9.00003Z" fill="#A3948D"/>
<path d="M11.9804 14.0272C10.5455 14.1953 9.10302 13.8889 7.68718 13.6066C6.27071 13.3243 4.8111 13.0649 3.39018 13.3262C1.96927 13.5869 0.576908 14.4782 0.123358 15.8496C-0.330192 17.221 0.509671 18.9921 1.942 19.1786C3.9668 19.4425 5.64208 16.7504 7.60091 17.3283C8.62473 17.6302 9.32123 18.7783 10.3882 18.8164C11.6994 18.8627 12.6857 17.1798 13.9722 17.4361C14.8438 17.6093 15.3665 18.6236 16.2431 18.7669C17.5422 18.9788 18.4588 17.1874 19.7738 17.242C20.8547 17.287 21.5385 18.5544 22.6074 18.7238C24.0492 18.9522 25.3027 17.0904 26.6976 17.5224C27.2869 17.705 27.6935 18.2639 28.272 18.4783C29.8515 19.0625 31.4602 16.8354 33.0441 17.4082C33.785 17.6759 34.257 18.5062 35.0328 18.6401C35.9576 18.7999 36.736 17.8966 37.6659 17.7698C38.7494 17.622 39.7002 18.5417 40.7875 18.6527C42.2997 18.8075 43.5969 17.1532 43.3527 15.653C43.1085 14.1521 41.6603 13.0389 40.1512 12.8575C38.5242 12.6621 36.9009 13.363 35.2656 13.2507C33.1418 13.1048 31.2223 11.6059 29.0992 11.7556C27.4138 11.8742 25.9104 13.0262 24.2205 13.0382C22.7558 13.049 21.4174 12.1996 19.9641 12.0163C17.2168 11.6687 14.7296 13.7049 11.9804 14.0272Z" fill="#664A3B"/>
</svg>
