<svg width="45" height="32" viewBox="0 0 45 32" fill="none" xmlns="http://www.w3.org/2000/svg">
<path d="M8.01229 6.27734H6.05908V13.8143H8.01229V6.27734Z" fill="#87BE00"/>
<path d="M1.9071 3.88254C2.30253 5.07956 3.5509 5.76888 4.75031 6.15773C5.72632 6.47371 6.74116 6.66963 7.76495 6.73951C7.88501 3.76548 5.79084 0.842811 2.93627 0C2.2177 1.18268 1.47226 2.56786 1.9071 3.88254Z" fill="#87BE00"/>
<path d="M4.1416 2.32715C5.2323 3.82701 6.52609 5.17812 7.97577 6.33392C7.50867 6.56867 6.92747 6.47669 6.47829 6.20909C6.02971 5.94149 5.69342 5.52158 5.40313 5.08674C4.83926 4.24214 4.41159 3.30615 4.1416 2.32715Z" fill="white"/>
<path d="M12.0812 4.29856C11.6858 5.49558 10.4374 6.18487 9.23802 6.57373C8.262 6.88971 7.24717 7.08562 6.22337 7.15551C6.10391 4.18148 8.1981 1.25883 11.0521 0.416016C11.7706 1.5993 12.5161 2.98387 12.0812 4.29856Z" fill="#87BE00"/>
<path d="M10.3723 2.32715C9.28156 3.82701 7.98777 5.17812 6.53809 6.33392C7.00519 6.56867 7.58637 6.47669 8.03555 6.20909C8.48413 5.94149 8.82103 5.52158 9.11072 5.08674C9.67459 4.24214 10.1023 3.30615 10.3723 2.32715Z" fill="white"/>
<path d="M10.0026 9.59961H4.17163V24.5576H10.0026V9.59961Z" fill="#5F625E"/>
<path d="M15.8944 6.27734H13.9412V13.8143H15.8944V6.27734Z" fill="#87BE00"/>
<path d="M9.78912 3.88254C10.1845 5.07956 11.4329 5.76888 12.6323 6.15773C13.6084 6.47371 14.6232 6.66963 15.647 6.73951C15.7671 3.76548 13.6729 0.842811 10.8183 0C10.1003 1.18268 9.35428 2.56786 9.78912 3.88254Z" fill="#87BE00"/>
<path d="M12.0244 2.32715C13.1151 3.82701 14.4083 5.17812 15.858 6.33392C15.3915 6.56867 14.8097 6.47669 14.3611 6.20909C13.9119 5.94149 13.5756 5.52158 13.2853 5.08674C12.7215 4.24214 12.2938 3.30615 12.0244 2.32715Z" fill="white"/>
<path d="M19.9641 4.29856C19.5687 5.49558 18.3203 6.18487 17.1209 6.57373C16.1449 6.88971 15.13 7.08562 14.1062 7.15551C13.9862 4.18148 16.0803 1.25883 18.9349 0.416016C19.6535 1.5993 20.3989 2.98387 19.9641 4.29856Z" fill="#87BE00"/>
<path d="M18.2545 2.32715C17.1638 3.82701 15.8706 5.17812 14.4209 6.33392C14.8874 6.56867 15.4692 6.47669 15.9178 6.20909C16.3664 5.94149 16.7026 5.52158 16.9935 5.08674C17.5574 4.24214 17.9851 3.30615 18.2545 2.32715Z" fill="white"/>
<path d="M17.8846 9.59961H12.0542V24.5576H17.8846V9.59961Z" fill="#5F625E"/>
<path d="M23.7771 6.27734H21.8232V13.8143H23.7771V6.27734Z" fill="#87BE00"/>
<path d="M17.6715 3.88254C18.0675 5.07956 19.3159 5.76888 20.5153 6.15773C21.4913 6.47371 22.5061 6.66963 23.5293 6.73951C23.6494 3.76548 21.5552 0.842811 18.7012 0C17.9827 1.18268 17.2378 2.56786 17.6715 3.88254Z" fill="#87BE00"/>
<path d="M19.907 2.32715C20.9977 3.82701 22.2915 5.17812 23.7411 6.33392C23.274 6.56867 22.6929 6.47669 22.2437 6.20909C21.7951 5.94149 21.4588 5.52158 21.1679 5.08674C20.6035 4.24214 20.1764 3.30615 19.907 2.32715Z" fill="white"/>
<path d="M27.8459 4.29856C27.4505 5.49558 26.2021 6.18487 25.0027 6.57373C24.0267 6.88971 23.0119 7.08562 21.9881 7.15551C21.868 4.18148 23.9628 1.25883 26.8168 0.416016C27.5359 1.5993 28.2808 2.98387 27.8459 4.29856Z" fill="#87BE00"/>
<path d="M26.1365 2.32715C25.0458 3.82701 23.7527 5.17812 22.303 6.33392C22.7695 6.56867 23.3513 6.47669 23.7998 6.20909C24.249 5.94149 24.5853 5.52158 24.8756 5.08674C25.4395 4.24214 25.8672 3.30615 26.1365 2.32715Z" fill="white"/>
<path d="M25.7673 9.59961H19.9363V24.5576H25.7673V9.59961Z" fill="#5F625E"/>
<path d="M31.6598 6.27734H29.7065V13.8143H31.6598V6.27734Z" fill="#87BE00"/>
<path d="M25.5548 3.88254C25.9502 5.07956 27.1986 5.76888 28.398 6.15773C29.374 6.47371 30.3889 6.66963 31.4127 6.73951C31.5327 3.76548 29.4385 0.842811 26.584 0C25.8654 1.18268 25.12 2.56786 25.5548 3.88254Z" fill="#87BE00"/>
<path d="M27.7898 2.32715C28.8805 3.82701 30.1737 5.17812 31.6234 6.33392C31.1569 6.56867 30.5751 6.47669 30.1265 6.20909C29.6773 5.94149 29.341 5.52158 29.0507 5.08674C28.4869 4.24214 28.0592 3.30615 27.7898 2.32715Z" fill="white"/>
<path d="M35.7295 4.29856C35.3335 5.49558 34.0857 6.18487 32.8857 6.57373C31.9096 6.88971 30.8954 7.08562 29.8716 7.15551C29.7516 4.18148 31.8457 1.25883 34.6997 0.416016C35.4183 1.5993 36.1637 2.98387 35.7295 4.29856Z" fill="#87BE00"/>
<path d="M34.0192 2.32715C32.9285 3.82701 31.6353 5.17812 30.1851 6.33392C30.6522 6.56867 31.2334 6.47669 31.6825 6.20909C32.1311 5.94149 32.468 5.52158 32.7583 5.08674C33.3222 4.24214 33.7498 3.30615 34.0192 2.32715Z" fill="white"/>
<path d="M33.6501 9.59961H27.8191V24.5576H33.6501V9.59961Z" fill="#5F625E"/>
<path d="M39.2469 6.27734H37.2937V13.8143H39.2469V6.27734Z" fill="#87BE00"/>
<path d="M33.142 3.88254C33.538 5.07956 34.7858 5.76888 35.9858 6.15773C36.9618 6.47371 37.9766 6.66963 38.9998 6.73951C39.1199 3.76548 37.0257 0.842811 34.1717 0C33.4526 1.18268 32.7071 2.56786 33.142 3.88254Z" fill="#87BE00"/>
<path d="M35.377 2.32715C36.4676 3.82701 37.7608 5.17812 39.2105 6.33392C38.744 6.56867 38.1622 6.47669 37.7136 6.20909C37.2651 5.94149 36.9288 5.52158 36.6379 5.08674C36.074 4.24214 35.6463 3.30615 35.377 2.32715Z" fill="white"/>
<path d="M43.3166 4.29856C42.9212 5.49558 41.6728 6.18487 40.4734 6.57373C39.4974 6.88971 38.4826 7.08562 37.4588 7.15551C37.3387 4.18148 39.4329 1.25883 42.2875 0.416016C43.0054 1.5993 43.7509 2.98387 43.3166 4.29856Z" fill="#87BE00"/>
<path d="M41.607 2.32715C40.5163 3.82701 39.2231 5.17812 37.7734 6.33392C38.2399 6.56867 38.8217 6.47669 39.2703 6.20909C39.7195 5.94149 40.0552 5.52158 40.3461 5.08674C40.9099 4.24214 41.337 3.30615 41.607 2.32715Z" fill="white"/>
<path d="M41.2374 9.59961H35.407V24.5576H41.2374V9.59961Z" fill="#5F625E"/>
<path d="M42.682 14.1699H2.56104V19.6013H42.682V14.1699Z" fill="#DA9616"/>
<path d="M42.682 23.5635H2.56104V28.9943H42.682V23.5635Z" fill="#DA9616"/>
<path d="M7.7888 11.1777H0.455566V31.7749H7.7888V11.1777Z" fill="#F0B950"/>
<path d="M26.1223 11.1777H18.7891V31.7749H26.1223V11.1777Z" fill="#F0B950"/>
<path d="M44.4554 11.1777H37.1228V31.7749H44.4554V11.1777Z" fill="#F0B950"/>
<path d="M5.14682 14.1703C5.14682 14.736 4.68808 15.1947 4.12242 15.1947C3.55736 15.1947 3.09863 14.7365 3.09863 14.1703C3.09863 13.6052 3.55736 13.1465 4.12242 13.1465C4.68808 13.1465 5.14682 13.6046 5.14682 14.1703Z" fill="#BF7D3A"/>
<path d="M5.14682 28.5664C5.14682 29.1314 4.68808 29.5902 4.12242 29.5902C3.55736 29.5902 3.09863 29.1314 3.09863 28.5664C3.09863 28.0007 3.55736 27.542 4.12242 27.542C4.68808 27.542 5.14682 28.0007 5.14682 28.5664Z" fill="#BF7D3A"/>
<path d="M23.4796 14.1703C23.4796 14.736 23.0214 15.1947 22.4558 15.1947C21.8901 15.1947 21.4314 14.7365 21.4314 14.1703C21.4314 13.6052 21.8901 13.1465 22.4558 13.1465C23.0208 13.1465 23.4796 13.6046 23.4796 14.1703Z" fill="#BF7D3A"/>
<path d="M23.4796 28.5664C23.4796 29.1314 23.0214 29.5902 22.4558 29.5902C21.8901 29.5902 21.4314 29.1314 21.4314 28.5664C21.4314 28.0007 21.8901 27.542 22.4558 27.542C23.0208 27.542 23.4796 28.0007 23.4796 28.5664Z" fill="#BF7D3A"/>
<path d="M41.8131 14.1703C41.8131 14.736 41.3543 15.1947 40.7887 15.1947C40.2236 15.1947 39.7649 14.7365 39.7649 14.1703C39.7649 13.6052 40.2236 13.1465 40.7887 13.1465C41.3549 13.1465 41.8131 13.6046 41.8131 14.1703Z" fill="#BF7D3A"/>
<path d="M41.8131 28.5664C41.8131 29.1314 41.3543 29.5902 40.7887 29.5902C40.2236 29.5902 39.7649 29.1314 39.7649 28.5664C39.7649 28.0007 40.2236 27.542 40.7887 27.542C41.3549 27.542 41.8131 28.0007 41.8131 28.5664Z" fill="#BF7D3A"/>
</svg>
