<svg width="44" height="33" viewBox="0 0 44 33" fill="none" xmlns="http://www.w3.org/2000/svg">
<path d="M37.3905 17.3893C36.681 17.3472 35.8384 17.8328 35.0068 18.3581C32.3785 20.0207 30.3639 23.6588 26.993 23.627C25.4592 23.613 23.0017 22.5404 20.4966 21.6076L20.2324 24.2378C21.4545 24.5233 22.6655 24.8619 23.8571 25.289C25.9321 26.0333 28.0211 26.5854 30.1302 27.0229C31.8178 25.9644 34.2448 23.6838 38.0275 19.4783C38.5888 18.8541 38.2282 17.4387 37.3905 17.3893Z" fill="#E5A029"/>
<path d="M26.2524 24.4566C28.3273 25.2009 30.4163 25.7531 32.5255 26.1905C34.2131 25.132 36.6401 22.8514 40.4228 18.6459C40.9841 18.0217 40.6241 16.6063 39.7858 16.5563C39.0762 16.5142 38.2337 16.9998 37.4021 17.5257C34.7737 19.1877 32.7592 22.8264 29.3883 22.7946C26.0175 22.7629 18.1898 17.6209 15.1819 20.0796C15.1819 20.0796 15.1709 20.0662 15.1538 20.0455L14.9373 22.2022C18.7755 22.6092 22.5984 23.146 26.2524 24.4566Z" fill="#F1AA3F"/>
<path d="M29.1718 23.8389C31.2474 24.5832 33.3358 25.1347 35.4449 25.5728C37.1325 24.5143 39.6998 22.3966 43.4831 18.1911C44.0444 17.5669 43.6442 16.5536 42.8065 16.5035C42.097 16.4614 41.2343 16.5383 40.3228 16.908C38.0202 17.8427 35.6804 22.2087 32.309 22.1769C28.9381 22.1452 21.1104 17.0038 18.1026 19.4619C18.1026 19.4619 18.0916 19.4479 18.0745 19.4278L17.8579 21.5845C21.6955 21.9915 25.5184 22.5284 29.1718 23.8389Z" fill="#F6B455"/>
<path d="M0 26.5579C0 26.5579 0.532014 32.2558 6.71486 32.9995C6.71486 32.9995 12.179 27.1254 13.3986 26.6208C16.728 25.2426 21.9737 27.0094 23.4014 27.1235C25.7259 27.3096 30.9228 27.4115 33.6061 27.8679C33.9367 27.924 34.2723 27.8434 34.5352 27.6348C35.3918 26.9563 37.4644 25.3585 39.4363 24.1779C40.8371 23.339 42.0201 21.5575 43.7394 19.6454C44.3007 19.0219 43.9004 18.0079 43.0628 17.9578C42.3526 17.9157 41.4899 17.9926 40.579 18.3623C38.2764 19.297 35.9361 23.663 32.5652 23.6319C29.1944 23.6001 21.3666 18.4581 18.3594 20.9169C18.3594 20.9169 14.7592 16.4448 11.6238 18.3385C8.48785 20.2323 4.80583 23.9119 0 26.5579Z" fill="#FFC56E"/>
<path d="M20.4558 20.2806C21.2441 19.3929 22.6022 18.183 23.5393 17.4539C24.4764 16.7255 25.5759 16.1635 26.7558 16.0342C28.0413 15.8933 29.3384 16.2752 30.4915 16.8615C32.1876 17.7236 33.6232 19.0109 35.0374 20.2836C30.6001 23.5282 20.4558 20.2806 20.4558 20.2806Z" fill="#664A3B"/>
<path d="M36.2813 5.02121C36.0025 5.7692 35.5302 6.46778 34.8518 6.88814C33.7213 7.58794 32.2802 7.40368 30.9617 7.23468C29.6433 7.06568 28.1656 6.97905 27.1284 7.81002C27.3828 6.12795 27.6793 4.35008 28.7855 3.05726C29.8648 1.79616 31.5401 1.21595 33.1716 0.912725C34.8036 0.609501 36.4857 0.524694 38.061 0C37.3892 0.603398 37.0659 1.50148 36.8743 2.38309C36.6827 3.2647 36.5961 4.17499 36.2813 5.02121Z" fill="#87BE00"/>
<path d="M31.1069 5.42377C29.8616 5.9625 28.6689 6.62386 27.553 7.39564C29.4199 4.85454 33.3704 4.66968 35.3386 2.20605C35.0707 3.084 34.3777 3.77708 33.5992 4.26334C32.8213 4.74899 31.9494 5.05954 31.1069 5.42377Z" fill="white"/>
<path d="M30.6001 3.5293C29.8637 4.56526 29.1273 5.60123 28.3909 6.63719C29.4756 5.93435 30.1376 4.7367 30.6001 3.5293Z" fill="white"/>
<path d="M32.6938 2.46777C32.3045 3.43236 31.7347 4.32434 31.0227 5.08271C31.3027 4.87954 31.3656 5.10711 31.6176 4.87161C31.764 4.73555 32.6938 3.77524 32.6938 2.46777Z" fill="white"/>
<path d="M31.6177 4.87238C31.5658 4.8797 31.5066 4.89191 31.4816 4.93767C31.4304 5.03284 31.5744 5.11032 31.6817 5.12374C32.2504 5.19574 32.8269 5.26773 33.3949 5.19086C33.963 5.11398 34.5316 4.87055 34.8818 4.41602C33.7939 4.56854 32.7055 4.72046 31.6177 4.87238Z" fill="white"/>
<path d="M33.8292 5.9832C32.4418 6.10888 31.0373 6.04238 29.6676 5.78613C29.6548 6.06556 29.958 6.24493 30.2259 6.32364C31.401 6.66713 32.6541 6.32425 33.8292 5.9832Z" fill="white"/>
<path d="M26.8064 3.30935C25.9779 1.74076 24.3141 0.732862 22.5784 0.364356C20.8432 -0.00415027 19.0354 0.197187 17.3003 0.565693C18.1325 0.82682 18.7292 1.5803 19.0568 2.3887C19.385 3.19709 19.4918 4.07382 19.6687 4.92737C19.8457 5.78152 20.1111 6.65031 20.6882 7.30374C21.5058 8.22927 22.834 8.56728 24.0652 8.47332C25.2964 8.37937 26.4641 7.91141 27.6093 7.44833C27.5459 6.03166 27.4684 4.56252 26.8064 3.30935Z" fill="#87BE00"/>
<path d="M23.3464 4.25596C22.5874 3.31396 21.9615 2.12912 20.8181 1.73438C21.9096 2.71055 22.5838 4.05828 23.4764 5.21871C24.369 6.37914 25.6612 7.42365 27.123 7.33823C25.7582 6.44381 24.3696 5.52743 23.3464 4.25596Z" fill="white"/>
<path d="M24.6031 2.86621C24.536 3.50439 24.4689 4.14866 24.5391 4.78623C24.6092 5.42379 24.8295 6.06318 25.2694 6.53053C25.2474 6.09003 25.1608 5.65624 25.0747 5.22367C24.9173 4.43785 24.7599 3.65203 24.6031 2.86621Z" fill="white"/>
<path d="M22.887 4.41811C22.9657 4.58467 23.2488 4.49254 23.3037 4.31622C23.3586 4.14051 22.959 1.88188 22.6423 1.67871C22.7235 2.59204 22.8052 3.50477 22.887 4.41811Z" fill="white"/>
<path d="M23.1049 4.74108C23.2007 4.72888 23.3081 4.70386 23.355 4.62028C23.4081 4.52571 23.3502 4.40003 23.2593 4.34085C23.1683 4.28167 23.0536 4.24629 22.9469 4.26459C22.0537 4.41529 21.604 4.23225 20.7322 4.10352C21.4002 4.61296 22.2715 4.84663 23.1049 4.74108Z" fill="white"/>
<path d="M21.604 5.79102C22.604 6.37123 23.8358 6.53779 24.9541 6.24432C24.9193 6.13817 24.8852 6.032 24.8504 5.92523C23.7681 5.88069 22.6863 5.83555 21.604 5.79102Z" fill="white"/>
<path d="M28.3755 17.029C28.9679 16.8264 29.0814 16.0516 29.093 15.4256C29.1217 13.879 29.1497 12.3251 28.9472 10.7912C28.7446 9.25743 28.3017 7.73215 27.4536 6.4375C27.1004 6.75842 26.9649 7.26359 26.9747 7.74069C26.9845 8.2178 27.1205 8.68148 27.2309 9.14639C27.7965 11.5295 27.683 14.0706 26.9058 16.3933C27.3097 16.7856 27.8423 17.2108 28.3755 17.029Z" fill="#87BE00"/>
<path d="M23.4251 20.7255L19.2184 18.185C11.6958 15.5878 12.3712 18.8891 11.2974 19.5596L16.3655 22.4344C16.3655 22.4344 20.1086 20.7597 29.7629 22.9914C29.7629 22.9914 23.693 20.7493 23.4251 20.7255Z" fill="#E9A82A"/>
<path d="M32.8433 19.9556C32.9086 19.6951 32.7933 19.426 32.5261 19.4022C30.4438 19.2143 22.591 18.4236 17.9707 16.8288C10.448 14.2321 10.9953 18.8135 9.9209 19.484L16.3655 22.4345C16.3655 22.4345 17.3758 19.2808 28.1077 22.3832C28.1077 22.3832 32.1429 22.7328 32.8433 19.9556Z" fill="#FFC56E"/>
<path d="M29.7393 19.2373C29.7393 19.2373 28.4514 19.7931 29.1402 20.5594C29.4959 20.9548 30.1066 21.2043 31.231 20.9779C32.0907 20.8047 32.5177 20.2336 32.5849 19.8535C32.616 19.6778 32.4909 19.5137 32.3115 19.496L29.7393 19.2373Z" fill="#FAECD0"/>
<path d="M43.3111 18.6666C42.554 18.558 41.2325 19.0485 41.266 20.863C41.2739 21.2846 41.881 21.4634 42.3026 21.1308C42.668 20.8429 43.1543 20.3066 43.668 19.7825C43.923 19.522 44.0853 18.777 43.3111 18.6666Z" fill="#FAECD0"/>
</svg>
