<svg width="80" height="80" viewBox="0 0 80 80" fill="none" xmlns="http://www.w3.org/2000/svg">
<rect width="80" height="80" rx="8" fill="#B0DB58"/>
<g clip-path="url(#clip0_1741_2628)">
<path d="M51 40.003C51 48.3868 45.525 55.2002 37.25 55.2002C28.975 55.2002 23.5 48.3868 23.5 40.003C26.262 40.0266 28.9484 40.9191 31.1878 42.5572C33.4272 44.1953 35.1088 46.4979 36 49.1466V37.4701H29.75C28.7554 37.4701 27.8016 37.0698 27.0984 36.3573C26.3951 35.6448 26 34.6785 26 33.6708V26.0722C26 25.8064 26.0825 25.5473 26.2359 25.3317C26.3893 25.1161 26.6058 24.9548 26.8547 24.8708C27.1036 24.7867 27.3723 24.7841 27.6227 24.8634C27.8731 24.9426 28.0926 25.0997 28.25 25.3123L32.075 30.3781L36.2 22.7795C36.3133 22.6017 36.4688 22.4556 36.6522 22.3544C36.8356 22.2532 37.0412 22.2002 37.25 22.2002C37.4589 22.2002 37.6644 22.2532 37.8478 22.3544C38.0312 22.4556 38.1867 22.6017 38.3 22.7795L42.425 30.3781L46.25 25.3123C46.4074 25.0997 46.6269 24.9426 46.8773 24.8634C47.1277 24.7841 47.3964 24.7867 47.6453 24.8708C47.8942 24.9548 48.1107 25.1161 48.2641 25.3317C48.4175 25.5473 48.5 25.8064 48.5 26.0722V33.6708C48.5 34.6785 48.1049 35.6448 47.4017 36.3573C46.6984 37.0698 45.7446 37.4701 44.75 37.4701H38.5V49.1466C39.3912 46.4979 41.0728 44.1953 43.3122 42.5572C45.5516 40.9191 48.238 40.0266 51 40.003Z" fill="#111607"/>
<path d="M55.4 23.5L62 30.1005L55.4 36.7L48.8 30.0995L55.4 23.5Z" fill="#FF9800"/>
<path d="M51 25.7002H59.8V34.5002H51V25.7002Z" fill="#FF9800"/>
<path d="M55.95 32.2998C57.4687 32.2998 58.7 31.0686 58.7 29.5498C58.7 28.031 57.4687 26.7998 55.95 26.7998C54.4312 26.7998 53.2 28.031 53.2 29.5498C53.2 31.0686 54.4312 32.2998 55.95 32.2998Z" fill="#FFEB3B"/>
<path d="M32.85 34.5L18 56.5H47.7L32.85 34.5Z" fill="#2E7D32"/>
<path d="M48.8001 40L35.6001 56.5H62.0001L48.8001 40Z" fill="#4CAF50"/>
</g>
<defs>
<clipPath id="clip0_1741_2628">
<rect width="44" height="44" fill="white" transform="translate(18 18)"/>
</clipPath>
</defs>
</svg>
