<svg width="33" height="32" viewBox="0 0 33 32" fill="none" xmlns="http://www.w3.org/2000/svg">
<path d="M14.1393 1.72769C15.8636 3.22708 16.6276 4.01004 16.9795 6.27072C17.0595 8.97279 17.0452 11.1645 15.1885 13.2687C14.177 14.2859 13.225 15.0459 12.041 15.8916C11.3485 15.8916 10.6561 15.8916 9.94262 15.8916C9.94262 20.3926 9.94262 24.8936 9.94262 29.531C13.0587 29.531 16.1748 29.531 19.3852 29.531C19.3852 27.4536 19.3852 25.3762 19.3852 23.2359C18.3466 23.2359 17.3079 23.2359 16.2377 23.2359C16.2377 22.7165 16.2377 22.1972 16.2377 21.6621C21.4311 21.6621 26.6246 21.6621 31.9754 21.6621C31.9754 22.1815 31.9754 22.7008 31.9754 23.2359C30.9367 23.2359 29.898 23.2359 28.8279 23.2359C28.8279 25.3133 28.8279 27.3906 28.8279 29.531C29.8666 29.531 30.9052 29.531 31.9754 29.531C31.9754 30.2234 31.9754 30.9159 31.9754 31.6293C21.5885 31.6293 11.2016 31.6293 0.5 31.6293C0.5 30.9369 0.5 30.2444 0.5 29.531C3.09672 29.531 5.69344 29.531 8.36885 29.531C8.36885 25.03 8.36885 20.529 8.36885 15.8916C7.33016 15.7185 6.29148 15.5454 5.22131 15.367C3.07596 13.8818 1.63832 12.6988 1.02459 10.1211C0.759307 7.25607 1.21706 5.30131 2.59836 2.77687C5.94177 -0.480809 10.1707 -0.860532 14.1393 1.72769Z" fill="#907F6B"/>
<path d="M14.1394 1.72788C15.8637 3.22727 16.6277 4.01023 16.9796 6.27091C17.0596 8.97298 17.0453 11.1647 15.1886 13.2689C14.1771 14.2861 13.2251 15.0461 12.0411 15.8918C11.3486 15.8918 10.6562 15.8918 9.94272 15.8918C9.94272 12.9489 9.94272 10.0059 9.94272 6.97378C9.42338 6.97378 8.90403 6.97378 8.36895 6.97378C8.36895 7.83935 8.36895 8.70493 8.36895 9.59673C6.97004 8.89728 5.57113 8.19782 4.17223 7.49837C5.58548 9.39833 5.58548 9.39833 7.45092 10.8098C8.36895 11.6951 8.36895 11.6951 8.5001 12.7238C8.5001 13.7807 8.43811 14.8372 8.36895 15.8918C5.51386 15.6879 4.08539 14.7558 2.07387 12.7443C0.87117 10.6669 0.820333 8.81968 1.02469 6.44919C1.89546 3.7452 2.80892 2.20857 5.22141 0.678699C8.30651 -0.555341 11.4158 -0.0483792 14.1394 1.72788Z" fill="#74DE1D"/>
<path d="M0.5 30.0557C11.06 30.0557 21.62 30.0557 32.5 30.0557C32.3269 30.575 32.1538 31.0944 31.9754 31.6294C21.5885 31.6294 11.2016 31.6294 0.5 31.6294C0.5 31.1101 0.5 30.5907 0.5 30.0557Z" fill="#45494D"/>
<path d="M8.36908 6.97363C8.88843 6.97363 9.40777 6.97363 9.94285 6.97363C9.94285 14.4176 9.94285 21.8615 9.94285 29.531C9.42351 29.531 8.90417 29.531 8.36908 29.531C8.37242 29.0072 8.37576 28.4834 8.3792 27.9437C8.3868 25.99 8.37028 24.0371 8.34667 22.0835C8.3398 21.24 8.33937 20.3963 8.34565 19.5528C8.56262 14.7793 8.56262 14.7793 6.99434 10.4598C6.01571 9.60284 6.01571 9.60284 4.95835 9.01795C4.69898 8.86267 4.4396 8.70739 4.17236 8.5474C4.17236 8.20117 4.17236 7.85494 4.17236 7.49822C5.93287 7.8126 6.99362 8.46673 8.36908 9.59658C8.36908 8.73101 8.36908 7.86544 8.36908 6.97363Z" fill="#E6C352"/>
<path d="M16.2378 21.6621C21.4312 21.6621 26.6247 21.6621 31.9755 21.6621C31.9755 22.1815 31.9755 22.7008 31.9755 23.2359C26.7821 23.2359 21.5886 23.2359 16.2378 23.2359C16.2378 22.7165 16.2378 22.1972 16.2378 21.6621Z" fill="#666057"/>
</svg>
