<svg width="44" height="52" viewBox="0 0 44 52" fill="none" xmlns="http://www.w3.org/2000/svg">
<path d="M18.6589 42.5492C19.2908 42.4764 21.8155 42.507 22.4481 42.5492C21.6233 38.2396 21.2069 33.8753 21.0438 29.9602C20.8065 24.271 20.0428 15.1764 20.9746 7.70508L20.5706 9.16249C19.2064 14.567 19.1074 20.5241 18.9377 26.0954C18.6589 35.2672 18.7543 37.0078 18.6589 42.5492Z" fill="#87BE00"/>
<path d="M21.9821 17.6437C21.1005 18.379 20.1964 19.1557 19.531 20.0759C19.6941 20.9102 19.772 21.7379 19.804 22.57C22.8171 18.644 26.2416 15.0339 30.0103 11.8271C27.0926 13.3916 24.5264 15.5253 21.9821 17.6437Z" fill="#87BE00"/>
<path d="M20.2758 33.308C20.0865 32.1541 20.4338 30.9588 21.0431 29.9607C21.6532 28.9626 22.5085 28.1393 23.4018 27.3858C25.5202 25.5994 28.0172 24.0968 30.7755 23.8369C26.6195 26.1446 22.9985 29.4111 20.2758 33.308Z" fill="#87BE00"/>
<path d="M20.2233 32.49C20.417 31.1454 20.7009 30.499 19.7385 29.5409C18.7761 28.5837 15.6567 25.7831 14.4111 25.2422C13.1656 24.7013 12.8547 25.2051 11.7292 24.4443C14.7795 26.7178 17.6048 29.7309 20.2233 32.49Z" fill="#87BE00"/>
<path d="M12.6479 10.7051C15.1158 14.1666 17.4228 17.7425 19.558 21.4188C19.93 20.7338 19.9438 19.8951 19.7421 19.1417C19.5405 18.3882 19.1408 17.7032 18.7135 17.0502C17.1025 14.5881 15.035 12.426 12.6479 10.7051Z" fill="#87BE00"/>
<path d="M23.6528 5.22515C25.3214 4.01961 27.4114 3.47873 29.0188 2.19238C29.1105 4.41928 28.1984 6.66803 26.5808 8.20043C24.9632 9.73283 22.6686 10.5234 20.4504 10.3108C20.8166 8.29069 21.9894 6.4285 23.6528 5.22515Z" fill="#87BE00"/>
<path d="M27.1625 4.10449C26.0196 6.70921 23.7767 8.81017 21.1021 9.78057C23.4047 8.22414 25.459 6.30009 27.1625 4.10449Z" fill="white"/>
<path d="M24.6298 7.86683C25.2784 7.62951 25.9482 7.37763 26.4352 6.8877C25.8666 7.99423 24.5075 8.62903 23.2939 8.35604C23.7395 8.19297 24.1843 8.0299 24.6298 7.86683Z" fill="white"/>
<path d="M24.2841 5.35547C23.9769 6.64982 23.6151 7.39236 23.1128 8.3533C23.5649 8.15529 23.5125 8.25793 23.7338 7.81895C24.0191 7.24967 24.3991 6.40813 24.2841 5.35547Z" fill="white"/>
<path d="M20.4002 10.0418C20.4002 10.0418 22.3389 5.6477 20.3937 2.76998C19.2806 1.12256 17.2604 0.26717 15.2905 0C15.5002 1.37734 15.7106 2.75323 15.9202 4.12985C16.0549 5.01362 16.1787 5.90977 16.5084 6.74039C17.4068 9.00369 20.4002 10.0418 20.4002 10.0418Z" fill="#87BE00"/>
<path d="M17.2815 2.07129C18.3625 4.19845 19.3774 6.44209 19.9779 8.75126C20.2771 7.05069 19.3402 5.53139 18.5802 3.98079C18.067 2.93322 17.2815 2.13462 17.2815 2.07129Z" fill="white"/>
<path d="M19.852 3.38477C20.2313 4.31804 20.1556 6.17949 19.8127 7.12586C19.7443 7.31514 19.6511 6.89073 19.6511 6.89073C19.8841 5.73906 19.9518 4.55463 19.852 3.38477Z" fill="white"/>
<path d="M19.6934 6.84708C18.6815 6.0696 17.8749 5.44936 16.863 4.67188C17.1666 5.30158 18.7267 6.70514 19.6796 7.20016L19.6934 6.84708Z" fill="white"/>
<path d="M26.5161 17.7434C29.2504 17.9007 31.8253 16.1768 33.3927 13.9309C34.96 11.6858 35.6909 8.97412 36.3126 6.30752C33.6766 6.18304 30.8906 6.09058 28.5676 7.34198C26.7272 8.33349 25.3856 10.0836 24.5076 11.9807C23.6297 13.8785 23.1696 15.938 22.7161 17.9785C23.7716 17.22 25.2181 17.6692 26.5161 17.7434Z" fill="#87BE00"/>
<path d="M29.1696 12.7195C29.1332 12.8622 29.0873 13.0019 29.0342 13.1381C30.9015 13.0347 32.372 12.5135 33.4756 10.9971C32.0204 12.0403 30.7289 12.4167 29.1696 12.7195Z" fill="white"/>
<path d="M28.106 15.763C27.4872 15.6975 25.486 15.6255 25.4263 15.6458C25.8813 15.1632 27.8708 14.9907 29.0982 15.0773C29.8036 15.1261 30.8912 15.0402 31.4511 14.6602C30.865 15.4748 29.8619 15.9494 28.106 15.763Z" fill="white"/>
<path d="M25.405 15.8486C26.2975 15.4875 26.8297 14.5419 27.0233 13.5992C27.217 12.6564 27.1413 11.6816 27.1937 10.7207C26.9578 12.5283 26.3449 14.2856 25.405 15.8486Z" fill="white"/>
<path d="M28.7218 12.1876C28.6068 12.6375 28.304 13.5082 28.0681 13.8962C28.8274 13.4849 29.2081 12.8654 29.3545 11.8273C29.4855 10.894 29.6194 10.0852 29.5248 8.72754C29.2642 10.075 29.0509 10.8962 28.7218 12.1876Z" fill="white"/>
<path d="M10.148 15.0789C12.0466 15.9888 14.2516 15.9015 16.354 15.7937C16.8709 13.2269 17.3652 10.4467 16.2456 8.07928C15.3414 6.1676 13.4974 4.84195 11.5363 4.04991C9.5758 3.25713 7.46683 2.92299 5.40155 2.46582C5.3353 4.84705 5.30254 7.27051 5.94317 9.56511C6.58452 11.8604 7.99899 14.0488 10.148 15.0789Z" fill="#87BE00"/>
<path d="M14.0371 12.1503C14.0036 12.4874 14.005 12.8994 14.2948 13.0748C14.8051 11.4442 14.859 9.67299 14.4498 8.01465C14.3122 9.39272 14.1747 10.7715 14.0371 12.1503Z" fill="white"/>
<path d="M13.6816 12.6237C11.9221 12.7933 10.1305 12.6295 8.43359 12.1338C9.03928 12.7468 10.0788 13.0714 10.6627 13.2097C11.2458 13.3481 13.6146 13.3837 14.5698 13.3444C14.5603 13.3146 14.5545 13.2898 14.5479 13.2622C14.2553 13.118 13.9189 12.8691 13.6816 12.6237Z" fill="white"/>
<path d="M12.3917 10.687C10.8062 10.7183 9.21482 10.4969 7.70935 9.99609C8.29174 10.6309 9.31892 10.9942 9.89694 11.1543C10.3366 11.2759 11.8101 11.3764 12.9115 11.4157C12.7033 11.2002 12.5301 10.9534 12.3917 10.687Z" fill="white"/>
<path d="M15.6356 14.5193C14.2182 12.3149 10.1692 7.29476 8.1272 5.14648C9.31235 7.83784 13.1976 12.7197 15.6356 14.5193Z" fill="white"/>
<path d="M12.576 6.47559C12.1698 7.27491 12.3089 8.87647 12.3089 9.77626C12.3089 10.9345 12.7537 11.3494 12.94 11.546C12.8192 9.85561 12.6976 8.16596 12.576 6.47559Z" fill="white"/>
<path d="M11.3383 9.33757C11.2321 7.85322 11.1251 6.36887 11.0188 4.88379C10.8077 5.74645 10.7712 6.67389 10.7683 7.5744C10.7669 8.03521 10.8309 8.50549 10.9656 8.93573C11.1709 9.06385 11.1782 9.1665 11.3383 9.33757Z" fill="white"/>
<path d="M11.3404 9.35167C11.3295 9.33638 11.3171 9.32254 11.3069 9.30726C11.3157 9.32764 11.3237 9.34801 11.3332 9.36839C11.315 9.32763 11.2902 9.29124 11.2662 9.25411C11.2276 9.19515 11.2007 9.13036 11.1657 9.06921C9.78765 8.58219 8.4103 8.09444 7.03296 7.60742C8.2749 8.79622 9.90776 9.56133 11.6127 9.77609C11.513 9.64141 11.4212 9.50163 11.3404 9.35167Z" fill="white"/>
<path d="M37.6505 17.2209C39.79 17.3527 42.038 18.0974 44 17.234C41.6406 20.1656 41.4892 24.5677 38.7163 27.1113C37.0404 28.6473 34.6104 29.2173 32.3602 28.889C30.1101 28.5614 28.0375 27.4068 26.3369 25.897C26.8545 23.3571 28.3156 21.021 30.3721 19.4441C32.4287 17.8666 35.064 17.0622 37.6505 17.2209Z" fill="#87BE00"/>
<path d="M40.8405 18.7744C38.7249 21.374 34.1496 24.0989 30.5096 25.3088C29.5516 25.6262 28.5259 25.6633 27.5424 25.4369L27.5286 25.434C32.0683 24.4767 37.0156 21.4017 40.8405 18.7744Z" fill="white"/>
<path d="M33.4407 7.8457C32.2912 10.5145 29.1208 13.8712 26.3712 15.7421C25.6476 16.235 24.8003 16.5087 23.9267 16.5516L23.9143 16.5524C27.4749 14.6785 30.8724 10.9418 33.4407 7.8457Z" fill="white"/>
<path d="M33.9939 23.1648C34.9628 21.9476 35.8029 20.6292 36.4974 19.2373C36.5142 20.0861 36.1327 21.1504 35.7199 21.8923C35.3072 22.6348 34.834 23.0396 33.9939 23.1648Z" fill="white"/>
<path d="M29.7556 25.1638C30.6299 25.0248 31.2232 24.1672 31.4402 23.3089C31.6571 22.4506 31.8937 21.7423 31.7568 20.6758C31.3812 22.2803 30.6984 23.8119 29.7556 25.1638Z" fill="white"/>
<path d="M32.4783 24.0949C33.3468 23.8001 33.8032 22.8195 33.8745 21.9044C33.9459 20.9901 34.0638 20.2235 33.737 19.1592C33.635 20.8641 33.2048 22.5487 32.4783 24.0949Z" fill="white"/>
<path d="M40.0856 22.3203C38.2584 22.5613 37.0878 22.329 35.6384 22.6778C35.4957 22.712 35.3479 22.7535 35.2416 22.8539C35.1353 22.9551 34.8536 23.1357 34.9446 23.25C36.6189 23.2696 38.5197 23.1655 40.0856 22.3203Z" fill="white"/>
<path d="M32.7884 23.6689C32.6981 23.8196 32.5955 23.9631 32.4783 24.0963C34.2123 25.0259 35.5285 25.5377 38.0139 25.4161C36.0883 24.8388 34.5042 24.4857 32.7884 23.6689Z" fill="white"/>
<path d="M30.3809 24.9472C30.2629 24.9327 30.113 24.9458 30.07 25.0564C30.03 25.1605 30.1181 25.2661 30.1996 25.3418C31.6337 26.6551 33.6124 27.3547 35.5532 27.2353C34.8034 26.9914 33.7245 26.725 32.9361 26.1848C32.1462 25.6432 31.3309 25.0564 30.3809 24.9472Z" fill="white"/>
<path d="M4.54625 25.5008C6.05317 26.6051 7.91462 27.1591 9.77826 27.3004C11.6412 27.4402 13.5135 27.1868 15.3408 26.7944C15.2927 24.9403 15.193 23.0628 14.6405 21.2923C14.0872 19.5212 13.0302 17.8446 11.4388 16.8917C8.0908 14.8861 3.59187 16.5866 0 15.0615C0.16598 17.0132 0.461534 18.9708 1.1553 20.8031C1.84907 22.634 2.96653 24.3433 4.54625 25.5008Z" fill="#87BE00"/>
<path d="M7.17062 21.572C8.75398 22.7433 11.141 24.4657 13.0047 25.5774C13.4043 25.8161 13.8397 25.9799 14.2961 26.0673L14.3027 26.0687C10.9219 22.9996 8.01216 21.4191 3.18054 17.4043C4.07814 19.1245 5.61128 20.4174 7.17062 21.572Z" fill="white"/>
<path d="M12.6961 24.9796C12.2236 23.1313 11.5721 21.1039 11.5189 19.1973C11.2117 21.0311 11.5211 22.9027 11.8465 24.7343C12.0132 24.7627 12.5461 24.9287 12.6961 24.9796Z" fill="white"/>
<path d="M8.5371 17.8652C8.21315 19.0336 8.39223 20.3906 8.84139 22.3838C9.15516 22.5702 9.57302 22.5986 9.57302 22.5986C8.85086 20.8223 8.8676 19.6663 8.5371 17.8652Z" fill="white"/>
<path d="M5.79973 17.1357C5.609 18.1207 6.10767 20.0346 6.15936 20.1736C6.32825 20.6272 6.361 20.2879 6.7876 20.5063C6.45782 19.383 6.12878 18.259 5.79973 17.1357Z" fill="white"/>
<path d="M6.09387 20.1877C4.5702 20.3194 3.57068 20.4687 1.88904 20.0938C3.23071 20.9906 4.97131 21.0416 6.56486 20.7883C6.58525 20.7853 6.60563 20.773 6.62601 20.7679C6.41999 20.5983 6.24165 20.4039 6.09387 20.1877Z" fill="white"/>
<path d="M8.43732 22.5783C6.91292 22.769 5.3696 22.5863 3.84375 22.4043C4.70568 22.9685 5.73068 23.2444 6.75568 23.347C7.78068 23.4504 8.81441 23.3885 9.84305 23.3266C9.94788 23.0231 9.69382 22.6933 9.39025 22.5885C9.08741 22.4837 8.75618 22.5383 8.43732 22.5783Z" fill="white"/>
<path d="M12.4223 25.1508C12.5286 25.1195 12.6451 25.0773 12.696 24.9797C12.7644 24.8479 12.6727 24.6798 12.5409 24.6114C12.4092 24.5437 12.2512 24.5262 12.1056 24.556C9.70254 25.0554 7.90806 24.9062 5.88354 24.8545C7.9481 25.6764 10.2907 25.7827 12.4223 25.1508Z" fill="white"/>
<path d="M7.8855 47.3393C10.547 43.1949 15.3968 40.5494 20.3224 40.5567C25.2479 40.5632 30.0904 43.2218 32.741 47.3742C29.235 50.0044 24.7543 51.1874 20.3733 51.0418C15.993 50.8955 11.7118 49.4774 7.8855 47.3393Z" fill="#664A3B"/>
</svg>
