<svg width="32" height="32" viewBox="0 0 32 32" fill="none" xmlns="http://www.w3.org/2000/svg">
<path d="M14.6886 0C16.5902 0.196721 16.5902 0.196721 18.3607 0.52459C18.6204 2.3423 18.6204 2.3423 18.8853 4.19672C17.8466 4.71607 17.8466 4.71607 16.787 5.2459C16.787 7.15016 16.787 9.05443 16.787 11.0164C17.4578 10.6702 18.1286 10.3239 18.8197 9.96721C20.8525 8.91803 20.8525 8.91803 22.0329 8.91803C22.1302 8.30131 22.1302 8.30131 22.2296 7.67213C22.5574 6.29508 22.5574 6.29508 23.6066 5.2459C25.0932 5.05531 25.9176 5.05869 27.2132 5.83607C27.8033 6.81967 27.8033 6.81967 27.6722 8.45902C27.2788 9.96721 27.2788 9.96721 26.7542 10.4918C26.1591 10.4485 25.564 10.4052 24.9509 10.3607C22.5108 10.3695 20.5299 10.9135 18.3669 12.043C16.4654 13.974 16.7226 16.3581 16.7173 18.9447C16.7403 19.4444 16.7633 19.9441 16.787 20.459C17.0777 20.3075 17.3685 20.1561 17.6681 20C18.0481 19.8052 18.4282 19.6105 18.8197 19.4098C19.1971 19.2151 19.5744 19.0203 19.9632 18.8197C20.9837 18.3607 20.9837 18.3607 22.0329 18.3607C22.0978 17.863 22.1627 17.3652 22.2296 16.8525C22.5574 15.2131 22.5574 15.2131 23.6066 14.1639C25.0932 13.9733 25.9176 13.9767 27.2132 14.7541C27.8033 15.7377 27.8033 15.7377 27.6722 17.3771C27.2788 18.8852 27.2788 18.8852 26.7542 19.4098C25.9377 19.579 25.1171 19.7288 24.2952 19.8689C22.088 20.2856 20.3393 20.9445 18.3607 22.0328C18.0145 22.0328 17.6683 22.0328 17.3115 22.0328C17.3115 24.4564 17.3115 26.88 17.3115 29.3771C22.1588 29.3771 27.006 29.3771 32.0001 29.3771C32.0001 30.0695 32.0001 30.762 32.0001 31.4754C21.6132 31.4754 11.2263 31.4754 0.524658 31.4754C0.524658 30.783 0.524658 30.0905 0.524658 29.3771C5.37187 29.3771 10.2191 29.3771 15.2132 29.3771C15.0503 26.401 15.0503 26.401 13.8484 25.4631C11.3599 24.3389 9.5861 24.0779 6.81974 24.1311C5.54105 23.5082 5.54105 23.5082 4.72138 22.5574C4.45479 21.034 4.51436 20.2795 5.31154 18.9508C6.29515 18.3607 6.29515 18.3607 7.86892 18.3279C9.44269 18.8852 9.44269 18.8852 10.164 20.3607C11.3773 22.7407 12.7923 23.0993 15.2132 24.1311C15.2132 21.7075 15.2132 19.2839 15.2132 16.7869C14.1745 16.4407 13.1358 16.0944 12.0656 15.7377C11.7302 15.543 11.3948 15.3482 11.0492 15.1475C9.87635 14.5634 9.87635 14.5634 8.09843 14.7213C6.29515 14.6885 6.29515 14.6885 5.27876 14.0656C4.5304 12.789 4.53478 11.9473 4.72138 10.4918C5.77056 9.44262 5.77056 9.44262 7.34433 9.31148C8.9181 9.44262 8.9181 9.44262 9.96728 10.4918C10.0315 10.8353 10.0958 11.1789 10.162 11.5328C10.3979 12.6728 10.3979 12.6728 11.4611 13.2541C11.8446 13.4245 12.228 13.5949 12.623 13.7705C13.0078 13.9463 13.3926 14.1221 13.789 14.3033C14.2343 14.494 14.2343 14.494 14.6886 14.6885C14.7168 13.1365 14.7377 11.585 14.7542 10.0328C14.763 9.59121 14.7717 9.14963 14.7808 8.69467C14.7842 8.27203 14.7876 7.84939 14.7911 7.41393C14.7965 7.02384 14.802 6.63374 14.8077 6.23181C14.776 5.11743 14.776 5.11743 13.6394 4.19672C13.5083 2.62295 13.5083 2.62295 13.6394 1.04918C13.9856 0.702951 14.3319 0.356721 14.6886 0Z" fill="#E3C197"/>
<path d="M0 29.9014C10.56 29.9014 21.12 29.9014 32 29.9014C32 30.4207 32 30.9401 32 31.4751C21.6131 31.4751 11.2262 31.4751 0.52459 31.4751C0.351475 30.9558 0.178361 30.4364 0 29.9014Z" fill="#45494D"/>
<path d="M7.93428 18.4915C9.44248 18.8849 9.44248 18.8849 9.96707 19.4095C10.0982 21.2128 10.0982 21.2128 9.96707 23.0816C8.3933 24.1308 8.3933 24.1308 7.04904 23.9997C5.77035 23.6062 5.77035 23.6062 4.72117 22.557C4.53058 21.0704 4.53396 20.2461 5.31133 18.9505C6.29494 18.3603 6.29494 18.3603 7.93428 18.4915Z" fill="#7CE02B"/>
<path d="M14.6886 0C16.5902 0.196721 16.5902 0.196721 18.3607 0.52459C18.6886 2.29508 18.6886 2.29508 18.8853 4.19672C17.8361 5.2459 17.8361 5.2459 16.2623 5.37705C14.6886 5.2459 14.6886 5.2459 13.6394 4.19672C13.5082 2.62295 13.5082 2.62295 13.6394 1.04918C13.9856 0.702951 14.3318 0.356721 14.6886 0Z" fill="#78DF24"/>
<path d="M24.8853 14C26.2295 14.1639 26.2295 14.1639 27.2132 14.7541C27.8033 15.7377 27.8033 15.7377 27.6722 17.377C27.2787 18.8852 27.2787 18.8852 26.7541 19.4098C25.2132 19.5082 25.2132 19.5082 23.6066 19.4098C22.5574 18.3607 22.5574 18.3607 22.4263 16.7869C22.5893 14.8307 22.9012 14.2544 24.8853 14Z" fill="#78DF25"/>
<path d="M24.8853 5.08203C26.2295 5.24597 26.2295 5.24597 27.2132 5.83613C27.8033 6.81974 27.8033 6.81974 27.6722 8.45908C27.2787 9.96728 27.2787 9.96728 26.7541 10.4919C25.2132 10.5902 25.2132 10.5902 23.6066 10.4919C22.5574 9.44269 22.5574 9.44269 22.4263 7.86892C22.5893 5.91274 22.9012 5.3364 24.8853 5.08203Z" fill="#78DF24"/>
<path d="M7.34414 9.31152C8.91791 9.44267 8.91791 9.44267 9.96709 10.4919C10.1577 11.9785 10.1543 12.8028 9.37693 14.0984C7.90991 14.9786 6.85265 14.5568 5.24578 14.164C4.91791 12.3935 4.91791 12.3935 4.72119 10.4919C5.77037 9.44267 5.77037 9.44267 7.34414 9.31152Z" fill="#76DF21"/>
<path d="M22.0329 16.2627C22.5575 17.3119 23.082 18.3611 23.6066 19.4102C20.5902 20.984 20.5902 20.984 19.4099 20.984C19.583 20.2915 19.7561 19.5991 19.9345 18.8856C20.627 18.7125 21.3194 18.5394 22.0329 18.3611C22.0329 17.6686 22.0329 16.9761 22.0329 16.2627Z" fill="#E5C88D"/>
</svg>
