<svg width="32" height="33" viewBox="0 0 32 33" fill="none" xmlns="http://www.w3.org/2000/svg">
<path d="M4.41379 21.5169C5.72414 21.4479 5.72414 21.4479 7.17241 21.5169C7.53655 21.881 7.90069 22.2451 8.27586 22.6203C8.90172 22.7455 9.52759 22.8707 10.1724 22.9996C12.1379 23.7238 12.1379 23.7238 12.7586 24.6526C13.2069 25.7238 13.2069 25.7238 13.7931 27.5858C14.0271 27.1477 14.2611 26.7096 14.5022 26.2583C15.4703 24.5731 16.4219 23.0203 17.6552 21.5169C19.7586 21.0686 19.7586 21.0686 21.5172 21.5169C21.8814 21.881 22.2455 22.2451 22.6207 22.6203C23.3148 22.6552 24.009 22.69 24.7241 22.7259C26.1137 22.8695 26.8154 22.9736 27.8599 23.9196C28.5801 24.9161 29.1949 25.9256 29.7931 26.9996C30.1185 27.5346 30.1185 27.5346 30.4504 28.0804C32 30.6802 32 30.6802 32 31.9996C21.44 31.9996 10.88 31.9996 0 31.9996C1.86207 26.4134 1.86207 26.4134 3.13793 23.9651C3.37903 23.4979 3.62013 23.0306 3.86853 22.5492C4.04847 22.2085 4.2284 21.8679 4.41379 21.5169Z" fill="#435C79"/>
<path d="M13.1724 1.31027C13.7931 2.20682 13.7931 2.20682 13.7931 3.31027C14.3393 3.49234 14.8855 3.67441 15.4482 3.86199C16.3113 5.58812 16.1965 6.92739 16 8.82751C15.0344 10.1723 15.0344 10.1723 13.2413 11.0344C10.9957 11.3316 8.85229 11.4519 6.62065 11.0344C4.85376 9.57808 3.88072 8.29869 3.3103 6.06889C3.41375 4.03441 3.41375 4.03441 3.86203 2.20682C6.31923 0.568685 10.5889 -0.584297 13.1724 1.31027Z" fill="#9AFEFE"/>
<path d="M4.41379 21.5175C5.72414 21.4486 5.72414 21.4486 7.17241 21.5175C7.53655 21.8817 7.90069 22.2458 8.27586 22.621C9.21465 22.7746 9.21465 22.7746 10.1724 22.9313C12.1379 23.7244 12.1379 23.7244 12.8362 24.7826C13.7531 27.1022 14.0264 28.092 13.0884 30.496C11.405 32.1818 11.0988 32.2313 8.83621 32.3236C7.77538 32.3016 6.7148 32.2622 5.65517 32.2072C4.8412 32.1848 4.8412 32.1848 4.01078 32.1619C2.67262 32.123 1.33693 32.0686 0 32.0003C0.880296 29.2217 1.78685 26.5584 3.13793 23.9658C3.37903 23.4986 3.62013 23.0313 3.86853 22.5499C4.04847 22.2092 4.2284 21.8685 4.41379 21.5175Z" fill="#2F4158"/>
<path d="M20.9656 0C24.4249 0 27.8842 0 31.4483 0C31.4483 2.00276 31.4483 4.00552 31.4483 6.06897C28.5352 6.06897 25.6221 6.06897 22.6207 6.06897C22.6207 9.16414 22.6207 12.2593 22.6207 15.4483C22.0745 15.6303 21.5283 15.8124 20.9656 16C20.9656 10.72 20.9656 5.44 20.9656 0Z" fill="#FD4D99"/>
<path d="M20.9656 16C23.1308 17.0826 23.5356 17.3725 24.6898 19.3103C24.9259 19.6972 25.162 20.0841 25.4053 20.4828C25.9311 21.5172 25.9311 21.5172 25.9311 22.6207C26.2953 22.8028 26.6594 22.9848 27.0346 23.1724C23.6941 23.2802 23.6941 23.2802 22.6208 23.1724C22.2567 22.8083 21.8925 22.4441 21.5173 22.069C20.2358 21.848 18.9477 21.6608 17.6553 21.5172C18.7477 19.6966 19.8401 17.8759 20.9656 16Z" fill="#EAF1F2"/>
<path d="M20.9656 6.06934C21.5118 6.06934 22.058 6.06934 22.6207 6.06934C22.6207 9.16451 22.6207 12.2597 22.6207 15.4486C22.0745 15.6307 21.5283 15.8128 20.9656 16.0004C20.9656 12.7231 20.9656 9.44589 20.9656 6.06934Z" fill="#7C8785"/>
<path d="M7.17236 1.10352C7.90064 1.10352 8.62891 1.10352 9.37926 1.10352C9.56133 2.19593 9.7434 3.28834 9.93098 4.41386C9.38478 4.59593 8.83857 4.778 8.27581 4.96558C7.91167 3.6911 7.54754 2.41662 7.17236 1.10352Z" fill="#7EEFE8"/>
</svg>
