<svg width="36" height="41" viewBox="0 0 36 41" fill="none" xmlns="http://www.w3.org/2000/svg">
<path d="M2.97045 18.9065C4.20186 18.9065 5.21558 19.9202 5.21558 21.1516C5.21558 22.383 4.20186 23.3975 2.97045 23.3975C1.73903 23.3975 0.724609 22.383 0.724609 21.1516C0.724609 19.9202 1.73903 18.9065 2.97045 18.9065Z" fill="#98DEDE"/>
<path d="M33.3202 24.3383C34.3347 24.3383 35.1307 25.1358 35.1307 26.1495C35.1307 27.1632 34.3347 27.96 33.3202 27.96C32.3065 27.96 31.509 27.1632 31.509 26.1495C31.509 25.1358 32.3065 24.3383 33.3202 24.3383Z" fill="#98DEDE"/>
<path d="M18.7606 35.9281C19.1953 37.087 19.3397 38.3184 19.3397 39.6224C18.1083 40.0563 16.8768 40.2021 15.718 40.2021C14.1245 40.1296 12.6036 39.6942 11.3722 38.7531C10.1407 37.8112 9.2714 36.5798 8.69234 35.1314C8.25768 33.9725 8.04001 32.7411 8.11257 31.3646C9.41654 30.9299 10.648 30.7122 11.8794 30.7848C13.4003 30.8581 14.8494 31.292 16.0808 32.2339C17.3122 33.1751 18.1815 34.4797 18.7606 35.9281Z" fill="#8EC155"/>
<path d="M19.4852 38.6083C19.5577 37.6665 19.7029 36.7979 20.0649 35.9286C20.5722 34.4802 21.5134 33.1755 22.7448 32.3062C23.9762 31.4376 25.4253 30.9304 26.9462 30.8585C28.1776 30.7852 29.4809 31.0029 30.713 31.4376C30.713 32.7415 30.4953 34.0448 30.1332 35.2037C29.626 36.6528 28.6849 37.8842 27.4534 38.8253C26.1495 39.7672 24.7004 40.2026 23.1069 40.2744C21.948 40.2744 20.7166 40.13 19.4852 39.6946C19.4133 39.2607 19.4852 38.8979 19.4852 38.6083Z" fill="#8EC155"/>
<path d="M22.5277 19.9929C23.0349 21.2236 22.1656 22.5283 20.8617 22.5283H19.4851H17.4569C16.153 22.5283 15.2836 21.2236 15.7916 19.9929C16.0078 19.5583 16.2981 19.1236 16.6609 18.7615C18.1086 17.3857 20.427 17.3857 21.8754 18.8341C22.1656 19.1962 22.3826 19.6309 22.5277 19.9929Z" fill="#F8FFF0"/>
<path d="M19.5575 0.797806C22.3098 0.870369 24.4832 3.84041 24.4106 7.46208C24.338 10.7942 20.934 14.3433 19.1228 17.748C17.5293 14.2708 14.2698 10.5047 14.3423 7.2444C14.4867 3.62272 16.8051 0.725243 19.5575 0.797806Z" fill="#F37D79"/>
<path d="M12.9656 7.7523C15.2833 10.1426 15.3559 15.0675 16.5148 18.7617C12.9656 17.3859 7.96814 17.0231 5.72229 14.7054C3.25947 12.0974 2.8248 8.40393 4.85297 6.52017C6.88113 4.63714 10.5028 5.14435 12.9656 7.7523Z" fill="#FF99A7"/>
<path d="M34.0448 7.17221C35.9997 9.19966 35.4206 12.8213 32.8126 15.2849C30.4224 17.6019 25.4967 17.6751 21.8032 18.834C23.179 15.2849 23.5412 10.2867 25.8588 8.04153C28.4668 5.57799 32.161 5.14405 34.0448 7.17221Z" fill="#FF99A7"/>
<path d="M7.89526 6.08521C6.88154 6.08521 6.0122 6.37545 5.36057 7.02708C3.62194 8.69315 4.05659 11.8802 6.30244 14.1979C7.67898 15.647 10.3588 16.2986 12.8935 16.9502C13.7628 17.1679 14.6321 17.3856 15.5014 17.6751C15.2837 16.8058 15.0667 15.8647 14.9223 14.9221C14.4151 12.3874 13.9072 9.70688 12.5314 8.2585C11.1548 6.95452 9.48949 6.08521 7.89526 6.08521ZM16.5877 19.4863C16.5151 19.4863 16.4433 19.4863 16.2982 19.413C15.1393 18.9784 13.8353 18.617 12.5314 18.3268C9.779 17.6018 6.88152 16.8784 5.21545 15.2116C2.46309 12.3148 2.02844 8.18594 4.34686 6.01336C5.28802 5.14405 6.51944 4.63683 7.89526 4.63683C9.92414 4.63683 11.9523 5.57798 13.5458 7.24405C15.2119 8.98268 15.7916 11.8076 16.3707 14.6325C16.661 16.0091 16.9505 17.3856 17.3126 18.5437C17.3844 18.834 17.3126 19.1235 17.0949 19.2686C16.9505 19.413 16.7328 19.4863 16.5877 19.4863Z" fill="#061D00"/>
<path d="M19.485 1.5229C17.1673 1.5229 15.2117 4.05755 15.1392 7.24457C15.0666 9.20017 16.515 11.5904 17.8915 13.8363C18.3262 14.633 18.8334 15.4298 19.2674 16.2265C19.7746 15.4298 20.2825 14.633 20.789 13.8363C22.2374 11.6637 23.7583 9.41786 23.7583 7.3897C23.8316 5.5785 23.1793 3.84058 22.093 2.68174C21.3681 1.95683 20.4988 1.5229 19.485 1.5229ZM19.1955 18.4717C18.906 18.4717 18.6157 18.3273 18.5439 18.0377C18.0366 16.9507 17.3125 15.7193 16.6608 14.5605C15.2117 12.0977 13.6908 9.56298 13.7626 7.17272C13.8352 5.28897 14.415 3.55106 15.4294 2.17453C16.515 0.797991 18.0366 0.00123787 19.6294 0.00123787C20.9341 0.00123787 22.1655 0.581017 23.1793 1.6673C24.5558 3.04384 25.28 5.14456 25.2074 7.3897C25.1349 9.77995 23.5413 12.2428 21.9478 14.5605C21.2237 15.7193 20.4269 16.8789 19.8471 18.0377C19.7027 18.3273 19.4851 18.4717 19.1955 18.4717Z" fill="#061D00"/>
<path d="M30.8574 6.59256C29.3364 6.59256 27.6704 7.31674 26.3664 8.54816C24.918 9.92469 24.2657 12.6045 23.6141 15.1399C23.3964 16.0092 23.1794 16.8785 22.8891 17.7478C23.7584 17.5301 24.7003 17.3124 25.6422 17.168C28.1776 16.6608 30.8574 16.1543 32.3065 14.7052C33.6097 13.4738 34.4072 11.7352 34.4791 10.2142C34.4791 9.12793 34.1895 8.25862 33.5379 7.60627C32.8856 6.95464 31.9444 6.59256 30.8574 6.59256ZM21.8036 19.6309C21.3682 19.6309 21.0787 19.3406 21.0787 18.9067C21.0787 18.8341 21.0787 18.7615 21.1512 18.6171C21.5859 17.4576 21.948 16.081 22.2375 14.7778C22.9624 12.0254 23.6866 9.12793 25.3527 7.46186C26.9462 5.9402 28.9018 5.0716 30.8574 5.0716C32.3065 5.0716 33.6823 5.57811 34.6242 6.59256C35.4928 7.53443 36 8.83768 36 10.2142C35.9282 12.1698 34.9863 14.198 33.3928 15.7189C31.6549 17.3857 28.7566 17.9648 26.0043 18.5438C24.7003 18.8341 23.2519 19.1236 22.0931 19.4865C21.948 19.5583 21.8754 19.6309 21.8036 19.6309Z" fill="#061D00"/>
<path d="M19.4849 40.2021C19.051 40.2021 18.7607 39.9119 18.7607 39.4773V22.5277C18.7607 22.0924 19.051 21.8028 19.4849 21.8028C19.9196 21.8028 20.2091 22.0924 20.2091 22.5277V39.4773C20.2091 39.8401 19.847 40.2021 19.4849 40.2021Z" fill="#061D00"/>
<path d="M20.209 39.1153C21.2235 39.4048 22.1654 39.55 23.1065 39.4774C24.6275 39.4048 25.9322 38.9709 27.0903 38.1734C28.1773 37.3767 28.974 36.2904 29.4805 34.9139C29.8434 33.9727 29.9878 33.0308 30.0604 31.9438C29.0466 31.6543 28.0329 31.5099 27.0184 31.5817C25.5693 31.6543 24.2654 32.0897 23.2517 32.8857C22.1654 33.6824 21.296 34.842 20.7888 36.2185C20.4986 37.0146 20.3542 37.8113 20.2823 38.6806C20.2091 38.8251 20.209 38.9709 20.209 39.1153ZM22.817 40.9258C21.6581 40.9258 20.4267 40.7088 19.1953 40.2741C18.9058 40.2023 18.6881 39.9121 18.6881 39.6225C18.6881 39.2604 18.6881 38.8976 18.6881 38.5355C18.7607 37.5218 18.9776 36.5799 19.2672 35.7113C19.847 34.0445 20.8614 32.6687 22.2372 31.7268C23.5412 30.785 25.0629 30.2052 26.8008 30.1333C26.9459 30.1333 27.0903 30.1333 27.2354 30.1333C28.395 30.1333 29.6257 30.351 30.8571 30.785C31.1473 30.8582 31.3643 31.1478 31.3643 31.4373C31.3643 32.8857 31.1473 34.1897 30.7127 35.4211C30.1329 37.0146 29.1185 38.3911 27.8152 39.333C26.4387 40.3467 24.8452 40.8539 23.0347 40.9258C23.0347 40.9258 22.8888 40.9258 22.817 40.9258Z" fill="#061D00"/>
<path d="M8.76415 31.9438C8.76415 33.0308 8.98186 33.9727 9.34396 34.9139C9.85118 36.2904 10.6479 37.3767 11.7342 38.1734C12.8212 38.9709 14.197 39.4048 15.6454 39.4774C16.5873 39.4774 17.5292 39.4048 18.5436 39.1153C18.5436 38.1016 18.3259 37.0871 18.0364 36.2185C17.5292 34.842 16.7324 33.6824 15.5736 32.8857C14.4866 32.0897 13.1833 31.6543 11.8068 31.5817C10.8649 31.5099 9.85116 31.6543 8.76415 31.9438ZM15.9357 40.9258C15.8631 40.9258 15.718 40.9258 15.6454 40.9258C13.9068 40.8539 12.2414 40.3467 10.8649 39.333C9.56164 38.3911 8.54793 37.0146 7.96815 35.4211C7.53277 34.1897 7.3158 32.8857 7.3158 31.4373C7.3158 31.1478 7.53277 30.8582 7.82302 30.785C9.05443 30.351 10.2851 30.1333 11.4447 30.1333C11.5898 30.1333 11.7342 30.1333 11.8793 30.1333C13.6173 30.2052 15.1389 30.7124 16.4429 31.7268C17.7462 32.6687 18.7606 34.0445 19.4129 35.7113C19.8469 36.942 20.0645 38.246 20.0645 39.6225C20.0645 39.9121 19.8469 40.2023 19.5573 40.2741C18.3259 40.7088 17.0945 40.9258 15.9357 40.9258Z" fill="#061D00"/>
<path d="M19.8472 39.9121C19.6295 39.9121 19.4133 39.8403 19.2674 39.6226C19.0512 39.333 19.123 38.8251 19.4133 38.6081L25.7147 34.0446C26.0043 33.8269 26.5107 33.9002 26.7284 34.1897C26.9461 34.48 26.8736 34.9865 26.584 35.2034L20.2093 39.767C20.1367 39.8403 19.9923 39.9121 19.8472 39.9121Z" fill="#061D00"/>
<path d="M18.906 39.4053C18.7609 39.4053 18.6883 39.4053 18.5439 39.3334L12.1699 35.7117C11.8071 35.4941 11.7345 35.0594 11.8796 34.6966C12.0966 34.3352 12.5313 34.2627 12.8934 34.4071L19.2674 38.0287C19.6295 38.2464 19.7027 38.6811 19.5576 39.0432C19.4132 39.2609 19.1955 39.4053 18.906 39.4053Z" fill="#061D00"/>
<path d="M33.3202 25.0629C32.7404 25.0629 32.2339 25.5701 32.2339 26.1499C32.2339 26.7297 32.7404 27.2369 33.3202 27.2369C33.9 27.2369 34.4072 26.7297 34.4072 26.1499C34.4072 25.5701 33.9 25.0629 33.3202 25.0629ZM33.3202 28.6846C31.9444 28.6846 30.7855 27.5257 30.7855 26.1499C30.7855 24.7734 31.9444 23.6152 33.3202 23.6152C34.6967 23.6152 35.8556 24.7734 35.8556 26.1499C35.8556 27.5257 34.6967 28.6846 33.3202 28.6846Z" fill="#061D00"/>
<path d="M2.97003 19.6311C2.10072 19.6311 1.44909 20.356 1.44909 21.152C1.44909 21.9488 2.17256 22.673 2.97003 22.673C3.83935 22.673 4.49097 21.9488 4.49097 21.152C4.49097 20.356 3.83935 19.6311 2.97003 19.6311ZM2.97003 24.1221C1.30396 24.1221 0 22.7462 0 21.152C0 19.5585 1.37653 18.182 2.97003 18.182C4.63538 18.182 5.9401 19.5585 5.9401 21.152C5.9401 22.7462 4.63538 24.1221 2.97003 24.1221Z" fill="#061D00"/>
<path d="M25.7146 24.7013C25.6421 24.7013 25.5695 24.7013 25.5695 24.7738C25.4969 24.8464 25.4969 24.9915 25.5695 25.0634C25.6421 25.1367 25.7872 25.1367 25.8591 25.0634C25.9323 24.9915 25.9323 24.9915 25.9323 24.919C25.9323 24.8464 25.9323 24.7738 25.8591 24.7738C25.8591 24.7013 25.7872 24.7013 25.7146 24.7013ZM25.7146 26.1504C25.3525 26.1504 25.063 26.0053 24.8453 25.7883C24.6276 25.5706 24.4832 25.2811 24.4832 24.919C24.4832 24.5569 24.6276 24.2674 24.8453 24.0497C25.063 23.832 25.3525 23.6876 25.7146 23.6876C26.0767 23.6876 26.3663 23.832 26.584 24.0497C27.0905 24.5569 27.0905 25.2811 26.584 25.7883C26.3663 26.0053 26.0767 26.1504 25.7146 26.1504Z" fill="#061D00"/>
<path d="M19.1229 18.4717C18.3262 18.4717 17.602 18.7619 17.0947 19.2692C16.8052 19.5587 16.5875 19.9208 16.4431 20.2829C16.298 20.6457 16.3706 21.0078 16.515 21.2973C16.7327 21.5869 17.0948 21.8038 17.4568 21.8038H20.8616C21.2237 21.8038 21.5857 21.5869 21.8034 21.2973C22.0204 21.0078 22.0204 20.6457 21.8753 20.2829C21.7309 19.9208 21.5132 19.6313 21.2962 19.4136C20.7164 18.7619 19.9197 18.4717 19.1229 18.4717ZM20.8616 23.2529H17.4568C16.5875 23.2529 15.7915 22.8183 15.3561 22.0934C14.9222 21.3699 14.7763 20.5006 15.1391 19.7031C15.3561 19.124 15.7182 18.6175 16.1529 18.2554C16.9504 17.458 18.0366 17.0233 19.1955 17.0233C20.4269 17.0233 21.5132 17.5305 22.3825 18.3273C22.7446 18.6894 23.0348 19.1966 23.2518 19.6313C23.6139 20.428 23.4688 21.2973 23.0348 22.0215C22.5276 22.8183 21.7309 23.2529 20.8616 23.2529Z" fill="#061D00"/>
</svg>
