<svg width="33" height="39" viewBox="0 0 33 39" fill="none" xmlns="http://www.w3.org/2000/svg">
<path d="M2.31198 3.10388C3.23688 3.10388 3.96346 3.83112 3.96346 4.75555C3.96346 5.68065 3.23688 6.40723 2.31198 6.40723C1.38734 6.40723 0.660767 5.68065 0.660767 4.75555C0.660767 3.83112 1.38734 3.10388 2.31198 3.10388Z" fill="#F9CCD1"/>
<path d="M14.0033 31.3103C15.1924 31.7728 15.7869 33.093 15.3904 34.2827C14.9282 35.4712 13.6069 36.0661 12.4182 35.6697C11.3612 35.2734 10.6346 33.3576 9.70996 32.2347C11.1629 31.9045 12.8806 30.9132 14.0033 31.3103Z" fill="#8EC155"/>
<path d="M25.1666 30.4511C24.3745 31.7057 23.8457 33.6214 22.789 34.084C21.5998 34.6127 20.279 34.1501 19.7503 32.961C19.2216 31.7725 19.7503 30.4511 20.8733 29.923C21.8639 29.3943 23.7134 30.2526 25.1666 30.4511Z" fill="#8EC155"/>
<path d="M17.5708 27.8754C18.165 27.8754 18.6937 27.8093 19.2218 27.7431V36.1318C19.2218 36.5944 19.0239 36.9914 18.7599 37.3216C18.4952 37.6512 18.0333 37.7842 17.5708 37.7842C16.6461 37.7842 15.9193 37.0569 15.9193 36.1318V27.7431C16.4478 27.8093 16.9762 27.8754 17.5708 27.8754Z" fill="#A88A69"/>
<path d="M23.7797 25.4308L23.8459 25.5632C22.5906 26.6861 21.0057 27.4789 19.2217 27.8091C18.6937 27.8752 18.1649 27.9414 17.5707 27.9414C16.9761 27.9414 16.4477 27.8752 15.9192 27.8091C14.5321 27.545 13.277 27.0163 12.2201 26.2897C14.1357 25.4308 15.6548 24.4402 16.8441 23.3173C18.4951 24.4402 20.8072 25.233 23.7797 25.4308Z" fill="#F25A7B"/>
<path d="M22.9208 7.79366L16.9099 9.90723L12.8146 8.32173L19.2218 5.08521L21.2036 4.09459C21.9964 3.69822 22.987 4.29246 22.987 5.15138V7.79366H22.9208Z" fill="#F25A7B"/>
<path d="M27.0822 8.45418V13.8711L16.9097 9.90734L22.9206 7.85994L25.1004 7.13337C26.0916 6.737 27.0822 7.46357 27.0822 8.45418Z" fill="#FD8493"/>
<path d="M19.1559 5.01966L12.7483 8.25684L9.70996 7.06772V3.10396C9.70996 1.58528 11.2949 0.660191 12.6162 1.38677L19.1559 5.01966Z" fill="#FD8493"/>
<path d="M16.9099 9.90728L27.0824 13.871V18.4284C27.0824 21.2692 25.8277 23.7791 23.8459 25.5625L23.7797 25.4301C20.8072 25.2323 18.5613 24.4395 16.8441 23.3166C15.6548 24.3734 14.1356 25.4301 12.2201 26.2891C9.71019 24.5719 8.05872 21.7311 8.05872 18.4284V6.40673L9.7102 7.06714L12.7485 8.25626L16.9099 9.90728Z" fill="#FF99A7"/>
<path d="M17.5706 38.4434C16.3155 38.4434 15.2585 37.3866 15.2585 36.1313V27.7425C15.2585 27.3462 15.5227 27.0821 15.9191 27.0821C16.3155 27.0821 16.5797 27.3462 16.5797 27.7425V36.1313C16.5797 36.66 17.0418 37.1225 17.5706 37.1225C17.8347 37.1225 18.0987 36.9909 18.2972 36.8579C18.4951 36.66 18.5612 36.3953 18.5612 36.1313V27.7425C18.5612 27.3462 18.8253 27.0821 19.2216 27.0821C19.618 27.0821 19.8827 27.3462 19.8827 27.7425V36.1313C19.8827 36.7262 19.618 37.3211 19.2216 37.7836C18.7598 38.2455 18.1649 38.4434 17.5706 38.4434Z" fill="#061D00"/>
<path d="M8.71929 7.39753V18.4286C8.71929 21.3355 10.1722 24.0433 12.5502 25.6944C13.6069 26.4216 14.7302 26.8841 15.9852 27.082C16.9759 27.2799 18.033 27.2799 19.0898 27.082C20.6753 26.8173 22.194 26.0914 23.3831 25.0346C25.2988 23.3829 26.3556 20.9392 26.3556 18.4286V14.3331L16.6458 10.5017L8.71929 7.39753ZM17.5705 28.5352C16.9759 28.5352 16.3814 28.469 15.7869 28.4028C14.3337 28.1388 13.0127 27.6101 11.8237 26.8173C9.04942 24.9016 7.39795 21.7974 7.39795 18.4286V6.40691C7.39795 6.2084 7.53003 6.01053 7.66204 5.87819C7.86017 5.7465 8.05849 5.7465 8.25654 5.81201L27.2145 13.2102C27.4785 13.3425 27.6109 13.541 27.6109 13.805V18.3624C27.6109 21.2694 26.3556 24.0433 24.1758 25.959C22.7889 27.2143 21.0717 28.0071 19.2215 28.3373C18.7596 28.469 18.1647 28.5352 17.5705 28.5352Z" fill="#061D00"/>
<path d="M27.0825 14.5322C26.6861 14.5322 26.4221 14.2682 26.4221 13.8718V8.4549C26.4221 8.19087 26.2897 7.92683 26.0919 7.79449C25.8933 7.66215 25.6293 7.59599 25.3653 7.66216L16.9762 10.5691C16.6461 10.7008 16.2496 10.5023 16.1176 10.1727C15.9855 9.84254 16.1836 9.44618 16.514 9.31383L16.5798 9.24766L24.9027 6.47368C25.5631 6.27516 26.2897 6.34134 26.8184 6.73771C27.4127 7.13409 27.6774 7.79449 27.6774 8.4549V13.8718C27.7435 14.2014 27.4127 14.5322 27.0825 14.5322Z" fill="#061D00"/>
<path d="M12.7487 8.91699C12.4846 8.91699 12.2865 8.78465 12.1545 8.58679C12.0221 8.25658 12.0882 7.86022 12.4186 7.72787L20.8074 3.43456C21.4016 3.17053 22.0627 3.17053 22.6569 3.50008C23.1856 3.83094 23.5158 4.42517 23.5158 5.08558V7.79403C23.5158 8.1904 23.2518 8.45444 22.8554 8.45444C22.4591 8.45444 22.1944 8.1904 22.1944 7.79403V5.08558C22.1944 4.82155 21.9965 4.6892 21.9303 4.62303C21.8642 4.55751 21.6663 4.49134 21.4016 4.62303L13.0131 8.85082C12.9468 8.91699 12.881 8.91699 12.7487 8.91699Z" fill="#061D00"/>
<path d="M9.71016 7.79395C9.31372 7.79395 9.04962 7.52992 9.04962 7.13355V3.10362C9.04962 2.17918 9.51184 1.32026 10.3044 0.858363C11.0973 0.395816 12.088 0.395815 12.8808 0.792191L19.4864 4.35891C19.8166 4.55743 19.9489 4.95381 19.7504 5.28402C19.5525 5.61422 19.1562 5.74656 18.8253 5.54805L12.22 1.98131C11.8239 1.7828 11.3614 1.7828 10.9649 1.98131C10.5688 2.24534 10.3044 2.64173 10.3044 3.10362V7.13355C10.3707 7.46375 10.1066 7.79395 9.71016 7.79395Z" fill="#061D00"/>
<path d="M2.31175 3.76468C1.7833 3.76468 1.32081 4.22658 1.32081 4.7553C1.32081 5.28402 1.7833 5.74656 2.31175 5.74656C2.84001 5.74656 3.30243 5.28402 3.30243 4.7553C3.30243 4.22658 2.84001 3.76468 2.31175 3.76468ZM2.31175 7.06738C1.05645 7.06738 0 6.0106 0 4.7553C0 3.5 1.05645 2.44321 2.31175 2.44321C3.56679 2.44321 4.62377 3.5 4.62377 4.7553C4.62377 6.0106 3.56679 7.06738 2.31175 7.06738Z" fill="#061D00"/>
<path d="M21.5999 30.3854C21.4014 30.3854 21.2036 30.3854 21.0719 30.4515C20.2791 30.8479 19.8827 31.8385 20.2791 32.6313C20.5432 33.2262 21.1374 33.6219 21.7978 33.6219C22.0625 33.6219 22.2603 33.5557 22.4589 33.4902C22.9208 33.2917 23.3833 32.3673 23.7797 31.5745C23.912 31.376 23.9782 31.1781 24.1099 30.9134C23.912 30.8479 23.648 30.7817 23.4495 30.7817C22.7891 30.5832 22.1287 30.3854 21.5999 30.3854ZM21.7978 34.9434C20.6755 34.9434 19.5525 34.283 19.09 33.2262C18.4296 31.7062 19.0238 29.989 20.5432 29.2624C20.8734 29.1307 21.2036 29.0646 21.5999 29.0646C22.2603 29.0646 23.0531 29.2624 23.7797 29.4603C24.3084 29.5926 24.7709 29.725 25.2328 29.7905C25.4313 29.7905 25.6292 29.989 25.7616 30.1875C25.8277 30.3854 25.8277 30.6494 25.6954 30.8479C25.4313 31.2443 25.2328 31.7062 24.9688 32.1687C24.4407 33.2262 23.912 34.2829 22.9869 34.7448C22.6567 34.8772 22.1942 34.9434 21.7978 34.9434Z" fill="#061D00"/>
<path d="M10.767 32.5643C10.8988 32.7622 11.0308 32.9607 11.0971 33.1592C11.5594 33.9513 12.0878 34.8102 12.6163 35.0081C12.8144 35.0749 13.0127 35.1404 13.2108 35.1404C13.8714 35.1404 14.5319 34.6779 14.7302 34.0837C14.8621 33.6879 14.8621 33.2254 14.6639 32.8284C14.4661 32.4326 14.1355 32.1024 13.7393 31.9701C13.6733 31.9039 13.5412 31.9039 13.4092 31.9039C12.8807 31.9039 12.1541 32.168 11.4273 32.4326C11.2292 32.4326 11.0308 32.4982 10.767 32.5643ZM13.2108 36.4619C12.8807 36.4619 12.5503 36.3951 12.2199 36.2634C11.2949 35.9332 10.6347 34.8764 10.0402 33.8196C9.7758 33.3571 9.51171 32.9607 9.24755 32.5643C9.11527 32.3665 9.04949 32.1679 9.11527 31.9039C9.18157 31.7054 9.37937 31.5076 9.57768 31.5076C10.0402 31.4414 10.5026 31.2435 11.0308 31.045C11.8237 30.781 12.6826 30.4508 13.4092 30.4508C13.6733 30.4508 14.0034 30.5169 14.2018 30.5825C14.9283 30.8471 15.5226 31.3752 15.8533 32.1024C16.1834 32.8284 16.2494 33.6211 15.919 34.3477C15.5226 35.6692 14.3998 36.4619 13.2108 36.4619Z" fill="#061D00"/>
<path d="M23.7797 26.0918C23.7135 26.0918 23.7135 26.0918 23.7797 26.0918C20.8734 25.8933 18.4296 25.1667 16.4477 23.8452C14.0036 22.1942 12.2201 19.6843 11.3614 16.5133C10.7009 14.1357 10.7009 12.2861 10.7009 12.1538C10.7009 11.7574 11.031 11.4934 11.3614 11.4934C11.7578 11.4934 12.0219 11.8236 12.0219 12.1538C12.0219 12.1538 11.9559 13.9378 12.6164 16.1175C13.4751 19.0239 14.9945 21.2036 17.1742 22.6568C18.9577 23.8452 21.2036 24.5063 23.7797 24.7048C24.1761 24.7048 24.4408 25.035 24.3746 25.4307C24.3746 25.8278 24.1099 26.0918 23.7797 26.0918Z" fill="#061D00"/>
<path d="M12.22 26.8838C11.9559 26.8838 11.7578 26.7514 11.6257 26.4868C11.4937 26.1566 11.6257 25.7608 11.9559 25.6285C13.6734 24.8357 15.1265 23.9113 16.3816 22.7877C20.1467 19.4195 20.6086 15.4557 20.6086 15.4557C20.6755 15.1255 20.9395 14.8615 21.3359 14.8615C21.6661 14.9277 21.9301 15.1917 21.9301 15.5881C21.9301 15.7859 21.4676 20.0137 17.2404 23.779C15.8534 24.9681 14.2676 26.0249 12.4844 26.817C12.352 26.8838 12.2863 26.8838 12.22 26.8838Z" fill="#061D00"/>
<path d="M32.0367 38.4434H7.26603C6.86965 38.4434 6.60522 38.1793 6.60522 37.7836C6.60522 37.3866 6.86965 37.1225 7.26603 37.1225H32.0367C32.4331 37.1225 32.6971 37.3866 32.6971 37.7836C32.6971 38.1793 32.3669 38.4434 32.0367 38.4434Z" fill="#061D00"/>
</svg>
