<svg width="36" height="46" viewBox="0 0 36 46" fill="none" xmlns="http://www.w3.org/2000/svg">
<path d="M33.3859 6.36717C34.432 6.36717 35.2535 7.18798 35.2535 8.234C35.2535 9.27927 34.432 10.1016 33.3859 10.1016C32.3399 10.1016 31.5191 9.27927 31.5191 8.234C31.5191 7.18798 32.3399 6.36717 33.3859 6.36717Z" fill="#A88D68"/>
<path d="M6.34804 34.375C7.3948 34.375 8.21561 35.1974 8.21561 36.2426C8.21561 37.2887 7.3948 38.1094 6.34804 38.1094C5.30277 38.1094 4.4812 37.2887 4.4812 36.2426C4.4812 35.1974 5.30277 34.375 6.34804 34.375Z" fill="#A88D68"/>
<path d="M2.61339 9.20604C3.6594 9.20604 4.48095 10.0269 4.48095 11.0729C4.48095 12.1181 3.6594 12.9404 2.61339 12.9404C1.56811 12.9404 0.746582 12.1181 0.746582 11.0729C0.746582 10.0269 1.56811 9.20604 2.61339 9.20604Z" fill="#A88D68"/>
<path d="M19.4185 39.9766C12.2483 34.8237 7.46863 27.9511 7.46863 20.4082C7.46863 12.8646 12.2483 5.9181 19.4185 0.765072C26.5895 5.9181 31.3692 12.8646 31.3692 20.4082C31.3692 27.9511 26.5895 34.8237 19.4185 39.9766Z" fill="#8EC155"/>
<path d="M19.4189 1.73683C12.1745 7.11433 8.21569 13.6867 8.21569 20.4088C8.21569 27.1309 12.1745 33.7032 19.4189 39.0807C26.6639 33.7781 30.6228 27.1309 30.6228 20.4088C30.6228 13.6867 26.6639 7.03951 19.4189 1.73683ZM19.4189 40.7246C19.27 40.7246 19.1211 40.649 18.9714 40.575C11.0544 34.898 6.7215 27.7287 6.7215 20.4088C6.7215 13.0141 11.0544 5.8446 18.9714 0.168556C19.1951 -0.0559082 19.5685 -0.0559082 19.867 0.168556C27.7848 5.8446 32.117 13.0141 32.117 20.4088C32.117 27.7287 27.7848 34.898 19.867 40.575C19.7174 40.7246 19.5685 40.7246 19.4189 40.7246Z" fill="#061D00"/>
<path d="M19.4186 45.4297C18.9711 45.4297 18.6718 45.1313 18.6718 44.6831V12.9404C18.6718 12.4915 18.9711 12.1929 19.4186 12.1929C19.8667 12.1929 20.166 12.4915 20.166 12.9404V44.6831C20.166 45.0564 19.7927 45.4297 19.4186 45.4297Z" fill="#061D00"/>
<path d="M19.419 22.0518C19.2701 22.0518 19.0457 21.9769 18.9716 21.9021C18.6723 21.6036 18.5982 21.1554 18.8968 20.8568L23.6016 15.2549C23.9009 14.9556 24.3483 14.8815 24.6476 15.1801C24.9462 15.4794 25.0217 15.9275 24.7224 16.2253L20.0168 21.828C19.7931 21.9769 19.6435 22.0518 19.419 22.0518Z" fill="#061D00"/>
<path d="M19.4185 30.4922C19.1948 30.4922 19.0452 30.4172 18.8963 30.2677C18.5977 29.969 18.5977 29.5217 18.8963 29.2216L24.4975 23.6204C24.7968 23.3211 25.2442 23.3211 25.5435 23.6204C25.842 23.919 25.842 24.3679 25.5435 24.6664L19.9415 30.2677C19.7926 30.4172 19.5682 30.4922 19.4185 30.4922Z" fill="#061D00"/>
<path d="M19.4186 26.7578C19.1948 26.7578 18.9711 26.683 18.8215 26.4593L14.1907 20.8573C13.8922 20.5588 13.967 20.0358 14.2655 19.8113C14.5641 19.5127 15.0871 19.5868 15.3108 19.8861L20.0164 25.4873C20.3149 25.7866 20.2401 26.3096 19.9416 26.5334C19.7171 26.683 19.5682 26.7578 19.4186 26.7578Z" fill="#061D00"/>
<path d="M19.4189 35.1221C19.1952 35.1221 19.0456 35.0474 18.8967 34.8975L13.2947 29.2965C12.9962 28.9979 12.9962 28.549 13.2947 28.2504C13.594 27.9512 14.0414 27.9512 14.3407 28.2504L19.9419 33.8523C20.2405 34.1509 20.2405 34.5991 19.9419 34.8975C19.793 35.0474 19.5686 35.1221 19.4189 35.1221Z" fill="#061D00"/>
<path d="M6.34813 35.123C5.75105 35.123 5.22879 35.6454 5.22879 36.2432C5.22879 36.8402 5.75105 37.364 6.34813 37.364C6.94596 37.364 7.46896 36.8402 7.46896 36.2432C7.46896 35.6454 6.94596 35.123 6.34813 35.123ZM6.34813 38.8574C4.9295 38.8574 3.73456 37.6626 3.73456 36.2432C3.73456 34.8247 4.9295 33.6296 6.34813 33.6296C7.76752 33.6296 8.96316 34.8247 8.96316 36.2432C8.96316 37.6626 7.76752 38.8574 6.34813 38.8574Z" fill="#061D00"/>
<path d="M33.3857 7.11425C32.7886 7.11425 32.2656 7.63725 32.2656 8.23434C32.2656 8.83217 32.7886 9.35444 33.3857 9.35444C33.9836 9.35444 34.5058 8.83217 34.5058 8.23434C34.5058 7.63725 34.0584 7.11425 33.3857 7.11425ZM33.3857 10.8486C31.9663 10.8486 30.7714 9.65298 30.7714 8.23434C30.7714 6.81496 31.9663 5.62004 33.3857 5.62004C34.8051 5.62004 36 6.81496 36 8.23434C36 9.65298 34.8799 10.8486 33.3857 10.8486Z" fill="#061D00"/>
<path d="M2.61354 9.95213C2.01645 9.95213 1.4942 10.4751 1.4942 11.0722C1.4942 11.6701 2.01645 12.1923 2.61354 12.1923C3.21137 12.1923 3.73437 11.6701 3.73437 11.0722C3.73437 10.4751 3.21137 9.95213 2.61354 9.95213ZM2.61354 13.6865C1.1949 13.6865 0 12.4909 0 11.0722C0 9.65284 1.1949 8.45792 2.61354 8.45792C4.03292 8.45792 5.2286 9.65284 5.2286 11.0722C5.2286 12.4909 4.03292 13.6865 2.61354 13.6865Z" fill="#061D00"/>
</svg>
