<svg width="195" height="195" viewBox="0 0 195 195" fill="none" xmlns="http://www.w3.org/2000/svg">
<path d="M89.7239 176.31L89.5115 177.841L86.4346 177.414C85.8937 177.339 85.4519 177.449 85.1092 177.745C84.7666 178.041 84.5648 178.408 84.5039 178.847C84.4628 179.143 84.4909 179.428 84.5882 179.701C84.6855 179.975 84.851 180.206 85.0849 180.394C85.3188 180.583 85.6144 180.702 85.9716 180.751L89.0485 181.178L88.8361 182.709L86.0194 182.318C85.5602 182.254 85.1765 182.321 84.8684 182.517C84.5602 182.714 84.3743 183.042 84.3106 183.501C84.2469 183.96 84.3365 184.326 84.5795 184.599C84.8225 184.872 85.1736 185.041 85.6328 185.104L88.4495 185.495L88.2371 187.026L85.3745 186.629C84.6499 186.528 84.0662 186.312 83.6234 185.98C83.1805 185.648 82.8708 185.257 82.6941 184.806C82.5174 184.355 82.4624 183.889 82.5289 183.41C82.6068 182.848 82.8337 182.375 83.2095 181.991C83.5751 181.605 84.0774 181.321 84.7164 181.139L84.5021 181.671C83.8668 181.302 83.395 180.841 83.0868 180.289C82.7786 179.736 82.6712 179.123 82.7647 178.45C82.8412 177.898 83.049 177.412 83.3883 176.991C83.7173 176.569 84.167 176.252 84.7374 176.04C85.2961 175.836 85.9581 175.788 86.7235 175.894L89.7239 176.31ZM90.9333 176.478L89.4464 187.194L87.686 186.949L89.1728 176.234L90.9333 176.478Z" fill="#061D00"/>
<path d="M71.8271 172.168C72.5944 172.44 73.2221 172.859 73.7102 173.425C74.1983 173.991 74.5155 174.639 74.6617 175.368C74.7947 176.104 74.7254 176.855 74.4538 177.623L72.2155 183.946L70.5401 183.353L72.7732 177.044C72.9486 176.549 72.9996 176.081 72.9263 175.639C72.8398 175.204 72.653 174.821 72.3659 174.49C72.0753 174.169 71.7066 173.929 71.2598 173.771C70.8033 173.609 70.3659 173.563 69.9474 173.634C69.5256 173.714 69.1491 173.898 68.8179 174.185C68.4833 174.482 68.23 174.873 68.0581 175.359L65.8198 181.682L64.1444 181.088L66.3878 174.751C66.6594 173.984 67.0767 173.361 67.6395 172.882C68.2023 172.404 68.8467 172.097 69.5727 171.96C70.2986 171.824 71.0501 171.893 71.8271 172.168Z" fill="#061D00"/>
<path d="M60.4552 167.389L55.2136 176.853L53.6589 175.992L58.9004 166.528L60.4552 167.389Z" fill="#061D00"/>
<path d="M52.2116 162.418L45.5864 170.97L44.1814 169.882L50.8066 161.329L52.2116 162.418ZM51.2464 161.67L50.2526 162.953L45.781 159.489L46.7748 158.206L51.2464 161.67Z" fill="#061D00"/>
<path d="M40.317 152.168L39.0922 153.232L37.2268 151.086C36.7402 150.526 36.1939 150.141 35.5878 149.93C34.975 149.712 34.3534 149.672 33.7229 149.811C33.0779 149.948 32.4716 150.263 31.9039 150.757C31.3439 151.243 30.9549 151.793 30.7367 152.406C30.5185 153.019 30.4747 153.644 30.6053 154.281C30.7292 154.911 31.0311 155.501 31.511 156.053L33.3763 158.2L32.1515 159.264L30.2557 157.083C29.7421 156.492 29.3706 155.852 29.1412 155.164C28.9041 154.483 28.81 153.794 28.8589 153.096C28.8932 152.397 29.068 151.727 29.3832 151.084C29.6907 150.448 30.136 149.877 30.7193 149.37C31.2947 148.87 31.9226 148.509 32.6027 148.286C33.2829 148.064 33.9719 147.977 34.6696 148.026C35.3595 148.081 36.0291 148.271 36.6784 148.594C37.3199 148.923 37.8941 149.38 38.401 149.963L40.317 152.168ZM41.1179 153.089L32.9524 160.186L31.7866 158.844L39.9521 151.748L41.1179 153.089Z" fill="#061D00"/>
<path d="M26.4883 132.49L14.7903 132.42L14.3267 131.274L22.6986 123.12L23.4171 124.896L16.5915 131.391L16.3482 130.79L25.7813 130.742L26.4883 132.49ZM23.7313 131.238L22.2985 131.817L20.1487 126.502L21.5814 125.922L23.7313 131.238Z" fill="#061D00"/>
<path d="M19.0104 103.663C19.0611 104.516 18.9499 105.251 18.6768 105.865C18.4036 106.48 17.9829 107.042 17.4145 107.55L16.1396 106.419C16.5539 106.095 16.8722 105.72 17.0946 105.294C17.3067 104.868 17.3938 104.337 17.3559 103.699C17.3205 103.102 17.169 102.637 16.9014 102.302C16.6331 101.956 16.283 101.796 15.8511 101.822C15.4911 101.844 15.2035 101.953 14.9882 102.152C14.7729 102.351 14.6024 102.608 14.4768 102.926C14.3402 103.233 14.2264 103.575 14.1352 103.952C14.0332 104.32 13.9212 104.693 13.7992 105.071C13.6663 105.441 13.4959 105.786 13.288 106.108C13.0794 106.42 12.8006 106.679 12.4517 106.885C12.1027 107.092 11.6505 107.212 11.0951 107.245C10.4574 107.283 9.9083 107.16 9.44771 106.878C8.97623 106.586 8.60632 106.18 8.33799 105.659C8.06966 105.138 7.91594 104.549 7.87684 103.891C7.83468 103.181 7.93595 102.54 8.18065 101.968C8.42474 101.386 8.75238 100.907 9.16358 100.532L10.4384 101.664C10.1071 101.993 9.86918 102.332 9.72478 102.682C9.56949 103.021 9.50468 103.407 9.53034 103.839C9.56211 104.374 9.69516 104.789 9.92947 105.085C10.1632 105.37 10.4754 105.501 10.8663 105.478C11.1954 105.458 11.4573 105.35 11.652 105.153C11.8364 104.956 11.9918 104.704 12.118 104.397C12.2334 104.081 12.3421 103.739 12.4442 103.371C12.5456 102.994 12.6627 102.621 12.7956 102.251C12.9279 101.872 13.1086 101.526 13.3377 101.213C13.556 100.89 13.8498 100.625 14.2194 100.417C14.5889 100.21 15.0617 100.089 15.6377 100.054C16.6045 99.9969 17.3912 100.296 17.9978 100.951C18.6038 101.597 18.9413 102.5 19.0104 103.663Z" fill="#061D00"/>
<path d="M19.5139 87.0938C19.3979 87.8995 19.1101 88.5971 18.6505 89.1867C18.1908 89.7763 17.6177 90.2142 16.9311 90.5005C16.2357 90.7751 15.4852 90.8544 14.6796 90.7384L8.04071 89.7824L8.29403 88.0232L14.9176 88.9771C15.4377 89.0519 15.907 89.0102 16.3253 88.8519C16.7349 88.6818 17.074 88.4236 17.3425 88.0771C17.6008 87.7292 17.7637 87.3206 17.8313 86.8515C17.9003 86.3722 17.8593 85.9343 17.7082 85.5378C17.5469 85.1398 17.293 84.8066 16.9465 84.5381C16.5898 84.2682 16.1565 84.0965 15.6466 84.023L9.00774 83.067L9.26106 81.3079L15.9152 82.2661C16.7209 82.3821 17.4134 82.6692 17.9928 83.1274C18.5722 83.5855 19 84.1572 19.2761 84.8423C19.5521 85.5275 19.6314 86.278 19.5139 87.0938Z" fill="#061D00"/>
<path d="M23.6634 70.4718C23.3938 71.207 23.0131 71.841 22.5213 72.374C22.0234 72.8938 21.4523 73.2989 20.8081 73.5894C20.1541 73.8763 19.4667 74.0302 18.7457 74.0511C18.015 74.0685 17.2869 73.9441 16.5614 73.6781C15.8359 73.412 15.2049 73.0379 14.6684 72.5558C14.1222 72.0702 13.6973 71.5083 13.3936 70.8702C13.0899 70.232 12.9161 69.5537 12.8723 68.8353C12.832 68.1072 12.9467 67.3756 13.2163 66.6404C13.5179 65.8182 13.914 65.1569 14.4048 64.6565C14.8956 64.1561 15.4583 63.7589 16.0929 63.4649L16.8096 65.0117C16.3708 65.1909 15.9796 65.4645 15.6362 65.8324C15.2963 66.1906 15.0217 66.6551 14.8124 67.2258C14.6279 67.7288 14.5465 68.2202 14.5681 68.7C14.5896 69.1798 14.7081 69.6348 14.9235 70.0649C15.1327 70.4819 15.4297 70.8542 15.8143 71.1818C16.199 71.5094 16.6573 71.7708 17.1893 71.9659C17.7214 72.161 18.24 72.258 18.7453 72.2567C19.2506 72.2555 19.7226 72.1652 20.1615 71.9859C20.5942 71.7935 20.9739 71.5212 21.3006 71.1691C21.6273 70.817 21.8828 70.3895 22.0673 69.8865C22.2943 69.2674 22.394 68.7113 22.3663 68.2183C22.3325 67.7121 22.2061 67.2487 21.9872 66.8282L23.534 66.1115C23.8377 66.7496 24.0097 67.4328 24.05 68.1608C24.0902 68.8889 23.9614 69.6593 23.6634 70.4718Z" fill="#061D00"/>
<path d="M30.9063 55.7717C30.4903 56.4351 29.9867 56.9766 29.3952 57.3963C28.8005 57.8017 28.158 58.0799 27.4675 58.2307C26.7684 58.3761 26.0639 58.3844 25.3542 58.2556C24.6358 58.1213 23.9492 57.849 23.2945 57.4385C22.6398 57.0281 22.0999 56.5315 21.6748 55.9488C21.2409 55.3606 20.9415 54.7229 20.7764 54.0357C20.6114 53.3485 20.5818 52.649 20.6876 51.9371C20.7989 51.2164 21.0626 50.5244 21.4785 49.8609C21.9437 49.1189 22.4682 48.5539 23.0519 48.1659C23.6357 47.778 24.2684 47.5058 24.9501 47.3495L25.3311 49.0112C24.8647 49.0957 24.4254 49.2824 24.0132 49.5712C23.6066 49.8513 23.2418 50.2489 22.9189 50.764C22.6343 51.2179 22.4529 51.6818 22.3747 52.1557C22.2965 52.6295 22.3182 53.0992 22.4399 53.5646C22.5583 54.0158 22.7717 54.4415 23.0802 54.8417C23.3888 55.2418 23.7831 55.5924 24.2632 55.8934C24.7433 56.1944 25.2307 56.3966 25.7253 56.5C26.2199 56.6033 26.7004 56.6127 27.1668 56.5282C27.63 56.4295 28.0579 56.2417 28.4503 55.9648C28.8428 55.688 29.1813 55.3226 29.4659 54.8686C29.8162 54.31 30.0288 53.7866 30.1038 53.2985C30.1754 52.7962 30.1477 52.3167 30.0206 51.86L31.6823 51.479C31.8473 52.1662 31.8742 52.8701 31.7628 53.5908C31.6515 54.3114 31.366 55.0384 30.9063 55.7717Z" fill="#061D00"/>
<path d="M37.5592 46.3358L29.6896 38.9124L30.9092 37.6196L38.7788 45.0429L37.5592 46.3358ZM38.397 45.4476L37.2166 44.3341L41.3736 39.9272L42.5541 41.0407L38.397 45.4476ZM34.9456 42.192L33.8101 41.1209L37.6067 37.0961L38.7421 38.1672L34.9456 42.192ZM31.7078 39.1378L30.5274 38.0243L34.6315 33.6735L35.8119 34.787L31.7078 39.1378Z" fill="#061D00"/>
<path d="M50.4848 34.584C49.791 35.084 49.1114 35.3833 48.4459 35.4819C47.7803 35.5805 47.0806 35.526 46.3467 35.3183L46.6199 33.6355C47.1153 33.8119 47.6025 33.8799 48.0814 33.8396C48.5543 33.7908 49.0499 33.5797 49.5681 33.2063C50.0529 32.8569 50.3651 32.4795 50.5047 32.074C50.6527 31.6626 50.6002 31.2813 50.3472 30.9303C50.1363 30.6377 49.8894 30.4537 49.6065 30.3783C49.3235 30.3028 49.0144 30.2969 48.6793 30.3606C48.3466 30.4099 47.9966 30.497 47.6294 30.622C47.2646 30.7325 46.8895 30.8377 46.5043 30.9375C46.1214 31.023 45.7383 31.0641 45.355 31.061C44.9801 31.0518 44.612 30.9551 44.2507 30.771C43.8894 30.5869 43.5461 30.2691 43.2208 29.8177C42.8473 29.2995 42.6564 28.7703 42.6481 28.2302C42.6422 27.6757 42.7873 27.1456 43.0834 26.6401C43.3795 26.1347 43.795 25.6891 44.33 25.3036C44.9067 24.8879 45.5021 24.6303 46.1161 24.5307C46.7385 24.4251 47.3183 24.4454 47.8555 24.5916L47.5823 26.2744C47.1267 26.1709 46.7128 26.1517 46.3406 26.2168C45.9707 26.2674 45.6103 26.4193 45.2592 26.6723C44.8245 26.9855 44.5451 27.3203 44.4208 27.6765C44.3049 28.0267 44.3614 28.3607 44.5904 28.6783C44.7831 28.9458 45.015 29.1089 45.2859 29.1676C45.5508 29.218 45.8466 29.2144 46.1734 29.1567C46.5025 29.0846 46.8494 28.9933 47.2143 28.8828C47.5874 28.7663 47.9655 28.6652 48.3484 28.5798C48.7397 28.4883 49.1288 28.4555 49.5158 28.4814C49.9051 28.493 50.2864 28.5991 50.6598 28.8C51.0331 29.0008 51.3885 29.3353 51.7258 29.8034C52.2921 30.5891 52.4608 31.4136 52.2321 32.2769C52.0118 33.1342 51.4293 33.9033 50.4848 34.584Z" fill="#061D00"/>
<path d="M63.6991 26.6219C62.9211 26.977 62.1962 27.1381 61.5242 27.1051C60.8522 27.0721 60.1766 26.8822 59.4973 26.5354L60.0933 24.9381C60.5448 25.2077 61.0093 25.3694 61.4869 25.4232C61.9603 25.4676 62.4875 25.3572 63.0686 25.0919C63.6122 24.8438 63.992 24.5345 64.208 24.164C64.4334 23.7893 64.4562 23.4052 64.2765 23.0115C64.1267 22.6835 63.9204 22.4548 63.6576 22.3257C63.3947 22.1965 63.0928 22.1305 62.7517 22.1276C62.4157 22.1111 62.0555 22.1283 61.671 22.1792C61.2916 22.2165 60.9032 22.2466 60.5059 22.2694C60.1137 22.2785 59.7299 22.2442 59.3546 22.1664C58.9887 22.0842 58.6465 21.9177 58.328 21.6666C58.0095 21.4156 57.7348 21.037 57.5037 20.5309C57.2384 19.9498 57.1544 19.3935 57.2516 18.8622C57.3539 18.3171 57.5995 17.8256 57.9885 17.3875C58.3775 16.9494 58.8719 16.5935 59.4718 16.3196C60.1185 16.0244 60.7527 15.8878 61.3743 15.9098C62.0053 15.9276 62.57 16.0605 63.0684 16.3087L62.4724 17.9059C62.0458 17.7156 61.6435 17.6161 61.2658 17.6073C60.8931 17.5849 60.51 17.6635 60.1163 17.8432C59.6289 18.0657 59.2896 18.3396 59.0982 18.6647C58.9163 18.9857 58.9066 19.3242 59.0692 19.6804C59.2061 19.9803 59.4017 20.1855 59.656 20.2959C59.906 20.397 60.1968 20.4511 60.5286 20.4582C60.8654 20.4517 61.2235 20.4298 61.6029 20.3925C61.9916 20.351 62.3821 20.3256 62.7743 20.3164C63.1759 20.303 63.564 20.3467 63.9385 20.4476C64.3181 20.5348 64.6714 20.7133 64.9984 20.983C65.3254 21.2528 65.6087 21.6501 65.8483 22.175C66.2505 23.0561 66.2553 23.8977 65.8627 24.6998C65.4794 25.4977 64.7582 26.1384 63.6991 26.6219Z" fill="#061D00"/>
<path d="M85.9024 19.6293L85.7337 18.0931L88.8215 17.754C89.3643 17.6944 89.7657 17.4793 90.0256 17.1087C90.2855 16.7381 90.3912 16.3326 90.3429 15.8922C90.3103 15.5952 90.2133 15.326 90.0521 15.0846C89.8908 14.8432 89.6737 14.6597 89.4008 14.5342C89.1279 14.4087 88.8122 14.3656 88.4538 14.405L85.3659 14.7441L85.1972 13.2078L88.0239 12.8974C88.4848 12.8468 88.8405 12.6885 89.0912 12.4226C89.3418 12.1567 89.4419 11.7933 89.3912 11.3324C89.3406 10.8715 89.1641 10.5385 88.8617 10.3333C88.5593 10.1281 88.1777 10.0508 87.7168 10.1015L84.8902 10.4119L84.7214 8.87564L87.5942 8.56015C88.3214 8.48029 88.9402 8.54708 89.4508 8.7605C89.9614 8.97392 90.3576 9.27765 90.6393 9.67168C90.9209 10.0657 91.0882 10.5034 91.1411 10.9848C91.2029 11.5481 91.0987 12.0622 90.8285 12.5272C90.5685 12.9911 90.1509 13.3894 89.5759 13.722L89.6535 13.1538C90.3598 13.3561 90.93 13.6873 91.364 14.1476C91.7981 14.6078 92.0522 15.1759 92.1264 15.8518C92.1872 16.4049 92.1046 16.927 91.8787 17.4183C91.663 17.9084 91.3046 18.3261 90.8036 18.6713C90.3116 19.0052 89.6816 19.2143 88.9134 19.2987L85.9024 19.6293ZM84.6888 19.7626L83.5078 9.00892L85.2745 8.8149L86.4555 19.5686L84.6888 19.7626Z" fill="#061D00"/>
<path d="M101.752 14.2884L101.879 12.8258L104.605 13.063C105.149 13.1104 105.582 13.0085 105.903 12.7573C106.236 12.4967 106.425 12.1149 106.468 11.6119C106.508 11.1603 106.392 10.7676 106.121 10.4337C105.85 10.0999 105.443 9.90926 104.899 9.8619L102.158 9.62329L102.292 8.08364L105.11 8.32895C105.787 8.38793 106.371 8.57833 106.86 8.90015C107.35 9.21171 107.713 9.61563 107.949 10.1119C108.196 10.5988 108.294 11.14 108.242 11.7353C108.187 12.3614 107.996 12.8929 107.669 13.3298C107.351 13.7676 106.925 14.0924 106.389 14.3043C105.854 14.5163 105.247 14.5927 104.57 14.5337L101.752 14.2884ZM100.138 18.7553L101.076 7.97774L102.847 8.1319L101.908 18.9095L100.138 18.7553ZM106.05 19.2701L102.685 14.2611L104.385 13.8041L108.282 19.4644L106.05 19.2701Z" fill="#061D00"/>
<path d="M114.713 20.5121L122.065 11.4124L123.25 11.765L124.401 23.3947L122.564 22.8481L121.745 13.4619L122.367 13.647L116.521 21.0499L114.713 20.5121ZM117.412 19.1383L117.853 17.657L123.348 19.2922L122.907 20.7735L117.412 19.1383Z" fill="#061D00"/>
<path d="M131.031 26.1277L136.196 16.6218L137.282 17.2121L136.784 19.2628L132.593 26.9762L131.031 26.1277ZM137.617 29.7061L135.963 19.1865L137.282 17.2121L138.936 27.7317L137.617 29.7061ZM137.617 29.7061L138.05 27.7776L142.307 19.942L143.869 20.7905L138.704 30.2964L137.617 29.7061Z" fill="#061D00"/>
<path d="M146.054 35.3939L147.107 34.1593L149.27 36.0046C149.835 36.486 150.432 36.7857 151.063 36.9038C151.701 37.0285 152.322 36.9756 152.925 36.745C153.542 36.5133 154.095 36.1113 154.583 35.5391C155.064 34.9746 155.368 34.3732 155.492 33.7348C155.617 33.0964 155.567 32.4718 155.344 31.8611C155.127 31.257 154.741 30.7176 154.185 30.2429L152.021 28.3975L153.074 27.1629L155.273 29.0383C155.869 29.5465 156.331 30.1237 156.66 30.7699C156.996 31.4083 157.191 32.0761 157.247 32.7733C157.317 33.4694 157.243 34.1585 157.027 34.8408C156.818 35.5152 156.462 36.1463 155.961 36.7343C155.466 37.3144 154.899 37.765 154.259 38.0862C153.619 38.4073 152.951 38.5956 152.254 38.6509C151.563 38.6985 150.873 38.6107 150.183 38.3878C149.5 38.157 148.864 37.7909 148.276 37.2894L146.054 35.3939ZM145.125 34.6016L152.145 26.3706L153.497 27.5239L146.477 35.755L145.125 34.6016Z" fill="#061D00"/>
<path d="M164.521 55.8215L172.237 47.4461L173.087 48.9711L167.116 55.3649L166.89 54.96L175.437 53.1819L176.039 54.2615L170.038 60.6013L169.812 60.1964L178.389 58.4723L179.24 59.9973L168.061 62.1646L167.458 61.0849L173.439 54.7392L173.665 55.1441L165.124 56.9012L164.521 55.8215Z" fill="#061D00"/>
<path d="M172.069 71.7629L182.342 68.3715L182.899 70.0593L172.626 73.4506L172.069 71.7629Z" fill="#061D00"/>
<path d="M175.208 83.6708L185.584 82.0024L185.866 83.7572L175.49 85.4255L175.208 83.6708ZM183.728 78.732L185.33 78.4744L186.731 87.1871L185.129 87.4448L183.728 78.732Z" fill="#061D00"/>
<path d="M176.587 96.3587L187.396 96.8231L187.32 98.5988L176.511 98.1344L176.587 96.3587ZM176.292 103.23L187.101 103.694L187.024 105.47L176.216 105.005L176.292 103.23ZM181.322 97.7842L182.943 97.8538L182.683 103.891L181.062 103.821L181.322 97.7842Z" fill="#061D00"/>
<path d="M172.294 123.267L173.804 123.86L172.765 126.507C172.494 127.198 172.406 127.86 172.5 128.495C172.59 129.139 172.842 129.709 173.257 130.203C173.677 130.712 174.237 131.103 174.938 131.378C175.628 131.649 176.295 131.739 176.94 131.649C177.584 131.559 178.158 131.308 178.663 130.898C179.163 130.496 179.547 129.955 179.814 129.274L180.853 126.627L182.364 127.22L181.308 129.911C181.022 130.639 180.627 131.265 180.123 131.787C179.629 132.312 179.062 132.715 178.421 132.994C177.785 133.287 177.11 133.443 176.395 133.461C175.689 133.483 174.976 133.352 174.257 133.07C173.547 132.791 172.936 132.402 172.424 131.902C171.912 131.402 171.516 130.832 171.236 130.191C170.966 129.553 170.824 128.872 170.81 128.147C170.805 127.426 170.944 126.706 171.226 125.986L172.294 123.267ZM172.74 122.131L182.81 126.084L182.161 127.738L172.09 123.785L172.74 122.131Z" fill="#061D00"/>
<path d="M166.007 137.154L175.114 142.995L174.154 144.491L165.048 138.65L166.007 137.154ZM165.348 138.182L166.714 139.058L163.443 144.157L162.077 143.281L165.348 138.182ZM169.342 140.743L170.656 141.586L167.669 146.243L166.355 145.401L169.342 140.743ZM173.088 143.146L174.454 144.022L171.225 149.057L169.859 148.181L173.088 143.146Z" fill="#061D00"/>
<path d="M157.789 149.082L165.442 156.728L164.568 157.603L156.153 155.552L156.721 154.984L158.779 163.397L157.905 164.272L150.252 156.626L151.508 155.369L156.953 160.808L156.592 161.016L155.07 154.777L155.944 153.902L162.185 155.418L161.977 155.779L156.532 150.339L157.789 149.082Z" fill="#061D00"/>
<path d="M139.145 164.603C139.803 164.197 140.492 163.941 141.214 163.835C141.935 163.729 142.643 163.758 143.338 163.922C144.038 164.096 144.687 164.391 145.284 164.81C145.878 165.243 146.378 165.788 146.784 166.445C147.189 167.103 147.45 167.79 147.565 168.506C147.671 169.227 147.646 169.933 147.49 170.622C147.331 171.325 147.044 171.969 146.629 172.552C146.21 173.149 145.672 173.65 145.015 174.056C144.357 174.462 143.672 174.715 142.959 174.816C142.243 174.931 141.535 174.902 140.835 174.728C140.14 174.564 139.496 174.265 138.902 173.833C138.305 173.414 137.804 172.876 137.398 172.219C136.992 171.561 136.733 170.867 136.622 170.137C136.507 169.421 136.532 168.715 136.696 168.021C136.852 167.331 137.139 166.688 137.557 166.091C137.967 165.499 138.496 165.003 139.145 164.603ZM140.064 166.033C139.442 166.417 138.985 166.893 138.693 167.46C138.393 168.033 138.262 168.646 138.302 169.3C138.339 169.967 138.557 170.625 138.958 171.274C139.255 171.756 139.605 172.146 140.006 172.443C140.404 172.755 140.833 172.968 141.292 173.085C141.756 173.21 142.23 173.232 142.713 173.152C143.188 173.077 143.657 172.896 144.122 172.609C144.736 172.231 145.193 171.755 145.493 171.182C145.79 170.624 145.923 170.015 145.892 169.356C145.852 168.703 145.632 168.052 145.232 167.403C144.934 166.921 144.584 166.519 144.18 166.199C143.773 165.893 143.345 165.68 142.895 165.558C142.435 165.442 141.962 165.419 141.473 165.491C140.99 165.571 140.52 165.752 140.064 166.033Z" fill="#061D00"/>
<path d="M124.243 171.826C125.01 171.556 125.762 171.488 126.497 171.623C127.233 171.757 127.886 172.063 128.458 172.539C129.023 173.028 129.441 173.656 129.711 174.424L131.937 180.752L130.26 181.341L128.04 175.029C127.865 174.533 127.611 174.136 127.277 173.839C126.937 173.554 126.551 173.373 126.119 173.296C125.691 173.228 125.254 173.273 124.807 173.43C124.35 173.591 123.981 173.83 123.699 174.147C123.421 174.474 123.243 174.854 123.166 175.285C123.091 175.726 123.14 176.19 123.311 176.676L125.536 183.003L123.86 183.593L121.629 177.251C121.359 176.483 121.293 175.736 121.431 175.011C121.569 174.285 121.877 173.641 122.357 173.079C122.837 172.517 123.465 172.1 124.243 171.826Z" fill="#061D00"/>
<path d="M112.387 175.237L114.246 185.895L112.495 186.2L110.636 175.543L112.387 175.237Z" fill="#061D00"/>
</svg>
