<svg width="318" height="408" viewBox="0 0 318 408" fill="none" xmlns="http://www.w3.org/2000/svg">
<path d="M65.8444 78.1877C69.138 67.7232 72.5182 55.4761 76.8618 43.5598C82.2698 28.7255 90.9427 15.6018 100.378 3.03859C101.701 1.28492 105.009 -0.382587 106.864 0.0773915C108.72 0.53737 110.992 3.45534 111.438 5.62587C117.191 33.6702 126.67 61.0966 126.166 90.2334C126.166 90.4634 126.425 90.6934 126.669 91.1246C129.546 88.2497 132.523 85.5185 135.299 82.6149C151.12 66.0844 170.997 55.778 191.392 46.3197C192.573 45.9273 193.824 45.7873 195.063 45.9086C196.302 46.0299 197.501 46.4099 198.583 47.024C199.662 47.6421 200.166 51.4657 199.317 52.7738C189.853 68.0824 186.862 85.8348 179.756 102.092C170.767 122.619 162.684 143.562 149.697 162.048C135.558 182.172 115.896 193.973 92.395 200.125C87.1874 201.523 82.1911 203.611 77.5381 206.335C76.3761 207.152 75.3938 208.199 74.6517 209.411C73.9097 210.622 73.4235 211.972 73.2233 213.378C69.455 253.44 73.5829 292.624 87.2753 330.615C89.1451 335.79 91.5897 340.778 94.0348 346.427C97.7887 344.185 101.37 342.675 104.175 340.261C120.514 326.202 136.666 311.886 149.697 294.564C156.111 286.041 161.807 276.956 167.66 268.03C168.058 267.411 168.309 266.71 168.394 265.98C168.478 265.25 168.395 264.511 168.15 263.818C161.26 253.986 160.124 242.601 158.887 231.231C156.471 208.836 158.657 186.771 163.82 164.937C163.905 163.919 164.225 162.935 164.755 162.062C166.567 160.165 168.567 157.203 170.609 157.117C172.925 157.002 176.147 159.029 177.527 161.099C179.55 164.494 181.071 168.164 182.043 171.994C184.848 181.079 187.38 190.25 190.055 199.306C190.328 200.24 190.745 201.117 191.249 202.425C207.142 176.551 228.514 156.427 251.167 137.467C252.922 135.903 254.853 134.548 256.92 133.428C261.393 131.171 265.392 133.428 265.55 138.488C265.557 141.561 265.151 144.622 264.342 147.587C261.739 157.807 259.336 168.085 256.086 178.089C252.835 188.094 248.636 197.753 244.825 207.657C245.476 207.508 246.119 207.325 246.752 207.111C256.633 203.489 266.442 199.651 276.409 196.273C286.103 192.995 295.941 190.106 305.764 187.174C309.59 186.038 314.02 183.753 316.954 188.281C319.888 192.809 315.976 195.684 313.459 198.573C303.147 210.388 292.532 221.931 282.392 233.876C255.956 264.968 221.222 273.722 182.345 271.249C178.519 271.005 176.348 271.494 174.334 275.044C158.182 303.333 135.5 325.987 110.935 346.815C107.08 350.064 102.406 352.349 97.7316 355.339C98.7097 357.265 99.5865 359.422 100.809 361.348C108.662 373.882 116.553 386.383 124.483 398.85C124.728 399.224 125.016 399.555 125.275 399.9C126.986 402.3 127.705 404.873 125.102 406.929C122.499 408.984 119.751 407.849 117.91 405.491C115.278 402.171 112.761 398.735 110.373 395.228C74.4165 342.417 59.0413 284.086 63.3274 220.479C63.7445 214.226 64.5935 208.017 65.1688 201.793C65.4261 200.205 65.4013 198.585 65.0964 197.006C61.0117 182.243 55.7911 168.056 45.2916 156.327C31.8437 141.291 20.3375 124.919 12.2112 106.361C3.12124 85.7773 -1.32305 64.3163 0.345356 41.7918C0.632713 38.3188 1.49802 34.918 2.90554 31.7297C4.76092 27.5324 9.32023 26.7132 12.2112 30.2205C25.4002 46.1904 42.6741 57.6324 57.7042 71.5467C60.3794 74.2779 63.6726 76.4915 65.8444 78.1877Z" fill="white" fill-opacity="0.1"/>
</svg>
