<svg width="84" height="84" viewBox="0 0 84 84" fill="none" xmlns="http://www.w3.org/2000/svg">
<path fill-rule="evenodd" clip-rule="evenodd" d="M83.2264 33.1367C83.9656 39.7377 80.6293 46.1653 77.2626 52.0024C74.0389 57.5915 68.6112 61.4438 64.1499 66.211C59.0641 71.6456 56.2296 79.8749 48.981 82.2237C41.7942 84.5524 33.7795 81.3065 26.9122 78.2771C20.7064 75.5396 17.0281 69.6372 11.5738 65.7223C6.18659 61.8556 -1.83489 60.8603 -5.13809 55.2727C-8.43659 49.6931 -4.50986 42.5908 -5.81366 36.3102C-7.40473 28.6458 -15.7886 21.9468 -13.6238 14.3957C-11.5499 7.16139 -2.58552 3.61694 4.51195 0.292508C10.8486 -2.67557 18.3581 -1.43399 25.008 -3.6993C32.3703 -6.20732 37.8274 -13.5677 45.6406 -13.7182C53.4344 -13.8683 61.4133 -10.04 66.5435 -4.49935C71.6018 0.963671 70.2692 9.3866 73.2407 16.0902C75.931 22.1595 82.4926 26.5845 83.2264 33.1367Z" fill="#1FA12E"/>
</svg>
