<svg width="50" height="50" viewBox="0 0 50 50" fill="none" xmlns="http://www.w3.org/2000/svg">
<path fill-rule="evenodd" clip-rule="evenodd" d="M24.9253 0.0247341C28.3527 -0.235915 31.6153 1.608 34.572 3.45672C37.4031 5.2269 39.2953 8.10492 41.6785 10.5C44.3953 13.2304 48.599 14.848 49.68 18.64C50.7519 22.3996 48.9255 26.4847 47.2323 29.9804C45.7021 33.1394 42.5818 34.9328 40.4566 37.6815C38.3576 40.3962 37.6951 44.5263 34.7445 46.1316C31.7981 47.7346 28.1974 45.573 24.9253 46.1315C20.9322 46.813 17.3132 51.0254 13.448 49.7667C9.74489 48.5608 8.07706 43.8594 6.4886 40.1276C5.07042 36.7958 5.85094 32.935 4.80197 29.4542C3.64062 25.6004 -0.0653065 22.6426 0.000875183 18.5991C0.0668922 14.5657 2.1938 10.5098 5.15379 7.9588C8.0723 5.44352 12.4038 6.28795 15.9254 4.87475C19.1138 3.59529 21.5232 0.283459 24.9253 0.0247341Z" fill="#1FA12E" fill-opacity="0.1"/>
</svg>
