<svg width="40" height="40" viewBox="0 0 40 40" fill="none" xmlns="http://www.w3.org/2000/svg">
<path d="M29.1205 19.9201C29.1205 27.3345 24.2149 33.3601 16.8005 33.3601C9.38607 33.3601 4.48047 27.3345 4.48047 19.9201C6.95518 19.9409 9.36226 20.7303 11.3687 22.179C13.3752 23.6277 14.8819 25.6641 15.6805 28.0065V17.6801H10.0805C9.18934 17.6801 8.33471 17.3261 7.70459 16.696C7.07447 16.0658 6.72047 15.2112 6.72047 14.3201V7.60008C6.72047 7.36502 6.79443 7.13591 6.93188 6.94521C7.06932 6.75451 7.26329 6.61189 7.48629 6.53756C7.7093 6.46322 7.95004 6.46094 8.17442 6.53103C8.39879 6.60112 8.59543 6.74003 8.73647 6.92808L12.1637 11.4081L15.8597 4.68808C15.9612 4.5309 16.1005 4.40165 16.2648 4.31216C16.4292 4.22267 16.6133 4.17578 16.8005 4.17578C16.9876 4.17578 17.1717 4.22267 17.3361 4.31216C17.5004 4.40165 17.6397 4.5309 17.7413 4.68808L21.4373 11.4081L24.8645 6.92808C25.0055 6.74003 25.2021 6.60112 25.4265 6.53103C25.6509 6.46094 25.8916 6.46322 26.1146 6.53756C26.3376 6.61189 26.5316 6.75451 26.6691 6.94521C26.8065 7.13591 26.8805 7.36502 26.8805 7.60008V14.3201C26.8805 15.2112 26.5265 16.0658 25.8963 16.696C25.2662 17.3261 24.4116 17.6801 23.5205 17.6801H17.9205V28.0065C18.719 25.6641 20.2257 23.6277 22.2322 22.179C24.2387 20.7303 26.6458 19.9409 29.1205 19.9201Z" fill="#101110"/>
<path d="M34.1641 5.05417L39.9975 10.8875L34.1641 16.72L28.3308 10.8867L34.1641 5.05417Z" fill="#FF9800"/>
<path d="M30 6.66667H38.3333V15H30V6.66667Z" fill="#FF9800"/>
<path d="M34.167 13.3335C35.5477 13.3335 36.667 12.2142 36.667 10.8335C36.667 9.45278 35.5477 8.3335 34.167 8.3335C32.7863 8.3335 31.667 9.45278 31.667 10.8335C31.667 12.2142 32.7863 13.3335 34.167 13.3335Z" fill="#FFEB3B"/>
<path d="M13.75 15L0 35H27.5L13.75 15Z" fill="#2E7D32"/>
<path d="M28 20L16 35H40L28 20Z" fill="#4CAF50"/>
</svg>
