<svg width="86" height="28" viewBox="0 0 86 28" fill="none" xmlns="http://www.w3.org/2000/svg">
<g clip-path="url(#clip0_1477_5795)">
<path d="M83.0801 17.1103L85.459 18.6885C84.6869 19.8201 82.8403 21.7618 79.6476 21.7618C75.683 21.7618 72.7305 18.7093 72.7305 14.8261C72.7305 10.694 75.7143 7.89062 79.3138 7.89062C82.934 7.89062 84.7077 10.7561 85.2816 12.3031L85.5946 13.0923L76.2673 16.9338C76.9768 18.3251 78.0828 19.0311 79.6476 19.0311C81.2127 19.0311 82.2976 18.2628 83.0801 17.1103ZM75.7666 14.6083L81.9952 12.0333C81.6508 11.1716 80.6285 10.5591 79.4076 10.5591C77.8532 10.5591 75.6935 11.9296 75.7666 14.6083Z" fill="#FF302F"/>
<path d="M68.2344 0.820312H71.239V21.1286H68.2344V0.820312Z" fill="#20B15A"/>
<path d="M63.4973 8.43298H66.3977V20.7675C66.3977 25.886 63.3616 27.9936 59.7725 27.9936C56.3922 27.9936 54.3579 25.7303 53.5962 23.8926L56.2566 22.792C56.7364 23.9236 57.8945 25.2631 59.7725 25.2631C62.0782 25.2631 63.4973 23.8406 63.4973 21.1828V20.1861H63.3929C62.7042 21.0166 61.3897 21.7641 59.7204 21.7641C56.2356 21.7641 53.043 18.7428 53.043 14.8495C53.043 10.9351 56.2356 7.88281 59.7204 7.88281C61.3793 7.88281 62.7042 8.61998 63.3929 9.42981H63.4973V8.43298ZM63.7058 14.8495C63.7058 12.3991 62.0678 10.6133 59.9812 10.6133C57.8736 10.6133 56.1 12.3991 56.1 14.8495C56.1 17.2685 57.8736 19.0231 59.9812 19.0231C62.068 19.0336 63.7059 17.2685 63.7059 14.8495" fill="#3686F7"/>
<path d="M36.5481 14.7974C36.5481 18.7947 33.4182 21.7329 29.5787 21.7329C25.7394 21.7329 22.6094 18.7844 22.6094 14.7974C22.6094 10.7794 25.7394 7.85156 29.5787 7.85156C33.4182 7.85156 36.5481 10.7794 36.5481 14.7974ZM33.5016 14.7974C33.5016 12.3057 31.6861 10.5924 29.5787 10.5924C27.4713 10.5924 25.6558 12.3057 25.6558 14.7974C25.6558 17.2684 27.4713 19.0024 29.5787 19.0024C31.6863 19.0024 33.5016 17.2684 33.5016 14.7974Z" fill="#FF302F"/>
<path d="M51.7708 14.8261C51.7708 18.8235 48.6407 21.7616 44.8014 21.7616C40.9619 21.7616 37.832 18.8233 37.832 14.8261C37.832 10.8081 40.9619 7.89062 44.8014 7.89062C48.6407 7.89062 51.7708 10.7978 51.7708 14.8261ZM48.7137 14.8261C48.7137 12.3345 46.8984 10.6211 44.7908 10.6211C42.6833 10.6211 40.8679 12.3345 40.8679 14.8261C40.8679 17.2971 42.6834 19.0311 44.7908 19.0311C46.9088 19.0311 48.7137 17.2868 48.7137 14.8261Z" fill="#FFBA40"/>
<path d="M11.1529 18.7252C6.78134 18.7252 3.35938 15.2159 3.35938 10.8655C3.35938 6.51537 6.78134 3.00604 11.1529 3.00604C13.5109 3.00604 15.2322 3.93004 16.5051 5.11371L18.6023 3.02688C16.8287 1.33454 14.4603 0.046875 11.1529 0.046875C5.16432 0.0470417 0.125 4.90621 0.125 10.8655C0.125 16.8249 5.16432 21.6842 11.1529 21.6842C14.3873 21.6842 16.8287 20.6252 18.7379 18.6525C20.6993 16.7005 21.3044 13.9595 21.3044 11.7377C21.3044 11.042 21.221 10.3257 21.1271 9.79621H11.1529V12.6825H18.2579C18.0493 14.4892 17.4755 15.7247 16.6304 16.5655C15.6079 17.5935 13.9909 18.7252 11.1529 18.7252Z" fill="#3686F7"/>
</g>
<defs>
<clipPath id="clip0_1477_5795">
<rect width="85.75" height="28" fill="white"/>
</clipPath>
</defs>
</svg>
